<svg xmlns="http://www.w3.org/2000/svg" width="17.916" height="18" viewBox="0 0 17.916 18"><defs><style>.a{fill:#040c22;fill-rule:evenodd;}</style></defs><path class="a" d="M369.392,517.268a2.234,2.234,0,0,0-1.681-.764h-2.24a4.479,4.479,0,1,0-8.958,0h-2.239a2.234,2.234,0,0,0-1.68.762,2.267,2.267,0,0,0-.543,1.771l1.12,9.014a2.244,2.244,0,0,0,2.222,1.974h11.2a2.244,2.244,0,0,0,2.227-2l.177-1.6.937-7.375a2.265,2.265,0,0,0-.54-1.776Zm-8.4-3.018a2.247,2.247,0,0,1,2.24,2.254h-4.476a2.247,2.247,0,0,1,2.235-2.253Zm5.6,13.521h-11.2l-1.119-9.014h13.437l-.943,7.412Zm-3.359-6.761a1.127,1.127,0,0,0-1.12,1.127,1.12,1.12,0,1,1-2.239,0,1.122,1.122,0,1,0-2.243,0,3.36,3.36,0,1,0,6.719,0,1.127,1.127,0,0,0-1.117-1.127Z" transform="translate(-352.034 -512.025)"/></svg>