<svg xmlns="http://www.w3.org/2000/svg" width="16.764" height="17.762" viewBox="0 0 16.764 17.762"><defs><style>.a{fill:#040c22;}.b{fill:none;stroke:#040c22;stroke-linecap:round;stroke-miterlimit:10;stroke-width:1.5px;}</style></defs><g transform="translate(1.017 0.381)"><path class="a" d="M116.949,95.557c0-.85,0-1.7,0-2.551,0-.384.1-.463.592-.465.7,0,1.41,0,2.115,0,.442,0,.567.1.61.444a2.023,2.023,0,0,1,0,.251q0,2.335,0,4.671a1.559,1.559,0,0,1-.01.287c-.051.273-.228.4-.585.4q-1.1.007-2.207,0c-.4,0-.516-.1-.518-.414-.006-.874,0-1.749,0-2.623" transform="translate(-106.725 -84.072)"/><path class="a" d="M74.405,110.85c-.008-.367-.2-.513-.642-.515q-1.034-.005-2.068,0c-.353,0-.536.132-.589.406A1.369,1.369,0,0,0,71.1,111q0,1.541,0,3.083a1.239,1.239,0,0,0,.016.292.47.47,0,0,0,.491.367c.766.008,1.532,0,2.3,0a.423.423,0,0,0,.421-.236.9.9,0,0,0,.081-.355c.008-.538,0-1.077,0-1.615,0-.563.008-1.126,0-1.688" transform="translate(-65.099 -100.226)"/><path class="a" d="M29.293,134.707c-.005-.317-.148-.421-.577-.428-.352-.006-.7,0-1.056,0-.337,0-.673,0-1.01,0-.478,0-.576.069-.58.4q-.007.7,0,1.4c0,.3.127.395.55.4q1.056.013,2.112,0c.4,0,.553-.113.559-.406.01-.455.009-.911,0-1.367" transform="translate(-24.218 -121.963)"/><path class="a" d="M119.555,4.435c-.118-.092-.241-.171-.361-.247-.09-.057-.174-.111-.255-.169l-.081-.058a4.676,4.676,0,0,1-.51-.4.315.315,0,0,1-.1-.367c.039-.158.349-.52.725.041l.009.012a.629.629,0,0,0,.863.2.592.592,0,0,0,.174-.885,3.467,3.467,0,0,0-.6-.633c-.029-.025-.058-.048-.087-.07a.786.786,0,0,1-.136-.124V1.252a.6.6,0,1,0-1.2,0v.46a1.156,1.156,0,0,1-.246.2,1.7,1.7,0,0,0-.788,1.4,1.618,1.618,0,0,0,.739,1.364c.453.309.793.556,1.1.8a.377.377,0,0,1,.155.273.347.347,0,0,1-.367.352.432.432,0,0,1-.3-.155.783.783,0,0,1-.052-.073.9.9,0,0,0-.129-.163.65.65,0,0,0-.8-.064.637.637,0,0,0-.186.765,1.52,1.52,0,0,0,.662.759.69.69,0,0,1,.217.181V7.61a.6.6,0,0,0,1.2,0V7.349a.81.81,0,0,1,.2-.145l.043-.025a1.641,1.641,0,0,0,.117-2.744" transform="translate(-106.731 -0.65)"/><path class="b" d="M6,16.9C8.215,15.69,13.856,12.154,15,6" transform="translate(-6 -5.505)"/><line class="b" x2="14.767" transform="translate(0.229 16.631)"/></g></svg>