<svg xmlns="http://www.w3.org/2000/svg" width="719.18" height="207.427" viewBox="0 0 719.18 207.427"><defs><style>.a{fill:#d50d1a;}.b{fill:#de2e20;}.c{fill:#fff;}.d{fill:#262626;}.e{fill:#de4c3c;fill-rule:evenodd;}</style></defs><g transform="translate(-1033.932 -1835)"><g transform="translate(916 -144)"><g transform="translate(-33 1940.932)"><path d="M189.271,26.52l4.184-10.29H208.1L191.886,99.045H177.239V91.2a37.937,37.937,0,0,1-26.15,9.941c-18.13,0-28.593-12.9-28.593-33.3,0-31.045,19.179-53.7,45.505-53.7a21.884,21.884,0,0,1,21.27,12.381m-20.748,5.4c-13.077,0-22.142,12.9-22.142,34.171,0,11.508,4.708,17.247,12.207,17.247,13.249,0,21.791-14.646,21.791-34,0-11.146-4.184-17.409-11.856-17.409Z" transform="translate(147.967 61.728)"/><path d="M266.971,16.283h22.842l-9.766,50.042c-4.36,22.315-20.748,34.867-43.236,34.867s-33.649-13.249-29.293-35.568L217.108,16.3h22.84l-9.59,49.328c-2.439,12.553.873,17.959,9.939,17.959,8.892,0,14.646-5.406,17.085-17.959Z" transform="translate(145.932 61.675)"/><path d="M335.542,96.1l.345-1.918a39.4,39.4,0,0,1-19.355,4.881c-18.127,0-28.766-12.38-28.766-32.253,0-30.513,19.531-52.652,45.505-52.652a23.754,23.754,0,0,1,21.446,11.852l4.36-9.762H373.91l-15.691,80.2c-4.709,24.233-21.622,37.314-50.908,37.314A111.951,111.951,0,0,1,280.8,130.1l2.795-18.834a79.491,79.491,0,0,0,26.5,4.708c15.329-.014,22.829-6.468,25.443-19.875M333.8,31.937c-12.725,0-22.142,12.2-22.142,32.77,0,11.159,4.877,16.557,12.2,16.557,13.252,0,21.794-13.253,21.794-32.253,0-10.81-4.188-17.075-11.856-17.075" transform="translate(144.136 61.727)"/><path d="M395.979,66.273c.344,11.679,4.881,17.085,18.306,17.085A69.915,69.915,0,0,0,439.217,78.3l-4.187,18.13a69.815,69.815,0,0,1-25.454,4.709c-25.458,0-37.485-12.38-37.485-33.995,0-28.42,17.434-53,48.12-53,18.134,0,27.376,9.416,27.376,22.139,0,18.834-15.865,29.461-51.608,29.993M397.72,50.06c22.318-.69,28.944-5.057,28.944-12.032,0-3.66-2.794-6.1-8.02-6.1-9.589.007-17.434,5.923-20.92,18.127Z" transform="translate(141.927 61.727)"/><path d="M387.715,120.058l1.708-4.2H395.4l-6.616,33.806h-5.978v-3.2a15.527,15.527,0,0,1-10.694,4.057c-7.4,0-11.67-5.267-11.67-13.591,0-12.667,7.827-21.918,18.572-21.918a8.928,8.928,0,0,1,8.7,5.05m-8.465,2.2c-5.34,0-9.038,5.267-9.038,13.946,0,4.7,1.918,7.047,4.978,7.047,5.409,0,8.9-5.978,8.9-13.877C384.086,124.826,382.378,122.262,379.25,122.262Z" transform="translate(142.209 59.286)"/><path d="M427.424,128.6c0,12.667-7.831,21.918-18.575,21.918a10.008,10.008,0,0,1-6.758-2.277l-2.845,14.729h-9.314l9.179-47.11h5.978v3.274a15.257,15.257,0,0,1,10.694-4.139c7.372.014,11.642,5.278,11.642,13.6m-18.786,14.66c5.337,0,8.969-5.267,8.969-13.95,0-4.7-1.849-7.043-4.908-7.043-5.409,0-8.9,5.978-8.9,13.877C403.8,140.694,405.506,143.257,408.638,143.257Z" transform="translate(141.495 59.286)"/><path d="M461.919,128.6c0,12.667-7.83,21.918-18.575,21.918a10,10,0,0,1-6.757-2.277l-2.845,14.729h-9.314l9.179-47.11h5.978v3.274a15.251,15.251,0,0,1,10.672-4.139c7.393.014,11.663,5.278,11.663,13.6m-18.789,14.66c5.34,0,8.969-5.267,8.969-13.95,0-4.7-1.852-7.043-4.908-7.043-5.409,0-8.9,5.978-8.9,13.877,0,4.553,1.724,7.117,4.829,7.117Z" transform="translate(140.66 59.286)"/><path class="a" d="M468.363,140.165a4.426,4.426,0,0,1,4.756,4.069,4.228,4.228,0,0,1,.011.484,6.682,6.682,0,0,1-6.9,6.406,4.415,4.415,0,0,1-4.753-4.049,4.347,4.347,0,0,1-.014-.436,6.692,6.692,0,0,1,6.9-6.474" transform="translate(139.764 58.677)"/><path d="M497.774,115.006a23.28,23.28,0,0,1,9.535,1.918l-3.06,6.619a18.332,18.332,0,0,0-7.044-1.279c-5.125,0-10.534,4.767-10.534,13.022,0,5.054,2.7,7.971,6.692,7.971a21.776,21.776,0,0,0,8.75-1.724l-1.848,7.4a22.382,22.382,0,0,1-9.182,1.566c-9.891,0-14.16-5.623-14.16-13.8A20.6,20.6,0,0,1,496.4,115.033q.688-.037,1.374-.027" transform="translate(139.391 59.286)"/><path d="M525.8,115.006c9.679,0,13.663,5.692,13.663,13.519,0,12.17-7.613,21.991-20.566,21.991-9.748,0-13.735-5.623-13.735-13.523-.015-12.1,7.675-21.987,20.638-21.987m-5.478,28.251c5.478,0,9.393-5.695,9.393-13.735,0-4.626-1.994-7.244-5.337-7.244-5.695,0-9.465,5.764-9.465,13.732-.014,4.612,1.98,7.247,5.4,7.247Z" transform="translate(138.707 59.286)"/><path d="M580.826,132.083c1-5.126,1.139-9.893-2.415-9.893-3.273,0-6.4,4.767-7.4,9.962L567.6,149.658h-9.313l3.414-17.434c1-5.122,1.07-10.034-2.487-10.034-2.918,0-6.264,3.773-7.333,9.252l-3.557,18.216h-9.313l6.616-33.8H551.6l.427,4.056A13.878,13.878,0,0,1,562.274,115a8.419,8.419,0,0,1,8.9,5.55A14.006,14.006,0,0,1,581.491,115c9.252,0,10.6,7.4,8.893,16.081l-3.629,18.572h-9.313Z" transform="translate(137.887 59.287)"/><path class="b" d="M71.59,154.982l0-86.466,69.787,53.563-30.317,5.1,16.191,33.005h51.411L89.332,0,0,160.185H107.86l-12.6-25.712Z" transform="translate(150.931 62.069)"/><path class="c" d="M112.832,128.879l30.316-5.1L73.362,70.216l0,86.466,23.673-20.51,12.6,25.712h19.387Z" transform="translate(149.156 60.37)"/><path d="M493.031,17.959a13.109,13.109,0,0,1,3.819,9.691,18.2,18.2,0,0,1-5.5,13.261,18.023,18.023,0,0,1-13.176,5.538,13.47,13.47,0,0,1-9.945-3.858,12.968,12.968,0,0,1-3.905-9.609,18.1,18.1,0,0,1,5.585-13.3,18.01,18.01,0,0,1,13.173-5.538,13.433,13.433,0,0,1,9.945,3.819m-3.692,21.064A15.68,15.68,0,0,0,494,27.821a10.506,10.506,0,0,0-11.079-10.994,14.8,14.8,0,0,0-10.951,4.782,15.566,15.566,0,0,0-4.7,11.2,10.735,10.735,0,0,0,3.064,7.933,10.618,10.618,0,0,0,8.015,3.146,14.883,14.883,0,0,0,10.993-4.868M477.423,21.9h5.329c3.189,0,4.992,1.718,4.992,4.447,0,3.232-1.428,5.12-4.322,5.751v.124l2.6,6.5H483l-2.519-6.421h-1.8v-.461l-1.176,6.881h-3.1Zm2.559,2.728-.84,4.992h2.311q3.268,0,3.27-3.022c-.039-1.3-.878-1.97-2.516-1.97Z" transform="translate(139.695 61.727)"/></g></g><rect class="c" width="136" height="131" transform="translate(1532 1896)"/><g transform="translate(1526 1835)"><path class="d" d="M145.826,7.559c0-4.214,4.14-7.559,9.26-7.559,5.138,0,9.26,3.419,9.26,7.559V40.754c0,4.2-4.14,7.559-9.26,7.559-5.138,0-9.26-3.419-9.26-7.559V7.559ZM72.155,123.7l4.99-4.214-4.99-5.378h22.4V123.7Zm60.382-9.592h22.4l-5.009,5.378,5.009,4.214h-22.4V114.11ZM180.425,61.6l-6.21,18.852,6.783,22.9H169.816l-4.4-17.891v17.891H154.549V61.6h10.868V77.829L170.3,61.6ZM150.169,79.807H139.3V72.562a13.7,13.7,0,0,0-.333-3.955,1.49,1.49,0,0,0-1.516-.776,1.584,1.584,0,0,0-1.682.943,14.476,14.476,0,0,0-.37,4.122v19.37a13.492,13.492,0,0,0,.37,3.974,1.539,1.539,0,0,0,1.608.924,1.518,1.518,0,0,0,1.571-.924,15.555,15.555,0,0,0,.37-4.38V86.608h10.868v1.626c0,4.325-.314,7.393-.906,9.2a9.331,9.331,0,0,1-4.048,4.75,13.787,13.787,0,0,1-7.726,2.033,16.124,16.124,0,0,1-7.873-1.719,8.373,8.373,0,0,1-4.1-4.787,31.578,31.578,0,0,1-1-9.186v-12.2a54.413,54.413,0,0,1,.314-6.765,9.519,9.519,0,0,1,1.848-4.343,10.26,10.26,0,0,1,4.251-3.29,15.436,15.436,0,0,1,6.247-1.2,15.234,15.234,0,0,1,7.91,1.848,8.911,8.911,0,0,1,4.1,4.621,27.984,27.984,0,0,1,.98,8.613v3.992ZM116.309,61.6l6.21,41.752H111.43l-.591-7.485H106.92l-.591,7.485H95.092L100.6,61.6Zm-5.766,26.855q-.776-7.1-1.645-17.577-1.608,12.032-2.033,17.577ZM86.59,61.6V95.018h6.543v8.336H75.722V61.6Zm-40.476,0H56.907a28.342,28.342,0,0,1,7.763.795,7.658,7.658,0,0,1,4.251,3.234c1.09,1.626,1.626,4.232,1.626,7.855,0,2.44-.37,4.14-1.146,5.1-.758.961-2.273,1.7-4.528,2.218,2.514.573,4.214,1.516,5.12,2.828s1.349,3.327,1.349,6.062v3.863a15.6,15.6,0,0,1-.961,6.266,5.249,5.249,0,0,1-3.068,2.791c-1.4.5-4.288.739-8.65.739H46.132V61.6Zm10.868,7.116v9.3C57.443,78,57.794,78,58.053,78q1.553,0,2-.776c.3-.536.425-2.033.425-4.51a7.4,7.4,0,0,0-.351-2.754,1.768,1.768,0,0,0-.924-1,8.487,8.487,0,0,0-2.218-.24Zm0,15.784V96.219c1.5-.055,2.458-.3,2.865-.721s.61-1.5.61-3.179v-3.9q0-2.689-.554-3.271c-.351-.37-1.331-.591-2.92-.647ZM62.4,7.559C62.4,3.345,66.536,0,71.656,0c5.138,0,9.26,3.419,9.26,7.559V40.754c0,4.2-4.14,7.559-9.26,7.559-5.138,0-9.26-3.419-9.26-7.559V7.559Zm-50.272,182.9a4.754,4.754,0,0,0,1.349,3.345,4.627,4.627,0,0,0,3.345,1.349H210.144a4.754,4.754,0,0,0,3.345-1.349,4.627,4.627,0,0,0,1.349-3.345V36.373A4.455,4.455,0,0,0,213.49,33.1a4.58,4.58,0,0,0-3.271-1.349h-29.96c-2.846,0-5.138-4.214-5.138-7.079a5.115,5.115,0,0,1,5.138-5.138h31.9a15.083,15.083,0,0,1,14.952,14.952V192.475a15.083,15.083,0,0,1-14.952,14.952H14.971A15.116,15.116,0,0,1,0,192.475V34.488A14.847,14.847,0,0,1,4.417,23.953a14.968,14.968,0,0,1,10.535-4.417h33.1a5.1,5.1,0,0,1,5.138,5.138c0,2.865-2.273,7.079-5.138,7.079H16.911A4.754,4.754,0,0,0,13.566,33.1a4.627,4.627,0,0,0-1.349,3.345q-.194,76.988-.092,154.013ZM95.813,31.66c-2.846,0-5.138-4.214-5.138-7.079a5.1,5.1,0,0,1,5.138-5.138H130.3a5.115,5.115,0,0,1,5.138,5.138c0,2.846-2.273,7.079-5.138,7.079Z" transform="translate(0)"/><path class="e" d="M95.955,61.14a5.914,5.914,0,1,1-5.914,5.914,5.908,5.908,0,0,1,5.914-5.914Zm75.2,21.9-8.465,28.5v16.172H151.956V111.541l-8.188-28.5h10.664c1.645,8.742,2.606,14.62,2.828,17.632q1-7.153,3.234-17.632Zm-30,0,6.654,44.672H135.951l-.628-8.021h-4.2l-.628,8.021H118.485l5.9-44.672h16.782ZM135.008,111.8q-.832-7.6-1.756-18.815c-1.146,8.576-1.867,14.86-2.181,18.815Zm-45.1-28.759H98.6q8.4,0,11.367.776a8.731,8.731,0,0,1,4.51,2.551,7.825,7.825,0,0,1,1.922,3.918,59.416,59.416,0,0,1,.388,8.52v15.636a35.452,35.452,0,0,1-.573,8.04,6.078,6.078,0,0,1-1.959,3.179,8.394,8.394,0,0,1-3.475,1.608,31.787,31.787,0,0,1-6.229.462H89.911V83.042Zm11.644,7.633V120.1q2.467,0,3.05-1c.388-.684.573-2.5.573-5.489V96.238a26.265,26.265,0,0,0-.185-3.9,1.8,1.8,0,0,0-.869-1.257,5.591,5.591,0,0,0-2.569-.407ZM85.272,83.042v44.672H73.647V83.042Zm-42.047,0h8.225a62.844,62.844,0,0,1,11.126.628,7.741,7.741,0,0,1,4.75,3.253q1.83,2.606,1.83,8.317c0,3.475-.425,5.8-1.294,7-.85,1.2-2.569,1.9-5.1,2.144,2.292.573,3.844,1.331,4.639,2.292a6.589,6.589,0,0,1,1.46,2.643,39.987,39.987,0,0,1,.3,6.6v11.792H58.362v-14.86c0-2.384-.185-3.863-.573-4.436-.37-.573-1.349-.85-2.939-.85v20.164H43.225V83.042Zm11.644,7.633v9.943a5.084,5.084,0,0,0,2.717-.536q.776-.527.776-3.493V94.131A3.758,3.758,0,0,0,57.6,91.34a4.113,4.113,0,0,0-2.735-.665ZM20.75,83.042H40.4v8.927H32.375v8.52h7.116v8.465H32.375v18.76H20.75V83.042Z" transform="translate(17.601 51.861)"/></g></g></svg>