<svg xmlns="http://www.w3.org/2000/svg" width="14.201" height="16.485" viewBox="0 0 14.201 16.485"><defs><style>.a{fill:none;}.a,.b{stroke:#fff;stroke-linecap:round;stroke-linejoin:round;stroke-miterlimit:10;stroke-width:1.5px;}.b{fill:rgba(255,255,255,0.56);}</style></defs><g transform="translate(0.751 0.75)"><path class="a" d="M.813,0H12.4l.293,4.754.26,4.207a2.606,2.606,0,0,1-2.6,2.767H2.861a2.606,2.606,0,0,1-2.6-2.767Z" transform="translate(-0.254 3.258)"/><path class="b" d="M.34,0H12.922l.01.13a2.606,2.606,0,0,1-2.6,2.8h-7.4A2.606,2.606,0,0,1,.33.124Z" transform="translate(-0.278 12.053)"/><path class="a" d="M0,4.235V3.258a3.258,3.258,0,1,1,6.515,0v.977" transform="translate(3.092 0)"/></g></svg>