<svg xmlns="http://www.w3.org/2000/svg" width="25.061" height="25.064" viewBox="0 0 25.061 25.064"><defs><style>.a{fill:#ff6f6f;}</style></defs><path class="a" d="M24.717,8.555,22.779,6.617a1.17,1.17,0,0,0-1.659,0L9.4,18.34,3.944,12.882a1.17,1.17,0,0,0-1.659,0L.342,14.825a1.176,1.176,0,0,0,0,1.664l8.223,8.228a1.17,1.17,0,0,0,1.659,0l14.488-14.5A1.18,1.18,0,0,0,24.717,8.555ZM8.844,13.744a.777.777,0,0,0,1.106,0L20.131,3.553a.786.786,0,0,0,0-1.106L17.918.23a.777.777,0,0,0-1.106,0L9.4,7.645,6.685,4.928a.777.777,0,0,0-1.106,0L3.362,7.146a.786.786,0,0,0,0,1.106Z" transform="translate(0.004 0.002)"/></svg>