<svg xmlns="http://www.w3.org/2000/svg" width="13.207" height="14.863" viewBox="0 0 13.207 14.863"><defs><style>.a{fill:#272e47;}</style></defs><path class="a" d="M251.688,307.41a.825.825,0,1,0,.825.825A.825.825,0,0,0,251.688,307.41Zm-2.336,0a2.477,2.477,0,0,1,4.672,0h5.918a.825.825,0,1,1,0,1.651h-5.918a2.477,2.477,0,0,1-4.672,0h-.966a.825.825,0,0,1,0-1.651Zm7.289,4.953a.825.825,0,1,0,.825.826A.825.825,0,0,0,256.641,312.362Zm-2.336,0a2.477,2.477,0,0,1,4.672,0h.966a.825.825,0,1,1,0,1.651h-.966a2.477,2.477,0,0,1-4.672,0h-5.918a.825.825,0,0,1,0-1.651Zm-2.617,4.953a.825.825,0,1,0,.825.825A.825.825,0,0,0,251.688,317.315Zm-2.336,0a2.477,2.477,0,0,1,4.672,0h5.918a.825.825,0,1,1,0,1.651h-5.918a2.477,2.477,0,0,1-4.672,0h-.966a.825.825,0,0,1,0-1.651Z" transform="translate(-247.561 -305.756)"/></svg>