<svg xmlns="http://www.w3.org/2000/svg" xmlns:xlink="http://www.w3.org/1999/xlink" width="96" height="96" viewBox="0 0 96 96"><defs><style>.a{fill:#fdfdfd;}.b{fill:#004989;}.c{filter:url(#a);}</style><filter id="a" x="0" y="0" width="96" height="96" filterUnits="userSpaceOnUse"><feOffset input="SourceAlpha"/><feGaussianBlur stdDeviation="10" result="b"/><feFlood flood-opacity="0.161"/><feComposite operator="in" in2="b"/><feComposite in="SourceGraphic"/></filter></defs><g transform="translate(-1153 14)"><g class="c" transform="matrix(1, 0, 0, 1, 1153, -14)"><circle class="a" cx="18" cy="18" r="18" transform="translate(30 30)"/></g><path class="b" d="M19.663,6.591A2.389,2.389,0,0,0,17.982,4.9a56.449,56.449,0,0,0-7.427-.4,56.449,56.449,0,0,0-7.427.4A2.389,2.389,0,0,0,1.447,6.591a25.058,25.058,0,0,0-.4,4.605,25.058,25.058,0,0,0,.4,4.605,2.353,2.353,0,0,0,1.681,1.665,56.45,56.45,0,0,0,7.427.4,56.449,56.449,0,0,0,7.427-.4A2.353,2.353,0,0,0,19.663,15.8a25.058,25.058,0,0,0,.4-4.605,25.058,25.058,0,0,0-.4-4.605ZM8.611,14.023V8.37L13.579,11.2,8.611,14.023Z" transform="translate(1190.95 22.5)"/></g></svg>