<svg xmlns="http://www.w3.org/2000/svg" width="27.036" height="20.277" viewBox="0 0 27.036 20.277"><defs><style>.a{fill:#35363a;}</style></defs><path class="a" d="M2.571,5.784H5.95v16.9H2.571Zm5.069,0H9.33v16.9H7.64Zm3.379,0h1.69v16.9h-1.69Zm5.069,0h1.69v16.9h-1.69Zm6.759,0h1.69v16.9h-1.69Zm5.069,0h1.69v16.9h-1.69Zm-8.449,0h.845v16.9h-.845Zm-5.069,0h.845v16.9H14.4Zm10.983,0h.845v16.9h-.845ZM2.571,24.371H4.26v1.69H2.571Zm5.069,0H9.33v1.69H7.64Zm3.379,0h1.69v1.69h-1.69Zm8.449,0h1.69v1.69h-1.69Zm8.449,0h1.69v1.69h-1.69Zm-5.069,0h3.379v1.69H22.848Zm-8.449,0h3.379v1.69H14.4Z" transform="translate(-2.571 -5.784)"/></svg>