<svg xmlns="http://www.w3.org/2000/svg" width="48.968" height="48.775" viewBox="0 0 48.968 48.775">
    <g transform="translate(-1364 -365)">
        <path
            fill="currentColor"
            d="M48.45,23.8a1.914,1.914,0,0,0-.086-2.7,1.812,1.812,0,0,0-.179-.149l-1.854-1.358a1.915,1.915,0,0,1-.643-2.262l.861-2.131a1.914,1.914,0,0,0-1.278-2.566l-2.219-.6a1.913,1.913,0,0,1-1.417-1.876l.033-2.3a1.915,1.915,0,0,0-1.893-1.937,1.883,1.883,0,0,0-.225.011l-2.286.245a1.915,1.915,0,0,1-2-1.238l-.8-2.154A1.915,1.915,0,0,0,32,1.65a1.878,1.878,0,0,0-.211.093L29.753,2.8a1.914,1.914,0,0,1-2.311-.432L25.918.645a1.914,1.914,0,0,0-2.7-.164,1.813,1.813,0,0,0-.164.164L21.528,2.366a1.914,1.914,0,0,1-2.312.433L17.174,1.743a1.914,1.914,0,0,0-2.579.821,1.952,1.952,0,0,0-.1.215l-.8,2.155a1.915,1.915,0,0,1-2,1.238L9.418,5.927a1.913,1.913,0,0,0-2.107,1.7,1.794,1.794,0,0,0-.011.232l.033,2.3a1.913,1.913,0,0,1-1.417,1.876l-2.219.6a1.913,1.913,0,0,0-1.35,2.346,1.939,1.939,0,0,0,.073.219l.861,2.131a1.915,1.915,0,0,1-.643,2.261L.783,20.945A1.914,1.914,0,0,0,.37,23.62a1.963,1.963,0,0,0,.149.179l1.572,1.675a1.913,1.913,0,0,1,.217,2.341L1.07,29.752A1.915,1.915,0,0,0,1.651,32.4a2.03,2.03,0,0,0,.2.113l2.072,1a1.913,1.913,0,0,1,1.048,2.1L4.52,37.857a1.914,1.914,0,0,0,1.5,2.255,1.988,1.988,0,0,0,.23.032l2.291.179a1.914,1.914,0,0,1,1.737,1.584l.39,2.265a1.914,1.914,0,0,0,2.208,1.566,1.967,1.967,0,0,0,.227-.053l2.2-.661a1.914,1.914,0,0,1,2.192.849l1.181,1.971a1.913,1.913,0,0,0,2.817.527L23.3,46.96a1.914,1.914,0,0,1,2.351,0l1.814,1.411a1.914,1.914,0,0,0,2.686-.334,1.936,1.936,0,0,0,.132-.193l1.181-1.971a1.916,1.916,0,0,1,2.192-.849l2.2.661A1.915,1.915,0,0,0,38.246,44.4a1.743,1.743,0,0,0,.054-.227l.39-2.265a1.914,1.914,0,0,1,1.737-1.584l2.291-.179a1.914,1.914,0,0,0,1.759-2.057,1.988,1.988,0,0,0-.032-.23l-.455-2.253a1.914,1.914,0,0,1,1.048-2.1l2.072-.995a1.914,1.914,0,0,0,.9-2.553,1.85,1.85,0,0,0-.113-.2L46.66,27.816a1.913,1.913,0,0,1,.217-2.341Z"
            transform="translate(1364 365)"
            />
        <path
            fill="#fff"
            d="M13.32,1.928a10.75,10.75,0,1,0,10.75,10.75A10.75,10.75,0,0,0,13.32,1.928Zm0,19.483a8.734,8.734,0,1,1,8.734-8.734A8.734,8.734,0,0,1,13.32,21.412ZM16.679,7.3,13.32,10.662,9.961,7.3,7.945,9.318,11.3,12.678,7.945,16.037l2.016,2.016,3.359-3.359,3.359,3.359,2.016-2.016-3.359-3.359,3.359-3.359Z"
            transform="translate(1375.164 377.07)"
        />
    </g>
</svg>
