<svg xmlns="http://www.w3.org/2000/svg" width="22.72" height="22.72" viewBox="0 0 22.72 22.72"><defs><style>.a{fill:#fafafa;}</style></defs><path class="a" d="M19.317,5.552A11.262,11.262,0,0,0,1.6,19.138L0,24.97,5.969,23.4a11.224,11.224,0,0,0,5.381,1.369h.005A11.367,11.367,0,0,0,22.72,13.514a11.3,11.3,0,0,0-3.4-7.962ZM11.355,22.876a9.341,9.341,0,0,1-4.767-1.3l-.34-.2-3.54.928.943-3.454-.223-.355a9.376,9.376,0,1,1,17.39-4.975A9.462,9.462,0,0,1,11.355,22.876Zm5.132-7.009c-.279-.142-1.663-.822-1.922-.913s-.446-.142-.634.142-.725.913-.893,1.106-.33.213-.609.071A7.658,7.658,0,0,1,8.6,12.925c-.289-.5.289-.462.827-1.537A.521.521,0,0,0,9.4,10.9c-.071-.142-.634-1.527-.867-2.089-.228-.548-.462-.472-.634-.482s-.35-.01-.538-.01a1.042,1.042,0,0,0-.751.35,3.161,3.161,0,0,0-.984,2.348,5.511,5.511,0,0,0,1.146,2.911,12.571,12.571,0,0,0,4.808,4.25c1.785.771,2.485.837,3.378.7a2.881,2.881,0,0,0,1.9-1.339A2.353,2.353,0,0,0,17.02,16.2C16.954,16.075,16.766,16,16.487,15.867Z" transform="translate(0 -2.25)"/></svg>