<svg xmlns="http://www.w3.org/2000/svg" width="16.716" height="20.264" viewBox="0 0 16.716 20.264"><defs><style>.a{fill:none;stroke:#fff;stroke-linejoin:round;stroke-miterlimit:10;stroke-width:1.8px;}</style></defs><g transform="translate(-592.642 -313.457)"><path class="a" d="M0,9.821A14.865,14.865,0,0,1,3.757,6.848a10.908,10.908,0,0,1,4.487-.72V7.857l4.6-3.289a.786.786,0,0,0,0-1.279L8.243,0V1.964A9.93,9.93,0,0,0,2.48,3.929C.218,5.893,0,9.821,0,9.821Z" transform="translate(593.542 314.357)"/><path class="a" d="M0,9.821A14.865,14.865,0,0,1,3.757,6.848a10.908,10.908,0,0,1,4.487-.72V7.857l4.6-3.289a.786.786,0,0,0,0-1.279L8.243,0V1.964A9.93,9.93,0,0,0,2.48,3.929C.218,5.893,0,9.821,0,9.821Z" transform="translate(608.458 332.821) rotate(180)"/></g></svg>