<svg xmlns="http://www.w3.org/2000/svg" width="19.2" height="19.395" viewBox="0 0 19.2 19.395"><defs><style>.a,.b{fill:#000;}.b{stroke-linecap:round;stroke-linejoin:round;}.c,.d{stroke:none;}.d{fill:#fff;}</style></defs><g transform="translate(-834 -801)"><path class="a" d="M20.25,9.732a1.565,1.565,0,0,0-.814-1.378L11.25,4.5,3.064,8.354A1.655,1.655,0,0,0,2.25,9.732v7.74a1.675,1.675,0,0,0,1.714,1.622H18.536a1.675,1.675,0,0,0,1.714-1.622Zm-9,3.889L4.365,9.365,11.25,6.122l6.885,3.243Z" transform="translate(831.75 796.5)"/><g class="b" transform="translate(826.098 793.297)"><path class="c" d="M 23.62193870544434 26.4976634979248 L 23.41880798339844 26.4976634979248 L 23.18727874755859 26.4976634979248 L 22.98982810974121 26.4976634979248 L 22.83096885681152 26.38041305541992 C 22.79986953735352 26.35745429992676 22.76760864257812 26.33571434020996 22.73542785644531 26.3138542175293 C 22.64073944091797 26.24950408935547 22.52288818359375 26.16941452026367 22.41316795349121 26.06063461303711 C 21.61532592773438 25.26949501037598 20.82444190979004 24.47761535644531 20.05482292175293 23.70621109008789 C 19.72196578979492 24.04122734069824 19.41192626953125 24.35086631774902 19.11393928527832 24.64590454101562 C 18.87726783752441 24.8802433013916 18.58211898803711 25.00930404663086 18.28283882141113 25.00933456420898 C 17.81388854980469 25.00936317443848 17.40526962280273 24.69306373596191 17.24181938171387 24.20352363586426 C 16.78278923034668 22.82844352722168 16.32452964782715 21.45312309265137 15.8662691116333 20.07780456542969 C 15.40139865875244 18.68265342712402 14.9365291595459 17.2874927520752 14.47086906433105 15.89260387420654 C 14.26694869995117 15.28202342987061 14.54583835601807 14.88928413391113 14.73022842407227 14.70953369140625 C 14.93813896179199 14.50690364837646 15.19793891906738 14.39982414245605 15.48158836364746 14.39982414245605 C 15.61328887939453 14.39982414245605 15.75073909759521 14.4234037399292 15.89010906219482 14.46990394592285 C 17.25830841064453 14.92631340026855 18.62679862976074 15.38191413879395 19.99528884887695 15.83750343322754 C 21.39715957641602 16.30421447753906 22.79903793334961 16.77093315124512 24.20062828063965 17.23852348327637 C 24.60870933532715 17.37467384338379 24.89373779296875 17.66702461242676 24.9826488494873 18.04060363769531 C 25.0723991394043 18.41767311096191 24.94725799560547 18.81195449829102 24.63931846618652 19.12233352661133 C 24.34997940063477 19.41398239135742 24.04347991943359 19.720703125 23.70892524719238 20.05338668823242 L 24.5991096496582 20.94362449645996 C 25.10158920288086 21.44606399536133 25.60406875610352 21.9485034942627 26.10639953613281 22.45110321044922 C 26.62813949584961 22.97318458557129 26.62965965270996 23.62029457092285 26.11040878295898 24.13992309570312 L 25.72879791259766 24.5220832824707 C 25.22932815551758 25.02242279052734 24.71284866333008 25.53980445861816 24.20054817199707 26.04580307006836 C 24.09296798706055 26.15205383300781 23.98181915283203 26.23124313354492 23.88374900817871 26.30112457275391 C 23.8499584197998 26.32519340515137 23.81609916687012 26.34918403625488 23.78328895568848 26.37426376342773 L 23.62193870544434 26.4976634979248 Z"/><path class="d" d="M 23.41880798339844 25.89766311645508 C 23.53948783874512 25.80537414550781 23.67170906066895 25.72480392456055 23.7789192199707 25.61892318725586 C 24.4178581237793 24.98783302307129 25.05123901367188 24.35110282897949 25.68598937988281 23.7158145904541 C 25.97440910339355 23.42718315124512 25.97325897216797 23.16668319702148 25.6820182800293 22.87525367736816 C 24.78618812561035 21.97894287109375 23.88987922668457 21.0831241607666 22.99396896362305 20.18694305419922 C 22.95231819152832 20.14524459838867 22.91255950927734 20.10164451599121 22.83918952941895 20.02451324462891 C 22.89775848388672 19.98440361022949 22.95460891723633 19.95674324035645 22.99714851379395 19.91456413269043 C 23.40409851074219 19.51115417480469 23.80979919433594 19.10655403137207 24.21337890625 18.69975280761719 C 24.54203796386719 18.36848449707031 24.45019912719727 17.95430374145508 24.0107479095459 17.80768394470215 C 21.24093818664551 16.88363456726074 18.47002792358398 15.9630241394043 15.70021915435791 15.03906345367432 C 15.49352645874023 14.97010231018066 15.30697917938232 14.98525238037109 15.14905834197998 15.13916397094727 C 14.98560905456543 15.29850387573242 14.96890830993652 15.48977375030518 15.03998851776123 15.70261383056641 C 15.96469879150391 18.47256278991699 16.88627815246582 21.24356460571289 17.81093788146973 24.01351356506348 C 17.95477104187012 24.44430351257324 18.36859703063965 24.53954696655273 18.6917896270752 24.21954345703125 C 19.10287857055664 23.81251335144043 19.51140785217285 23.40288352966309 19.91834831237793 22.99170303344727 C 19.96035957336426 22.94929313659668 19.98416900634766 22.8889045715332 20.01640892028809 22.83687400817871 C 20.04004859924316 22.84018325805664 20.06367874145508 22.84353446960449 20.08730888366699 22.84685325622559 C 20.12207794189453 22.89646339416504 20.15043830871582 22.95247459411621 20.19257926940918 22.99475288391113 C 21.07196807861328 23.87630271911621 21.95144844055176 24.75781440734863 22.83560943603516 25.63455390930176 C 22.93857955932617 25.73664283752441 23.06937789916992 25.81064414978027 23.18727874755859 25.89766311645508 L 23.41880798339844 25.89766311645508 M 23.41880798339844 27.09766387939453 L 23.18727874755859 27.09766387939453 C 22.93077850341797 27.09766387939453 22.68103790283203 27.01547431945801 22.47465896606445 26.8631534576416 C 22.44980812072754 26.84481430053711 22.42391777038574 26.82758331298828 22.3981990814209 26.81011390686035 C 22.28914833068848 26.73600387573242 22.13980865478516 26.63452339172363 21.9907283782959 26.48671340942383 C 21.33804130554199 25.83950233459473 20.69027328491211 25.19208335876465 20.05507278442383 24.55585479736328 C 19.87699508666992 24.7338924407959 19.70462799072266 24.9054069519043 19.53609848022461 25.07227325439453 C 19.18633842468262 25.4185733795166 18.74127960205078 25.60930442810059 18.28288841247559 25.60933303833008 C 17.55133819580078 25.60937309265137 16.91931915283203 25.13214302062988 16.67270851135254 24.39355278015137 C 16.2136287689209 23.01832389831543 15.75533866882324 21.64290428161621 15.29703903198242 20.2674732208252 C 14.83220863342285 18.87243461608887 14.36736869812012 17.47738456726074 13.9017391204834 16.08260345458984 C 13.67706871032715 15.40984344482422 13.82636833190918 14.7527437210083 14.31139850616455 14.27990341186523 C 14.62908840179443 13.97028350830078 15.04462909698486 13.79982376098633 15.48158836364746 13.79982376098633 C 15.677978515625 13.79982376098633 15.87932872772217 13.83378410339355 16.08004951477051 13.90076351165771 C 17.44805908203125 14.35710334777832 18.81643867492676 14.81266403198242 20.18481826782227 15.26822376251221 C 21.5868091583252 15.7349739074707 22.98879814147949 16.20172309875488 24.3905086517334 16.66936302185059 C 24.99080848693848 16.86964416503906 25.43035888671875 17.33032417297363 25.56634902954102 17.90167427062988 C 25.70315933227539 18.47647285461426 25.51582908630371 19.09076309204102 25.06525802612305 19.54492378234863 C 24.90226173400879 19.7092170715332 24.73382377624512 19.8782958984375 24.55807113647461 20.05402755737305 L 25.02335929870605 20.51934432983398 C 25.52587890625 21.02182388305664 26.02839851379395 21.52431297302246 26.5307788848877 22.02695274353027 C 27.29023933410645 22.78691291809082 27.29183959960938 23.80646324157715 26.53482818603516 24.56403350830078 L 26.15342903137207 24.94597434997559 C 25.65321922302246 25.44705390930176 25.13598823547363 25.9651927947998 24.62218856811523 26.47268295288086 C 24.4803295135498 26.61277389526367 24.33674812316895 26.71507453918457 24.23191833496094 26.78977394104004 C 24.20363807678223 26.80992317199707 24.17522811889648 26.82988357543945 24.14777946472168 26.85087394714355 C 23.93846893310547 27.01093292236328 23.68229866027832 27.09766387939453 23.41880798339844 27.09766387939453 Z"/></g></g></svg>
