<svg xmlns="http://www.w3.org/2000/svg" width="24.783" height="24.827" viewBox="0 0 24.783 24.827"><defs><style>.a{fill:none;stroke:#fafafa;stroke-linecap:round;stroke-linejoin:round;stroke-width:2px;}</style></defs><path class="a" d="M17.214,5.843A5.428,5.428,0,0,1,21.5,10.131M17.214,1.5a9.771,9.771,0,0,1,8.631,8.62m-1.086,8.663V22.04a2.171,2.171,0,0,1-2.367,2.171,21.485,21.485,0,0,1-9.369-3.333A21.17,21.17,0,0,1,6.51,14.365,21.485,21.485,0,0,1,3.177,4.952a2.171,2.171,0,0,1,2.16-2.367H8.594a2.171,2.171,0,0,1,2.171,1.867,13.939,13.939,0,0,0,.76,3.051,2.171,2.171,0,0,1-.489,2.291L9.658,11.173a17.37,17.37,0,0,0,6.514,6.514l1.379-1.379a2.171,2.171,0,0,1,2.291-.489,13.939,13.939,0,0,0,3.051.76A2.171,2.171,0,0,1,24.759,18.783Z" transform="translate(-2.167 -0.396)"/></svg>