<svg xmlns="http://www.w3.org/2000/svg" width="207.052" height="48.483" viewBox="0 0 207.052 48.483"><defs><style>.a{fill:#005cac;}.b{fill:#f03f39;}.c{fill:#fff;}.d{fill:#cfa74b;}</style></defs><g transform="translate(0 -5.618)"><path class="a" d="M415.325,690.425l1.154-2.836h4.036l-4.469,22.826h-4.037v-2.163a10.459,10.459,0,0,1-7.208,2.74c-5,0-7.881-3.556-7.881-9.179,0-8.557,5.287-14.8,12.543-14.8A6.029,6.029,0,0,1,415.325,690.425Zm-5.719,1.49c-3.6,0-6.1,3.556-6.1,9.418,0,3.172,1.3,4.754,3.365,4.754,3.652,0,6.006-4.037,6.006-9.371,0-3.072-1.153-4.8-3.268-4.8Z" transform="translate(-363.609 -675.425)"/><path class="a" d="M436.18,687.589h6.3l-2.691,13.793c-1.2,6.15-5.719,9.61-11.917,9.61s-9.275-3.652-8.074-9.8l2.643-13.6h6.295l-2.643,13.6c-.672,3.459.24,4.949,2.739,4.949,2.451,0,4.037-1.49,4.709-4.949Z" transform="translate(-363.361 -675.425)"/><path class="a" d="M454.585,709.6l.1-.529a10.855,10.855,0,0,1-5.334,1.345c-5,0-7.929-3.412-7.929-8.889,0-8.411,5.383-14.513,12.543-14.513a6.551,6.551,0,0,1,5.911,3.267l1.2-2.691h4.089L460.836,709.7c-1.3,6.679-5.96,10.284-14.032,10.284a30.872,30.872,0,0,1-7.306-1.009l.771-5.191a21.89,21.89,0,0,0,7.3,1.3C451.8,715.076,453.865,713.3,454.585,709.6Zm-.48-17.684c-3.507,0-6.1,3.362-6.1,9.032,0,3.076,1.344,4.563,3.364,4.563,3.653,0,6.007-3.652,6.007-8.889C457.373,693.644,456.219,691.918,454.105,691.918Z" transform="translate(-363.128 -675.425)"/><path class="a" d="M470.634,701.381c.1,3.22,1.345,4.71,5.046,4.71a19.28,19.28,0,0,0,6.872-1.394l-1.154,5a19.257,19.257,0,0,1-7.016,1.3c-7.017,0-10.332-3.413-10.332-9.37,0-7.833,4.805-14.61,13.263-14.61,5,0,7.546,2.6,7.546,6.1C484.86,698.306,480.486,701.235,470.634,701.381Zm.48-4.468c6.152-.19,7.978-1.394,7.978-3.316,0-1.009-.77-1.681-2.21-1.681-2.643,0-4.806,1.632-5.767,5Z" transform="translate(-362.882 -675.425)"/><path class="a" d="M468.434,715.534l.471-1.158h1.647l-1.823,9.317h-1.648v-.882a4.278,4.278,0,0,1-2.947,1.118c-2.04,0-3.217-1.452-3.217-3.746,0-3.491,2.158-6.041,5.119-6.041A2.459,2.459,0,0,1,468.434,715.534Zm-2.333.607c-1.472,0-2.491,1.452-2.491,3.844,0,1.3.528,1.943,1.372,1.943,1.491,0,2.452-1.648,2.452-3.825,0-1.255-.471-1.962-1.333-1.962Z" transform="translate(-362.977 -675.425)"/><path class="a" d="M479.182,717.887c0,3.491-2.158,6.041-5.119,6.041a2.757,2.757,0,0,1-1.863-.628l-.784,4.06h-2.567l2.53-12.984h1.647v.9a4.208,4.208,0,0,1,2.948-1.141C478.005,714.141,479.182,715.592,479.182,717.887Zm-5.177,4.041c1.47,0,2.472-1.452,2.472-3.845,0-1.295-.51-1.942-1.353-1.942-1.491,0-2.452,1.648-2.452,3.825,0,1.255.469,1.962,1.333,1.962Z" transform="translate(-362.892 -675.425)"/><path class="a" d="M488.46,717.887c0,3.491-2.158,6.041-5.12,6.041a2.752,2.752,0,0,1-1.862-.628l-.785,4.06h-2.567l2.53-12.984H482.3v.9a4.2,4.2,0,0,1,2.941-1.141C487.283,714.141,488.46,715.592,488.46,717.887Zm-5.179,4.041c1.472,0,2.472-1.452,2.472-3.845,0-1.295-.51-1.942-1.353-1.942-1.49,0-2.452,1.648-2.452,3.825,0,1.255.476,1.962,1.331,1.962Z" transform="translate(-362.796 -675.425)"/><path class="b" d="M489.989,720.907a1.221,1.221,0,0,1,1.311,1.122c0,.044,0,.089,0,.133a1.842,1.842,0,0,1-1.9,1.766,1.217,1.217,0,0,1-1.31-1.116c0-.04,0-.08,0-.12A1.845,1.845,0,0,1,489.989,720.907Z" transform="translate(-362.738 -675.425)"/><path class="a" d="M497.992,714.141a6.415,6.415,0,0,1,2.628.528l-.843,1.825a5.055,5.055,0,0,0-1.941-.353c-1.413,0-2.9,1.314-2.9,3.589,0,1.393.745,2.2,1.844,2.2a6.02,6.02,0,0,0,2.413-.476l-.51,2.041a6.167,6.167,0,0,1-2.531.431c-2.726,0-3.9-1.55-3.9-3.8a5.679,5.679,0,0,1,5.369-5.973C497.74,714.142,497.866,714.139,497.992,714.141Z" transform="translate(-362.663 -675.425)"/><path class="a" d="M505.527,714.141c2.668,0,3.766,1.569,3.766,3.726,0,3.354-2.1,6.061-5.668,6.061-2.687,0-3.786-1.55-3.786-3.727C499.835,716.867,501.954,714.141,505.527,714.141Zm-1.51,7.787c1.51,0,2.589-1.57,2.589-3.786,0-1.275-.549-2-1.47-2-1.57,0-2.609,1.589-2.609,3.785,0,1.271.545,2,1.487,2Z" transform="translate(-362.578 -675.425)"/><path class="a" d="M520.47,718.848c.274-1.413.313-2.727-.666-2.727-.9,0-1.765,1.314-2.039,2.746l-.942,4.825h-2.567l.942-4.8c.274-1.412.294-2.766-.686-2.766-.8,0-1.727,1.04-2.021,2.55l-.981,5.021h-2.567l1.824-9.317h1.648l.117,1.118a3.827,3.827,0,0,1,2.824-1.353,2.321,2.321,0,0,1,2.452,1.53,3.86,3.86,0,0,1,2.845-1.53c2.55,0,2.922,2.039,2.451,4.432l-1,5.119h-2.567Z" transform="translate(-362.446 -675.425)"/><g transform="translate(0 7.784)"><path class="b" d="M383.706,725.926V702.094l19.235,14.763-8.356,1.406,4.463,9.1h14.17L388.6,683.209,363.974,727.36H393.7l-3.472-7.087Z" transform="translate(-363.974 -683.209)"/><path class="c" d="M394.584,718.263l8.356-1.406-19.235-14.763v23.832l6.525-5.653,3.472,7.087h5.344Z" transform="translate(-363.974 -683.209)"/></g><g transform="translate(126.164 11.587)"><path class="a" d="M496.769,688.065a3.614,3.614,0,0,1,1.053,2.671,5.193,5.193,0,0,1-5.147,5.182,3.714,3.714,0,0,1-2.741-1.064,3.572,3.572,0,0,1-1.076-2.648,5.235,5.235,0,0,1,5.17-5.194A3.7,3.7,0,0,1,496.769,688.065Zm-1.018,5.806a4.321,4.321,0,0,0,1.285-3.088,2.895,2.895,0,0,0-3.054-3.03,4.08,4.08,0,0,0-3.019,1.318,4.291,4.291,0,0,0-1.3,3.088,2.961,2.961,0,0,0,.844,2.187,2.927,2.927,0,0,0,2.209.867A4.1,4.1,0,0,0,495.751,693.871Zm-3.284-4.719h1.469c.879,0,1.376.474,1.376,1.226a1.427,1.427,0,0,1-1.191,1.585V692l.717,1.793h-.833l-.694-1.77h-.5v-.127l-.324,1.9h-.856Zm.7.752-.231,1.376h.637q.9,0,.9-.833c-.011-.358-.242-.543-.693-.543Z" transform="translate(-488.858 -687.012)"/></g><g transform="translate(158.569 5.618)"><path class="d" d="M522.846,610.823l-5.425-7.273-3.358,8.429-8.335-3.585,1.306,8.979-9.011,1.062,5.62,7.123-7.273,5.426,8.429,3.358-3.585,8.335,8.979-1.306,1.062,9.011,7.123-5.621,5.425,7.272,3.358-8.429,8.335,3.585-1.306-8.979,9.011-1.062-5.62-7.123,7.273-5.426-8.429-3.358,3.585-8.335-8.979,1.306-1.062-9.011Z" transform="translate(-496.37 -603.551)"/><g transform="translate(13.87 14.067)"><path class="c" d="M512.481,686.744h8.175l-.412,2.106-3.551,3.1a3.009,3.009,0,0,1,2.767,3.016c0,2.662-1.961,4.728-5.616,4.728a8.224,8.224,0,0,1-3.365-.662l.33-2.229a8.045,8.045,0,0,0,3.323.784,2.3,2.3,0,0,0,2.5-2.354c0-.887-.7-1.465-1.961-1.465H513.6l.084-1.879,3.55-3.035h-4.748Z" transform="translate(-510.478 -686.744)"/><path class="c" d="M518.356,696.7a8.6,8.6,0,0,0,3.531.867,2.456,2.456,0,0,0,2.643-2.663,1.6,1.6,0,0,0-1.756-1.775,5.671,5.671,0,0,0-2.105.578l-1.239-.578,1.094-6.38h8.051l-.846,2.106h-5.038l-.412,2.415h.1a6.343,6.343,0,0,1,1.818-.248,3.356,3.356,0,0,1,3.261,3.551c0,2.581-2.106,5.1-5.842,5.1a7.288,7.288,0,0,1-3.531-.763Z" transform="translate(-507.832 -686.744)"/></g><g transform="translate(11.614 29.13)"><path class="c" d="M513.809,703.518h-1.268l-.133-1.492h-1.646l-.7,1.492H508.8l2.668-5.2,1.6-.322Zm-2.625-2.381h1.151l-.179-2.058Z" transform="translate(-508.804 -697.893)"/><path class="c" d="M514.11,698h1.132l1.646,3.737.728-3.737h1.168l-1.079,5.517h-1.142L514.9,699.95l-.693,3.569h-1.177Z" transform="translate(-507.334 -697.893)"/><path class="c" d="M520.712,697.921a1.95,1.95,0,0,1,2.139,2.183c0,1.806-1.053,3.55-3.217,3.55a1.955,1.955,0,0,1-2.139-2.174C517.495,699.664,518.554,697.921,520.712,697.921Zm.845,2.354c0-.836-.369-1.394-1.024-1.394-.981,0-1.744,1.105-1.744,2.427,0,.835.377,1.383,1.034,1.383C520.82,702.692,521.557,701.6,521.557,700.275Z" transform="translate(-505.782 -697.921)"/><path class="c" d="M521.876,702.3a3.32,3.32,0,0,0,1.519.395c.728,0,1.07-.306,1.07-.7,0-.728-2.113-.7-2.113-2.273,0-1.167,1.016-1.8,2.247-1.8a3.465,3.465,0,0,1,1.646.4l-.45.853a2.952,2.952,0,0,0-1.275-.3c-.558,0-.873.26-.873.683,0,.817,2.113,1.051,2.113,2.273,0,1.132-1.016,1.815-2.508,1.815a3.592,3.592,0,0,1-1.527-.342Z" transform="translate(-504.312 -697.921)"/></g></g></g></svg>