<svg xmlns="http://www.w3.org/2000/svg" width="693.245" height="219.629" viewBox="0 0 693.245 219.629"><defs><style>.a{fill:#d50d1a;}.b{fill:#de2e20;}.c{fill:#fff;}</style></defs><g transform="translate(-117.932 -1974)"><g transform="translate(-33 1940.932)"><path d="M189.271,26.52l4.184-10.29H208.1L191.886,99.045H177.239V91.2a37.937,37.937,0,0,1-26.15,9.941c-18.13,0-28.593-12.9-28.593-33.3,0-31.045,19.179-53.7,45.505-53.7a21.884,21.884,0,0,1,21.27,12.381m-20.748,5.4c-13.077,0-22.142,12.9-22.142,34.171,0,11.508,4.708,17.247,12.207,17.247,13.249,0,21.791-14.646,21.791-34,0-11.146-4.184-17.409-11.856-17.409Z" transform="translate(147.967 61.728)"/><path d="M266.971,16.283h22.842l-9.766,50.042c-4.36,22.315-20.748,34.867-43.236,34.867s-33.649-13.249-29.293-35.568L217.108,16.3h22.84l-9.59,49.328c-2.439,12.553.873,17.959,9.939,17.959,8.892,0,14.646-5.406,17.085-17.959Z" transform="translate(145.932 61.675)"/><path d="M335.542,96.1l.345-1.918a39.4,39.4,0,0,1-19.355,4.881c-18.127,0-28.766-12.38-28.766-32.253,0-30.513,19.531-52.652,45.505-52.652a23.754,23.754,0,0,1,21.446,11.852l4.36-9.762H373.91l-15.691,80.2c-4.709,24.233-21.622,37.314-50.908,37.314A111.951,111.951,0,0,1,280.8,130.1l2.795-18.834a79.491,79.491,0,0,0,26.5,4.708c15.329-.014,22.829-6.468,25.443-19.875M333.8,31.937c-12.725,0-22.142,12.2-22.142,32.77,0,11.159,4.877,16.557,12.2,16.557,13.252,0,21.794-13.253,21.794-32.253,0-10.81-4.188-17.075-11.856-17.075" transform="translate(144.136 61.727)"/><path d="M395.979,66.273c.344,11.679,4.881,17.085,18.306,17.085A69.915,69.915,0,0,0,439.217,78.3l-4.187,18.13a69.815,69.815,0,0,1-25.454,4.709c-25.458,0-37.485-12.38-37.485-33.995,0-28.42,17.434-53,48.12-53,18.134,0,27.376,9.416,27.376,22.139,0,18.834-15.865,29.461-51.608,29.993M397.72,50.06c22.318-.69,28.944-5.057,28.944-12.032,0-3.66-2.794-6.1-8.02-6.1-9.589.007-17.434,5.923-20.92,18.127Z" transform="translate(141.927 61.727)"/><path d="M387.715,120.058l1.708-4.2H395.4l-6.616,33.806h-5.978v-3.2a15.527,15.527,0,0,1-10.694,4.057c-7.4,0-11.67-5.267-11.67-13.591,0-12.667,7.827-21.918,18.572-21.918a8.928,8.928,0,0,1,8.7,5.05m-8.465,2.2c-5.34,0-9.038,5.267-9.038,13.946,0,4.7,1.918,7.047,4.978,7.047,5.409,0,8.9-5.978,8.9-13.877C384.086,124.826,382.378,122.262,379.25,122.262Z" transform="translate(142.209 59.286)"/><path d="M427.424,128.6c0,12.667-7.831,21.918-18.575,21.918a10.008,10.008,0,0,1-6.758-2.277l-2.845,14.729h-9.314l9.179-47.11h5.978v3.274a15.257,15.257,0,0,1,10.694-4.139c7.372.014,11.642,5.278,11.642,13.6m-18.786,14.66c5.337,0,8.969-5.267,8.969-13.95,0-4.7-1.849-7.043-4.908-7.043-5.409,0-8.9,5.978-8.9,13.877C403.8,140.694,405.506,143.257,408.638,143.257Z" transform="translate(141.495 59.286)"/><path d="M461.919,128.6c0,12.667-7.83,21.918-18.575,21.918a10,10,0,0,1-6.757-2.277l-2.845,14.729h-9.314l9.179-47.11h5.978v3.274a15.251,15.251,0,0,1,10.672-4.139c7.393.014,11.663,5.278,11.663,13.6m-18.789,14.66c5.34,0,8.969-5.267,8.969-13.95,0-4.7-1.852-7.043-4.908-7.043-5.409,0-8.9,5.978-8.9,13.877,0,4.553,1.724,7.117,4.829,7.117Z" transform="translate(140.66 59.286)"/><path class="a" d="M468.363,140.165a4.426,4.426,0,0,1,4.756,4.069,4.228,4.228,0,0,1,.011.484,6.682,6.682,0,0,1-6.9,6.406,4.415,4.415,0,0,1-4.753-4.049,4.347,4.347,0,0,1-.014-.436,6.692,6.692,0,0,1,6.9-6.474" transform="translate(139.764 58.677)"/><path d="M497.774,115.006a23.28,23.28,0,0,1,9.535,1.918l-3.06,6.619a18.332,18.332,0,0,0-7.044-1.279c-5.125,0-10.534,4.767-10.534,13.022,0,5.054,2.7,7.971,6.692,7.971a21.776,21.776,0,0,0,8.75-1.724l-1.848,7.4a22.382,22.382,0,0,1-9.182,1.566c-9.891,0-14.16-5.623-14.16-13.8A20.6,20.6,0,0,1,496.4,115.033q.688-.037,1.374-.027" transform="translate(139.391 59.286)"/><path d="M525.8,115.006c9.679,0,13.663,5.692,13.663,13.519,0,12.17-7.613,21.991-20.566,21.991-9.748,0-13.735-5.623-13.735-13.523-.015-12.1,7.675-21.987,20.638-21.987m-5.478,28.251c5.478,0,9.393-5.695,9.393-13.735,0-4.626-1.994-7.244-5.337-7.244-5.695,0-9.465,5.764-9.465,13.732-.014,4.612,1.98,7.247,5.4,7.247Z" transform="translate(138.707 59.286)"/><path d="M580.826,132.083c1-5.126,1.139-9.893-2.415-9.893-3.273,0-6.4,4.767-7.4,9.962L567.6,149.658h-9.313l3.414-17.434c1-5.122,1.07-10.034-2.487-10.034-2.918,0-6.264,3.773-7.333,9.252l-3.557,18.216h-9.313l6.616-33.8H551.6l.427,4.056A13.878,13.878,0,0,1,562.274,115a8.419,8.419,0,0,1,8.9,5.55A14.006,14.006,0,0,1,581.491,115c9.252,0,10.6,7.4,8.893,16.081l-3.629,18.572h-9.313Z" transform="translate(137.887 59.287)"/><path class="b" d="M71.59,154.982l0-86.466,69.787,53.563-30.317,5.1,16.191,33.005h51.411L89.332,0,0,160.185H107.86l-12.6-25.712Z" transform="translate(150.931 62.069)"/><path class="c" d="M112.832,128.879l30.316-5.1L73.362,70.216l0,86.466,23.673-20.51,12.6,25.712h19.387Z" transform="translate(149.156 60.37)"/><path d="M493.031,17.959a13.109,13.109,0,0,1,3.819,9.691,18.2,18.2,0,0,1-5.5,13.261,18.023,18.023,0,0,1-13.176,5.538,13.47,13.47,0,0,1-9.945-3.858,12.968,12.968,0,0,1-3.905-9.609,18.1,18.1,0,0,1,5.585-13.3,18.01,18.01,0,0,1,13.173-5.538,13.433,13.433,0,0,1,9.945,3.819m-3.692,21.064A15.68,15.68,0,0,0,494,27.821a10.506,10.506,0,0,0-11.079-10.994,14.8,14.8,0,0,0-10.951,4.782,15.566,15.566,0,0,0-4.7,11.2,10.735,10.735,0,0,0,3.064,7.933,10.618,10.618,0,0,0,8.015,3.146,14.883,14.883,0,0,0,10.993-4.868M477.423,21.9h5.329c3.189,0,4.992,1.718,4.992,4.447,0,3.232-1.428,5.12-4.322,5.751v.124l2.6,6.5H483l-2.519-6.421h-1.8v-.461l-1.176,6.881h-3.1Zm2.559,2.728-.84,4.992h2.311q3.268,0,3.27-3.022c-.039-1.3-.878-1.97-2.516-1.97Z" transform="translate(139.695 61.727)"/></g><ellipse class="c" cx="68.5" cy="51.5" rx="68.5" ry="51.5" transform="translate(627 2054)"/><g transform="translate(643.314 1951.081) rotate(19)"><path d="M132.99,36.62c-11.9-1.591-23.292.77-31.578,2.286V28.149A3.91,3.91,0,0,0,97.5,24.24H88.377a3.909,3.909,0,0,0-3.908,3.909V38.906c-8.285-1.516-19.677-3.877-31.581-2.286C11.84,42.111,0,70.94,0,104.9c0,41.85,27.663,73.712,65.708,84.047a105.407,105.407,0,0,0,54.462,0c38.048-10.335,65.711-42.2,65.711-84.047C185.881,70.94,174.041,42.111,132.99,36.62Zm.06,32.08,17.868,24.86-37.786,3.946ZM92.467,94.617l11.986,15.145H80.135ZM50.85,68.7,70.765,97.507,32.982,93.561Zm78.074,95.175v-8.164H112.612v14.135A104.407,104.407,0,0,1,92.9,173.32a84.831,84.831,0,0,1-18.741-2.056V155.711H57.843v10.218c-16.154-7.34-32.3-21.934-34.69-50.933,0,0,9.052,4.015,31.21,6.536V136.97H75.211V123.14c5.215.247,11.415.391,17.834.391,7.265,0,13.448-.184,19.964-.494V136.97h20.2v-15.7C154.06,118.747,162.483,115,162.483,115,161.8,141.444,145.545,155.946,128.923,163.875Z"/></g></g></svg>