<svg xmlns="http://www.w3.org/2000/svg" width="130.176" height="208.544" viewBox="0 0 130.176 208.544"><defs><style>.a{fill:#d32a6f;}.b{fill:#e7507f;}.c{fill:#e23779;}.d{fill:#f96b9e;}</style></defs><path class="a" d="M99.846,38.234a13.185,13.185,0,0,1,7.552-7.82,66.4,66.4,0,0,1,43.334-.27v.028a13.176,13.176,0,0,1,8.426,8.727,38.68,38.68,0,0,0,.76-7.7,39.844,39.844,0,0,0-10.18-26.656,47.533,47.533,0,0,0-40.185-.177A39.845,39.845,0,0,0,99.213,31.2a38.8,38.8,0,0,0,.633,7.033" transform="translate(-64.498)"/><path class="b" d="M112.409,53.638a59.17,59.17,0,0,0-1.72-7.623,54.251,54.251,0,0,0-7.883-16.25,53.735,53.735,0,0,0-4.812-5.734,106.922,106.922,0,0,0-8.657-7.939c-1.205-1.01-2.709-1.931-3.908-3.016L85.3,13.02A39.845,39.845,0,0,1,95.446,39.635c0,12.663-5.8,21.659-12.853,31.618L33.158,141.072.042,187.843,15.7,216.979l1.1-1.548,1.5-2.12,46.376-65.5,27.686-39.1C102.387,94.542,113.12,80.8,113.12,62.662a58.07,58.07,0,0,0-.711-9.024" transform="translate(-0.027 -8.464)"/><path class="c" d="M0,305.264,15.654,334.4l1.1-1.548,1.5-2.12,46.376-65.5,27.686-39.1c7.388-10.434,15.15-20.64,18.731-32.536-.794,1.348-38.1,67-111.044,111.668" transform="translate(0 -125.856)"/><path class="b" d="M128.828,140.751,79.393,70.932C72.341,60.973,66.54,51.977,66.54,39.315A39.847,39.847,0,0,1,76.88,12.481l-.058.026c-1.236,1.195-2.877,2.179-4.173,3.265a106.987,106.987,0,0,0-8.657,7.939A52,52,0,0,0,51.3,45.695a59.054,59.054,0,0,0-1.72,7.623,58.026,58.026,0,0,0-.711,9.024c0,18.136,10.732,31.88,20.765,46.049l27.686,39.1,46.375,65.5,1.5,2.12,1.1,1.548,15.654-29.136-33.116-46.771" transform="translate(-31.768 -8.114)"/><path class="c" d="M186.67,250.938l17.91,25.3,2.649-3.742Z" transform="translate(-121.353 -163.133)"/><path class="d" d="M68.523,64.01c-.272.354-.544.709-.8,1.071a49.767,49.767,0,0,0-7.23,14.9,54.236,54.236,0,0,0-1.578,6.991,53.253,53.253,0,0,0-.652,8.276c0,11.684,4.859,21.38,10.939,30.621a79.491,79.491,0,0,1-.675-61.863" transform="translate(-37.874 -41.613)"/></svg>