<svg xmlns="http://www.w3.org/2000/svg" width="19" height="19" viewBox="0 0 19 19"><path d="M20.1,3H8.7A1.906,1.906,0,0,0,6.8,4.9V16.3a1.906,1.906,0,0,0,1.9,1.9H20.1A1.906,1.906,0,0,0,22,16.3V4.9A1.906,1.906,0,0,0,20.1,3Zm-8.075,7.125A1.423,1.423,0,0,1,10.6,11.55H9.65v1.9H8.225V7.75H10.6a1.423,1.423,0,0,1,1.425,1.425Zm4.75,1.9A1.423,1.423,0,0,1,15.35,13.45H12.975V7.75H15.35a1.423,1.423,0,0,1,1.425,1.425Zm3.8-2.85H19.15v.95h1.425V11.55H19.15v1.9H17.725V7.75h2.85Zm-10.925.95h.95v-.95H9.65ZM4.9,6.8H3V20.1A1.906,1.906,0,0,0,4.9,22H18.2V20.1H4.9Zm9.5,5.225h.95V9.175H14.4Z" transform="translate(-3 -3)"/></svg>