<svg xmlns="http://www.w3.org/2000/svg" width="22.403" height="22.403" viewBox="0 0 22.403 22.403">
    <defs>
        <style>.a{fill:#fff;}</style>
    </defs>
    <path class="a"
          d="M16.334,13.425c-.281-.14-1.649-.809-1.9-.9s-.442-.14-.628.14-.72.9-.881,1.085-.326.2-.6.07a7.576,7.576,0,0,1-2.243-1.386A8.469,8.469,0,0,1,8.524,10.5c-.162-.28-.018-.434.121-.574s.281-.322.421-.488a2.366,2.366,0,0,0,.277-.463.513.513,0,0,0-.023-.489c-.07-.14-.627-1.512-.861-2.059s-.455-.476-.627-.476-.346-.014-.533-.014a1.052,1.052,0,0,0-.744.335,3.116,3.116,0,0,0-.975,2.31,5.462,5.462,0,0,0,1.138,2.87,12.447,12.447,0,0,0,4.761,4.187c.666.28,1.185.448,1.591.587a3.862,3.862,0,0,0,1.755.113,2.873,2.873,0,0,0,1.882-1.331,2.311,2.311,0,0,0,.168-1.33c-.069-.126-.252-.2-.532-.322M11.258,20.3h-.015a9.338,9.338,0,0,1-4.719-1.288l-.336-.2-3.5.91.938-3.4-.223-.35A9.258,9.258,0,0,1,17.822,4.552a9.137,9.137,0,0,1,2.715,6.525A9.269,9.269,0,0,1,11.264,20.3m7.89-17.084A11.334,11.334,0,0,0,11.243,0a11.1,11.1,0,0,0-9.66,16.651L0,22.4l5.913-1.542a11.259,11.259,0,0,0,5.33,1.351h.006A11.145,11.145,0,0,0,22.4,11.107,11.009,11.009,0,0,0,19.14,3.256"/>
</svg>
