<svg width="24" height="24" viewBox="0 0 24 24" fill="none" xmlns="http://www.w3.org/2000/svg">
<path d="M12 24C18.6274 24 24 18.6274 24 12C24 5.37258 18.6274 0 12 0C5.37258 0 0 5.37258 0 12C0 18.6274 5.37258 24 12 24Z" fill="#3699CF"/>
<path d="M15.006 12.7499L15.339 10.5779H13.256V9.16888C13.2422 9.00707 13.2649 8.84423 13.3223 8.69233C13.3798 8.54044 13.4706 8.40337 13.588 8.2912C13.7054 8.17904 13.8465 8.09465 14.0009 8.04423C14.1553 7.99381 14.319 7.97866 14.48 7.99988H15.427V6.14688C14.871 6.05697 14.3092 6.00784 13.746 5.99988C13.3584 5.97029 12.969 6.02631 12.6054 6.16398C12.2419 6.30165 11.913 6.51759 11.6422 6.79651C11.3714 7.07542 11.1653 7.41049 11.0384 7.77795C10.9115 8.14542 10.867 8.53629 10.908 8.92288V10.5779H9V12.7499H10.908V17.9999H13.256V12.7499H15.006Z" fill="white"/>
</svg>
