<svg width="24" height="24" viewBox="0 0 24 24" fill="none" xmlns="http://www.w3.org/2000/svg">
<path d="M12 24C18.6274 24 24 18.6274 24 12C24 5.37258 18.6274 0 12 0C5.37258 0 0 5.37258 0 12C0 18.6274 5.37258 24 12 24Z" fill="#3699CF"/>
<path d="M12.005 8.923C11.3963 8.92241 10.8011 9.10237 10.2947 9.44011C9.78829 9.77785 9.39344 10.2582 9.16008 10.8204C8.92673 11.3826 8.86537 12.0014 8.98376 12.5985C9.10215 13.1955 9.39497 13.7441 9.82517 14.1747C10.2554 14.6053 10.8036 14.8987 11.4006 15.0177C11.9976 15.1366 12.6164 15.0759 13.1788 14.8431C13.7412 14.6103 14.222 14.2159 14.5602 13.7098C14.8985 13.2037 15.079 12.6087 15.079 12C15.0797 11.596 15.0006 11.1958 14.8464 10.8224C14.6922 10.449 14.4658 10.1096 14.1803 9.82383C13.8948 9.53801 13.5556 9.31132 13.1824 9.15674C12.8091 9.00217 12.409 8.92274 12.005 8.923V8.923ZM12.005 14C11.6094 14 11.2228 13.8827 10.8939 13.6629C10.565 13.4432 10.3086 13.1308 10.1572 12.7654C10.0059 12.3999 9.96626 11.9978 10.0434 11.6098C10.1206 11.2219 10.3111 10.8655 10.5908 10.5858C10.8705 10.3061 11.2269 10.1156 11.6148 10.0384C12.0028 9.96126 12.4049 10.0009 12.7704 10.1522C13.1358 10.3036 13.4482 10.56 13.6679 10.8889C13.8877 11.2178 14.005 11.6044 14.005 12C14.005 12.5304 13.7943 13.0391 13.4192 13.4142C13.0441 13.7893 12.5354 14 12.005 14ZM15.925 8.8C15.9246 8.94184 15.8822 9.08038 15.8032 9.19814C15.7241 9.31591 15.612 9.40763 15.4808 9.46173C15.3497 9.51582 15.2055 9.52987 15.0664 9.5021C14.9273 9.47434 14.7996 9.40599 14.6993 9.3057C14.599 9.20541 14.5307 9.07766 14.5029 8.93856C14.4751 8.79947 14.4892 8.65527 14.5433 8.52416C14.5974 8.39304 14.6891 8.28088 14.8069 8.20184C14.9246 8.12279 15.0632 8.0804 15.205 8.08C15.2993 8.07974 15.3927 8.0981 15.4798 8.13402C15.567 8.16995 15.6462 8.22274 15.7129 8.28936C15.7796 8.35598 15.8325 8.43511 15.8686 8.52223C15.9046 8.60934 15.9231 8.70272 15.923 8.797L15.925 8.8ZM17.963 9.528C17.9828 8.59524 17.6347 7.69217 16.994 7.014C16.3142 6.37367 15.4108 6.0248 14.477 6.042C13.486 5.986 10.517 5.986 9.526 6.042C8.59388 6.02371 7.69159 6.37077 7.012 7.009C6.37203 7.68771 6.02376 8.59033 6.042 9.523C5.986 10.514 5.986 13.483 6.042 14.474C6.0222 15.4068 6.37029 16.3098 7.011 16.988C7.69079 17.6261 8.59277 17.9738 9.525 17.957C10.516 18.013 13.485 18.013 14.476 17.957C15.4088 17.9768 16.3118 17.6287 16.99 16.988C17.6285 16.3084 17.9762 15.4063 17.959 14.474C18.015 13.483 18.015 10.516 17.959 9.526L17.963 9.528ZM16.683 15.539C16.5812 15.7972 16.4273 16.0318 16.2311 16.2281C16.0348 16.4243 15.8002 16.5782 15.542 16.68C14.3791 16.918 13.1894 16.9984 12.005 16.919C10.8205 16.9965 9.63101 16.9155 8.468 16.678C8.2094 16.5764 7.97447 16.4227 7.77783 16.2264C7.58119 16.0301 7.42705 15.7954 7.325 15.537C7.08629 14.3742 7.00523 13.1845 7.084 12C7.00638 10.8152 7.08743 9.62533 7.325 8.462C7.42683 8.20405 7.58056 7.96976 7.77666 7.77366C7.97276 7.57756 8.20705 7.42383 8.465 7.322C9.62882 7.08302 10.8195 7.00196 12.005 7.081C13.1895 7.00347 14.379 7.08452 15.542 7.322C15.7996 7.42406 16.0335 7.57789 16.2292 7.77398C16.425 7.97007 16.5784 8.20424 16.68 8.462C16.9187 9.62484 16.9998 10.8145 16.921 11.999C17 13.1838 16.9189 14.3738 16.68 15.537L16.683 15.539Z" fill="white"/>
</svg>
