<svg width="24" height="24" viewBox="0 0 24 24" fill="none" xmlns="http://www.w3.org/2000/svg">
<path d="M12 24C18.6274 24 24 18.6274 24 12C24 5.37258 18.6274 0 12 0C5.37258 0 0 5.37258 0 12C0 18.6274 5.37258 24 12 24Z" fill="#3699CF"/>
<path d="M9.23826 17H7.16526V10.324H9.23826V17ZM8.20026 9.41296C7.96178 9.41414 7.72831 9.3446 7.52935 9.21311C7.33039 9.08162 7.17489 8.8941 7.08249 8.67425C6.99008 8.4544 6.96494 8.21209 7.01023 7.97795C7.05552 7.74381 7.16921 7.52835 7.33693 7.35881C7.50465 7.18928 7.71887 7.07327 7.95251 7.02546C8.18615 6.97765 8.42871 7.00018 8.64955 7.09021C8.87038 7.18024 9.05957 7.33372 9.19319 7.53125C9.32682 7.72877 9.39887 7.96149 9.40026 8.19996C9.4008 8.51959 9.27496 8.82647 9.05017 9.05369C8.82538 9.28092 8.51988 9.41006 8.20026 9.41296V9.41296ZM17.0003 17H14.9293V13.751C14.9293 12.976 14.9133 11.983 13.8513 11.983C12.7733 11.983 12.6083 12.825 12.6083 13.695V17H10.5373V10.324H12.5263V11.235H12.5553C12.7541 10.8948 13.0415 10.6148 13.3868 10.425C13.7321 10.2352 14.1225 10.1425 14.5163 10.157C16.6153 10.157 17.0003 11.539 17.0003 13.333V17Z" fill="white"/>
</svg>
