<svg width="24" height="24" viewBox="0 0 24 24" fill="none" xmlns="http://www.w3.org/2000/svg">
<path d="M12 24C18.6274 24 24 18.6274 24 12C24 5.37258 18.6274 0 12 0C5.37258 0 0 5.37258 0 12C0 18.6274 5.37258 24 12 24Z" fill="#3699CF"/>
<path d="M16.767 9.42905C16.775 9.53605 16.775 9.64205 16.775 9.74905C16.7817 10.6702 16.6051 11.5834 16.2557 12.4357C15.9063 13.288 15.3909 14.0623 14.7396 14.7136C14.0882 15.365 13.3139 15.8803 12.4616 16.2298C11.6094 16.5792 10.6961 16.7557 9.775 16.7491C8.43631 16.7513 7.12546 16.3669 6 15.642C6.19725 15.6636 6.39558 15.6736 6.594 15.6721C7.70109 15.6742 8.77661 15.3032 9.647 14.6191C9.13459 14.61 8.63777 14.4413 8.2257 14.1366C7.81363 13.8319 7.50682 13.4063 7.348 12.9191C7.5015 12.9433 7.6566 12.956 7.812 12.9571C8.03034 12.9563 8.24772 12.9281 8.459 12.8731C7.90174 12.7603 7.40075 12.4579 7.04123 12.0175C6.68172 11.577 6.48587 11.0256 6.487 10.4571V10.4271C6.82829 10.617 7.20967 10.7236 7.6 10.7381C7.07797 10.39 6.70844 9.85587 6.56683 9.24465C6.42522 8.63342 6.52221 7.9912 6.838 7.44905C7.45609 8.20872 8.22689 8.83006 9.10047 9.27279C9.97404 9.71552 10.9309 9.96976 11.909 10.0191C11.8695 9.83395 11.8491 9.64531 11.848 9.45605C11.8501 8.96399 11.9995 8.48384 12.2771 8.07755C12.5547 7.67126 12.9476 7.35746 13.4053 7.17664C13.8629 6.99583 14.3642 6.95629 14.8446 7.06313C15.3249 7.16997 15.7622 7.41829 16.1 7.77605C16.6508 7.66996 17.179 7.46897 17.661 7.18205C17.4776 7.75022 17.0932 8.23199 16.58 8.53705C17.0697 8.48206 17.5483 8.35397 18 8.15705C17.6635 8.64738 17.2466 9.07741 16.767 9.42905V9.42905Z" fill="white"/>
</svg>
