<svg width="24" height="24" viewBox="0 0 24 24" fill="none" xmlns="http://www.w3.org/2000/svg">
<path d="M12 24C18.6274 24 24 18.6274 24 12C24 5.37258 18.6274 0 12 0C5.37258 0 0 5.37258 0 12C0 18.6274 5.37258 24 12 24Z" fill="#3699CF"/>
<path d="M16.289 11.1949L9.41404 7.13092C9.27206 7.04512 9.10976 6.99877 8.94389 6.99666C8.77801 6.99454 8.61458 7.03674 8.47046 7.11889C8.32634 7.20104 8.20676 7.32016 8.12407 7.46397C8.04137 7.60777 7.99855 7.77104 8.00004 7.93692V16.0639C7.99995 16.2293 8.04362 16.3917 8.12662 16.5347C8.20961 16.6777 8.32898 16.7963 8.47259 16.8782C8.6162 16.9602 8.77895 17.0027 8.9443 17.0014C9.10965 17.0001 9.27171 16.9551 9.41404 16.8709L16.289 12.8079C16.4294 12.7252 16.5458 12.6073 16.6266 12.4659C16.7075 12.3244 16.75 12.1643 16.75 12.0014C16.75 11.8385 16.7075 11.6784 16.6266 11.5369C16.5458 11.3955 16.4294 11.2776 16.289 11.1949V11.1949Z" fill="white"/>
</svg>
