<svg width="8" height="10" viewBox="0 0 8 10" fill="none" xmlns="http://www.w3.org/2000/svg">
<path d="M0.818 9.434C0.614 9.434 0.422 9.338 0.242 9.146C0.0740001 8.942 -0.00999994 8.738 -0.00999994 8.534C-0.00999994 8.402 0.0200001 8.288 0.08 8.192C0.152 8.096 0.26 8.006 0.404 7.922L6.686 4.358L6.794 5.708L0.386 1.964C0.254 1.892 0.158 1.802 0.0980001 1.694C0.0500001 1.586 0.0260001 1.466 0.0260001 1.334C0.0260001 1.094 0.11 0.883999 0.278 0.704C0.446 0.524 0.62 0.434 0.8 0.434C0.908 0.434 1.022 0.464 1.142 0.524C1.274 0.584 1.406 0.655999 1.538 0.739999L7.55 4.214C7.694 4.298 7.802 4.406 7.874 4.538C7.946 4.67 7.982 4.82 7.982 4.988C7.982 5.144 7.946 5.288 7.874 5.42C7.814 5.552 7.712 5.66 7.568 5.744L1.52 9.164C1.388 9.236 1.262 9.302 1.142 9.362C1.034 9.41 0.926 9.434 0.818 9.434Z" fill="white"/>
</svg>
