<svg width="286" height="83" viewBox="0 0 286 83" fill="none" xmlns="http://www.w3.org/2000/svg">
<path d="M87.0046 16.2426L88.946 11.4714H95.736L88.2175 49.8728H81.4259V46.2339C78.1184 49.2589 73.7812 50.9076 69.2995 50.8435C60.8877 50.8435 56.0409 44.8611 56.0409 35.4012C56.0409 21.0053 64.9355 10.5024 77.1426 10.5024C79.1726 10.3595 81.1986 10.8304 82.9574 11.8541C84.7161 12.8778 86.1263 14.4069 87.0046 16.2426ZM77.3832 18.7492C71.3267 18.7492 67.1209 24.7317 67.1209 34.5937C67.1209 39.9301 69.3079 42.5915 72.782 42.5915C78.9259 42.5915 82.8862 35.7999 82.8862 26.8263C82.8862 21.6581 80.9464 18.751 77.3883 18.751L77.3832 18.7492Z" fill="#E3E6ED"/>
<path d="M122.507 11.4714H133.106L128.579 34.6761C126.56 45.0226 118.958 50.8435 108.53 50.8435C98.1031 50.8435 92.9265 44.6996 94.947 34.3565L99.3934 11.4764H109.984L105.537 34.3565C104.407 40.1758 105.941 42.6824 110.145 42.6824C114.269 42.6824 116.937 40.1758 118.068 34.3565L122.507 11.4714Z" fill="#E3E6ED"/>
<path d="M153.863 48.5017L154.031 47.6117C151.284 49.124 148.193 49.9033 145.058 49.8745C136.646 49.8745 131.718 44.1343 131.718 34.92C131.718 20.7698 140.774 10.504 152.82 10.504C154.82 10.4307 156.803 10.9036 158.555 11.8719C160.307 12.8402 161.762 14.2675 162.764 16.0003L164.783 11.4732H171.662L164.379 48.67C162.192 59.9064 154.352 65.9713 140.773 65.9713C136.622 65.8986 132.496 65.3287 128.481 64.2737L129.778 55.5407C133.718 56.9628 137.871 57.7024 142.06 57.7277C149.178 57.7142 152.652 54.7264 153.863 48.5017ZM153.055 18.751C147.155 18.751 142.793 24.407 142.793 33.946C142.793 39.1209 145.054 41.6225 148.452 41.6225C154.598 41.6225 158.558 35.4786 158.558 26.6681C158.553 21.6581 156.612 18.7544 153.055 18.7544V18.751Z" fill="#E3E6ED"/>
<path d="M181.277 34.6744C181.445 40.0916 183.54 42.5983 189.766 42.5983C193.731 42.5298 197.649 41.735 201.327 40.2531L199.386 48.6649C195.622 50.1229 191.619 50.8646 187.582 50.852C175.777 50.852 170.2 45.1101 170.2 35.0883C170.2 21.9104 178.284 10.5092 192.513 10.5092C200.925 10.5092 205.208 14.8832 205.208 20.7715C205.21 29.5012 197.851 34.4288 181.277 34.6744ZM182.084 27.1577C192.434 26.8381 195.506 24.8125 195.506 21.579C195.506 19.8815 194.211 18.751 191.788 18.751C187.342 18.751 183.703 21.4966 182.086 27.1628L182.084 27.1577Z" fill="#E3E6ED"/>
<path d="M177.416 58.4848L178.208 56.5366H180.979L177.912 72.2111H175.14V70.7273C173.787 71.9624 172.014 72.6351 170.182 72.6082C166.75 72.6082 164.77 70.1654 164.77 66.3061C164.77 60.433 168.4 56.143 173.382 56.143C174.212 56.0823 175.041 56.2733 175.76 56.6911C176.48 57.1088 177.057 57.734 177.416 58.4848ZM173.491 59.506C171.015 59.506 169.3 61.9488 169.3 65.973C169.3 68.16 170.189 69.2418 171.608 69.2418C174.117 69.2418 175.734 66.4693 175.734 62.8068C175.734 60.6955 174.941 59.506 173.491 59.506Z" fill="#E3E6ED"/>
<path d="M195.641 62.4433C195.641 68.3164 192.01 72.6064 187.029 72.6064C185.89 72.6513 184.774 72.2752 183.895 71.5499L182.576 78.3802H178.257L182.513 56.5365H185.284V58.0507C186.625 56.7906 188.404 56.1021 190.244 56.1311C193.661 56.1412 195.641 58.5823 195.641 62.4433ZM186.931 69.2416C189.404 69.2416 191.09 66.7989 191.09 62.773C191.09 60.5944 190.232 59.5059 188.814 59.5059C186.305 59.5059 184.689 62.2784 184.689 65.9409C184.689 68.0523 185.478 69.2416 186.931 69.2416Z" fill="#E3E6ED"/>
<path d="M211.411 62.4433C211.411 68.3164 207.781 72.6064 202.798 72.6064C201.659 72.6517 200.544 72.2755 199.665 71.5499L198.344 78.3802H194.026L198.282 56.5365H201.048V58.0507C202.385 56.7922 204.16 56.1038 205.996 56.1311C209.431 56.1412 211.411 58.5823 211.411 62.4433ZM202.698 69.2417C205.175 69.2417 206.857 66.7989 206.857 62.7731C206.857 60.5944 205.999 59.5059 204.581 59.5059C202.074 59.5059 200.456 62.2784 200.456 65.9409C200.456 68.0523 201.256 69.2417 202.695 69.2417H202.698Z" fill="#E3E6ED"/>
<path d="M214.081 67.524C214.624 67.4822 215.161 67.6575 215.574 68.0115C215.988 68.3654 216.244 68.869 216.287 69.4116C216.287 69.4857 216.287 69.5614 216.287 69.6354C216.253 70.4521 215.899 71.2225 215.3 71.779C214.701 72.3355 213.907 72.6328 213.09 72.6064C212.549 72.6496 212.013 72.4762 211.599 72.1241C211.186 71.772 210.93 71.2702 210.886 70.729C210.886 70.6617 210.886 70.5944 210.886 70.5271C210.913 69.7055 211.264 68.928 211.863 68.365C212.462 67.802 213.26 67.4995 214.081 67.524Z" fill="#E3E6ED"/>
<path d="M227.671 56.1413C229.191 56.1227 230.698 56.4255 232.092 57.0296L230.674 60.0999C229.635 59.6894 228.526 59.4876 227.409 59.506C225.032 59.506 222.53 61.7166 222.53 65.5439C222.53 67.8874 223.783 69.2451 225.632 69.2451C227.026 69.2604 228.408 68.9878 229.692 68.4443L228.834 71.878C227.481 72.4158 226.03 72.6629 224.576 72.6032C219.99 72.6032 218.015 69.9954 218.015 66.2101C217.948 64.9572 218.128 63.7035 218.546 62.5204C218.964 61.3374 219.611 60.2482 220.45 59.3151C221.288 58.382 222.303 57.6233 223.435 57.0822C224.567 56.5411 225.794 56.2282 227.047 56.1615C227.247 56.143 227.459 56.1379 227.671 56.1413Z" fill="#E3E6ED"/>
<path d="M240.491 56.1412C244.979 56.1412 246.826 58.7809 246.826 62.4097C246.826 68.0523 243.293 72.6064 237.291 72.6064C232.77 72.6064 230.921 69.9988 230.921 66.3363C230.915 60.7273 234.48 56.1412 240.491 56.1412ZM237.95 69.2417C240.491 69.2417 242.306 66.6005 242.306 62.8724C242.306 60.7274 241.382 59.5077 239.833 59.5077C237.192 59.5077 235.444 62.1809 235.444 65.8754C235.444 68.0136 236.361 69.2401 237.945 69.2401L237.95 69.2417Z" fill="#E3E6ED"/>
<path d="M265.852 64.0601C266.313 61.683 266.379 59.4723 264.732 59.4723C263.218 59.4723 261.762 61.6829 261.301 64.0921L259.717 72.2094H255.398L256.983 64.1342C257.444 61.7587 257.477 59.4807 255.829 59.4807C254.483 59.4807 252.923 61.2304 252.429 63.7708L250.778 72.2179H246.46L249.528 56.5433H252.301L252.498 58.4242C253.084 57.7312 253.811 57.1703 254.63 56.778C255.448 56.3857 256.341 56.171 257.249 56.148C258.126 56.0474 259.011 56.247 259.761 56.7145C260.51 57.182 261.078 57.8897 261.374 58.722C261.938 57.9726 262.658 57.3546 263.485 56.9102C264.311 56.4659 265.224 56.2059 266.16 56.148C270.45 56.148 271.076 59.5783 270.283 63.6042L268.601 72.2161H264.282L265.852 64.0601Z" fill="#E3E6ED"/>
<path fill-rule="evenodd" clip-rule="evenodd" d="M33.1962 75.9664V75.9678L36.9129 72.7464L44.1695 66.4595L50.0096 78.3803H0L41.4296 4.10271L82.8458 78.3853H59.0069L51.4985 63.0759L65.5563 60.7105L33.1962 35.874V35.8752L33.1945 35.8739V75.9678L33.1962 75.9664Z" fill="#E3E6ED"/>
<path d="M225.561 12.2722C226.148 12.8604 226.608 13.5626 226.913 14.3355C227.217 15.1083 227.36 15.9355 227.333 16.7658C227.328 19.0663 226.416 21.2721 224.795 22.9043C223.174 24.5365 220.974 25.4634 218.674 25.4837C217.824 25.515 216.976 25.3723 216.184 25.0645C215.391 24.7567 214.669 24.2902 214.063 23.6937C213.47 23.1158 213.004 22.4218 212.692 21.6552C212.381 20.8887 212.231 20.066 212.252 19.2388C212.27 16.9338 213.191 14.7277 214.817 13.094C216.443 11.4603 218.645 10.5293 220.95 10.5007C221.799 10.4657 222.646 10.6047 223.439 10.9094C224.232 11.214 224.954 11.6778 225.561 12.2722ZM223.849 22.0399C224.536 21.361 225.082 20.552 225.453 19.66C225.824 18.768 226.014 17.811 226.011 16.8448C226.044 16.1633 225.933 15.4823 225.686 14.8462C225.439 14.2102 225.061 13.6332 224.576 13.1526C224.092 12.672 223.512 12.2985 222.874 12.0564C222.236 11.8144 221.554 11.709 220.873 11.7473C219.919 11.7435 218.974 11.9388 218.099 12.3205C217.225 12.7023 216.44 13.2623 215.794 13.9646C215.099 14.6396 214.548 15.4474 214.172 16.3399C213.796 17.2324 213.604 18.1914 213.607 19.1597C213.58 19.8374 213.693 20.5133 213.937 21.1459C214.181 21.7786 214.552 22.3547 215.027 22.8391C215.51 23.3282 216.09 23.7107 216.73 23.9619C217.37 24.2131 218.056 24.3275 218.743 24.2977C219.704 24.298 220.655 24.0973 221.534 23.7085C222.414 23.3197 223.202 22.7513 223.849 22.0399ZM218.324 14.1009H220.795C222.274 14.1009 223.11 14.8983 223.11 16.1634C223.187 16.7809 223.021 17.4041 222.647 17.9016C222.273 18.399 221.721 18.7319 221.107 18.83V18.8922L222.313 21.9087H220.911L219.744 18.931H218.903V18.7173L218.358 21.9138H216.918L218.324 14.1009ZM219.502 15.366L219.113 17.681H220.185C221.194 17.681 221.699 17.2138 221.699 16.2796C221.68 15.6773 221.292 15.366 220.533 15.366H219.502Z" fill="#E3E6ED"/>
</svg>
