<svg width="20" height="20" viewBox="0 0 20 20" fill="none" xmlns="http://www.w3.org/2000/svg">
<mask id="mask0_2020_8" style="mask-type:alpha" maskUnits="userSpaceOnUse" x="0" y="0" width="20" height="20">
<rect width="20" height="20" fill="#D9D9D9"/>
</mask>
<g mask="url(#mask0_2020_8)">
<path d="M4.16667 6.66667H15.8333V5.00001H4.16667V6.66667ZM4.16667 18.3333C3.70833 18.3333 3.31597 18.1701 2.98958 17.8438C2.66319 17.5174 2.5 17.125 2.5 16.6667V5.00001C2.5 4.54167 2.66319 4.14931 2.98958 3.82292C3.31597 3.49653 3.70833 3.33334 4.16667 3.33334H5V1.66667H6.66667V3.33334H13.3333V1.66667H15V3.33334H15.8333C16.2917 3.33334 16.684 3.49653 17.0104 3.82292C17.3368 4.14931 17.5 4.54167 17.5 5.00001V9.72917C17.2361 9.60417 16.9653 9.50001 16.6875 9.41667C16.4097 9.33334 16.125 9.27084 15.8333 9.22917V8.33334H4.16667V16.6667H9.41667C9.51389 16.9722 9.62847 17.2639 9.76042 17.5417C9.89236 17.8195 10.0486 18.0833 10.2292 18.3333H4.16667ZM15 19.1667C13.8472 19.1667 12.8646 18.7604 12.0521 17.9479C11.2396 17.1354 10.8333 16.1528 10.8333 15C10.8333 13.8472 11.2396 12.8646 12.0521 12.0521C12.8646 11.2396 13.8472 10.8333 15 10.8333C16.1528 10.8333 17.1354 11.2396 17.9479 12.0521C18.7604 12.8646 19.1667 13.8472 19.1667 15C19.1667 16.1528 18.7604 17.1354 17.9479 17.9479C17.1354 18.7604 16.1528 19.1667 15 19.1667ZM16.3958 16.9792L16.9792 16.3958L15.4167 14.8333V12.5H14.5833V15.1667L16.3958 16.9792Z" fill="#1C1B1F"/>
</g>
</svg>
