<svg width="16" height="16" viewBox="0 0 16 16" fill="none" xmlns="http://www.w3.org/2000/svg">
<mask id="path-1-outside-1_997_55690" maskUnits="userSpaceOnUse" x="0.5" y="-0.166668" width="15" height="16" fill="black">
<rect fill="white" x="0.5" y="-0.166668" width="15" height="16"/>
<path fill-rule="evenodd" clip-rule="evenodd" d="M5.87208 3.9021C5.3829 3.96787 5.12385 4.08816 4.93934 4.27267C4.75483 4.45718 4.63453 4.71623 4.56877 5.20541C4.50106 5.70898 4.5 6.37639 4.5 7.33333V10.6667C4.5 11.6236 4.50106 12.291 4.56876 12.7946C4.63453 13.2837 4.75483 13.5428 4.93934 13.7273C5.12385 13.9118 5.3829 14.0321 5.87208 14.0979C6.37565 14.1656 7.04305 14.1667 8 14.1667H10C10.9569 14.1667 11.6243 14.1656 12.1279 14.0979C12.6171 14.0321 12.8761 13.9118 13.0606 13.7273C13.2452 13.5428 13.3655 13.2837 13.4312 12.7946C13.4989 12.291 13.5 11.6236 13.5 10.6667V7.33333C13.5 6.37639 13.4989 5.70898 13.4312 5.20541C13.3655 4.71623 13.2452 4.45719 13.0607 4.27268C12.8761 4.08816 12.6171 3.96787 12.1279 3.9021C11.6243 3.83439 10.9569 3.83333 10 3.83333H8C7.04305 3.83333 6.37565 3.83439 5.87208 3.9021ZM7.96342 2.83333H10.0366C10.9483 2.83332 11.6832 2.83331 12.2611 2.91101C12.8612 2.99169 13.3665 3.16429 13.7677 3.56556C14.169 3.96684 14.3416 4.47209 14.4223 5.07216C14.5 5.65014 14.5 6.38502 14.5 7.29675V10.7033C14.5 11.615 14.5 12.3498 14.4223 12.9278C14.3416 13.5279 14.169 14.0331 13.7678 14.4344C13.3665 14.8357 12.8612 15.0083 12.2612 15.089C11.6832 15.1667 10.9483 15.1667 10.0366 15.1667H7.96341C7.05169 15.1667 6.31681 15.1667 5.73883 15.089C5.13876 15.0083 4.63351 14.8357 4.23223 14.4344C3.83096 14.0331 3.65836 13.5279 3.57768 12.9278C3.49998 12.3498 3.49999 11.615 3.5 10.7032V7.29675C3.49999 6.38502 3.49998 5.65014 3.57768 5.07216C3.65836 4.47209 3.83096 3.96684 4.23223 3.56557C4.63351 3.16429 5.13876 2.99169 5.73883 2.91101C6.31681 2.83331 7.05169 2.83332 7.96342 2.83333Z"/>
<path fill-rule="evenodd" clip-rule="evenodd" d="M4.4739 1.9265C3.80318 2.01668 3.41674 2.18579 3.1346 2.46793V2.46793M3.1346 2.46793C2.85246 2.75007 2.68335 3.13651 2.59317 3.80723C2.50106 4.49234 2.5 5.39545 2.5 6.66667V10.6667C2.5 11.4951 3.17157 12.1667 4 12.1667V13.1667C2.6193 13.1667 1.5 12.0474 1.5 10.6667L1.5 6.62905C1.49999 5.40388 1.49998 4.43346 1.60209 3.67398C1.70717 2.89237 1.92859 2.25974 2.42749 1.76083C2.9264 1.26192 3.55904 1.04051 4.34065 0.935422C5.10013 0.833313 6.07055 0.833322 7.29572 0.833332L10 0.833333C11.3807 0.833333 12.5 1.95263 12.5 3.33333H11.5C11.5 2.5049 10.8285 1.83333 10 1.83333H7.33333C6.06212 1.83333 5.15901 1.83439 4.4739 1.9265"/>
</mask>
<path fill-rule="evenodd" clip-rule="evenodd" d="M5.87208 3.9021C5.3829 3.96787 5.12385 4.08816 4.93934 4.27267C4.75483 4.45718 4.63453 4.71623 4.56877 5.20541C4.50106 5.70898 4.5 6.37639 4.5 7.33333V10.6667C4.5 11.6236 4.50106 12.291 4.56876 12.7946C4.63453 13.2837 4.75483 13.5428 4.93934 13.7273C5.12385 13.9118 5.3829 14.0321 5.87208 14.0979C6.37565 14.1656 7.04305 14.1667 8 14.1667H10C10.9569 14.1667 11.6243 14.1656 12.1279 14.0979C12.6171 14.0321 12.8761 13.9118 13.0606 13.7273C13.2452 13.5428 13.3655 13.2837 13.4312 12.7946C13.4989 12.291 13.5 11.6236 13.5 10.6667V7.33333C13.5 6.37639 13.4989 5.70898 13.4312 5.20541C13.3655 4.71623 13.2452 4.45719 13.0607 4.27268C12.8761 4.08816 12.6171 3.96787 12.1279 3.9021C11.6243 3.83439 10.9569 3.83333 10 3.83333H8C7.04305 3.83333 6.37565 3.83439 5.87208 3.9021ZM7.96342 2.83333H10.0366C10.9483 2.83332 11.6832 2.83331 12.2611 2.91101C12.8612 2.99169 13.3665 3.16429 13.7677 3.56556C14.169 3.96684 14.3416 4.47209 14.4223 5.07216C14.5 5.65014 14.5 6.38502 14.5 7.29675V10.7033C14.5 11.615 14.5 12.3498 14.4223 12.9278C14.3416 13.5279 14.169 14.0331 13.7678 14.4344C13.3665 14.8357 12.8612 15.0083 12.2612 15.089C11.6832 15.1667 10.9483 15.1667 10.0366 15.1667H7.96341C7.05169 15.1667 6.31681 15.1667 5.73883 15.089C5.13876 15.0083 4.63351 14.8357 4.23223 14.4344C3.83096 14.0331 3.65836 13.5279 3.57768 12.9278C3.49998 12.3498 3.49999 11.615 3.5 10.7032V7.29675C3.49999 6.38502 3.49998 5.65014 3.57768 5.07216C3.65836 4.47209 3.83096 3.96684 4.23223 3.56557C4.63351 3.16429 5.13876 2.99169 5.73883 2.91101C6.31681 2.83331 7.05169 2.83332 7.96342 2.83333Z" fill="#858585"/>
<path fill-rule="evenodd" clip-rule="evenodd" d="M4.4739 1.9265C3.80318 2.01668 3.41674 2.18579 3.1346 2.46793V2.46793M3.1346 2.46793C2.85246 2.75007 2.68335 3.13651 2.59317 3.80723C2.50106 4.49234 2.5 5.39545 2.5 6.66667V10.6667C2.5 11.4951 3.17157 12.1667 4 12.1667V13.1667C2.6193 13.1667 1.5 12.0474 1.5 10.6667L1.5 6.62905C1.49999 5.40388 1.49998 4.43346 1.60209 3.67398C1.70717 2.89237 1.92859 2.25974 2.42749 1.76083C2.9264 1.26192 3.55904 1.04051 4.34065 0.935422C5.10013 0.833313 6.07055 0.833322 7.29572 0.833332L10 0.833333C11.3807 0.833333 12.5 1.95263 12.5 3.33333H11.5C11.5 2.5049 10.8285 1.83333 10 1.83333H7.33333C6.06212 1.83333 5.15901 1.83439 4.4739 1.9265" fill="#858585"/>
<path d="M3.17208 2.56064L4.51138 2.01922L4.43642 1.83379L3.09712 2.37522L3.17208 2.56064ZM4.93934 4.27267L5.08076 4.41409L5.08076 4.41409L4.93934 4.27267ZM5.87208 3.9021L5.89873 4.10031L5.89873 4.10031L5.87208 3.9021ZM4.56877 5.20541L4.76698 5.23206L4.76698 5.23206L4.56877 5.20541ZM4.56876 12.7946L4.76698 12.7679L4.76698 12.7679L4.56876 12.7946ZM4.93934 13.7273L5.08077 13.5859L5.08077 13.5859L4.93934 13.7273ZM5.87208 14.0979L5.84543 14.2961L5.84543 14.2961L5.87208 14.0979ZM12.1279 14.0979L12.1545 14.2961L12.1545 14.2961L12.1279 14.0979ZM13.0606 13.7273L13.2021 13.8687L13.2021 13.8687L13.0606 13.7273ZM13.4312 12.7946L13.6295 12.8212L13.6295 12.8212L13.4312 12.7946ZM13.4312 5.20541L13.6295 5.17876L13.6295 5.17876L13.4312 5.20541ZM13.0607 4.27268L12.9192 4.4141L12.9192 4.4141L13.0607 4.27268ZM12.1279 3.9021L12.1013 4.10031L12.1013 4.10031L12.1279 3.9021ZM7.96342 2.83333L7.96342 3.03333H7.96342V2.83333ZM10.0366 2.83333L10.0366 3.03333L10.0366 3.03333L10.0366 2.83333ZM12.2611 2.91101L12.2878 2.7128L12.2611 2.91101ZM13.7677 3.56556L13.9092 3.42414L13.9092 3.42414L13.7677 3.56556ZM14.4223 5.07216L14.2241 5.09881L14.2241 5.09881L14.4223 5.07216ZM14.5 7.29675L14.3 7.29674V7.29675H14.5ZM14.5 10.7033L14.3 10.7033L14.3 10.7033L14.5 10.7033ZM14.4223 12.9278L14.2241 12.9012L14.2241 12.9012L14.4223 12.9278ZM13.7678 14.4344L13.6263 14.293L13.6263 14.293L13.7678 14.4344ZM12.2612 15.089L12.2878 15.2872L12.2878 15.2872L12.2612 15.089ZM10.0366 15.1667L10.0366 14.9667H10.0366V15.1667ZM7.96341 15.1667L7.96341 14.9667L7.96341 14.9667L7.96341 15.1667ZM5.73883 15.089L5.71218 15.2872L5.71218 15.2872L5.73883 15.089ZM4.23223 14.4344L4.37365 14.293L4.37365 14.293L4.23223 14.4344ZM3.57768 12.9278L3.7759 12.9012L3.7759 12.9012L3.57768 12.9278ZM3.5 10.7032L3.7 10.7033V10.7032H3.5ZM3.5 7.29675L3.7 7.29675L3.7 7.29675L3.5 7.29675ZM3.57768 5.07216L3.37947 5.04551L3.37947 5.04551L3.57768 5.07216ZM5.73883 2.91101L5.71218 2.7128L5.71218 2.7128L5.73883 2.91101ZM3.1346 2.46793L2.99318 2.32651L2.99318 2.32651L3.1346 2.46793ZM4.4739 1.9265L4.44725 1.72829L4.44725 1.72829L4.4739 1.9265ZM2.59317 3.80723L2.39496 3.78058L2.39496 3.78058L2.59317 3.80723ZM4 12.1667H4.2V11.9667H4V12.1667ZM4 13.1667V13.3667H4.2V13.1667H4ZM1.5 10.6667L1.7 10.6667L1.7 10.6667L1.5 10.6667ZM1.5 6.62905L1.7 6.62905L1.7 6.62905L1.5 6.62905ZM1.60209 3.67398L1.80031 3.70063L1.80031 3.70063L1.60209 3.67398ZM2.42749 1.76083L2.28607 1.61941L2.28607 1.61941L2.42749 1.76083ZM4.34065 0.935422L4.3673 1.13364L4.3673 1.13364L4.34065 0.935422ZM7.29572 0.833332L7.29572 1.03333L7.29572 1.03333L7.29572 0.833332ZM10 0.833333L10 1.03333H10V0.833333ZM12.5 3.33333V3.53333H12.7V3.33333H12.5ZM11.5 3.33333H11.3V3.53333H11.5V3.33333ZM5.08076 4.41409C5.22198 4.27288 5.43186 4.16308 5.89873 4.10031L5.84543 3.70388C5.33394 3.77265 5.02572 3.90345 4.79792 4.13125L5.08076 4.41409ZM4.76698 5.23206C4.82975 4.76519 4.93954 4.55531 5.08076 4.41409L4.79792 4.13125C4.57012 4.35905 4.43932 4.66727 4.37055 5.17876L4.76698 5.23206ZM4.7 7.33333C4.7 6.37062 4.70149 5.71918 4.76698 5.23206L4.37055 5.17876C4.30063 5.69878 4.3 6.38215 4.3 7.33333H4.7ZM4.7 10.6667V7.33333H4.3V10.6667H4.7ZM4.76698 12.7679C4.70149 12.2808 4.7 11.6294 4.7 10.6667H4.3C4.3 11.6178 4.30063 12.3012 4.37055 12.8212L4.76698 12.7679ZM5.08077 13.5859C4.93954 13.4447 4.82975 13.2348 4.76698 12.7679L4.37055 12.8212C4.43932 13.3327 4.57012 13.6409 4.79792 13.8687L5.08077 13.5859ZM5.89873 13.8997C5.43186 13.8369 5.22199 13.7271 5.08077 13.5859L4.79792 13.8687C5.02572 14.0965 5.33394 14.2273 5.84543 14.2961L5.89873 13.8997ZM8 13.9667C7.03729 13.9667 6.38585 13.9652 5.89873 13.8997L5.84543 14.2961C6.36545 14.366 7.04882 14.3667 8 14.3667V13.9667ZM10 13.9667H8V14.3667H10V13.9667ZM12.1012 13.8997C11.6141 13.9652 10.9627 13.9667 10 13.9667V14.3667C10.9512 14.3667 11.6345 14.366 12.1545 14.2961L12.1012 13.8997ZM12.9192 13.5859C12.778 13.7271 12.5681 13.8369 12.1012 13.8997L12.1545 14.2961C12.666 14.2273 12.9743 14.0965 13.2021 13.8687L12.9192 13.5859ZM13.233 12.7679C13.1702 13.2348 13.0605 13.4447 12.9192 13.5859L13.2021 13.8687C13.4299 13.6409 13.5607 13.3327 13.6295 12.8212L13.233 12.7679ZM13.3 10.6667C13.3 11.6294 13.2985 12.2808 13.233 12.7679L13.6295 12.8212C13.6994 12.3012 13.7 11.6178 13.7 10.6667H13.3ZM13.3 7.33333V10.6667H13.7V7.33333H13.3ZM13.233 5.23206C13.2985 5.71918 13.3 6.37062 13.3 7.33333H13.7C13.7 6.38215 13.6994 5.69878 13.6295 5.17876L13.233 5.23206ZM12.9192 4.4141C13.0605 4.55532 13.1702 4.7652 13.233 5.23206L13.6295 5.17876C13.5607 4.66727 13.4299 4.35905 13.2021 4.13125L12.9192 4.4141ZM12.1013 4.10031C12.5681 4.16308 12.778 4.27288 12.9192 4.4141L13.2021 4.13125C12.9743 3.90345 12.666 3.77265 12.1545 3.70388L12.1013 4.10031ZM10 4.03333C10.9627 4.03333 11.6141 4.03482 12.1013 4.10031L12.1545 3.70388C11.6345 3.63397 10.9512 3.63333 10 3.63333V4.03333ZM8 4.03333H10V3.63333H8V4.03333ZM5.89873 4.10031C6.38585 4.03482 7.03729 4.03333 8 4.03333V3.63333C7.04882 3.63333 6.36545 3.63397 5.84543 3.70388L5.89873 4.10031ZM12.2878 2.7128C11.6935 2.6329 10.9431 2.63332 10.0366 2.63333L10.0366 3.03333C10.9535 3.03332 11.6728 3.03372 12.2345 3.10923L12.2878 2.7128ZM13.9092 3.42414C13.4645 2.97948 12.91 2.79645 12.2878 2.7128L12.2345 3.10923C12.8125 3.18694 13.2684 3.3491 13.6263 3.70698L13.9092 3.42414ZM14.6205 5.04551C14.5369 4.42334 14.3538 3.86881 13.9092 3.42414L13.6263 3.70698C13.9842 4.06487 14.1464 4.52084 14.2241 5.09881L14.6205 5.04551ZM14.7 7.29675C14.7 6.39024 14.7004 5.63981 14.6205 5.04551L14.2241 5.09881C14.2996 5.66047 14.3 6.3798 14.3 7.29674L14.7 7.29675ZM14.6205 12.9545C14.7004 12.3602 14.7 11.6097 14.7 10.7032L14.3 10.7033C14.3 11.6202 14.2996 12.3395 14.2241 12.9012L14.6205 12.9545ZM13.9092 14.5758C14.3538 14.1312 14.5369 13.5766 14.6205 12.9545L14.2241 12.9012C14.1464 13.4791 13.9842 13.9351 13.6263 14.293L13.9092 14.5758ZM12.2878 15.2872C12.91 15.2035 13.4645 15.0205 13.9092 14.5758L13.6263 14.293C13.2684 14.6509 12.8125 14.8131 12.2345 14.8908L12.2878 15.2872ZM10.0366 15.3667C10.9431 15.3667 11.6935 15.3671 12.2878 15.2872L12.2345 14.8908C11.6728 14.9663 10.9535 14.9667 10.0366 14.9667L10.0366 15.3667ZM5.71218 15.2872C6.30648 15.3671 7.05691 15.3667 7.96342 15.3667L7.96341 14.9667C7.04647 14.9667 6.32714 14.9663 5.76548 14.8908L5.71218 15.2872ZM4.09081 14.5758C4.53547 15.0205 5.09001 15.2035 5.71218 15.2872L5.76548 14.8908C5.18751 14.8131 4.73154 14.6509 4.37365 14.293L4.09081 14.5758ZM3.37947 12.9545C3.46311 13.5766 3.64614 14.1312 4.09081 14.5758L4.37365 14.293C4.01577 13.9351 3.85361 13.4791 3.7759 12.9012L3.37947 12.9545ZM3.3 10.7032C3.29999 11.6097 3.29956 12.3602 3.37947 12.9545L3.7759 12.9012C3.70039 12.3395 3.69999 11.6202 3.7 10.7033L3.3 10.7032ZM3.37947 5.04551C3.29956 5.63981 3.29999 6.39024 3.3 7.29675L3.7 7.29675C3.69999 6.37981 3.70039 5.66047 3.7759 5.09881L3.37947 5.04551ZM4.09081 3.42414C3.64614 3.86881 3.46311 4.42334 3.37947 5.04551L3.7759 5.09881C3.85361 4.52084 4.01577 4.06487 4.37366 3.70699L4.09081 3.42414ZM5.71218 2.7128C5.09001 2.79645 4.53548 2.97948 4.09081 3.42414L4.37366 3.70699C4.73154 3.3491 5.18751 3.18694 5.76548 3.10923L5.71218 2.7128ZM7.96342 2.63333C7.05691 2.63332 6.30648 2.6329 5.71218 2.7128L5.76548 3.10923C6.32714 3.03372 7.04647 3.03332 7.96342 3.03333L7.96342 2.63333ZM10.0366 2.63333H7.96342V3.03333H10.0366V2.63333ZM14.7 10.7033V7.29675H14.3V10.7033H14.7ZM7.96341 15.3667H10.0366V14.9667H7.96341V15.3667ZM3.3 7.29675V10.7032H3.7V7.29675H3.3ZM3.27602 2.60935C3.51485 2.37052 3.8521 2.2119 4.50055 2.12472L4.44725 1.72829C3.75426 1.82146 3.31863 2.00106 2.99318 2.32651L3.27602 2.60935ZM2.79139 3.83388C2.87857 3.18543 3.0372 2.84818 3.27602 2.60935L2.99318 2.32651C2.66773 2.65196 2.48813 3.08759 2.39496 3.78058L2.79139 3.83388ZM2.7 6.66667C2.7 5.38971 2.70149 4.50255 2.79139 3.83388L2.39496 3.78058C2.30063 4.48213 2.3 5.40119 2.3 6.66667H2.7ZM2.7 10.6667V6.66667H2.3V10.6667H2.7ZM4 11.9667C3.28203 11.9667 2.7 11.3847 2.7 10.6667H2.3C2.3 11.6056 3.06112 12.3667 4 12.3667V11.9667ZM4.2 13.1667V12.1667H3.8V13.1667H4.2ZM1.3 10.6667C1.3 12.1579 2.50884 13.3667 4 13.3667V12.9667C2.72975 12.9667 1.7 11.937 1.7 10.6667H1.3ZM1.40387 3.64733C1.29957 4.42316 1.29999 5.4092 1.3 6.62906L1.7 6.62905C1.69999 5.39856 1.7004 4.44376 1.80031 3.70063L1.40387 3.64733ZM2.28607 1.61941C1.74378 2.1617 1.51193 2.8436 1.40387 3.64733L1.80031 3.70063C1.90242 2.94113 2.11339 2.35778 2.56891 1.90225L2.28607 1.61941ZM4.314 0.737205C3.51027 0.845264 2.82836 1.07712 2.28607 1.61941L2.56891 1.90225C3.02444 1.44673 3.6078 1.23575 4.3673 1.13364L4.314 0.737205ZM7.29572 0.633332C6.07587 0.633322 5.08982 0.632899 4.314 0.737205L4.3673 1.13364C5.11043 1.03373 6.06523 1.03332 7.29572 1.03333L7.29572 0.633332ZM12.7 3.33333C12.7 1.84217 11.4912 0.633333 10 0.633333V1.03333C11.2703 1.03333 12.3 2.06308 12.3 3.33333H12.7ZM11.5 3.53333H12.5V3.13333H11.5V3.53333ZM10 2.03333C10.718 2.03333 11.3 2.61536 11.3 3.33333H11.7C11.7 2.39445 10.9389 1.63333 10 1.63333V2.03333ZM7.33333 2.03333H10V1.63333H7.33333V2.03333ZM4.50055 2.12472C5.16921 2.03482 6.05638 2.03333 7.33333 2.03333V1.63333C6.06785 1.63333 5.1488 1.63397 4.44725 1.72829L4.50055 2.12472ZM1.3 6.62905L1.3 10.6667L1.7 10.6667L1.7 6.62905L1.3 6.62905ZM10 0.633333L7.29572 0.633332L7.29572 1.03333L10 1.03333L10 0.633333Z" fill="#858585" mask="url(#path-1-outside-1_997_55690)"/>
</svg>
