<svg width="18" height="14" viewBox="0 0 18 14" fill="none" xmlns="http://www.w3.org/2000/svg">
<path d="M1.8 0C1.32261 0 0.864773 0.183177 0.527208 0.509235C0.189642 0.835292 0 1.27752 0 1.73864L0 5.21591C0.47739 5.21591 0.935227 5.39909 1.27279 5.72514C1.61036 6.0512 1.8 6.49343 1.8 6.95455C1.8 7.41566 1.61036 7.85789 1.27279 8.18395C0.935227 8.51 0.47739 8.69318 0 8.69318L0 12.1705C0 12.6316 0.189642 13.0738 0.527208 13.3999C0.864773 13.7259 1.32261 13.9091 1.8 13.9091L16.2 13.9091C16.6774 13.9091 17.1352 13.7259 17.4728 13.3999C17.8104 13.0738 18 12.6316 18 12.1705V8.69318C17.5226 8.69318 17.0648 8.51 16.7272 8.18395C16.3896 7.85789 16.2 7.41566 16.2 6.95455C16.2 6.49343 16.3896 6.0512 16.7272 5.72514C17.0648 5.39909 17.5226 5.21591 18 5.21591V1.73864C18 1.27752 17.8104 0.835292 17.4728 0.509235C17.1352 0.183177 16.6774 0 16.2 0L1.8 0ZM12.15 2.60795L13.5 3.91193L5.85 11.3011L4.5 9.99716L12.15 2.60795ZM6.129 2.64273C7.011 2.64273 7.722 3.32949 7.722 4.18142C7.722 4.58951 7.55417 4.98088 7.25542 5.26944C6.95668 5.558 6.55149 5.72011 6.129 5.72011C5.247 5.72011 4.536 5.03335 4.536 4.18142C4.536 3.77333 4.70383 3.38196 5.00258 3.0934C5.30132 2.80484 5.70651 2.64273 6.129 2.64273ZM11.871 8.18898C12.753 8.18898 13.464 8.87574 13.464 9.72767C13.464 10.1358 13.2962 10.5271 12.9974 10.8157C12.6987 11.1043 12.2935 11.2664 11.871 11.2664C10.989 11.2664 10.278 10.5796 10.278 9.72767C10.278 9.31958 10.4458 8.92821 10.7446 8.63965C11.0433 8.35109 11.4485 8.18898 11.871 8.18898Z" fill="#fff"/>
</svg>
