<svg width="21" height="18" viewBox="0 0 21 18" fill="none" xmlns="http://www.w3.org/2000/svg">
<path d="M2.54736 0.718506C2.01693 0.718506 1.50822 0.936691 1.13315 1.32506C0.758077 1.71343 0.547363 2.24018 0.547363 2.78942L0.547363 6.93124C1.0778 6.93124 1.5865 7.14943 1.96158 7.5378C2.33665 7.92617 2.54736 8.45292 2.54736 9.00216C2.54736 9.5514 2.33665 10.0781 1.96158 10.4665C1.5865 10.8549 1.0778 11.0731 0.547363 11.0731L0.547363 15.2149C0.547363 15.7641 0.758077 16.2909 1.13315 16.6792C1.50822 17.0676 2.01693 17.2858 2.54736 17.2858H18.5474C19.0778 17.2858 19.5865 17.0676 19.9616 16.6792C20.3366 16.2909 20.5474 15.7641 20.5474 15.2149V11.0731C20.0169 11.0731 19.5082 10.8549 19.1332 10.4665C18.7581 10.0781 18.5474 9.5514 18.5474 9.00216C18.5474 8.45292 18.7581 7.92617 19.1332 7.5378C19.5082 7.14943 20.0169 6.93124 20.5474 6.93124V2.78942C20.5474 2.24018 20.3366 1.71343 19.9616 1.32506C19.5865 0.936691 19.0778 0.718506 18.5474 0.718506L2.54736 0.718506ZM14.0474 3.82487L15.5474 5.37806L7.04736 14.1794L5.54736 12.6263L14.0474 3.82487ZM7.35736 3.86629C8.33736 3.86629 9.12736 4.6843 9.12736 5.69905C9.12736 6.18513 8.94088 6.6513 8.60894 6.99501C8.277 7.33871 7.8268 7.53181 7.35736 7.53181C6.37736 7.53181 5.58736 6.7138 5.58736 5.69905C5.58736 5.21297 5.77385 4.7468 6.10578 4.4031C6.43772 4.05939 6.88793 3.86629 7.35736 3.86629ZM13.7374 10.4725C14.7174 10.4725 15.5074 11.2905 15.5074 12.3053C15.5074 12.7913 15.3209 13.2575 14.9889 13.6012C14.657 13.9449 14.2068 14.138 13.7374 14.138C12.7574 14.138 11.9674 13.32 11.9674 12.3053C11.9674 11.8192 12.1538 11.353 12.4858 11.0093C12.8177 10.6656 13.2679 10.4725 13.7374 10.4725Z" fill="#0C5DA7"/>
</svg>
