<svg width="16" height="16" viewBox="0 0 16 16" fill="none" xmlns="http://www.w3.org/2000/svg">
<g clip-path="url(#clip0_997_55677)">
<path d="M8.5 5.33333C8.5 5.05719 8.27614 4.83333 8 4.83333C7.72385 4.83333 7.5 5.05719 7.5 5.33333V8C7.5 8.13261 7.55267 8.25979 7.64644 8.35355L9.31311 10.0202C9.50837 10.2155 9.82495 10.2155 10.0202 10.0202C10.2155 9.82496 10.2155 9.50838 10.0202 9.31311L8.5 7.79289V5.33333Z" fill="#858585"/>
<path fill-rule="evenodd" clip-rule="evenodd" d="M7.99999 0.833334C4.04195 0.833334 0.833328 4.04196 0.833328 8C0.833328 11.958 4.04195 15.1667 7.99999 15.1667C11.958 15.1667 15.1667 11.958 15.1667 8C15.1667 4.04196 11.958 0.833334 7.99999 0.833334ZM1.83333 8C1.83333 4.59424 4.59424 1.83333 7.99999 1.83333C11.4057 1.83333 14.1667 4.59424 14.1667 8C14.1667 11.4058 11.4057 14.1667 7.99999 14.1667C4.59424 14.1667 1.83333 11.4058 1.83333 8Z" fill="#858585"/>
</g>
<defs>
<clipPath id="clip0_997_55677">
<rect width="16" height="16" fill="white"/>
</clipPath>
</defs>
</svg>
