<svg width="9" height="13" viewBox="0 0 9 13" fill="none" xmlns="http://www.w3.org/2000/svg">
<path d="M8.19063 0.768C8.40396 0.768 8.57996 0.848 8.71863 1.008C8.86796 1.15733 8.94263 1.32267 8.94263 1.504C8.94263 1.67467 8.88396 1.84 8.76663 2L5.40663 6.496L4.49463 5.232L7.55063 1.152C7.73196 0.896 7.94529 0.768 8.19063 0.768ZM0.894625 0.752C1.15063 0.752 1.36929 0.864 1.55063 1.088L8.76663 10.784C8.88396 10.9227 8.94263 11.0827 8.94263 11.264C8.94263 11.52 8.85196 11.7173 8.67063 11.856C8.48929 11.9947 8.30796 12.064 8.12663 12.064C7.87063 12.064 7.65729 11.952 7.48663 11.728L0.254625 2.048C0.137292 1.89867 0.078625 1.73867 0.078625 1.568C0.078625 1.33333 0.163958 1.14133 0.334625 0.992C0.505292 0.832 0.691958 0.752 0.894625 0.752ZM0.782625 12.064C0.579958 12.064 0.409292 11.9947 0.270625 11.856C0.131958 11.7067 0.0626251 11.5413 0.0626251 11.36C0.0626251 11.1787 0.126625 10.9973 0.254625 10.816L3.64663 6.224L4.52663 7.52L1.43863 11.696C1.26796 11.9413 1.04929 12.064 0.782625 12.064Z" fill="white"/>
</svg>
