<svg width="24" height="24" viewBox="0 0 24 24" fill="none" xmlns="http://www.w3.org/2000/svg">
<path fill-rule="evenodd" clip-rule="evenodd" d="M21.8774 12.816C21.5898 13.8186 20.817 14.5914 19.2715 16.1369L17.4419 17.9665C14.7529 20.6555 13.4084 22 11.7377 22C10.067 22 8.7225 20.6555 6.0335 17.9665C3.3445 15.2775 2 13.933 2 12.2623C2 10.5916 3.3445 9.24711 6.0335 6.55812L7.8631 4.72848C9.4086 3.18295 10.1814 2.41018 11.184 2.12264C12.1866 1.83509 13.2515 2.08083 15.3812 2.57231L16.6094 2.85574C18.4012 3.26922 19.2971 3.47597 19.9106 4.08944C20.524 4.70292 20.7308 5.59881 21.1443 7.39057L21.4277 8.61875C21.9192 10.7485 22.1649 11.8134 21.8774 12.816ZM13.8766 7.27098C13.089 8.05856 13.089 9.33549 13.8766 10.1231C14.6642 10.9107 15.9411 10.9107 16.7287 10.1231C17.5163 9.33549 17.5163 8.05856 16.7287 7.27098C15.9411 6.48339 14.6642 6.48339 13.8766 7.27098ZM4.9489 12.0511L11.9279 19.0303C12.2208 19.3232 12.6957 19.3232 12.9886 19.0303C13.2815 18.7375 13.2815 18.2626 12.9886 17.9697L6.0096 10.9904C5.7167 10.6975 5.2418 10.6975 4.9489 10.9904C4.656 11.2833 4.656 11.7582 4.9489 12.0511Z" fill="#045FAE"/>
</svg>
