<svg width="17" height="16" viewBox="0 0 17 16" fill="none" xmlns="http://www.w3.org/2000/svg">
<path fill-rule="evenodd" clip-rule="evenodd" d="M10.2396 4.55973L13.1072 6.96328C13.3304 7.14704 13.4599 7.42096 13.4599 7.71034C13.4599 7.99957 13.3305 8.27362 13.1072 8.45741L10.2395 10.861C9.94608 11.1103 9.53616 11.1705 9.18342 11.0159L9.18336 11.0159C8.82975 10.8608 8.59604 10.5172 8.58161 10.1315C8.58139 10.1255 8.58127 10.1195 8.58127 10.1135V9.32403C8.25554 8.92175 7.93873 8.78185 7.65561 8.75856C7.32433 8.73131 6.94138 8.85551 6.52155 9.12823C5.67648 9.67716 4.88234 10.6974 4.4311 11.4461C4.31981 11.6307 4.0991 11.7185 3.8914 11.6608C3.68371 11.603 3.53999 11.4139 3.53999 11.1983C3.53999 10.1219 3.80354 8.60116 4.63729 7.42292C5.05947 6.82631 5.6321 6.31249 6.39071 6.00083C7.01421 5.74468 7.74169 5.63398 8.58127 5.70663V5.30395C8.58127 5.29704 8.58142 5.29013 8.58172 5.28322C8.59836 4.89851 8.83299 4.55701 9.18612 4.40349C9.53845 4.25032 9.94704 4.31104 10.2396 4.55973ZM9.61789 5.29124C9.60426 5.27959 9.58526 5.27676 9.56887 5.28389C9.55394 5.29038 9.54359 5.30409 9.54127 5.31995V6.25307C9.54127 6.39471 9.47872 6.52911 9.37036 6.62031C9.262 6.71151 9.1189 6.75021 8.97934 6.72603C8.04519 6.56421 7.31997 6.65692 6.75552 6.88881C6.19101 7.12073 5.75524 7.50502 5.42094 7.97745C5.11609 8.40825 4.89937 8.90778 4.75308 9.41435C5.1269 9.00286 5.54959 8.61483 5.9986 8.32317C6.51181 7.9898 7.10866 7.75032 7.73432 7.80179C8.38181 7.85506 8.9662 8.21141 9.4502 8.88054C9.5094 8.96239 9.54127 9.06084 9.54127 9.16186V10.0997C9.54332 10.116 9.55377 10.13 9.56882 10.1366C9.58531 10.1439 9.60437 10.141 9.618 10.1294C9.61913 10.1284 9.62027 10.1274 9.62142 10.1265L12.4925 7.72007C12.494 7.71878 12.4955 7.7175 12.4971 7.71623C12.4988 7.71481 12.4999 7.71267 12.4999 7.71034C12.4999 7.7081 12.4989 7.70591 12.497 7.70434C12.4955 7.7031 12.494 7.70186 12.4925 7.70061L9.62142 5.29423C9.62024 5.29324 9.61906 5.29224 9.61789 5.29124Z" fill="white"/>
<path d="M9.56887 5.28389C9.58526 5.27676 9.60426 5.27959 9.61789 5.29124C9.61906 5.29224 9.62024 5.29324 9.62142 5.29423L12.4925 7.70061C12.494 7.70186 12.4955 7.7031 12.497 7.70434C12.4989 7.70591 12.4999 7.7081 12.4999 7.71034C12.4999 7.71267 12.4988 7.71481 12.4971 7.71623C12.4955 7.7175 12.494 7.71878 12.4925 7.72007L9.62142 10.1265C9.62027 10.1274 9.61913 10.1284 9.618 10.1294C9.60437 10.141 9.58531 10.1439 9.56882 10.1366C9.55377 10.13 9.54332 10.116 9.54127 10.0997V9.16186C9.54127 9.06084 9.5094 8.96239 9.4502 8.88054C8.9662 8.21141 8.38181 7.85506 7.73432 7.80179C7.10866 7.75032 6.51181 7.9898 5.9986 8.32317C5.54959 8.61483 5.1269 9.00286 4.75308 9.41435C4.89937 8.90778 5.11609 8.40825 5.42094 7.97745C5.75524 7.50502 6.19101 7.12073 6.75552 6.88881C7.31997 6.65692 8.04519 6.56421 8.97934 6.72603C9.1189 6.75021 9.262 6.71151 9.37036 6.62031C9.47872 6.52911 9.54127 6.39471 9.54127 6.25307V5.31995C9.54359 5.30409 9.55394 5.29038 9.56887 5.28389Z" fill="white"/>
</svg>
