<svg xmlns="http://www.w3.org/2000/svg" width="20.752" height="20.27" viewBox="0 0 20.752 20.27"><defs><style>.a,.b{fill:none;stroke:#015cae;stroke-width:1.5px;}.a{stroke-miterlimit:10;opacity:0.4;}.b{stroke-linecap:round;stroke-linejoin:round;}</style></defs><g transform="translate(-1.631 -1.83)"><path class="a" d="M7.48,18.35l3.1,2.4a3.077,3.077,0,0,0,1.9.6h3.8a3,3,0,0,0,2.8-2.1l2.4-7.3a1.874,1.874,0,0,0-1.9-2.6h-4a1.009,1.009,0,0,1-1-1.2l.5-3.2a1.973,1.973,0,0,0-1.3-2.2,2,2,0,0,0-2.2.7l-4.1,6.1"/><path class="b" d="M2.381,18.35V8.55c0-1.4.6-1.9,2-1.9h1c1.4,0,2,.5,2,1.9v9.8c0,1.4-.6,1.9-2,1.9h-1C2.981,20.25,2.381,19.75,2.381,18.35Z"/></g></svg>