<svg xmlns="http://www.w3.org/2000/svg" width="28" height="28" viewBox="0 0 28 28"><defs><style>.a,.d{fill:none;}.a{stroke:#a2a2a2;stroke-width:3px;}.b{fill:#a2a2a2;}.c{stroke:none;}</style></defs><g transform="translate(-0.495)"><g class="a" transform="translate(0.495)"><circle class="c" cx="14" cy="14" r="14"/><circle class="d" cx="14" cy="14" r="12.5"/></g><path class="b" d="M4.747,14.8.2,10.253a.7.7,0,0,1,0-.988l.988-.988a.7.7,0,0,1,.988,0l3.06,3.06L11.8,4.782a.7.7,0,0,1,.988,0l.988.988a.7.7,0,0,1,0,.988L5.736,14.8A.7.7,0,0,1,4.747,14.8Z" transform="translate(7.4 4.423)"/></g></svg>