<svg xmlns="http://www.w3.org/2000/svg" width="21.521" height="20.26" viewBox="0 0 21.521 20.26"><defs><style>.a{fill:#040c22;fill-rule:evenodd;}.b{fill:none;stroke:#040c23;stroke-linecap:round;stroke-width:2.5px;}</style></defs><g transform="translate(-373.74 -315)"><path class="a" d="M369.392,517.268a2.234,2.234,0,0,0-1.681-.764h-2.24a4.479,4.479,0,1,0-8.958,0h-2.239a2.234,2.234,0,0,0-1.68.762,2.267,2.267,0,0,0-.543,1.771l1.12,9.014a2.244,2.244,0,0,0,2.222,1.974h11.2a2.244,2.244,0,0,0,2.227-2l.177-1.6.937-7.375a2.265,2.265,0,0,0-.54-1.776Zm-8.4-3.018a2.247,2.247,0,0,1,2.24,2.254h-4.476a2.247,2.247,0,0,1,2.235-2.253Zm5.6,13.521h-11.2l-1.119-9.014h13.437l-.943,7.412Z" transform="translate(22.966 -197.025)"/><line class="b" y1="15" x2="18" transform="translate(375.5 318.5)"/></g></svg>