<svg xmlns="http://www.w3.org/2000/svg" width="18.998" height="16.023" viewBox="0 0 18.998 16.023"><defs><style>.a{fill:none;stroke:#040c22;stroke-linecap:round;stroke-linejoin:round;stroke-width:2px;}</style></defs><g transform="translate(-375.188 -645.93)"><path class="a" d="M13.863,27.136V25.591A3.091,3.091,0,0,0,10.772,22.5H4.591A3.091,3.091,0,0,0,1.5,25.591v1.545" transform="translate(374.688 633.818)"/><path class="a" d="M13.681,7.591A3.091,3.091,0,1,1,10.591,4.5a3.091,3.091,0,0,1,3.091,3.091Z" transform="translate(371.779 642.547)"/><path class="a" d="M32.318,27.23V25.685A3.091,3.091,0,0,0,30,22.7" transform="translate(360.868 633.723)"/><path class="a" d="M24,4.7a3.091,3.091,0,0,1,0,5.988" transform="translate(363.778 642.452)"/></g></svg>