<svg xmlns="http://www.w3.org/2000/svg" width="27" height="27" viewBox="0 0 27 27"><defs><style>.a,.b{fill:none;stroke:#a2a2a2;stroke-linecap:round;stroke-linejoin:round;stroke-width:2px;}.a{opacity:0.4;}</style></defs><g transform="translate(-1213.993 -269)"><g transform="translate(1214.993 270)"><path class="a" d="M14.372,17h1.25a2.507,2.507,0,0,0,2.5-2.5V2H6.872A5,5,0,0,0,2.51,4.562" transform="translate(-1.873 -2)"/><path class="b" d="M2,20a3.745,3.745,0,0,0,3.75,3.75H7a2.5,2.5,0,0,1,5,0h5a2.5,2.5,0,0,1,5,0h1.25A3.745,3.745,0,0,0,27,20V16.25H23.25A1.254,1.254,0,0,1,22,15V11.25A1.254,1.254,0,0,1,23.25,10h1.612L22.725,6.263A2.52,2.52,0,0,0,20.55,5h-2.3v8.75a2.507,2.507,0,0,1-2.5,2.5H14.5" transform="translate(-2 -1.25)"/><path class="b" d="M8.5,23A2.5,2.5,0,1,0,6,20.5,2.5,2.5,0,0,0,8.5,23Z" transform="translate(-1 2)"/><path class="b" d="M16.5,23A2.5,2.5,0,1,0,14,20.5,2.5,2.5,0,0,0,16.5,23Z" transform="translate(1 2)"/><path class="b" d="M23,12.75v2.5H19.25A1.254,1.254,0,0,1,18,14V10.25A1.254,1.254,0,0,1,19.25,9h1.612Z" transform="translate(2 -0.25)"/><path class="b" d="M2,8H9.5" transform="translate(-2 -0.5)"/><path class="b" d="M2,11H7" transform="translate(-2 0.25)"/><path class="b" d="M2,14H4.5" transform="translate(-2 1)"/></g></g></svg>