<svg xmlns="http://www.w3.org/2000/svg" width="51.808" height="35.677" viewBox="0 0 51.808 35.677"><defs><style>.a{opacity:0.2;}.b{fill:#055cb6;}</style></defs><g transform="translate(-2.86 -48.509)"><g class="a" transform="translate(10.548 50.165)"><path class="b" d="M73.12,76.454,65.5,84.071a1.656,1.656,0,0,1-1.573.436l-12-3a1.656,1.656,0,0,1-.618-.3L40,72.357l6.743-12.685,10.623-3.1a1.656,1.656,0,0,1,1.146.081l7.156,3.238H61.386a1.656,1.656,0,0,0-1.171.485l-8.1,8.1a1.656,1.656,0,0,0,.177,2.5l1.122.842a6.624,6.624,0,0,0,7.949,0l2.65-1.987Z" transform="translate(-40 -56.509)"/></g><path class="b" d="M54.292,60.663,49.2,50.914a3.327,3.327,0,0,0-4.417-1.429l-4.819,2.409H36.573L29.743,48.8a3.315,3.315,0,0,0-2.292-.162L17.376,51.579l-4.632-2.316a3.328,3.328,0,0,0-4.417,1.429L3.236,60.441a3.312,3.312,0,0,0,1.455,4.5l4.968,2.484,11.184,8.745a3.292,3.292,0,0,0,1.237.6l12,3a3.281,3.281,0,0,0,.8.1,3.333,3.333,0,0,0,2.35-.969l7.616-7.617.023-.025.031-.033.034-.037,3.094-3.62,4.816-2.408a3.312,3.312,0,0,0,1.455-4.5ZM43.4,67.871l-7.87-5.724a1.656,1.656,0,0,0-1.968.014l-2.65,1.987a4.994,4.994,0,0,1-5.962,0l-1.122-.842,8.1-8.1h7.419l5.642,10.8ZM11.263,52.225l3.661,1.831L9.833,63.8,6.172,61.974ZM34.88,76.556l-12-3-10.229-8,5.638-10.8,10.086-2.94,1.594.721a3.353,3.353,0,0,0-.38.322l-8.1,8.1a3.312,3.312,0,0,0,.355,4.991l1.122.842a8.323,8.323,0,0,0,9.936,0l1.671-1.253,6.552,4.765ZM51.356,62.2l-3.661,1.831L42.6,54.278l3.661-1.83L51.358,62.2Zm-24.3,20.736a1.654,1.654,0,0,1-2.008,1.2l-6.239-1.56a3.333,3.333,0,0,1-1.37-.714l-4.668-4.058a1.656,1.656,0,1,1,2.173-2.5l4.668,4.058,6.239,1.56A1.656,1.656,0,0,1,27.059,82.932Z"/></g></svg>