<svg xmlns="http://www.w3.org/2000/svg" width="117.623" height="38.798" viewBox="0 0 117.623 38.798"><defs><style>.a,.b{fill:#fff;}.a{fill-rule:evenodd;}</style></defs><g transform="translate(-70.866 -214.628)"><path class="a" d="M93.292,221.845a10.774,10.774,0,0,0-7.391-2.92,10.675,10.675,0,0,0-7.6,3.143,10.887,10.887,0,0,0,0,15.3,10.67,10.67,0,0,0,7.6,3.147c.563,0-.3.012.165.007a10,10,0,0,0,7.057-2.577,9.031,9.031,0,0,0,2.522-5.277H86.018v-4.3h14.019l.023,2.132c0,.113,0,.175,0,.2h0A13.944,13.944,0,0,1,96.126,241,14.215,14.215,0,0,1,86.1,244.8l-.2,0v0c.07,0,.266,0,0,0a15.092,15.092,0,1,1,5.551-29.129,15.1,15.1,0,0,1,4.777,3.04l-2.937,3.122ZM85.9,244.806c-.033,0-.024,0,0,0v0Zm14.163-14.1c0,.033,0,.024,0,0Zm0,0c0-.068,0-.255,0,0Z" transform="translate(0 0)"/><path class="a" d="M189.9,253.022a9.77,9.77,0,0,1,6.9,2.833,9.548,9.548,0,0,1,0,13.623,9.812,9.812,0,0,1-13.794,0,9.548,9.548,0,0,1,0-13.623,9.77,9.77,0,0,1,6.9-2.833Zm3.946,5.548a5.465,5.465,0,0,0-7.893,0,5.949,5.949,0,0,0,0,8.192,5.465,5.465,0,0,0,7.893,0,5.949,5.949,0,0,0,0-8.192Z" transform="translate(-78.519 -27.585)"/><path class="a" d="M264.422,253.022a9.77,9.77,0,0,1,6.9,2.833,9.548,9.548,0,0,1,0,13.623,9.812,9.812,0,0,1-13.794,0,9.548,9.548,0,0,1,0-13.623,9.77,9.77,0,0,1,6.9-2.833Zm3.946,5.548a5.465,5.465,0,0,0-7.893,0,5.949,5.949,0,0,0,0,8.192,5.465,5.465,0,0,0,7.893,0,5.949,5.949,0,0,0,0-8.192Z" transform="translate(-132.058 -27.585)"/><path class="a" d="M338.1,253.022a7.393,7.393,0,0,1,5.65,2.223v-1.679h3.988v18.375a9.687,9.687,0,0,1-2.834,6.792,8.891,8.891,0,0,1-5.77,2.278,10.35,10.35,0,0,1-5.5-1.4A9.333,9.333,0,0,1,330,275.4l3.658-1.648a5.322,5.322,0,0,0,5.47,3.471,4.932,4.932,0,0,0,4.616-5.027v-2.111a7.269,7.269,0,0,1-5.241,2.228,9.345,9.345,0,0,1-6.648-2.833,10.085,10.085,0,0,1-2.585-6.811c0-5.36,4.427-9.644,8.824-9.644Zm4.5,5.548a5.036,5.036,0,0,0-7.518,0,6.022,6.022,0,0,0-1.557,4.1c0,3.245,2.188,5.887,5.316,5.887a5.206,5.206,0,0,0,3.759-1.791,6.166,6.166,0,0,0,0-8.192Z" transform="translate(-185.66 -27.585)"/><rect class="b" width="4.118" height="28.303" transform="translate(164.653 215.87)"/><path class="a" d="M429.168,262.338l8.77-3.532c-1.548-1.991-3.8-2.954-6.761-.932a5.517,5.517,0,0,0-2.009,4.464Zm.655,3.264c1.621,3.862,7.333,3.9,9.5.3l3.261,2.186a9.54,9.54,0,0,1-8.075,4.315,9.261,9.261,0,0,1-6.789-2.767,10.177,10.177,0,0,1-.386-13.653,8.935,8.935,0,0,1,9.69-2.392c2.422.88,4.389,3.011,5.826,6.715C438.5,262.062,434.174,263.85,429.823,265.6Z" transform="translate(-254.359 -27.594)"/></g></svg>