<svg xmlns="http://www.w3.org/2000/svg" width="30.928" height="30.066" viewBox="0 0 30.928 30.066"><defs><style>.a,.b{fill:#fb533a;}.a{opacity:0.4;}</style></defs><g transform="translate(0)"><path class="a" d="M7.48,27.891l4.984,3.858a4.947,4.947,0,0,0,3.054.965h6.109a4.828,4.828,0,0,0,4.5-3.376L29.987,17.6a3.012,3.012,0,0,0-3.054-4.18H20.5a1.622,1.622,0,0,1-1.608-1.929l.8-5.144a3.171,3.171,0,0,0-2.09-3.537,3.21,3.21,0,0,0-3.537,1.125L7.48,13.744" transform="translate(0.718 -2.648)"/><path class="b" d="M2.381,25.459V9.7c0-2.251.965-3.054,3.215-3.054H7.2c2.251,0,3.215.8,3.215,3.054V25.459c0,2.251-.965,3.054-3.215,3.054H5.6C3.345,28.514,2.381,27.71,2.381,25.459Z" transform="translate(-2.381 -0.216)"/></g></svg>