<svg xmlns="http://www.w3.org/2000/svg" width="19.006" height="18.21" viewBox="0 0 19.006 18.21"><defs><style>.a{fill:none;stroke:#fff;stroke-linecap:round;stroke-linejoin:round;stroke-width:1.5px;}</style></defs><g transform="translate(0.75 0.75)"><path class="a" d="M13.591,30.8a.8.8,0,1,1-.8-.8A.8.8,0,0,1,13.591,30.8Z" transform="translate(-6.43 -14.881)"/><path class="a" d="M30.091,30.8a.8.8,0,1,1-.8-.8A.8.8,0,0,1,30.091,30.8Z" transform="translate(-14.177 -14.881)"/><path class="a" d="M1.5,1.5H4.683L6.815,12.155a1.591,1.591,0,0,0,1.591,1.281h7.734a1.591,1.591,0,0,0,1.591-1.281l1.273-6.676H5.479" transform="translate(-1.5 -1.5)"/></g></svg>