<svg xmlns="http://www.w3.org/2000/svg" width="22.8" height="22.764" viewBox="0 0 22.8 22.764"><defs><style>.a{fill:#bad5e9;}.b{fill:none;stroke:#065cb8;stroke-linecap:round;stroke-linejoin:round;stroke-width:2px;}</style></defs><g transform="translate(-1.992 -1.998)"><path class="a" d="M5,18H21.149v2.307A1.153,1.153,0,0,1,20,21.46H6.153A1.153,1.153,0,0,1,5,20.307Z" transform="translate(0.307 2.302)"/><path class="a" d="M23.521,10.244,21.7,3.842A1.153,1.153,0,0,0,20.545,3H6.173a1.153,1.153,0,0,0-1.153.842l-1.776,6.4A5.767,5.767,0,0,0,3.024,11.4a2.768,2.768,0,0,0,2.445,3.137,2.6,2.6,0,0,0,2.722-2.6,2.6,2.6,0,1,0,5.191,0,2.6,2.6,0,1,0,5.191,0,2.6,2.6,0,0,0,2.722,2.6,2.768,2.768,0,0,0,2.468-3.126,5.767,5.767,0,0,0-.242-1.165Z" transform="translate(0 0)"/><path class="b" d="M21.456,14.535v8.074A1.153,1.153,0,0,1,20.3,23.763H6.461a1.153,1.153,0,0,1-1.153-1.153V14.535m18.213-4.291L21.7,3.842A1.153,1.153,0,0,0,20.545,3H6.173a1.153,1.153,0,0,0-1.153.842l-1.776,6.4A5.767,5.767,0,0,0,3.024,11.4a2.768,2.768,0,0,0,2.445,3.137,2.6,2.6,0,0,0,2.722-2.6,2.6,2.6,0,1,0,5.191,0,2.6,2.6,0,1,0,5.191,0,2.6,2.6,0,0,0,2.722,2.6,2.768,2.768,0,0,0,2.468-3.126,5.767,5.767,0,0,0-.242-1.165Z" transform="translate(0 0)"/></g></svg>