<svg xmlns="http://www.w3.org/2000/svg" width="24.014" height="24.014" viewBox="0 0 24.014 24.014"><defs><style>.a,.b{fill:none;stroke:#015cae;stroke-linecap:round;stroke-linejoin:round;stroke-width:2px;}.a{opacity:0.4;}</style></defs><g transform="translate(-1 -1)"><path class="a" d="M12.955,15.208h1.1a2.208,2.208,0,0,0,2.2-2.2V2H6.351A4.4,4.4,0,0,0,2.51,4.256" transform="translate(0.051)"/><path class="b" d="M2,18.208a3.3,3.3,0,0,0,3.3,3.3H6.4a2.2,2.2,0,1,1,4.4,0h4.4a2.2,2.2,0,1,1,4.4,0h1.1a3.3,3.3,0,0,0,3.3-3.3v-3.3h-3.3a1.1,1.1,0,0,1-1.1-1.1V10.5a1.1,1.1,0,0,1,1.1-1.1h1.42L20.249,6.112A2.219,2.219,0,0,0,18.334,5H16.309v7.7a2.208,2.208,0,0,1-2.2,2.2h-1.1" transform="translate(0 0.302)"/><path class="b" d="M8.2,22.4A2.2,2.2,0,1,0,6,20.2,2.2,2.2,0,0,0,8.2,22.4Z" transform="translate(0.403 1.611)"/><path class="b" d="M16.2,22.4A2.2,2.2,0,1,0,14,20.2,2.2,2.2,0,0,0,16.2,22.4Z" transform="translate(1.208 1.611)"/><path class="b" d="M22.4,12.3v2.2H19.1A1.1,1.1,0,0,1,18,13.4V10.1A1.1,1.1,0,0,1,19.1,9h1.42Z" transform="translate(1.611 0.705)"/><path class="b" d="M2,8H8.6" transform="translate(0 0.604)"/><path class="b" d="M2,11H6.4" transform="translate(0 0.906)"/><path class="b" d="M2,14H4.2" transform="translate(0 1.208)"/></g></svg>