<svg xmlns="http://www.w3.org/2000/svg" width="19.01" height="13.367" viewBox="0 0 19.01 13.367"><defs><style>.a{fill:#004989;}</style></defs><path class="a" d="M19.663,6.591A2.389,2.389,0,0,0,17.982,4.9a56.449,56.449,0,0,0-7.427-.4,56.449,56.449,0,0,0-7.427.4A2.389,2.389,0,0,0,1.447,6.591a25.058,25.058,0,0,0-.4,4.605,25.058,25.058,0,0,0,.4,4.605,2.353,2.353,0,0,0,1.681,1.665,56.45,56.45,0,0,0,7.427.4,56.449,56.449,0,0,0,7.427-.4A2.353,2.353,0,0,0,19.663,15.8a25.058,25.058,0,0,0,.4-4.605,25.058,25.058,0,0,0-.4-4.605ZM8.611,14.023V8.37L13.579,11.2,8.611,14.023Z" transform="translate(-1.05 -4.5)"/></svg>