<svg width="52" height="41" viewBox="0 0 52 41" fill="none" xmlns="http://www.w3.org/2000/svg">
<path d="M35.41 36.3009C35.41 37.1062 35.0901 37.8788 34.5206 38.4483C33.9511 39.0178 33.1785 39.3378 32.3731 39.3378H5.03687C4.23151 39.3378 3.45895 39.0178 2.88944 38.4483C2.31994 37.8788 2 37.1062 2 36.3009V19.5929C2 18.7876 2.31994 18.015 2.88944 17.4455C3.45895 16.876 4.23151 16.556 5.03687 16.556H11.1121L14.149 12H23.261L26.3009 16.556H32.3761C33.181 16.5568 33.9527 16.8772 34.5216 17.4465C35.0905 18.016 35.41 18.788 35.41 19.5929V36.3009Z" stroke="currentColor" stroke-width="2.75" stroke-linecap="round" stroke-linejoin="round"/>
<path d="M24.7803 27.1873C24.7803 28.3889 24.424 29.5636 23.7564 30.5626C23.0888 31.5617 22.1398 32.3404 21.0296 32.8002C19.9194 33.26 18.6978 33.3801 17.5192 33.1456C16.3407 32.9111 15.2582 32.3324 14.4087 31.4826C13.5591 30.6328 12.9806 29.5501 12.7464 28.3715C12.5122 27.1929 12.6327 25.9713 13.0928 24.8613C13.5528 23.7512 14.3317 22.8025 15.331 22.1351C16.3301 21.4678 17.5049 21.1118 18.7066 21.1121C20.3179 21.1121 21.863 21.7521 23.0024 22.8914C24.1418 24.0307 24.7818 25.576 24.7818 27.1873H24.7803Z" stroke="currentColor" stroke-width="2.75" stroke-linecap="round" stroke-linejoin="round"/>
<path d="M43.597 12.3689L43.5963 9.58505H46.3809C46.5285 9.56975 46.6652 9.50035 46.7646 9.39005C46.864 9.27985 46.919 9.13675 46.919 8.98825C46.919 8.83985 46.864 8.69675 46.7646 8.58655C46.6652 8.47625 46.5285 8.40685 46.3809 8.39155H43.5963V5.60695C43.581 5.45925 43.5115 5.32255 43.4013 5.22325C43.2911 5.12385 43.1479 5.06885 42.9995 5.06885C42.8511 5.06885 42.708 5.12385 42.5977 5.22325C42.4875 5.32255 42.418 5.45925 42.4027 5.60695V8.39155H39.6181C39.539 8.38875 39.4602 8.40225 39.3865 8.43125C39.3129 8.46035 39.246 8.50415 39.19 8.56015C39.134 8.61615 39.0901 8.68305 39.0611 8.75665C39.0321 8.83035 39.0186 8.90915 39.0213 8.98825C39.0208 9.06685 39.0359 9.14465 39.0657 9.21725C39.0955 9.28995 39.1395 9.35595 39.195 9.41145C39.2505 9.46695 39.3165 9.51085 39.3891 9.54065C39.4618 9.57055 39.5396 9.58565 39.6181 9.58505L42.4013 9.58655V12.371C42.4021 12.5291 42.4653 12.6804 42.577 12.7921C42.6888 12.9039 42.8401 12.967 42.9981 12.9678C43.077 12.9686 43.1552 12.9537 43.2282 12.9239C43.3013 12.894 43.3676 12.85 43.4234 12.7942C43.4791 12.7384 43.5232 12.6721 43.553 12.5991C43.5829 12.526 43.5978 12.4478 43.597 12.3689Z" fill="currentColor" stroke="currentColor"/>
<path d="M47.7546 4.23387C48.8533 5.33397 49.5367 6.78097 49.6882 8.32837C49.8398 9.87567 49.4502 11.4278 48.5858 12.7202C47.7213 14.0125 46.4356 14.9652 44.9475 15.4159C43.4595 15.8666 41.8612 15.7875 40.425 15.192C38.9888 14.5965 37.8034 13.5214 37.0709 12.15C36.3384 10.7786 36.104 9.19557 36.4077 7.67067C36.7114 6.14587 37.5343 4.77347 38.7364 3.78727C39.9384 2.80117 41.4452 2.26229 43 2.26246C43.8834 2.26007 44.7585 2.43296 45.5747 2.77111C46.3908 3.10927 47.1317 3.60597 47.7546 4.23247V4.23387ZM48.4942 3.49287C47.4076 2.40617 46.0231 1.66615 44.5159 1.36635C43.0086 1.06654 41.4463 1.22041 40.0266 1.8085C38.6068 2.3966 37.3933 3.39247 36.5395 4.67027C35.6857 5.94807 35.23 7.45027 35.23 8.98707C35.23 10.5238 35.6857 12.0261 36.5395 13.3039C37.3933 14.5816 38.6068 15.5775 40.0266 16.1656C41.4463 16.7537 43.0086 16.9076 44.5159 16.6078C46.0231 16.308 47.4076 15.568 48.4942 14.4813C49.216 13.7599 49.7885 12.9034 50.1791 11.9607C50.5698 11.018 50.7708 10.0075 50.7708 8.98707C50.7708 7.96657 50.5698 6.95617 50.1791 6.01347C49.7885 5.07077 49.216 4.21417 48.4942 3.49287Z" fill="currentColor" stroke="currentColor" stroke-width="1.5"/>
</svg>