<svg xmlns="http://www.w3.org/2000/svg" width="16.151" height="13.773" viewBox="0 0 16.151 13.773"><defs><style>.a{fill:none;stroke:#3699cf;stroke-linecap:round;stroke-linejoin:round;stroke-width:1.5px;}</style></defs><g transform="translate(0.75 0.75)"><path class="a" d="M7.5,22.5H4.258A2.758,2.758,0,0,0,1.5,25.258v1.379" transform="translate(-1.5 -14.365)"/><path class="a" d="M12.267,7.258A2.758,2.758,0,1,1,9.508,4.5a2.758,2.758,0,0,1,2.758,2.758Z" transform="translate(-4.379 -4.5)"/><g transform="translate(3.4 1.771)"><path class="a" d="M5.25,16.5H10.5a.75.75,0,0,1,.75.75v2.625a.75.75,0,0,1-.75.75H5.25a.75.75,0,0,1-.75-.75V17.25A.75.75,0,0,1,5.25,16.5Z" transform="translate(0 -10.125)"/><path class="a" d="M10.5,6.375v-1.5a1.875,1.875,0,0,1,3.751,0v1.5" transform="translate(-4.5)"/></g></g></svg>