<svg width="38" height="31" viewBox="0 0 38 31" fill="none" xmlns="http://www.w3.org/2000/svg">
<path d="M13.1563 24.5L8.94581 8.5H36.0542L31.9418 24.1273C31.884 24.3469 31.6854 24.5 31.4582 24.5H13.1563Z" stroke="white" stroke-width="3"/>
<circle cx="16.5" cy="28.5" r="2.5" fill="white"/>
<circle cx="28.5" cy="28.5" r="2.5" fill="white"/>
<path d="M10.7955 9V9.25H11.0455H14H14.3115L14.2441 8.94591C13.9447 7.59487 13.2868 5.56808 12.2797 3.87235C11.2824 2.19297 9.88822 0.75 8.09091 0.75H1H0.75V1V3V3.2901L1.03692 3.24726C2.68568 3.00106 5.14944 3.00414 7.18793 3.79555C8.20387 4.18998 9.10333 4.77588 9.74869 5.61352C10.3919 6.44833 10.7955 7.54956 10.7955 9Z" fill="white" stroke="white" stroke-width="0.5"/>
</svg>
