<svg width="15" height="15" viewBox="0 0 15 15" fill="none" xmlns="http://www.w3.org/2000/svg">
<path fill-rule="evenodd" clip-rule="evenodd" d="M7.5 15C11.6421 15 15 11.6426 15 7.5C15 3.35742 11.6421 0 7.5 0C3.35791 0 0 3.35742 0 7.5C0 11.6426 3.35791 15 7.5 15ZM8.25 3.5C8.25 3.08594 7.91406 2.75 7.5 2.75C7.08594 2.75 6.75 3.08594 6.75 3.5V9.68945L4.03027 6.96973C3.83594 6.77539 3.56201 6.70996 3.31396 6.77344C3.18799 6.80566 3.06836 6.87109 2.96973 6.96973C2.67676 7.2627 2.67676 7.7373 2.96973 8.03027L6.96973 12.0303C7.2627 12.3232 7.7373 12.3232 8.03027 12.0303L12.0303 8.03027C12.3232 7.7373 12.3232 7.2627 12.0303 6.96973C11.7373 6.67676 11.2627 6.67676 10.9697 6.96973L8.25 9.68945V3.5Z" fill="white"/>
</svg>
