<svg width="9" height="5" viewBox="0 0 9 5" fill="none" xmlns="http://www.w3.org/2000/svg">
<path d="M0.567501 0H7.8564C7.96828 8.78772e-05 8.07763 0.0333302 8.17062 0.0955281C8.26362 0.157726 8.33609 0.24609 8.37889 0.349456C8.4217 0.452823 8.4329 0.566556 8.4111 0.676289C8.3893 0.786022 8.33547 0.886831 8.2564 0.965985L4.61245 4.61193C4.50606 4.71745 4.36229 4.77666 4.21245 4.77666C4.06261 4.77666 3.91884 4.71745 3.81246 4.61193L0.167507 0.965985C0.0884408 0.886831 0.0346067 0.786022 0.0128045 0.676289C-0.00899772 0.566556 0.00221007 0.452823 0.0450121 0.349456C0.0878141 0.24609 0.16029 0.157726 0.253285 0.0955281C0.346281 0.0333302 0.455623 8.78772e-05 0.567501 0V0Z" fill="#272E47"/>
</svg>
