<svg xmlns="http://www.w3.org/2000/svg" width="13.602" height="15" viewBox="0 0 13.602 15"><defs><style>.a{fill:#3699cf;}</style></defs><path class="a" d="M15.263,6.923A7.736,7.736,0,0,1,15.013,8.6a4.855,4.855,0,0,1-.652,1.473,3.442,3.442,0,0,1-1.106,1.047,3.121,3.121,0,0,1-1.615.4,2.341,2.341,0,0,1-1.168-.286,2,2,0,0,1-.789-.809,2.5,2.5,0,0,1-2.116,1.063,2.152,2.152,0,0,1-1.847-.994A3.253,3.253,0,0,1,5.26,9.343a4.964,4.964,0,0,1-.06-1.5A6.975,6.975,0,0,1,5.657,6,5,5,0,0,1,6.5,4.594a3.577,3.577,0,0,1,1.162-.9,3.243,3.243,0,0,1,1.413-.314,4.4,4.4,0,0,1,.845.072,3.461,3.461,0,0,1,.656.2,3.548,3.548,0,0,1,.544.287c.166.107.333.217.5.33l-.411,4.724a1.57,1.57,0,0,0,.012.553.774.774,0,0,0,.169.341.607.607,0,0,0,.274.178,1.016,1.016,0,0,0,.962-.189,2.05,2.05,0,0,0,.516-.656,4.226,4.226,0,0,0,.347-.986A6.766,6.766,0,0,0,13.642,7a7.847,7.847,0,0,0-.193-2.295A4.561,4.561,0,0,0,12.6,2.935a3.943,3.943,0,0,0-1.522-1.144A5.525,5.525,0,0,0,8.86,1.385a4.9,4.9,0,0,0-2.193.478A5.032,5.032,0,0,0,5,3.189,6.361,6.361,0,0,0,3.909,5.182,8.984,8.984,0,0,0,3.45,7.666,8.26,8.26,0,0,0,3.684,10.2a4.578,4.578,0,0,0,.926,1.817,3.865,3.865,0,0,0,1.569,1.091,6.019,6.019,0,0,0,2.165.362,7.416,7.416,0,0,0,1.421-.153c.234-.047.456-.1.668-.165a5.03,5.03,0,0,0,.576-.206l.3,1.337a3.3,3.3,0,0,1-.644.319,6.2,6.2,0,0,1-.761.22A7.426,7.426,0,0,1,8.312,15a8.337,8.337,0,0,1-2.9-.467A5.334,5.334,0,0,1,3.3,13.144,5.834,5.834,0,0,1,2.032,10.85a9.784,9.784,0,0,1-.354-3.184,9.711,9.711,0,0,1,.609-3.056A7.562,7.562,0,0,1,3.755,2.183,6.689,6.689,0,0,1,5.994.581,7.011,7.011,0,0,1,8.895,0,7.319,7.319,0,0,1,11.7.5a5.466,5.466,0,0,1,2.028,1.415,5.809,5.809,0,0,1,1.2,2.187A8.361,8.361,0,0,1,15.263,6.923Zm-8.05.919a3.189,3.189,0,0,0,.165,1.581.848.848,0,0,0,.815.534.9.9,0,0,0,.279-.052,1,1,0,0,0,.322-.193,1.716,1.716,0,0,0,.326-.394,3.021,3.021,0,0,0,.3-.666l.321-3.671a1.915,1.915,0,0,0-.5-.066,1.724,1.724,0,0,0-.83.19,1.642,1.642,0,0,0-.588.559,3.281,3.281,0,0,0-.39.919,7.792,7.792,0,0,0-.221,1.256Z" transform="translate(-1.67 0)"/></svg>