<svg width="148" height="41" viewBox="0 0 148 41" fill="none" xmlns="http://www.w3.org/2000/svg">
<g clip-path="url(#clip0_231_16)">
<path d="M145.248 32.758C145.5 31.458 145.536 30.251 144.636 30.251C143.807 30.251 143.014 31.459 142.762 32.775L141.896 37.21H139.537L140.403 32.793C140.655 31.493 140.673 30.251 139.773 30.251C139.034 30.251 138.186 31.207 137.915 32.595L137.015 37.21H134.656L136.333 28.646H137.848L137.956 29.674C138.277 29.2948 138.675 28.9879 139.123 28.7734C139.571 28.559 140.059 28.4419 140.556 28.43C141.035 28.3749 141.519 28.4839 141.929 28.7393C142.338 28.9946 142.649 29.3812 142.81 29.836C143.118 29.4267 143.512 29.089 143.963 28.8463C144.415 28.6036 144.913 28.4616 145.425 28.43C147.769 28.43 148.111 30.304 147.678 32.504L146.759 37.209H144.39L145.248 32.758Z" fill="#3699CF"/>
<path d="M131.392 28.432C131.857 28.3743 132.329 28.4229 132.773 28.574C133.217 28.7252 133.62 28.975 133.954 29.3047C134.287 29.6343 134.541 30.0354 134.697 30.4774C134.853 30.9195 134.907 31.3912 134.854 31.857C134.854 34.94 132.926 37.4281 129.644 37.4281C127.174 37.4281 126.164 36.003 126.164 34.002C126.16 30.938 128.108 28.432 131.392 28.432ZM130.004 35.589C131.392 35.589 132.384 34.146 132.384 32.109C132.384 30.937 131.884 30.273 131.033 30.273C129.59 30.273 128.633 31.734 128.633 33.752C128.633 34.92 129.133 35.588 130 35.588L130.004 35.589Z" fill="#3699CF"/>
<path d="M124.388 28.432C125.219 28.4218 126.042 28.5871 126.804 28.917L126.029 30.594C125.461 30.3699 124.855 30.2599 124.245 30.27C122.945 30.27 121.576 31.478 121.576 33.57C121.576 34.85 122.261 35.59 123.271 35.59C124.033 35.5986 124.788 35.4498 125.489 35.153L125.02 37.029C124.281 37.324 123.489 37.4603 122.694 37.429C120.188 37.429 119.106 36.004 119.106 33.929C119.032 32.5466 119.511 31.1916 120.437 30.162C121.362 29.1324 122.659 28.5127 124.041 28.439C124.161 28.433 124.272 28.43 124.388 28.432Z" fill="#3699CF"/>
<path d="M116.962 34.6509C117.258 34.6294 117.55 34.7257 117.775 34.9189C117.999 35.1121 118.139 35.3864 118.162 35.6819C118.162 35.7219 118.162 35.7639 118.162 35.8039C118.144 36.2504 117.95 36.6715 117.622 36.9756C117.295 37.2796 116.86 37.4418 116.414 37.4269C116.119 37.4496 115.827 37.3543 115.602 37.162C115.377 36.9696 115.237 36.6959 115.214 36.4009C115.214 36.3639 115.214 36.3269 115.214 36.2909C115.23 35.8421 115.422 35.4177 115.75 35.1104C116.077 34.8032 116.513 34.638 116.962 34.6509V34.6509Z" fill="#FE7572"/>
<path d="M106.889 31.8749C106.889 35.0839 104.905 37.4269 102.184 37.4269C101.562 37.4516 100.952 37.2462 100.472 36.85L99.7509 40.582H97.3918L99.7168 28.6479H101.231V29.4769C101.963 28.7883 102.935 28.4121 103.941 28.428C105.807 28.432 106.889 29.7649 106.889 31.8749ZM102.131 35.5889C103.482 35.5889 104.403 34.2539 104.403 32.0549C104.403 30.8649 103.934 30.27 103.159 30.27C101.789 30.27 100.905 31.7849 100.905 33.7859C100.905 34.9399 101.336 35.5859 102.13 35.5859L102.131 35.5889Z" fill="#3699CF"/>
<path d="M115.504 31.8751C115.504 35.0841 113.52 37.4271 110.798 37.4271C110.176 37.4517 109.567 37.2463 109.087 36.8501L108.365 40.5821H106.006L108.331 28.6481H109.846V29.477C110.576 28.7904 111.544 28.4143 112.546 28.4281C114.423 28.4321 115.504 29.7651 115.504 31.8751ZM110.744 35.589C112.097 35.589 113.016 34.2541 113.016 32.0551C113.016 30.8651 112.547 30.2701 111.772 30.2701C110.402 30.2701 109.518 31.7851 109.518 33.7861C109.518 34.9401 109.956 35.5861 110.741 35.5861L110.744 35.589Z" fill="#3699CF"/>
<path d="M96.9309 29.7122L97.3639 28.6481H98.8779L97.2049 37.2111H95.6899V36.4002C94.9507 37.0752 93.9819 37.4428 92.9809 37.4282C91.1059 37.4282 90.0239 36.0931 90.0239 33.9851C90.0239 30.7761 92.0079 28.4321 94.7289 28.4321C95.1821 28.3994 95.6346 28.5041 96.0274 28.7324C96.4202 28.9608 96.7351 29.3022 96.9309 29.7122V29.7122ZM94.7869 30.2701C93.4339 30.2701 92.4969 31.6052 92.4969 33.8032C92.4969 34.9932 92.9819 35.5891 93.7579 35.5891C95.1279 35.5891 96.0119 34.0741 96.0119 32.0731C96.0119 30.9191 95.5789 30.2731 94.7869 30.2731V30.2701Z" fill="#3699CF"/>
<path d="M123.235 4.46401C123.555 4.78538 123.807 5.16903 123.973 5.59126C124.14 6.0135 124.218 6.46539 124.203 6.91902C124.2 8.17585 123.702 9.38084 122.816 10.2725C121.93 11.1642 120.729 11.6707 119.472 11.682C119.008 11.699 118.545 11.621 118.112 11.4528C117.678 11.2847 117.284 11.0298 116.953 10.704C116.629 10.3882 116.375 10.0091 116.204 9.59029C116.034 9.17145 115.952 8.72198 115.964 8.27004C115.974 7.01073 116.477 5.80546 117.365 4.91292C118.254 4.02038 119.457 3.51171 120.716 3.49605C121.18 3.47693 121.642 3.55296 122.076 3.71944C122.509 3.88592 122.903 4.13928 123.235 4.46401ZM122.299 9.80104C122.675 9.43018 122.972 8.98821 123.175 8.50093C123.378 8.01365 123.482 7.49082 123.48 6.96303C123.498 6.59066 123.437 6.21867 123.302 5.87117C123.167 5.52367 122.961 5.20839 122.696 4.94582C122.432 4.68325 122.115 4.47921 121.766 4.34694C121.418 4.21467 121.045 4.15711 120.673 4.178C120.152 4.17593 119.636 4.2826 119.158 4.49111C118.68 4.69961 118.251 5.00545 117.898 5.38906C117.52 5.7582 117.219 6.19961 117.015 6.68715C116.81 7.17469 116.706 7.69835 116.708 8.22701C116.694 8.59722 116.755 8.96647 116.889 9.31209C117.022 9.65771 117.225 9.97243 117.484 10.237C117.748 10.5048 118.065 10.7143 118.414 10.8521C118.764 10.9899 119.138 11.0529 119.514 11.037C120.039 11.0362 120.558 10.9257 121.038 10.7127C121.517 10.4997 121.947 10.1888 122.3 9.8L122.299 9.80104ZM119.281 5.46401H120.631C121.439 5.46401 121.896 5.90002 121.896 6.59102C121.938 6.92847 121.847 7.26906 121.643 7.54091C121.439 7.81276 121.137 7.99464 120.801 8.04805V8.079L121.46 9.72701H120.694L120.056 8.10005H119.599V7.98403L119.299 9.72804H118.512L119.281 5.46401ZM119.929 6.15505L119.717 7.42H120.302C120.853 7.42 121.129 7.16468 121.13 6.65401C121.12 6.32501 120.908 6.15401 120.493 6.15401L119.929 6.15505Z" fill="#3699CF"/>
<path d="M99.039 16.7031C99.126 19.6631 100.275 21.032 103.677 21.032C105.843 20.9947 107.984 20.5606 109.993 19.7511L108.939 24.3441C106.882 25.14 104.695 25.5446 102.49 25.537C96.04 25.537 92.99 22.4 92.99 16.925C92.99 9.72505 97.407 3.49609 105.181 3.49609C109.775 3.49609 112.117 5.88208 112.117 9.10608C112.117 13.8771 108.096 16.5691 99.039 16.7031ZM99.48 12.5961C105.135 12.4211 106.813 11.3151 106.813 9.5481C106.813 8.6211 106.105 8.00305 104.782 8.00305C102.353 8.00305 100.365 9.50309 99.482 12.5951L99.48 12.5961Z" fill="#3699CF"/>
<path d="M84.0629 24.2602L84.1499 23.7742C82.6497 24.5999 80.9622 25.0255 79.2499 25.0102C74.6569 25.0102 71.9619 21.8742 71.9619 16.8402C71.9619 9.10923 76.9099 3.5002 83.4909 3.5002C84.5835 3.45982 85.6666 3.71777 86.6237 4.2463C87.5809 4.77482 88.3761 5.55397 88.9239 6.5002L90.0239 4.0262H93.7819L89.8069 24.3452C88.6139 30.4842 84.3289 33.7982 76.9069 33.7982C74.6396 33.7587 72.3851 33.4475 70.1919 32.8712L70.9009 28.1002C73.0544 28.877 75.3246 29.2804 77.6139 29.2932C81.4979 29.2912 83.3979 27.6562 84.0629 24.2602ZM83.6219 8.00618C80.3989 8.00618 78.0119 11.0962 78.0119 16.3062C78.0119 19.1332 79.2469 20.5002 81.1039 20.5002C84.4619 20.5002 86.6249 17.1432 86.6249 12.3302C86.6259 9.59222 85.5649 8.00521 83.6219 8.00521V8.00618Z" fill="#3699CF"/>
<path d="M66.933 4.0271H72.72L70.247 16.7051C69.147 22.3581 64.99 25.5381 59.293 25.5381C53.596 25.5381 50.768 22.1811 51.872 16.5281L54.301 4.02814H60.087L57.658 16.5281C57.04 19.7071 57.879 21.0771 60.176 21.0771C62.429 21.0771 63.887 19.7071 64.504 16.5281L66.933 4.0271Z" fill="#3699CF"/>
<path d="M47.5349 6.63309L48.5959 4.0261H52.3059L48.1979 25.0071H44.4869V23.0191C42.6798 24.6715 40.3103 25.5721 37.8619 25.5371C33.2689 25.5371 30.6179 22.2681 30.6179 17.1001C30.6179 9.23507 35.4779 3.50009 42.1469 3.50009C43.2556 3.42181 44.3622 3.6787 45.3231 4.2374C46.2839 4.7961 47.0545 5.6308 47.5349 6.63309V6.63309ZM42.2779 8.00309C38.9649 8.00309 36.6679 11.2711 36.6679 16.6601C36.6679 19.5761 37.8609 21.0301 39.7609 21.0301C43.1179 21.0301 45.2809 17.3191 45.2809 12.4171C45.2809 9.59309 44.2209 8.00705 42.2809 8.00705L42.2779 8.00309Z" fill="#3699CF"/>
<path d="M18.137 39.264V17.3589L35.817 30.928L28.137 32.22L32.237 40.582H45.262L22.632 0.000976562L0.000976562 40.582H27.326L24.135 34.0679L18.137 39.264Z" fill="#FE7572"/>
<path d="M28.1311 32.2199L35.8111 30.9279L18.1311 17.3589V39.2639L24.1311 34.0639L27.3221 40.5779H32.2341L28.1311 32.2199Z" fill="white"/>
</g>
<defs>
<clipPath id="clip0_231_16">
<rect width="147.83" height="40.582" fill="white"/>
</clipPath>
</defs>
</svg>