<svg width="29" height="34" viewBox="0 0 29 34" fill="none" xmlns="http://www.w3.org/2000/svg">
<path d="M2.18825 8.00366H26.8672L27.4913 18.1291L28.045 27.0895C28.0918 27.8457 27.9833 28.6034 27.7263 29.3161C27.4692 30.0287 27.0689 30.6812 26.5501 31.2333C26.0313 31.7854 25.405 32.2254 24.7097 32.5263C24.0145 32.8272 23.2649 32.9826 22.5073 32.9829H6.55025C5.79265 32.9826 5.04314 32.8272 4.34786 32.5263C3.65258 32.2254 3.02627 31.7854 2.50748 31.2333C1.9887 30.6812 1.58844 30.0287 1.33134 29.3161C1.07424 28.6034 0.965751 27.8457 1.01256 27.0895L2.18825 8.00366Z" stroke="white" stroke-width="1.5" stroke-miterlimit="10" stroke-linecap="round" stroke-linejoin="round"/>
<path d="M1.13337 26.736H27.9316L27.9529 27.0128C28.0097 27.7747 27.9087 28.54 27.6562 29.261C27.4036 29.982 27.005 30.6431 26.4851 31.2029C25.9653 31.7627 25.3355 32.2092 24.6352 32.5143C23.9349 32.8195 23.1791 32.9769 22.4152 32.9765H6.65403C5.88858 32.9776 5.13117 32.8203 4.42941 32.5146C3.72766 32.2089 3.09672 31.7614 2.57624 31.2001C2.05577 30.6388 1.65702 29.976 1.40505 29.2532C1.15308 28.5304 1.05333 27.7633 1.11207 27.0001L1.13337 26.736Z" fill="white" fill-opacity="0.6" stroke="white" stroke-width="1.5" stroke-miterlimit="10" stroke-linecap="round" stroke-linejoin="round"/>
<path d="M7.58505 10.0845V8.0036C7.56891 7.08224 7.73643 6.1669 8.07786 5.31099C8.41928 4.45509 8.92776 3.67575 9.57362 3.01847C10.2195 2.3612 10.9898 1.83914 11.8396 1.48278C12.6894 1.12641 13.6017 0.942871 14.5231 0.942871C15.4446 0.942871 16.3569 1.12641 17.2067 1.48278C18.0565 1.83914 18.8268 2.3612 19.4727 3.01847C20.1185 3.67575 20.627 4.45509 20.9684 5.31099C21.3099 6.1669 21.4774 7.08224 21.4612 8.0036V10.0845" stroke="white" stroke-width="1.5" stroke-miterlimit="10" stroke-linecap="round" stroke-linejoin="round"/>
</svg>
