<svg width="39" height="34" viewBox="0 0 39 34" fill="none" xmlns="http://www.w3.org/2000/svg">
<ellipse cx="18.5" cy="8.5" rx="6.5" ry="7.5" fill="#FF6F6F"/>
<path d="M6.18825 8.00342H30.8672L31.4913 18.1289L32.045 27.0893C32.0918 27.8455 31.9833 28.6032 31.7263 29.3159C31.4692 30.0285 31.0689 30.681 30.5501 31.2331C30.0313 31.7852 29.405 32.2252 28.7097 32.5261C28.0145 32.827 27.2649 32.9824 26.5073 32.9827H10.5502C9.79265 32.9824 9.04314 32.827 8.34786 32.5261C7.65258 32.2252 7.02627 31.7852 6.50748 31.2331C5.9887 30.681 5.58844 30.0285 5.33134 29.3159C5.07424 28.6032 4.96575 27.8455 5.01256 27.0893L6.18825 8.00342Z" fill="#FF6F6F" stroke="white" stroke-width="1.5" stroke-miterlimit="10" stroke-linecap="round" stroke-linejoin="round"/>
<path d="M5.13337 26.7358H31.9316L31.9529 27.0126C32.0097 27.7745 31.9087 28.5398 31.6562 29.2608C31.4036 29.9818 31.005 30.6429 30.4851 31.2027C29.9653 31.7625 29.3355 32.209 28.6352 32.5141C27.9349 32.8193 27.1791 32.9767 26.4152 32.9763H10.654C9.88858 32.9774 9.13117 32.8201 8.42941 32.5144C7.72766 32.2087 7.09672 31.7612 6.57624 31.1999C6.05577 30.6386 5.65702 29.9758 5.40505 29.253C5.15308 28.5302 5.05333 27.7631 5.11207 26.9999L5.13337 26.7358Z" fill="white" fill-opacity="0.6" stroke="white" stroke-width="1.5" stroke-miterlimit="10" stroke-linecap="round" stroke-linejoin="round"/>
<path d="M11.585 10.0845V8.0036C11.5689 7.08224 11.7364 6.1669 12.0779 5.31099C12.4193 4.45509 12.9278 3.67575 13.5736 3.01847C14.2195 2.3612 14.9898 1.83914 15.8396 1.48278C16.6894 1.12641 17.6017 0.942871 18.5231 0.942871C19.4446 0.942871 20.3569 1.12641 21.2067 1.48278C22.0565 1.83914 22.8268 2.3612 23.4727 3.01847C24.1185 3.67575 24.627 4.45509 24.9684 5.31099C25.3099 6.1669 25.4774 7.08224 25.4612 8.0036V10.0845" stroke="white" stroke-width="1.5" stroke-miterlimit="10" stroke-linecap="round" stroke-linejoin="round"/>
<mask id="path-5-inside-1_366_28" fill="white">
<path d="M2.41992 0.406738L38.424 30.6178L36.5554 32.8447L0.551263 2.63372L2.41992 0.406738Z"/>
</mask>
<path d="M2.41992 0.406738L38.424 30.6178L36.5554 32.8447L0.551263 2.63372L2.41992 0.406738Z" fill="#FF6F6F"/>
<path d="M37.1981 32.0787L1.19405 1.86767L-0.0915246 3.39976L35.9126 33.6108L37.1981 32.0787Z" fill="white" mask="url(#path-5-inside-1_366_28)"/>
</svg>
