<svg xmlns="http://www.w3.org/2000/svg" width="45" height="45" viewBox="0 0 45 45"><defs><style>.a{fill:#21d0a1;}.b{fill:none;}.b,.c{stroke:#fff;stroke-linecap:round;stroke-linejoin:round;stroke-miterlimit:10;stroke-width:1.5px;}.c{fill:rgba(255,255,255,0.56);}</style></defs><rect class="a" width="45" height="45" rx="4"/><g transform="translate(10 8)"><path class="b" d="M1.343,0H23.923L24.5,9.268l.506,8.2a5.081,5.081,0,0,1-5.071,5.394H5.335A5.081,5.081,0,0,1,.264,17.469Z" transform="translate(-0.254 6.351)"/><path class="c" d="M.357,0H24.886L24.9.253a5.081,5.081,0,0,1-5.066,5.462H5.4A5.081,5.081,0,0,1,.338.242Z" transform="translate(-0.236 23.498)"/><path class="b" d="M0,8.256V6.351a6.351,6.351,0,0,1,12.7,0V8.256" transform="translate(6.028 0)"/></g></svg>