<svg class="bagBg" width="32" height="32" viewBox="0 0 32 32" fill="none" xmlns="http://www.w3.org/2000/svg">
<path class="bagBg" d="M28 0H4C1.79086 0 0 1.79086 0 4V28C0 30.2091 1.79086 32 4 32H28C30.2091 32 32 30.2091 32 28V4C32 1.79086 30.2091 0 28 0Z" />
<path class="bagIcon" d="M10.5589 12.2581H22.1459L22.4389 17.0121L22.6989 21.2191C22.7209 21.5741 22.67 21.9298 22.5493 22.2644C22.4286 22.599 22.2406 22.9054 21.997 23.1646C21.7535 23.4238 21.4594 23.6304 21.133 23.7717C20.8065 23.913 20.4546 23.9859 20.0989 23.9861H12.6069C12.2512 23.9859 11.8993 23.913 11.5729 23.7717C11.2464 23.6304 10.9524 23.4238 10.7088 23.1646C10.4652 22.9054 10.2773 22.599 10.1566 22.2644C10.0359 21.9298 9.98496 21.5741 10.0069 21.2191L10.5589 12.2581Z" stroke-width="1.5" stroke-miterlimit="10" stroke-linecap="round" stroke-linejoin="round"/>
<path class="bagIcon" d="M10.0619 21.053H22.6439L22.6539 21.183C22.6806 21.5407 22.6332 21.9 22.5146 22.2385C22.396 22.577 22.2088 22.8874 21.9648 23.1502C21.7207 23.4131 21.425 23.6227 21.0962 23.766C20.7674 23.9093 20.4126 23.9831 20.0539 23.983H12.6539C12.2945 23.9835 11.9389 23.9097 11.6094 23.7661C11.2799 23.6226 10.9837 23.4125 10.7393 23.1489C10.495 22.8854 10.3077 22.5742 10.1894 22.2348C10.0711 21.8955 10.0243 21.5353 10.0519 21.177L10.0619 21.053Z" stroke-width="1.5" stroke-miterlimit="10" stroke-linecap="round" stroke-linejoin="round"/>
<path class="bagIcon" d="M13.0921 13.2349V12.2579C13.0845 11.8254 13.1631 11.3956 13.3234 10.9937C13.4837 10.5919 13.7225 10.226 14.0257 9.91739C14.3289 9.60879 14.6906 9.36368 15.0896 9.19636C15.4886 9.02904 15.9169 8.94287 16.3496 8.94287C16.7822 8.94287 17.2105 9.02904 17.6095 9.19636C18.0085 9.36368 18.3702 9.60879 18.6734 9.91739C18.9766 10.226 19.2154 10.5919 19.3757 10.9937C19.536 11.3956 19.6146 11.8254 19.6071 12.2579V13.2349" stroke-width="1.5" stroke-miterlimit="10" stroke-linecap="round" stroke-linejoin="round"/>
</svg>