<svg xmlns="http://www.w3.org/2000/svg" width="32" height="32" viewBox="0 0 32 32"><defs><style>.a,.c{fill:none;}.a{stroke:#fd6e63;stroke-width:1.2px;}.a,.c,.d{stroke-linecap:round;stroke-linejoin:round;}.b{fill:#21d0a1;}.c,.d{stroke:#fff;stroke-miterlimit:10;stroke-width:1.5px;}.d{fill:rgba(255,255,255,0.56);}</style></defs><g transform="translate(8.98 7.379)"><path class="a" d="M4.5,9H18.18" transform="translate(-4.5 -5.96)"/><path class="a" d="M18.14,6.04V16.68a1.52,1.52,0,0,1-1.52,1.52H9.02A1.52,1.52,0,0,1,7.5,16.68V6.04m2.28,0V4.52A1.52,1.52,0,0,1,11.3,3h3.04a1.52,1.52,0,0,1,1.52,1.52V6.04" transform="translate(-5.98 -3)"/></g><rect class="b" width="32" height="32" rx="4"/><g transform="translate(10 9)"><path class="c" d="M.813,0H12.4l.293,4.754.26,4.207a2.606,2.606,0,0,1-2.6,2.767H2.861a2.606,2.606,0,0,1-2.6-2.767Z" transform="translate(-0.254 3.258)"/><path class="d" d="M.34,0H12.922l.01.13a2.606,2.606,0,0,1-2.6,2.8h-7.4A2.606,2.606,0,0,1,.33.124Z" transform="translate(-0.278 12.053)"/><path class="c" d="M0,4.235V3.258a3.258,3.258,0,1,1,6.515,0v.977" transform="translate(3.092 0)"/></g></svg>