<svg width="15" height="17" viewBox="0 0 15 17" fill="none" xmlns="http://www.w3.org/2000/svg">
<path d="M1.55892 4.25806H13.1459L13.4389 9.01206L13.6989 13.2191C13.7209 13.5741 13.67 13.9298 13.5493 14.2644C13.4286 14.599 13.2406 14.9054 12.997 15.1646C12.7535 15.4238 12.4594 15.6304 12.133 15.7717C11.8065 15.913 11.4546 15.9859 11.0989 15.9861H3.60692C3.25122 15.9859 2.89932 15.913 2.57292 15.7717C2.24642 15.6304 1.95242 15.4238 1.70882 15.1646C1.46522 14.9054 1.27732 14.599 1.15662 14.2644C1.03592 13.9298 0.984977 13.5741 1.00692 13.2191L1.55892 4.25806Z" stroke="#fff" stroke-width="1.5" stroke-miterlimit="10" stroke-linecap="round" stroke-linejoin="round"/>
<path d="M1.06164 13.053H13.6436L13.6536 13.183C13.6803 13.5407 13.6329 13.9 13.5143 14.2385C13.3957 14.577 13.2085 14.8874 12.9645 15.1502C12.7204 15.4131 12.4247 15.6227 12.0959 15.766C11.7671 15.9093 11.4123 15.9831 11.0536 15.983H3.65364C3.29424 15.9835 2.93864 15.9097 2.60914 15.7661C2.27964 15.6226 1.98344 15.4125 1.73904 15.1489C1.49474 14.8854 1.30744 14.5742 1.18914 14.2348C1.07084 13.8955 1.02404 13.5353 1.05164 13.177L1.06164 13.053Z" stroke="#fff" stroke-width="1.5" stroke-miterlimit="10" stroke-linecap="round" stroke-linejoin="round"/>
<path d="M4.0923 5.2349V4.2579C4.0847 3.8254 4.1633 3.3956 4.3236 2.9937C4.4839 2.5919 4.7227 2.226 5.0259 1.91739C5.3291 1.60879 5.6908 1.36368 6.0898 1.19636C6.4888 1.02904 6.9171 0.942871 7.3498 0.942871C7.7824 0.942871 8.2107 1.02904 8.6097 1.19636C9.0087 1.36368 9.3704 1.60879 9.6736 1.91739C9.9768 2.226 10.2156 2.5919 10.3759 2.9937C10.5362 3.3956 10.6148 3.8254 10.6073 4.2579V5.2349" stroke="#fff" stroke-width="1.5" stroke-miterlimit="10" stroke-linecap="round" stroke-linejoin="round"/>
</svg>