<svg xmlns="http://www.w3.org/2000/svg" xmlns:xlink="http://www.w3.org/1999/xlink" width="45" height="45" viewBox="0 0 45 45"><defs><style>.a,.d,.e{fill:none;stroke:#fff;}.b{fill:#ff6f6f;}.c{clip-path:url(#a);}.d,.e{stroke-linecap:round;stroke-width:1.5px;}.d{stroke-linejoin:round;}</style><clipPath id="a"><rect class="a" width="40.776" height="35.788"/></clipPath></defs><rect class="b" width="45" height="45" rx="4"/><g transform="translate(1.709 6.289)"><g class="c" transform="translate(0 0)"><path class="d" d="M27.572,23.293a5.071,5.071,0,0,1-3.413,1.618c-.105,0-.211.009-.316.009H9.236a5.084,5.084,0,0,1-5.082-5.087c0-.1,0-.208.009-.314L5.667,4.83" transform="translate(5.155 5.993)"/><path class="d" d="M6.845,3.585H24.5l.571,9.275.325,5.255" transform="translate(8.494 4.448)"/><path class="d" d="M6.845,7.1a6.355,6.355,0,0,1,12.711,0v3.431" transform="translate(8.494 0.93)"/><line class="e" x2="37.415" y2="30.813" transform="translate(1.681 3.294)"/><line class="d" x1="16.872" transform="translate(10.102 24.264)"/></g></g></svg>