<svg xmlns="http://www.w3.org/2000/svg" xmlns:xlink="http://www.w3.org/1999/xlink" width="32" height="32" viewBox="0 0 32 32"><defs><style>.a,.d,.e{fill:none;stroke:#fff;}.b{fill:#fe726e;}.c{clip-path:url(#a);}.d,.e{stroke-linecap:round;stroke-width:1.5px;}.d{stroke-linejoin:round;}</style><clipPath id="a"><rect class="a" width="18.196" height="15.97" transform="translate(0 0)"/></clipPath></defs><rect class="b" width="32" height="32" rx="4"/><g transform="translate(6.902 7.999)"><g class="c"><path class="d" d="M14.6,13.069a2.263,2.263,0,0,1-1.523.722c-.047,0-.094,0-.141,0H6.422a2.269,2.269,0,0,1-2.268-2.27c0-.046,0-.093,0-.14L4.829,4.83"/><path class="d" d="M6.845,3.585h7.878l.255,4.139.145,2.345"/><path class="d" d="M6.845,3.585a2.836,2.836,0,0,1,5.672,0V5.116"/><line class="e" x2="16.696" y2="13.75" transform="translate(0.75 1.47)"/><line class="d" x1="7.529" transform="translate(4.508 10.828)"/></g></g></svg>