<svg xmlns="http://www.w3.org/2000/svg" width="15.005" height="15" viewBox="0 0 15.005 15"><defs><style>.a{fill:#3699cf;}</style></defs><path class="a" d="M143.875,146.227a2.711,2.711,0,0,1-.312-.233q-1.175-1.165-2.342-2.339a.95.95,0,0,1-.093-.131l-.063-.009a.742.742,0,0,1-.087.137q-.541.546-1.087,1.088a.441.441,0,0,1-.78-.183q-1.229-3.681-2.455-7.363a.445.445,0,0,1,.585-.588q3.681,1.228,7.363,2.453a.444.444,0,0,1,.18.79q-.536.541-1.078,1.076a1.006,1.006,0,0,1-.14.1c.065.068.1.107.137.144l2.381,2.382a.456.456,0,0,1,0,.745c-.562.563-1.124,1.127-1.69,1.686a3.219,3.219,0,0,1-.319.247Z" transform="translate(-131.274 -131.227)"/><path class="a" d="M0,134.951a.561.561,0,0,1,.59-.327c.819.012,1.639,0,2.459.005a.437.437,0,0,1,.436.6.415.415,0,0,1-.406.281c-.878,0-1.756,0-2.635,0A.49.49,0,0,1,0,135.185Z" transform="translate(0 -129.356)"/><path class="a" d="M39.938,38.816a1.279,1.279,0,0,1,.3.165q.93.913,1.846,1.841a.439.439,0,1,1-.616.623q-.931-.923-1.854-1.853a.421.421,0,0,1-.092-.487.5.5,0,0,1,.421-.29" transform="translate(-37.934 -37.295)"/><path class="a" d="M40,185.214a.461.461,0,0,1-.465-.236.421.421,0,0,1,.04-.468,1.27,1.27,0,0,1,.13-.139c.573-.573,1.143-1.149,1.722-1.716a.666.666,0,0,1,.311-.17.384.384,0,0,1,.429.211.439.439,0,0,1-.042.494.861.861,0,0,1-.069.075c-.594.594-1.185,1.19-1.784,1.778a1.241,1.241,0,0,1-.271.17" transform="translate(-37.934 -175.334)"/><path class="a" d="M182.942,42.256a.459.459,0,0,1-.474-.252.422.422,0,0,1,.059-.467,2.328,2.328,0,0,1,.173-.179q.839-.839,1.677-1.678a.464.464,0,0,1,.463-.149.436.436,0,0,1,.256.656.787.787,0,0,1-.113.133c-.586.587-1.171,1.177-1.763,1.758a1.325,1.325,0,0,1-.278.178" transform="translate(-175.284 -37.969)"/><path class="a" d="M135.645,1.773q0,.622,0,1.243a.443.443,0,1,1-.879.007q0-1.265,0-2.53a.443.443,0,1,1,.879.008q0,.636,0,1.272" transform="translate(-129.491 0)"/></svg>