<svg xmlns="http://www.w3.org/2000/svg" width="32" height="32" viewBox="0 0 32 32"><defs><style>.a{fill:#ff6f6f;}.b{fill:#fff;}</style></defs><rect class="a" width="32" height="32" rx="4"/><path class="b" d="M10.508,3a7.508,7.508,0,1,0,7.508,7.508A7.511,7.511,0,0,0,10.508,3ZM4.5,10.508A6,6,0,0,1,10.508,4.5,5.933,5.933,0,0,1,14.187,5.77L5.77,14.187A5.933,5.933,0,0,1,4.5,10.508Zm6.006,6.006a5.933,5.933,0,0,1-3.679-1.269l8.416-8.416a5.933,5.933,0,0,1,1.269,3.679A6,6,0,0,1,10.508,16.514Z" transform="translate(5.492 5.492)"/></svg>