<svg class="blockBg" width="32" height="32" viewBox="0 0 32 32" fill="none" xmlns="http://www.w3.org/2000/svg">
<path class="blockBg" d="M28 0H4C1.79086 0 0 1.79086 0 4V28C0 30.2091 1.79086 32 4 32H28C30.2091 32 32 30.2091 32 28V4C32 1.79086 30.2091 0 28 0Z" />
<path class="blockIcon" d="M16.0002 8.49194C14.5152 8.49194 13.0637 8.93228 11.829 9.75727C10.5943 10.5823 9.63197 11.7548 9.0637 13.1268C8.49544 14.4987 8.34676 16.0083 8.63646 17.4647C8.92615 18.9211 9.64122 20.2589 10.6912 21.3089C11.7412 22.3589 13.079 23.074 14.5355 23.3637C15.9919 23.6534 17.5015 23.5047 18.8734 22.9364C20.2453 22.3682 21.4179 21.4058 22.2429 20.1712C23.0679 18.9365 23.5082 17.4849 23.5082 15.9999C23.5074 14.0089 22.7161 12.0997 21.3083 10.6919C19.9004 9.28401 17.9912 8.49274 16.0002 8.49194V8.49194ZM9.99219 15.9999C9.99114 15.2107 10.1458 14.4289 10.4474 13.6995C10.7489 12.9701 11.1914 12.3074 11.7495 11.7493C12.3076 11.1912 12.9704 10.7487 13.6998 10.4471C14.4292 10.1456 15.2109 9.99089 16.0002 9.99194C17.3344 9.98955 18.6305 10.437 19.6792 11.2619L11.2622 19.6789C10.4372 18.6303 9.9898 17.3342 9.99219 15.9999V15.9999ZM15.9982 22.0059C14.6641 22.0086 13.368 21.5616 12.3192 20.7369L20.7352 12.3209C21.5598 13.3697 22.0069 14.6658 22.0042 15.9999C22.005 16.7887 21.8502 17.5699 21.5488 18.2988C21.2474 19.0277 20.8052 19.69 20.2475 20.2479C19.6899 20.8057 19.0277 21.2481 18.2989 21.5498C17.5701 21.8515 16.789 22.0065 16.0002 22.0059H15.9982Z" />
</svg>
