<svg xmlns="http://www.w3.org/2000/svg" width="38.241" height="24.016" viewBox="0 0 38.241 24.016"><defs><style>.a{fill:#3699cf;}.b{fill:#ffd939;}.c{fill:#fff;}</style></defs><path class="a" d="M33.042,12.489a5.5,5.5,0,0,0-1.551,1.924c-.167.314-.025.53.119.794A2.089,2.089,0,0,1,30.4,18.273a5.434,5.434,0,0,1-1.476.021,13.445,13.445,0,0,1-1.156,1.384,2.329,2.329,0,0,1-1.753.333c-.686,1.712-1.665,2.078-3.209,1.7a2.369,2.369,0,0,1-1.782,1.745c-.949.206-1.643-.385-2.436-.81-.147.176-.273.322-.394.472a2.151,2.151,0,0,1-3.7-.332.705.705,0,0,0-.7-.461,2.091,2.091,0,0,1-1.9-1.244.791.791,0,0,0-.438-.407c-1.465-.254-1.67-.384-2.3-1.649l-.492-.036A2.122,2.122,0,0,1,6.8,15.975a1.206,1.206,0,0,0-.084-1.241A7.009,7.009,0,0,0,5.1,12.824a1.484,1.484,0,0,1-1.615-.214c-.952-.526-1.909-1.042-2.857-1.574-.713-.4-.78-.625-.393-1.33q2.5-4.551,5.007-9.1c.381-.689.633-.758,1.34-.375q1.58.856,3.149,1.733c.672.376.716.538.42,1.287a1.566,1.566,0,0,0-.048.227A1.32,1.32,0,0,0,11.638,3.3c.033-.029.067-.059.1-.091a5.4,5.4,0,0,1,5.641-1.387,1.616,1.616,0,0,0,.9-.04,7.443,7.443,0,0,1,6.306.44c.629.329,1.266.644,1.887.988a1.481,1.481,0,0,0,1.443.017c.032-.947.032-.948.9-1.429.951-.526,1.9-1.055,2.857-1.574.7-.382.956-.309,1.337.382q2.444,4.43,4.881,8.863c.043.078.087.155.127.234.372.727.319.922-.4,1.327-1.006.566-2.017,1.12-3.027,1.678-.777.43-.829.423-1.544-.225M19.308,21.546a11.081,11.081,0,0,0,1,.59.852.852,0,0,0,.995-1.321c-.092-.123-.221-.218-.318-.339a.613.613,0,0,1,.709-.962c.222.1.429.233.641.353.386.218.759.464,1.16.649a.8.8,0,0,0,1-.3.759.759,0,0,0-.006-.984c-.119-.158-.281-.284-.4-.441a.51.51,0,0,1,.023-.726,1.014,1.014,0,0,1,.645-.207,1.367,1.367,0,0,1,.532.256c.33.183.647.392.987.554a.775.775,0,0,0,1.011-.23.825.825,0,0,0-.016-1.1,2.569,2.569,0,0,0-.577-.438c-.662-.405-1.336-.792-2-1.2a.612.612,0,0,1-.325-.731.561.561,0,0,1,.583-.454,1.329,1.329,0,0,1,.556.19c.612.36,1.207.748,1.817,1.112.685.41,1.366.829,2.072,1.2a.788.788,0,0,0,1.056-.276.835.835,0,0,0-.144-1.141,3.042,3.042,0,0,0-.49-.342Q24.144,11.85,18.473,8.427a1.033,1.033,0,0,0-1.048-.05,17.169,17.169,0,0,1-2.383.827,4.263,4.263,0,0,1-2.687-.09,1.593,1.593,0,0,1-.758-2.47,4.391,4.391,0,0,1,.875-1c1-.8,2.041-1.565,3.063-2.345.126-.1.242-.207.477-.411-.347-.027-.538-.056-.728-.054a3.268,3.268,0,0,0-2.374,1.044,2.858,2.858,0,0,1-3.07.915c-.361-.111-.569.032-.744.356-1.067,1.971-2.14,3.939-3.239,5.893-.215.382-.094.576.162.854.583.635,1.125,1.309,1.674,1.974a1.7,1.7,0,0,1,.155.41c.649-.91,1.067-1.735,2.07-1.884a2.225,2.225,0,0,1,2.328,1,1.683,1.683,0,0,0,.258-.079,2.154,2.154,0,0,1,3.17,1.45c.044.318.261.417.543.494a1.976,1.976,0,0,1,1.7,2.066.594.594,0,0,0,.493.653,2.05,2.05,0,0,1,1.4,1.56,2.638,2.638,0,0,1-.507,2m10.806-7.592,2.28-2.8a.568.568,0,0,0-.055-.165q-1.711-3.123-3.424-6.244a.449.449,0,0,0-.646-.25,3.059,3.059,0,0,1-2.795-.347c-.611-.359-1.253-.667-1.895-.97a6.057,6.057,0,0,0-5.755.213,23.981,23.981,0,0,0-4.456,3.134,4.081,4.081,0,0,0-.627.685c-.286.406-.209.7.274.781a4.073,4.073,0,0,0,1.638-.01,19.408,19.408,0,0,0,2.743-.99,1.2,1.2,0,0,1,1.24.054Q22.9,9.636,27.186,12.2c.984.592,1.97,1.181,2.928,1.755M29.384,2.945l4.723,8.576,2.643-1.464L32.033,1.49,29.384,2.945M6.216,1.483l-4.724,8.58,2.658,1.446L8.858,2.945,6.216,1.483m8.222,13.79a.853.853,0,0,0-1.126-.881,1.59,1.59,0,0,0-.647.534c-.677.96-1.321,1.943-1.976,2.919a1.817,1.817,0,0,0-.168.287.87.87,0,0,0,.265,1.073.838.838,0,0,0,1.1-.039,1.444,1.444,0,0,0,.264-.3c.7-1.028,1.393-2.055,2.076-3.092a2.437,2.437,0,0,0,.212-.5m2.24,2.182a.892.892,0,0,0-.843-.954.979.979,0,0,0-.874.507c-.583.861-1.172,1.718-1.744,2.586a.887.887,0,1,0,1.449,1c.61-.869,1.2-1.753,1.785-2.638a2.881,2.881,0,0,0,.228-.5M10.219,13.62a1.649,1.649,0,0,0-.58.368c-.576.784-1.117,1.595-1.638,2.417a.8.8,0,0,0,.177,1.077.807.807,0,0,0,1.041.071,1.662,1.662,0,0,0,.412-.422c.42-.6.828-1.2,1.233-1.811a2.8,2.8,0,0,0,.285-.522c.224-.572-.161-1.151-.928-1.178m7.336,5.522a1.45,1.45,0,0,0-.525.324c-.482.634-.936,1.293-1.356,1.971a.8.8,0,0,0,.248,1.117.791.791,0,0,0,1.091-.059,16.5,16.5,0,0,0,1.48-2.2c.3-.554-.15-1.141-.939-1.156" transform="translate(0 0)"/><path class="b" d="M56.669,39.991a2.638,2.638,0,0,0,.507-2,2.049,2.049,0,0,0-1.4-1.56.594.594,0,0,1-.493-.653,1.977,1.977,0,0,0-1.7-2.066c-.282-.077-.5-.176-.543-.494a2.154,2.154,0,0,0-3.17-1.45,1.668,1.668,0,0,1-.258.079,2.224,2.224,0,0,0-2.328-1c-1,.148-1.421.974-2.07,1.884a1.7,1.7,0,0,0-.155-.41c-.55-.665-1.091-1.339-1.674-1.974-.256-.278-.376-.472-.162-.854,1.1-1.953,2.171-3.922,3.239-5.893.175-.323.383-.467.744-.356a2.858,2.858,0,0,0,3.07-.916,3.268,3.268,0,0,1,2.374-1.044c.191,0,.381.027.728.054-.235.2-.351.315-.477.411-1.022.78-2.061,1.54-3.063,2.345a4.391,4.391,0,0,0-.875,1,1.593,1.593,0,0,0,.758,2.47,4.264,4.264,0,0,0,2.687.091,17.187,17.187,0,0,0,2.383-.827,1.033,1.033,0,0,1,1.048.05Q61.5,30.31,67.179,33.714a3.033,3.033,0,0,1,.49.341.835.835,0,0,1,.144,1.141.788.788,0,0,1-1.056.276c-.706-.371-1.387-.79-2.072-1.2-.609-.365-1.2-.752-1.817-1.112a1.328,1.328,0,0,0-.556-.19.561.561,0,0,0-.583.454.612.612,0,0,0,.325.731c.663.4,1.337.792,2,1.2a2.571,2.571,0,0,1,.577.438.825.825,0,0,1,.016,1.1.775.775,0,0,1-1.011.23c-.34-.162-.657-.371-.987-.554a1.367,1.367,0,0,0-.532-.256,1.012,1.012,0,0,0-.645.207.51.51,0,0,0-.024.726c.122.157.283.283.4.441a.759.759,0,0,1,.006.984.8.8,0,0,1-1,.3c-.4-.185-.774-.431-1.16-.649-.212-.12-.419-.254-.641-.353a.613.613,0,0,0-.709.962c.1.121.226.215.318.339a.852.852,0,0,1-.995,1.321,11.05,11.05,0,0,1-1-.59" transform="translate(-37.361 -18.446)"/><path class="b" d="M111.868,30.523c-.958-.574-1.944-1.163-2.928-1.755-2.851-1.716-5.705-3.427-8.549-5.157a1.2,1.2,0,0,0-1.239-.054,19.41,19.41,0,0,1-2.744.99,4.072,4.072,0,0,1-1.638.01c-.482-.077-.56-.375-.274-.781a4.081,4.081,0,0,1,.627-.685,23.97,23.97,0,0,1,4.456-3.134,6.057,6.057,0,0,1,5.755-.213c.641.3,1.284.611,1.895.97a3.059,3.059,0,0,0,2.795.347.449.449,0,0,1,.646.25q1.706,3.126,3.424,6.244a.568.568,0,0,1,.055.165l-2.28,2.8" transform="translate(-81.755 -16.569)"/><path class="c" d="M220.414,12.631l2.649-1.455,4.717,8.567-2.643,1.464-4.723-8.576" transform="translate(-191.029 -9.686)"/><path class="c" d="M15.922,11.119l2.642,1.462-4.707,8.564L11.2,19.7l4.724-8.58" transform="translate(-9.705 -9.637)"/><path class="b" d="M82.3,108.442a2.445,2.445,0,0,1-.212.5c-.683,1.037-1.38,2.064-2.076,3.092a1.446,1.446,0,0,1-.264.3.838.838,0,0,1-1.1.039.87.87,0,0,1-.265-1.073,1.806,1.806,0,0,1,.168-.287c.655-.976,1.3-1.959,1.976-2.919a1.589,1.589,0,0,1,.647-.534.853.853,0,0,1,1.126.881" transform="translate(-67.865 -93.17)"/><path class="b" d="M101.217,124.72a2.882,2.882,0,0,1-.228.5c-.585.886-1.174,1.77-1.785,2.638a.887.887,0,1,1-1.449-1c.572-.868,1.161-1.725,1.744-2.586a.979.979,0,0,1,.874-.507.892.892,0,0,1,.843.954" transform="translate(-84.539 -107.266)"/><path class="b" d="M61.34,102.163c.767.027,1.152.607.928,1.178a2.794,2.794,0,0,1-.285.522c-.405.608-.813,1.213-1.233,1.811a1.659,1.659,0,0,1-.412.422.806.806,0,0,1-1.04-.071.8.8,0,0,1-.177-1.077c.521-.822,1.062-1.633,1.638-2.417a1.647,1.647,0,0,1,.58-.368" transform="translate(-51.122 -88.543)"/><path class="b" d="M118.594,143.583c.789.015,1.239.6.939,1.156a16.494,16.494,0,0,1-1.48,2.2.791.791,0,0,1-1.091.059.8.8,0,0,1-.248-1.117c.419-.678.874-1.336,1.356-1.971a1.45,1.45,0,0,1,.525-.324" transform="translate(-101.039 -124.442)"/><path class="a" d="M62.135,193.115a.672.672,0,0,1-.705.679.686.686,0,1,1,.048-1.37.674.674,0,0,1,.657.691" transform="translate(-26.859 -183.784)"/><path class="a" d="M62.135,193.115a.672.672,0,0,1-.705.679.686.686,0,1,1,.048-1.37.674.674,0,0,1,.657.691" transform="translate(-57.859 -183.784)"/></svg>