<svg xmlns="http://www.w3.org/2000/svg" width="32" height="32" viewBox="0 0 32 32"><defs><style>.a{fill:#f3f4f7;}.b{fill:#3699cf;}</style></defs><rect class="a" width="32" height="32" rx="4"/><path class="b" d="M3,8.262H.751A.751.751,0,0,0,0,9.014v2.253a.751.751,0,0,0,.751.751H3a.751.751,0,0,0,.751-.751V9.014A.751.751,0,0,0,3,8.262ZM2.441,6.385H6.948V7.511H8.075V6.385h4.507V7.511h1.127V6.16a.9.9,0,0,0-.9-.9H8.075v-1.5h.939A.751.751,0,0,0,9.765,3V.751A.751.751,0,0,0,9.014,0h-3a.751.751,0,0,0-.751.751V3a.751.751,0,0,0,.751.751h.939v1.5H2.216a.9.9,0,0,0-.9.9V7.511H2.441Zm6.2,1.878H6.385a.751.751,0,0,0-.751.751v2.253a.751.751,0,0,0,.751.751H8.638a.751.751,0,0,0,.751-.751V9.014A.751.751,0,0,0,8.638,8.262Zm5.634,0H12.018a.751.751,0,0,0-.751.751v2.253a.751.751,0,0,0,.751.751h2.253a.751.751,0,0,0,.751-.751V9.014A.751.751,0,0,0,14.272,8.262Z" transform="translate(8.489 9)"/></svg>