<svg xmlns="http://www.w3.org/2000/svg" width="24.666" height="23.975" viewBox="0 0 24.666 23.975"><defs><style>.a{fill:#fff;}.b{fill:#ffd939;}.c{fill:#3699cf;}</style></defs><path class="a" d="M62.281,61.448a7.381,7.381,0,1,0,7.252-7.425,7.377,7.377,0,0,0-7.252,7.425" transform="translate(-56.949 -49.398)"/><path class="a" d="M3.2,8.072c.067-.169.11-.287.161-.4A10.259,10.259,0,1,1,8.089,21.162a10.172,10.172,0,0,1-5.3-6.405c-.117-.4-.3-.712-.738-.794-.583-.109-1.18.423-.944,1.261a12,12,0,0,0,23.548-3.758,11.836,11.836,0,0,0-2.422-6.7A12,12,0,0,0,1.79,6.931c-.07.149-.145.3-.226.461C1.152,7.22.788,7.056.416,6.918c-.289-.107-.463.027-.4.326.244,1.246.5,2.489.761,3.732.057.272.194.367.456.193,1.045-.693,2.1-1.375,3.139-2.074.3-.2.275-.41-.057-.561-.349-.158-.708-.3-1.107-.462" transform="translate(0 0)"/><path class="b" d="M77.042,61.329a7.381,7.381,0,1,0-7.3,7.421,7.4,7.4,0,0,0,7.3-7.421" transform="translate(-56.949 -49.398)"/><path class="c" d="M3.2,8.072c.4.166.758.3,1.107.462.332.151.359.357.057.561-1.041.7-2.094,1.381-3.139,2.074-.262.174-.4.079-.456-.193C.515,9.733.256,8.49.012,7.244c-.059-.3.114-.433.4-.326.373.138.736.3,1.148.473.081-.165.155-.312.226-.461A12,12,0,0,1,22.233,4.762a11.962,11.962,0,0,1-4.649,18.155A12.017,12.017,0,0,1,1.108,15.224c-.235-.838.361-1.37.944-1.261.441.082.62.4.738.794a10.172,10.172,0,0,0,5.3,6.405A10.256,10.256,0,1,0,3.365,7.67c-.052.115-.094.234-.161.4" transform="translate(0 0)"/><path class="c" d="M93.321,92.053h-.464a.369.369,0,0,1-.388-.45l0-.014a.4.4,0,0,1,.388-.267h.277a.381.381,0,0,0,.4-.359q0-.035,0-.068t0-.081a.382.382,0,0,0-.4-.36H93.11a.367.367,0,0,1-.383-.464.4.4,0,0,1,.383-.253h.21a.393.393,0,0,0,.39-.275,4.03,4.03,0,0,1,4.011-3.183,3.971,3.971,0,0,1,2.708,1,.333.333,0,0,1,0,.506l-.451.409a.438.438,0,0,1-.568,0,2.256,2.256,0,0,0-1.507-.543,2.481,2.481,0,0,0-2.406,1.6.365.365,0,0,0,.378.479h2.379a.368.368,0,0,1,.383.464.4.4,0,0,1-.383.253H95.593a.383.383,0,0,0-.4.344q0,.048,0,.1c0,.028,0,.055,0,.082a.382.382,0,0,0,.4.346h2.23a.368.368,0,0,1,.386.456l0,.014a.4.4,0,0,1-.386.261H95.891a.365.365,0,0,0-.378.478,2.47,2.47,0,0,0,2.393,1.575,2.307,2.307,0,0,0,1.708-.716.437.437,0,0,1,.564-.05l.488.357a.332.332,0,0,1,.06.5,3.963,3.963,0,0,1-3,1.287,4.046,4.046,0,0,1-4.01-3.156.393.393,0,0,0-.39-.274" transform="translate(-84.539 -78.892)"/></svg>