<svg xmlns="http://www.w3.org/2000/svg" width="13.198" height="15" viewBox="0 0 13.198 15"><defs><style>.a{fill:#3699cf;}</style></defs><path class="a" d="M6.66,0c-.035.04-.067.082-.1.118L4.361,2.211c-.039.037-.082.068-.132.109L6.567,4.77l.754-.72L6.332,3.01A5.334,5.334,0,0,1,11.5,6.071a5.421,5.421,0,0,1-9.206,5.613A5.211,5.211,0,0,1,1.228,7.7,5.384,5.384,0,0,1,3.273,4.11L2.562,3.2a6.593,6.593,0,1,0,10.631,5.46,6.384,6.384,0,0,0-1.926-4.923A6.528,6.528,0,0,0,6.308,1.8L7.4.759,6.69,0Z" transform="translate(0)"/><path class="a" d="M48.211,61.631V62.3H47.161c0-.163,0-.327,0-.49,0-.1-.018-.15-.136-.17a2.023,2.023,0,0,1-1.456-.881c-.074-.113-.131-.237-.205-.374l.962-.41a1.58,1.58,0,0,0,2,.59.84.84,0,0,0,.205-.138.412.412,0,0,0-.06-.681,3.23,3.23,0,0,0-.747-.232c-.352-.076-.715-.1-1.064-.188a1.317,1.317,0,0,1-.843-2.029,1.616,1.616,0,0,1,1.052-.685c.288-.073.29-.064.29-.367v-.274H48.2v.582A1.756,1.756,0,0,1,49.63,57.6l-.874.406a1.5,1.5,0,0,0-1.671-.452.715.715,0,0,0-.16.071.42.42,0,0,0-.238.39.347.347,0,0,0,.284.333c.273.069.552.118.831.162a5.009,5.009,0,0,1,1.2.289,1.442,1.442,0,0,1,.231,2.43,2.282,2.282,0,0,1-1.026.4" transform="translate(-40.967 -50.545)"/></svg>