<svg xmlns="http://www.w3.org/2000/svg" width="34" height="34" viewBox="0 0 34 34"><defs><style>.a{fill:#ff7373;}</style></defs><path class="a" d="M20.375,3.375a17,17,0,1,0,17,17A17,17,0,0,0,20.375,3.375Zm4.307,23.154-4.307-4.307-4.307,4.307a1.306,1.306,0,1,1-1.847-1.847l4.307-4.307-4.307-4.307a1.306,1.306,0,1,1,1.847-1.847l4.307,4.307,4.307-4.307a1.306,1.306,0,0,1,1.847,1.847l-4.307,4.307,4.307,4.307a1.312,1.312,0,0,1,0,1.847A1.3,1.3,0,0,1,24.682,26.529Z" transform="translate(-3.375 -3.375)"/></svg>