<svg width="10" height="10" viewBox="0 0 10 10" fill="none" xmlns="http://www.w3.org/2000/svg">
<path d="M5.9481 4.99893L8.8051 2.14093C8.92388 2.01399 8.98866 1.84585 8.98577 1.67204C8.98288 1.49822 8.91255 1.33233 8.78963 1.20941C8.6667 1.08648 8.50081 1.01615 8.32699 1.01326C8.15318 1.01037 7.98504 1.07516 7.8581 1.19393L5.0011 4.05093L2.1441 1.19393C2.08271 1.12831 2.00874 1.07572 1.92661 1.03927C1.84447 1.00283 1.75584 0.983275 1.66599 0.981782C1.57615 0.980289 1.48692 0.996885 1.40362 1.03058C1.32031 1.06428 1.24464 1.11439 1.1811 1.17793C1.11756 1.24147 1.06745 1.31714 1.03376 1.40044C1.00006 1.48375 0.983463 1.57297 0.984956 1.66282C0.986449 1.75267 1.006 1.8413 1.04245 1.92343C1.07889 2.00557 1.13149 2.07954 1.1971 2.14093L4.0541 4.99793L1.1971 7.85493C1.13149 7.91632 1.07889 7.99029 1.04245 8.07243C1.006 8.15456 0.986449 8.24319 0.984956 8.33304C0.983463 8.42289 1.00006 8.51211 1.03376 8.59542C1.06745 8.67872 1.11756 8.75439 1.1811 8.81793C1.24464 8.88147 1.32031 8.93158 1.40362 8.96528C1.48692 8.99898 1.57615 9.01557 1.66599 9.01408C1.75584 9.01259 1.84447 8.99303 1.92661 8.95659C2.00874 8.92014 2.08271 8.86755 2.1441 8.80193L5.0011 5.94493L7.8581 8.80193C7.98504 8.9207 8.15318 8.98549 8.32699 8.9826C8.50081 8.97971 8.6667 8.90938 8.78963 8.78645C8.91255 8.66353 8.98288 8.49764 8.98577 8.32382C8.98866 8.15001 8.92388 7.98187 8.8051 7.85493L5.9481 4.99893Z" fill="white"/>
</svg>