<svg xmlns="http://www.w3.org/2000/svg" width="45" height="45" viewBox="0 0 45 45"><defs><style>.a{fill:#ff6f6f;}.b{fill:#fff;}</style></defs><g transform="translate(-1022 -128)"><rect class="a" width="45" height="45" rx="4" transform="translate(1022 128)"/></g><path class="b" d="M24.892,20.431a.6.6,0,0,1,.6.6V23.02a.6.6,0,0,1-.6.6H.6a.6.6,0,0,1-.6-.6V5.1a.6.6,0,0,1,.6-.6H2.589a.6.6,0,0,1,.6.6V20.431ZM18.555,9.254l-4.217,2.813-4.247-5.66a.6.6,0,0,0-.991.05l-4.321,7.2v5.178H23.9L19.421,9.488a.6.6,0,0,0-.866-.234Z" transform="translate(9.754 8.441)"/></svg>