<svg width="25" height="25" viewBox="0 0 25 25" fill="none" xmlns="http://www.w3.org/2000/svg">
<rect width="25" height="25" rx="3" fill="#EBEBEB"/>
<path d="M10.3958 19.1667L10.1458 17.1667C10.0103 17.1146 9.88273 17.0521 9.76294 16.9792C9.64315 16.9062 9.52596 16.8281 9.41138 16.7448L7.552 17.526L5.83325 14.5573L7.44263 13.3385C7.43221 13.2656 7.427 13.1953 7.427 13.1276V12.7057C7.427 12.638 7.43221 12.5677 7.44263 12.4948L5.83325 11.276L7.552 8.30729L9.41138 9.08854C9.52596 9.00521 9.64575 8.92708 9.77075 8.85416C9.89575 8.78125 10.0208 8.71875 10.1458 8.66666L10.3958 6.66666H13.8333L14.0833 8.66666C14.2187 8.71875 14.3463 8.78125 14.4661 8.85416C14.5859 8.92708 14.703 9.00521 14.8176 9.08854L16.677 8.30729L18.3958 11.276L16.7864 12.4948C16.7968 12.5677 16.802 12.638 16.802 12.7057V13.1276C16.802 13.1953 16.7916 13.2656 16.7708 13.3385L18.3801 14.5573L16.6614 17.526L14.8176 16.7448C14.703 16.8281 14.5833 16.9062 14.4583 16.9792C14.3333 17.0521 14.2083 17.1146 14.0833 17.1667L13.8333 19.1667H10.3958ZM11.4895 17.9167H12.7239L12.9426 16.2604C13.2655 16.1771 13.565 16.0547 13.8411 15.8932C14.1171 15.7318 14.3697 15.5365 14.5989 15.3073L16.1458 15.9479L16.7551 14.8854L15.4114 13.8698C15.4635 13.724 15.4999 13.5703 15.5208 13.4089C15.5416 13.2474 15.552 13.0833 15.552 12.9167C15.552 12.75 15.5416 12.5859 15.5208 12.4245C15.4999 12.263 15.4635 12.1094 15.4114 11.9635L16.7551 10.9479L16.1458 9.88541L14.5989 10.5417C14.3697 10.3021 14.1171 10.1016 13.8411 9.9401C13.565 9.77864 13.2655 9.65625 12.9426 9.57291L12.7395 7.91666H11.5051L11.2864 9.57291C10.9635 9.65625 10.664 9.77864 10.3879 9.9401C10.1119 10.1016 9.85929 10.2969 9.63013 10.526L8.08325 9.88541L7.47388 10.9479L8.81763 11.9479C8.76554 12.1042 8.72909 12.2604 8.70825 12.4167C8.68742 12.5729 8.677 12.7396 8.677 12.9167C8.677 13.0833 8.68742 13.2448 8.70825 13.401C8.72909 13.5573 8.76554 13.7135 8.81763 13.8698L7.47388 14.8854L8.08325 15.9479L9.63013 15.2917C9.85929 15.5312 10.1119 15.7318 10.3879 15.8932C10.664 16.0547 10.9635 16.1771 11.2864 16.2604L11.4895 17.9167ZM12.1458 15.1042C12.7499 15.1042 13.2655 14.8906 13.6926 14.4635C14.1197 14.0365 14.3333 13.5208 14.3333 12.9167C14.3333 12.3125 14.1197 11.7969 13.6926 11.3698C13.2655 10.9427 12.7499 10.7292 12.1458 10.7292C11.5312 10.7292 11.0129 10.9427 10.5911 11.3698C10.1692 11.7969 9.95825 12.3125 9.95825 12.9167C9.95825 13.5208 10.1692 14.0365 10.5911 14.4635C11.0129 14.8906 11.5312 15.1042 12.1458 15.1042Z" fill="#36C8B1"/>
</svg>
