<svg width="17" height="17" viewBox="0 0 17 17" fill="none" xmlns="http://www.w3.org/2000/svg">
<path d="M7.5 6H14.25C14.6478 6 15.0294 6.15804 15.3107 6.43934C15.592 6.72064 15.75 7.10218 15.75 7.5V14.25C15.75 14.6478 15.592 15.0294 15.3107 15.3107C15.0294 15.592 14.6478 15.75 14.25 15.75H7.5C7.10218 15.75 6.72064 15.592 6.43934 15.3107C6.15804 15.0294 6 14.6478 6 14.25V7.5C6 7.10218 6.15804 6.72064 6.43934 6.43934C6.72064 6.15804 7.10218 6 7.5 6Z" stroke="#272E47" stroke-width="1.5" stroke-linecap="round" stroke-linejoin="round"/>
<path d="M3 10.5H2.25C1.85218 10.5 1.47064 10.342 1.18934 10.0607C0.908035 9.77936 0.75 9.39782 0.75 9V2.25C0.75 1.85218 0.908035 1.47064 1.18934 1.18934C1.47064 0.908035 1.85218 0.75 2.25 0.75H9C9.39782 0.75 9.77936 0.908035 10.0607 1.18934C10.342 1.47064 10.5 1.85218 10.5 2.25V3" stroke="#272E47" stroke-width="1.5" stroke-linecap="round" stroke-linejoin="round"/>
</svg>