<svg width="14" height="15" viewBox="0 0 14 15" fill="none" xmlns="http://www.w3.org/2000/svg">
<path d="M4.5 6.75H3V8.25H4.5V6.75ZM7.5 6.75H6V8.25H7.5V6.75ZM10.5 6.75H9V8.25H10.5V6.75ZM12 1.5H11.25V0H9.75V1.5H3.75V0H2.25V1.5H1.5C1.30343 1.50013 1.10882 1.53908 0.92734 1.6146C0.745858 1.69013 0.581078 1.80075 0.442454 1.94012C0.303831 2.07948 0.194092 2.24485 0.119537 2.42673C0.0449824 2.60862 0.00707823 2.80343 0.0079999 3L0 13.5C0 13.8978 0.158035 14.2794 0.43934 14.5607C0.720644 14.842 1.10218 15 1.5 15H12C12.3978 15 12.7794 14.842 13.0607 14.5607C13.342 14.2794 13.5 13.8978 13.5 13.5V3C13.5 2.60218 13.342 2.22064 13.0607 1.93934C12.7794 1.65804 12.3978 1.5 12 1.5ZM12 13.5H1.5V5.25H12V13.5Z" fill="#3699CF"/>
</svg>
