<svg class="uploadBg" width="32" height="32" viewBox="0 0 32 32" fill="none" xmlns="http://www.w3.org/2000/svg">
<path class="uploadBg" d="M28 0H4C1.79086 0 0 1.79086 0 4V28C0 30.2091 1.79086 32 4 32H28C30.2091 32 32 30.2091 32 28V4C32 1.79086 30.2091 0 28 0Z" />
<path class="uploadIcon" d="M13.7773 19.5469L16.5023 22.2719L19.2283 19.5469" stroke-width="1.5" stroke-linecap="round" stroke-linejoin="round"/>
<path class="uploadIcon" d="M16.502 16.1396V22.2716" stroke-width="1.5" stroke-linecap="round" stroke-linejoin="round"/>
<path class="uploadIcon" d="M22.5515 20.2888C23.1435 19.8721 23.5873 19.2777 23.8187 18.5917C24.0501 17.9058 24.0569 17.164 23.8383 16.4738C23.6197 15.7837 23.1869 15.1812 22.6027 14.7536C22.0186 14.326 21.3134 14.0956 20.5895 14.0958H19.7315C19.5268 13.2969 19.1435 12.5548 18.6105 11.9255C18.0775 11.2962 17.4086 10.796 16.6542 10.4627C15.8999 10.1293 15.0797 9.97149 14.2555 10.0011C13.4313 10.0306 12.6246 10.2469 11.8961 10.6334C11.1675 11.02 10.5362 11.5668 10.0497 12.2327C9.56312 12.8986 9.23401 13.6663 9.08714 14.4778C8.94026 15.2893 8.97945 16.1236 9.20175 16.9178C9.42404 17.712 9.82365 18.4454 10.3705 19.0628" stroke-width="1.5" stroke-linecap="round" stroke-linejoin="round"/>
</svg>
