<svg xmlns="http://www.w3.org/2000/svg" width="51.332" height="72.888" viewBox="0 0 51.332 72.888"><defs><style>.a{fill:#272e47;}</style></defs><path class="a" d="M511.964,324.444c-.5.456-.946.788-.961,1.5a1.226,1.226,0,0,1-1.3,1.163.99.99,0,0,0-.769.33,8.415,8.415,0,0,1-1.442,1.261,2.482,2.482,0,0,1-3.527-1.163.589.589,0,0,0-.653-.426q-8.962.015-17.924.007-2.871,0-5.743,0a1.4,1.4,0,0,1-1.579-1.583c0-3.647.026-7.293.025-10.94,0-4.588-.019-9.176-.027-13.763q0-2.547,0-5.094a1.41,1.41,0,0,1,1.594-1.618h29.807a1.42,1.42,0,0,1,1.6,1.62c0,3.6,0,7.194-.01,10.79,0,.413.158.53.572.458v-2.209h2.485v2.7l-.518.081c2.354.565,4.595,1.094,6.83,1.644a4.179,4.179,0,0,1,2.157.891,2.553,2.553,0,0,1,.03,3.676c-1.259,1.256-2.528,2.5-3.891,3.851.782.746,1.539,1.446,2.271,2.171q2.63,2.607,5.24,5.234a1.471,1.471,0,0,1,.045,2.166q-2.292,2.323-4.612,4.618a1.551,1.551,0,0,1-2.458-.059q-3.246-3.255-6.5-6.5C512.458,324.991,512.23,324.73,511.964,324.444Zm-31.107-27.553v27.438h22.219c-.018-.119-.024-.2-.043-.279q-.918-3.817-1.839-7.635c-.671-2.786-1.318-5.577-2.023-8.354a2.56,2.56,0,0,1,3.033-3.254c1.864.405,3.711.886,5.566,1.33.164.039.333.058.516.088v-9.334Zm21.029,10.658,4.484,18.534c.117-.105.165-.146.209-.19,1.445-1.442,2.884-2.892,4.338-4.325a1.341,1.341,0,0,1,2.019.011q1.652,1.637,3.294,3.284l4.111,4.1,3.065-2.846c-.217-.233-.39-.432-.577-.618q-3.443-3.435-6.887-6.87a1.372,1.372,0,0,1,0-2.09q2.053-2.067,4.112-4.129c.1-.1.19-.228.32-.385Z" transform="translate(-478.058 -274.478)"/><path class="a" d="M492.458,465.195l-10.945,10.948-1.9-1.9,10.994-10.973Z" transform="translate(-479.242 -403.254)"/><path class="a" d="M502.943,441.945l1.85,1.82-5.514,5.45-1.817-1.791Z" transform="translate(-492.83 -387.02)"/><path class="a" d="M557.564,211.911v2.678H554.93C554.656,212.458,554.979,211.65,557.564,211.911Z" transform="translate(-536.518 -211.863)"/><path class="a" d="M681.846,211.916c2.462-.27,2.88.444,2.612,2.686h-2.612Z" transform="translate(-633.198 -211.861)"/><path class="a" d="M681.772,338.655h2.6c.312,2.075-.009,2.986-2.6,2.726Z" transform="translate(-633.142 -308.387)"/><path class="a" d="M660.678,341.438V338.73h2.468v2.708Z" transform="translate(-617.083 -308.444)"/><path class="a" d="M579.362,214.753h-2.449v-2.689h2.449Z" transform="translate(-553.315 -212.016)"/><path class="a" d="M660.673,212.031h2.483v2.69h-2.483Z" transform="translate(-617.08 -211.991)"/><path class="a" d="M557.739,278.316H555.08v-2.472h2.659Z" transform="translate(-536.694 -260.57)"/><path class="a" d="M618.8,212h2.453v2.7H618.8Z" transform="translate(-585.206 -211.968)"/><path class="a" d="M557.686,254.851V257.3H555v-2.445Z" transform="translate(-536.636 -244.589)"/><path class="a" d="M642.253,338.756v2.7h-2.445v-2.7Z" transform="translate(-601.195 -308.464)"/><path class="a" d="M681.763,317.793h2.654v2.463h-2.654Z" transform="translate(-633.135 -292.505)"/><path class="a" d="M597.868,214.757v-2.682h2.443v2.682Z" transform="translate(-569.267 -212.024)"/><path class="a" d="M681.705,236.514v-2.428h2.679v2.428Z" transform="translate(-633.091 -228.781)"/><path class="a" d="M684.436,275.892v2.439h-2.661v-2.439Z" transform="translate(-633.144 -260.607)"/><path class="a" d="M681.68,299.247v-2.436h2.684v2.436Z" transform="translate(-633.072 -276.532)"/><path class="a" d="M639.791,214.75v-2.692h2.444v2.692Z" transform="translate(-601.183 -212.011)"/><path class="a" d="M557.7,236.52h-2.661v-2.437H557.7Z" transform="translate(-536.661 -228.778)"/><path class="a" d="M684.428,257.313h-2.653V254.86h2.653Z" transform="translate(-633.144 -244.596)"/></svg>