<svg xmlns="http://www.w3.org/2000/svg" width="14.214" height="16.5" viewBox="0 0 14.214 16.5"><defs><style>.a{fill:none;}.a,.b{stroke:#3699cf;stroke-linecap:round;stroke-linejoin:round;stroke-miterlimit:10;stroke-width:1.5px;}.b{fill:rgba(255,255,255,0.56);}</style></defs><g transform="translate(0.751 0.75)"><path class="a" d="M.813,0H12.407L12.7,4.582l.26,4.055a2.554,2.554,0,0,1-2.6,2.666H2.863a2.554,2.554,0,0,1-2.6-2.666Z" transform="translate(-0.254 3.697)"/><path class="b" d="M.34,0H12.924l.01.148a2.83,2.83,0,0,1-2.6,3.18H2.929A2.831,2.831,0,0,1,.33.141Z" transform="translate(-0.272 11.672)"/><path class="a" d="M0,4.807V3.7C0,1.655,1.274,0,2.846,0S5.693,1.655,5.693,3.7V4.807" transform="translate(3.509 0)"/></g></svg>