<svg class="editBg" width="32" height="32" viewBox="0 0 32 32" fill="none" xmlns="http://www.w3.org/2000/svg">
<path class="editBg" d="M28 0H4C1.79086 0 0 1.79086 0 4V28C0 30.2091 1.79086 32 4 32H28C30.2091 32 32 30.2091 32 28V4C32 1.79086 30.2091 0 28 0Z" />
<path class="editIcon" d="M16.499 23.2649H23.999" stroke-width="1.5" stroke-linecap="round" stroke-linejoin="round"/>
<path class="editIcon" d="M20.248 9.51801C20.5795 9.18649 21.0292 9.00024 21.498 9.00024C21.9668 9.00024 22.4165 9.18649 22.748 9.51801C23.0795 9.84953 23.2658 10.2992 23.2658 10.768C23.2658 11.2369 23.0795 11.6865 22.748 12.018L12.333 22.432L9 23.265L9.833 19.932L20.248 9.51801Z" stroke-width="1.5" stroke-linecap="round" stroke-linejoin="round"/>
</svg>