<svg xmlns="http://www.w3.org/2000/svg" width="22.958" height="23.192" viewBox="0 0 22.958 23.192"><defs><style>.a,.b{fill:#fff;}.b{stroke-linecap:round;stroke-linejoin:round;}.c,.d{stroke:none;}.d{fill:#1378af;}</style></defs><g transform="translate(-834 -801)"><path class="a" d="M24.007,11.093a1.987,1.987,0,0,0-.984-1.737L13.128,4.5,3.234,9.356a2.1,2.1,0,0,0-.984,1.737v9.754a2.064,2.064,0,0,0,2.072,2.043H21.935a2.064,2.064,0,0,0,2.072-2.043Zm-10.878,4.9L4.806,10.63l8.322-4.087,8.322,4.087Z" transform="translate(831.75 796.5)"/><g class="b" transform="translate(827.107 794.348)"><path class="c" d="M 25.74365615844727 29.24420928955078 L 25.54054641723633 29.24420928955078 L 25.25066566467285 29.24420928955078 L 25.0532054901123 29.24420928955078 L 24.89433479309082 29.12693977355957 C 24.85697555541992 29.09936904907227 24.81466484069824 29.07061004638672 24.76987648010254 29.04016876220703 C 24.65057563781738 28.95909881591797 24.51535606384277 28.86721038818359 24.38792610168457 28.74086952209473 C 23.35243225097656 27.71407127380371 22.32577133178711 26.68575096130371 21.32849502563477 25.68609237670898 C 20.87114524841309 26.14696502685547 20.4488582611084 26.56900215148926 20.04434585571289 26.96951866149902 C 19.77653503417969 27.23469924926758 19.44476509094238 27.3807487487793 19.11017608642578 27.38077926635742 C 18.58120536804199 27.38081932067871 18.13674545288086 27.03382873535156 17.95023536682129 26.4752197265625 C 17.3762264251709 24.7557201385498 16.80318641662598 23.03591918945312 16.23014640808105 21.31612968444824 C 15.64739513397217 19.56721878051758 15.06465530395508 17.81830978393555 14.48091506958008 16.06974029541016 C 14.2517557144165 15.38352966308594 14.56226539611816 14.94497966766357 14.76776599884033 14.74464988708496 C 14.99926567077637 14.51903915405273 15.28804588317871 14.39981937408447 15.60294532775879 14.39981937408447 C 15.75153541564941 14.39981937408447 15.90751552581787 14.42672920227051 16.06656646728516 14.47978973388672 C 17.78017616271973 15.05142974853516 19.4941463470459 15.62203979492188 21.20812606811523 16.19265937805176 C 22.96271514892578 16.77680015563965 24.71730613708496 17.36092948913574 26.4715461730957 17.94618034362793 C 26.93176460266113 18.0997200012207 27.25245475769043 18.42621994018555 27.35141563415527 18.84195899963379 C 27.45140647888184 19.26206970214844 27.3092155456543 19.70413970947266 26.96130561828613 20.0548095703125 C 26.56891250610352 20.45033645629883 26.15081977844238 20.86850166320801 25.68960952758789 21.32668876647949 L 26.89548492431641 22.53262901306152 C 27.5298957824707 23.16699981689453 28.16430473327637 23.80135917663574 28.79851531982422 24.4359188079834 C 29.39475631713867 25.03252029418945 29.39663505554199 25.74304962158203 28.80353546142578 26.33658981323242 L 28.32488632202148 26.81591987609863 C 27.69998550415039 27.44190979003906 27.05380630493164 28.08922004699707 26.41304588317871 28.72208976745605 C 26.28695487976074 28.84661865234375 26.15300559997559 28.94206047058105 26.03482627868652 29.02626991271973 C 25.99114608764648 29.0573902130127 25.94739532470703 29.08841896057129 25.90500640869141 29.12084007263184 L 25.74365615844727 29.24420928955078 Z"/><path class="d" d="M 25.54054641723633 28.64420890808105 C 25.6916446685791 28.5286693572998 25.85717582702637 28.42778968811035 25.99141502380371 28.29520988464355 C 26.79138565063477 27.50507926940918 27.58439636230469 26.70787048339844 28.37911605834961 25.91247940063477 C 28.74022483825684 25.55109977722168 28.73878479003906 25.22493934631348 28.37413597106934 24.86006927490234 C 27.2525463104248 23.73786926269531 26.13034629821777 22.61627006530762 25.00864601135254 21.49423980712891 C 24.95648574829102 21.44202995300293 24.90670585632324 21.3874397277832 24.81484603881836 21.29086875915527 C 24.88818550109863 21.24065017700195 24.95936584472656 21.20602035522461 25.01262474060059 21.1532096862793 C 25.52212524414062 20.64813041687012 26.03007507324219 20.14155960083008 26.53536605834961 19.63222885131836 C 26.94685554504395 19.21747016906738 26.83187484741211 18.69890975952148 26.28166580200195 18.51533889770508 C 22.81379508972168 17.35840034484863 19.34454536437988 16.20578002929688 15.87667560577393 15.04894924163818 C 15.61788463592529 14.96260738372803 15.38432312011719 14.98158073425293 15.18659591674805 15.17427921295166 C 14.98195552825928 15.373779296875 14.96104526519775 15.61325931549072 15.05003547668457 15.87973976135254 C 16.20780563354492 19.34778022766113 17.36164474487305 22.8171501159668 18.51934623718262 26.28520011901855 C 18.69943618774414 26.82457160949707 19.21755599975586 26.94381141662598 19.62219619750977 26.54315948486328 C 20.13688468933105 26.03355026245117 20.64837646484375 25.52067947387695 21.15787506103516 25.00586891174316 C 21.21047592163086 24.9527702331543 21.24027633666992 24.87716865539551 21.28065490722656 24.81200981140137 C 21.31024551391602 24.81616020202637 21.33983612060547 24.82036018371582 21.36942481994629 24.82450866699219 C 21.41295623779297 24.88661956787109 21.44846534729004 24.95674896240234 21.5012264251709 25.00967979431152 C 22.60224533081055 26.1134090423584 23.7033748626709 27.21708869934082 24.81036567687988 28.31478881835938 C 24.93928527832031 28.4426097869873 25.10305595397949 28.53524971008301 25.25066566467285 28.64420890808105 L 25.54054641723633 28.64420890808105 M 25.54054641723633 29.84420967102051 L 25.25066566467285 29.84420967102051 C 24.9941463470459 29.84420967102051 24.744384765625 29.76200866699219 24.53800582885742 29.60966873168945 C 24.51006507873535 29.58905029296875 24.47245597839355 29.56348991394043 24.43263626098633 29.53643035888672 C 24.30587577819824 29.45028877258301 24.13227462768555 29.33231925964355 23.96548461914062 29.16695022583008 C 23.07558631896973 28.28451538085938 22.19254112243652 27.40130805969238 21.32913208007812 26.53619384765625 C 21.02962303161621 26.83648490905762 20.74391555786133 27.12121200561523 20.46650505065918 27.39588928222656 C 20.08560562133789 27.77302932739258 19.60392570495605 27.98074913024902 19.11019515991211 27.98077964782715 C 18.32668495178223 27.98083877563477 17.6479663848877 27.4644603729248 17.3811149597168 26.66523933410645 C 16.80706596374512 24.94560050964355 16.23398590087891 23.22570037841797 15.66091537475586 21.50580024719238 C 15.07820510864258 19.75699996948242 14.49549579620361 18.00819969177246 13.91178512573242 16.25972938537598 C 13.66867542266846 15.53172969818115 13.82799530029297 14.82287979125977 14.34892559051514 14.31502914428711 C 14.69479560852051 13.97793960571289 15.12839508056641 13.79981994628906 15.60294532775879 13.79981994628906 C 15.81615543365479 13.79981994628906 16.0360164642334 13.8371000289917 16.25640487670898 13.91060924530029 C 17.96992492675781 14.48221969604492 19.68378639221191 15.05279922485352 21.39765548706055 15.62337970733643 C 23.1523551940918 16.20755004882812 24.90706634521484 16.79172897338867 26.66142463684082 17.37701988220215 C 27.32282638549805 17.59767913818359 27.78705596923828 18.08098983764648 27.93510627746582 18.70303916931152 C 28.08200645446777 19.32023048400879 27.87719535827637 19.98354911804199 27.38724517822266 20.47739028930664 C 27.11838340759277 20.74840545654297 26.83754348754883 21.02995872497559 26.53909301757812 21.32767486572266 L 27.31973648071289 22.10836029052734 C 27.95418548583984 22.74275970458984 28.58863639831543 23.37716865539551 29.2228946685791 24.01177024841309 C 30.05883598327637 24.84820938110352 30.06080627441406 25.92721939086914 29.22796630859375 26.76068878173828 L 28.74951553344727 27.23982048034668 C 28.12387466430664 27.86655044555664 27.47693634033203 28.51461029052734 26.83467483520508 29.14896965026855 C 26.67432594299316 29.30733871459961 26.51278495788574 29.42243957519531 26.38298606872559 29.51491928100586 C 26.34481620788574 29.5421199798584 26.30651473999023 29.56912994384766 26.26945495605469 29.59745979309082 C 26.06016540527344 29.75749969482422 25.80401611328125 29.84420967102051 25.54054641723633 29.84420967102051 Z"/></g></g></svg>