<svg width="17" height="13" viewBox="0 0 17 13" fill="none" xmlns="http://www.w3.org/2000/svg">
<path d="M1 6.475C1 6.475 3.737 1 8.528 1C13.319 1 16.056 6.475 16.056 6.475C16.056 6.475 13.319 11.95 8.528 11.95C3.737 11.95 1 6.475 1 6.475Z" stroke="#3699CF" stroke-width="1.5" stroke-linecap="round" stroke-linejoin="round"/>
<path d="M10.5806 6.47512C10.5806 6.88122 10.4602 7.27812 10.2346 7.61572C10.009 7.95332 9.68844 8.21652 9.31324 8.37182C8.93814 8.52722 8.52534 8.56792 8.12714 8.48872C7.72884 8.40952 7.36304 8.21392 7.07594 7.92682C6.78884 7.63972 6.59334 7.27392 6.51404 6.87562C6.43484 6.47742 6.47554 6.06462 6.63094 5.68952C6.78634 5.31432 7.04944 4.99372 7.38704 4.76812C7.72464 4.54252 8.12164 4.42212 8.52764 4.42212C9.07214 4.42212 9.59433 4.63842 9.97933 5.02342C10.3643 5.40842 10.5806 5.93062 10.5806 6.47512Z" stroke="#3699CF" stroke-width="1.5" stroke-linecap="round" stroke-linejoin="round"/>
</svg>