<svg width="9" height="16" viewBox="0 0 9 16" fill="none" xmlns="http://www.w3.org/2000/svg">
<path d="M7.508 9.43779L7.925 6.72279H5.325V4.96079C5.30673 4.75805 5.33431 4.5538 5.40569 4.36316C5.47707 4.17252 5.59042 4.00039 5.73736 3.8595C5.88429 3.71862 6.06104 3.6126 6.25451 3.54929C6.44797 3.48599 6.65321 3.46702 6.855 3.49379H8.034V1.18279C7.33873 1.07062 6.63619 1.00945 5.932 0.999791C5.44749 0.962917 4.96081 1.03304 4.50642 1.20519C4.05202 1.37734 3.64105 1.6473 3.3026 1.99596C2.96416 2.34461 2.70652 2.76343 2.54795 3.22273C2.38938 3.68204 2.33375 4.17059 2.385 4.65379V6.72279H0V9.43779H2.385V15.9998H5.32V9.43779H7.508Z" fill="#3699CF"/>
</svg>
