<svg xmlns="http://www.w3.org/2000/svg" width="90.951" height="29.999" viewBox="0 0 90.951 29.999"><defs><style>.a{fill:#3699cf;}.a,.b,.c{fill-rule:evenodd;}.b{fill:#ff7373;}.c{fill:#ff9d25;}.d{fill:#21d0a1;}</style></defs><path class="a" d="M226.206,234.208a8.331,8.331,0,0,0-5.715-2.258,8.254,8.254,0,0,0-5.875,2.431,8.418,8.418,0,0,0,0,11.83,8.25,8.25,0,0,0,5.874,2.434c.436,0-.236.01.128.006a7.733,7.733,0,0,0,5.456-1.993,6.983,6.983,0,0,0,1.95-4.081h-7.443v-3.322h10.84l.018,1.648c0,.087,0,.135,0,.158h0a10.782,10.782,0,0,1-3.043,7.959,10.992,10.992,0,0,1-7.753,2.94l-.154,0v0c.054,0,.206,0,0,0a11.67,11.67,0,1,1,4.292-22.523,11.679,11.679,0,0,1,3.694,2.35l-2.271,2.414Zm-5.715,17.754c-.026,0-.019,0,0,0v0Zm10.952-10.9c0,.026,0,.019,0,0Zm0,0c0-.052,0-.2,0,0Z" transform="translate(-208.866 -228.628)"/><path class="b" d="M325.693,267.022a7.555,7.555,0,0,1,5.333,2.19,7.383,7.383,0,0,1,0,10.534,7.587,7.587,0,0,1-10.666,0,7.383,7.383,0,0,1,0-10.534,7.555,7.555,0,0,1,5.333-2.19Zm3.051,4.29a4.225,4.225,0,0,0-6.1,0,4.6,4.6,0,0,0,0,6.334,4.225,4.225,0,0,0,6.1,0,4.6,4.6,0,0,0,0-6.334Z" transform="translate(-294.361 -258.665)"/><path class="c" d="M400.21,267.022a7.555,7.555,0,0,1,5.333,2.19,7.383,7.383,0,0,1,0,10.534,7.587,7.587,0,0,1-10.666,0,7.383,7.383,0,0,1,0-10.534,7.555,7.555,0,0,1,5.333-2.19Zm3.052,4.29a4.225,4.225,0,0,0-6.1,0,4.6,4.6,0,0,0,0,6.334,4.225,4.225,0,0,0,6.1,0,4.6,4.6,0,0,0,0-6.334Z" transform="translate(-352.657 -258.665)"/><path class="a" d="M474.1,267.022a5.717,5.717,0,0,1,4.369,1.719v-1.3h3.084v14.209a7.49,7.49,0,0,1-2.192,5.252,6.875,6.875,0,0,1-4.461,1.762,8,8,0,0,1-4.25-1.081,7.217,7.217,0,0,1-2.808-3.259l2.828-1.275a4.115,4.115,0,0,0,4.23,2.684,3.814,3.814,0,0,0,3.569-3.887v-1.633a5.621,5.621,0,0,1-4.053,1.723,7.226,7.226,0,0,1-5.141-2.191,7.8,7.8,0,0,1-2-5.267c0-4.145,3.423-7.457,6.823-7.457Zm3.477,4.29a3.894,3.894,0,0,0-5.813,0,4.657,4.657,0,0,0-1.2,3.167,4.256,4.256,0,0,0,4.111,4.552,4.025,4.025,0,0,0,2.907-1.385,4.768,4.768,0,0,0,0-6.334Z" transform="translate(-411.022 -258.665)"/><rect class="d" width="3.184" height="21.885" transform="translate(72.521 0.96)"/><path class="b" d="M566.2,274.228l6.781-2.731c-1.2-1.539-2.936-2.284-5.228-.721a4.266,4.266,0,0,0-1.554,3.452Zm.507,2.524c1.253,2.986,5.67,3.019,7.344.229l2.522,1.69a7.377,7.377,0,0,1-6.244,3.336,7.161,7.161,0,0,1-5.25-2.14,7.87,7.87,0,0,1-.3-10.557,6.909,6.909,0,0,1,7.493-1.85c1.873.68,3.394,2.328,4.5,5.192C573.416,274.015,570.068,275.4,566.7,276.752Z" transform="translate(-485.824 -258.673)"/></svg>