<svg xmlns="http://www.w3.org/2000/svg" width="14.865" height="15.001" viewBox="0 0 14.865 15.001"><defs><style>.a{fill:#3699cf;}</style></defs><path class="a" d="M14.865,1.353V4.7l-1.374-.914a1.595,1.595,0,1,0-3.152-.347,1.588,1.588,0,0,0,.339.984L7.828,8.711a1.6,1.6,0,0,0-1.538.38L4.5,8.055a1.595,1.595,0,1,0-3.173-.226,1.583,1.583,0,0,0,.135.643L0,9.782V1.353A1.352,1.352,0,0,1,1.352,0h12.16a1.353,1.353,0,0,1,1.353,1.353" transform="translate(0 0)"/><path class="a" d="M12.957,141.91l1.907,1.268v7.716a1.353,1.353,0,0,1-1.353,1.353H1.352A1.352,1.352,0,0,1,0,150.894v-2.488l2.151-1.933a1.595,1.595,0,0,0,1.882-.257l1.783,1.03a1.639,1.639,0,0,0-.019.246,1.595,1.595,0,1,0,2.875-.951l2.864-4.308a1.6,1.6,0,0,0,1.422-.322" transform="translate(0 -137.246)"/></svg>