<svg width="20" height="20" viewBox="0 0 20 20" fill="none" xmlns="http://www.w3.org/2000/svg">
<g clip-path="url(#clip0_237_21)">
<path d="M8.967 15.941H10.96V13.949H8.967V15.941ZM9.96301 0C7.99251 0 6.06626 0.58432 4.42786 1.67907C2.78945 2.77382 1.51247 4.32982 0.758393 6.15032C0.00431687 7.97083 -0.192984 9.97405 0.191441 11.9067C0.575865 13.8393 1.52475 15.6146 2.9181 17.0079C4.31145 18.4013 6.08669 19.3501 8.01932 19.7346C9.95195 20.119 11.9552 19.9217 13.7757 19.1676C15.5962 18.4135 17.1522 17.1366 18.2469 15.4981C19.3417 13.8597 19.926 11.9335 19.926 9.963C19.9249 7.32097 18.8749 4.78746 17.0067 2.91927C15.1385 1.05107 12.605 0.0010601 9.96301 0ZM9.96301 17.934C8.38649 17.934 6.84538 17.4665 5.53455 16.5906C4.22373 15.7148 3.20207 14.4699 2.59876 13.0134C1.99545 11.5569 1.8376 9.95416 2.14517 8.40794C2.45273 6.86171 3.21189 5.44142 4.32666 4.32665C5.44142 3.21189 6.86172 2.45272 8.40794 2.14516C9.95416 1.8376 11.5569 1.99545 13.0134 2.59876C14.4699 3.20206 15.7148 4.22373 16.5906 5.53455C17.4665 6.84537 17.934 8.38649 17.934 9.963C17.9314 12.0762 17.0907 14.1021 15.5964 15.5964C14.1022 17.0907 12.0762 17.9314 9.96301 17.934V17.934ZM9.96301 3.985C9.43965 3.98487 8.9214 4.08785 8.43786 4.28807C7.95431 4.48829 7.51496 4.78182 7.14489 5.15189C6.77482 5.52195 6.4813 5.96131 6.28108 6.44485C6.08086 6.92839 5.97787 7.44665 5.978 7.97H7.971C7.98267 7.44929 8.19772 6.95383 8.57011 6.58968C8.94251 6.22554 9.44266 6.02164 9.9635 6.02164C10.4844 6.02164 10.9845 6.22554 11.3569 6.58968C11.7293 6.95383 11.9443 7.44929 11.956 7.97C11.956 9.963 8.967 9.714 8.967 12.952H10.96C10.96 10.71 13.949 10.461 13.949 7.97C13.9491 7.44656 13.8461 6.92823 13.6458 6.44462C13.4456 5.96101 13.1519 5.52161 12.7818 5.15153C12.4116 4.78145 11.9721 4.48794 11.4885 4.28779C11.0048 4.08763 10.4864 3.98474 9.96301 3.985Z" fill="#272E47"/>
</g>
<defs>
<clipPath id="clip0_237_21">
<rect width="19.927" height="19.927" fill="white"/>
</clipPath>
</defs>
</svg>