<svg xmlns="http://www.w3.org/2000/svg" width="17.693" height="10.95" viewBox="0 0 17.693 10.95"><defs><style>.a{fill:#3699cf;}</style></defs><path class="a" d="M17.446,9.63,14.2,5.109A1.508,1.508,0,0,0,12.972,4.5H4.721a1.508,1.508,0,0,0-1.227.609L.248,9.63A1.3,1.3,0,0,0,0,10.389v3.692A1.425,1.425,0,0,0,1.474,15.45H16.219a1.425,1.425,0,0,0,1.474-1.369V10.389a1.3,1.3,0,0,0-.248-.759ZM4.984,6.325h7.725l2.621,3.65H11.55L10.567,11.8H7.126L6.143,9.975H2.363l2.621-3.65Z" transform="translate(0 -4.5)"/></svg>