<svg width="17" height="17" viewBox="0 0 17 17" fill="none" xmlns="http://www.w3.org/2000/svg">
<path d="M4.5 0.75H12C12.9946 0.75 13.9484 1.14509 14.6517 1.84835C15.3549 2.55161 15.75 3.50544 15.75 4.5V12C15.75 12.9946 15.3549 13.9484 14.6517 14.6517C13.9484 15.3549 12.9946 15.75 12 15.75H4.5C3.50544 15.75 2.55161 15.3549 1.84835 14.6517C1.14509 13.9484 0.75 12.9946 0.75 12V4.5C0.75 3.50544 1.14509 2.55161 1.84835 1.84835C2.55161 1.14509 3.50544 0.75 4.5 0.75V0.75Z" stroke="#876FFD" stroke-width="1.5" stroke-linecap="round" stroke-linejoin="round"/>
<path d="M11.2488 7.77756C11.3413 8.40155 11.2349 9.03885 10.9445 9.59885C10.6541 10.1589 10.1945 10.6131 9.63116 10.8969C9.06781 11.1808 8.42931 11.2798 7.80644 11.18C7.18357 11.0801 6.60802 10.7865 6.16161 10.3408C5.7152 9.89507 5.42065 9.31998 5.31982 8.69727C5.21899 8.07456 5.31703 7.43591 5.59999 6.87211C5.88295 6.30831 6.33643 5.84805 6.89597 5.55676C7.45551 5.26547 8.09264 5.15798 8.71678 5.24956C9.35363 5.3439 9.94325 5.64061 10.3985 6.09585C10.8537 6.55109 11.1504 7.1407 11.2448 7.77756H11.2488Z" stroke="#876FFD" stroke-width="1.5" stroke-linecap="round" stroke-linejoin="round"/>
</svg>
