<svg xmlns="http://www.w3.org/2000/svg" width="26.184" height="24.015" viewBox="0 0 26.184 24.015"><defs><style>.a{fill:#3699cf;}.b{fill:#ffd939;}.c{fill:#fff;}</style></defs><path class="a" d="M10.351,10.6A11.806,11.806,0,0,0,11.6,9.319c1.337-1.886,2.643-3.794,3.936-5.711a6.67,6.67,0,0,0,.582-1.231c.14-.345.211-.718.355-1.062A1.885,1.885,0,0,1,18.44,0a2.075,2.075,0,0,1,1.937,1.407,5.187,5.187,0,0,1,.137,2.97C20.22,5.683,19.8,6.96,19.43,8.248c-.046.16-.106.315-.178.525.208.012.37.03.531.03,1.054,0,2.109-.008,3.163,0a2.835,2.835,0,0,1,2.767,3.554,1.178,1.178,0,0,0,.1.747,2.93,2.93,0,0,1-.366,3.364.927.927,0,0,0-.185.614,3.058,3.058,0,0,1-.875,2.514,1.061,1.061,0,0,0-.274.559,2.9,2.9,0,0,1-3.043,2.694c-2.993.008-5.986.019-8.978-.012a12.12,12.12,0,0,1-1.836-.3c-.02.041-.07.145-.121.248a2.019,2.019,0,0,1-1.907,1.219c-2.041.008-4.081.012-6.122,0a2.014,2.014,0,0,1-2.1-2.094q-.021-5.509,0-11.018A2.022,2.022,0,0,1,2.17,8.808c1.836-.006,3.674.037,5.509-.015a2.37,2.37,0,0,1,2.672,1.8m13.517,2.418c.029-.079.032-.119.053-.137a1.555,1.555,0,0,0,.462-1.843,1.575,1.575,0,0,0-1.694-.955c-1.275.022-2.55.008-3.826.006-1.026,0-1.31-.372-.986-1.333.293-.869.65-1.717.927-2.591a8.794,8.794,0,0,0,.522-3.709c-.092-.777-.4-1.15-.907-1.177-.5-.026-.734.174-.934,1.015a7.5,7.5,0,0,1-1.291,2.629Q14.448,7.37,12.785,9.878a6.054,6.054,0,0,1-2.1,1.89.676.676,0,0,0-.394.68c.01,2.533,0,5.067,0,7.6,0,.961.134,1.154,1.066,1.424a2.979,2.979,0,0,0,.8.1c1.666.009,3.333,0,5,0,1.275,0,2.551,0,3.826,0a1.63,1.63,0,0,0,1.7-2.3.636.636,0,0,1,0-.163,1.661,1.661,0,0,0,.677-2.923c.814-.183,1.381-.57,1.488-1.327a1.6,1.6,0,0,0-.989-1.851M1.284,17.052c0,1.547,0,3.094,0,4.642,0,.791.245,1.037,1.035,1.039q2.831.007,5.662,0c.813,0,1.066-.253,1.063-1.071q-.02-5.277-.051-10.554c-.005-.841-.191-1.022-1.027-1.023q-2.805,0-5.611,0c-.847,0-1.073.242-1.073,1.106q0,2.93,0,5.86" transform="translate(0 -0.001)"/><path class="b" d="M114.4,24.208a1.6,1.6,0,0,1,.989,1.85c-.108.756-.674,1.144-1.488,1.327a1.661,1.661,0,0,1-.677,2.923.641.641,0,0,0,0,.163,1.63,1.63,0,0,1-1.7,2.3c-1.275,0-2.55,0-3.826,0-1.666,0-3.333,0-5,0a2.974,2.974,0,0,1-.8-.1c-.932-.27-1.067-.464-1.066-1.424,0-2.533.009-5.067,0-7.6a.675.675,0,0,1,.394-.68,6.054,6.054,0,0,0,2.1-1.89q1.66-2.509,3.408-4.959a7.5,7.5,0,0,0,1.291-2.629c.2-.84.439-1.041.934-1.015.511.027.815.4.907,1.177a8.793,8.793,0,0,1-.522,3.709c-.277.874-.634,1.722-.927,2.591-.324.961-.04,1.331.986,1.333,1.275,0,2.551.016,3.826-.006a1.574,1.574,0,0,1,1.694.955,1.555,1.555,0,0,1-.462,1.843c-.021.018-.023.058-.053.137" transform="translate(-90.537 -11.196)"/><path class="c" d="M12.573,105.745q0-2.93,0-5.86c0-.864.225-1.1,1.073-1.106q2.805,0,5.611,0c.836,0,1.022.183,1.027,1.024q.032,5.277.052,10.554c0,.818-.25,1.07-1.063,1.071q-2.831.006-5.662,0c-.79,0-1.033-.248-1.035-1.039,0-1.547,0-3.094,0-4.642m6.76,3.521a.908.908,0,0,0-.885-.931.924.924,0,1,0-.065,1.846.906.906,0,0,0,.95-.915" transform="translate(-11.289 -88.694)"/><path class="a" d="M62.609,193.355a.906.906,0,0,1-.95.915.924.924,0,1,1,.065-1.846.908.908,0,0,1,.885.931" transform="translate(-54.566 -172.784)"/></svg>