<svg width="20" height="21" viewBox="0 0 20 21" fill="none" xmlns="http://www.w3.org/2000/svg">
<g clip-path="url(#clip0_237_19)">
<path d="M0.757957 20.224C0.341957 20.224 -4.32588e-05 19.681 -4.32588e-05 19C-4.32588e-05 18.319 0.341957 17.758 0.757957 17.758H13.358C13.774 17.758 14.115 18.3 14.115 18.982C14.115 19.664 13.774 20.225 13.358 20.225L0.757957 20.224ZM1.07396 11.346C0.769387 11.3252 0.485441 11.1847 0.284188 10.9551C0.0829353 10.7256 -0.0192547 10.4257 -4.32588e-05 10.121C-0.0196798 9.81439 0.081869 9.51233 0.28274 9.27985C0.483612 9.04737 0.767741 8.90306 1.07396 8.878H18.926C19.23 8.89882 19.5134 9.03893 19.7146 9.26782C19.9158 9.49671 20.0183 9.79583 20 10.1C20.0196 10.4066 19.918 10.7087 19.7172 10.9412C19.5163 11.1736 19.2322 11.3179 18.926 11.343L1.07396 11.346ZM0.883957 2.468C0.399957 2.468 -4.32588e-05 1.926 -4.32588e-05 1.242C-4.32588e-05 0.558 0.399957 0 0.883957 0H15.584C16.069 0 16.468 0.542 16.468 1.225C16.468 1.908 16.068 2.467 15.584 2.467L0.883957 2.468Z" fill="#272E47"/>
</g>
<defs>
<clipPath id="clip0_237_19">
<rect width="20" height="20.224" fill="white"/>
</clipPath>
</defs>
</svg>