<svg xmlns="http://www.w3.org/2000/svg" width="9.375" height="15" viewBox="0 0 9.375 15"><defs><style>.a{fill:#3699cf;}</style></defs><path class="a" d="M7.969,0H1.406A1.407,1.407,0,0,0,0,1.406V13.594A1.407,1.407,0,0,0,1.406,15H7.969a1.407,1.407,0,0,0,1.406-1.406V1.406A1.407,1.407,0,0,0,7.969,0ZM4.688,14.063a.938.938,0,1,1,.938-.937A.936.936,0,0,1,4.688,14.063ZM7.969,10.9a.353.353,0,0,1-.352.352H1.758a.353.353,0,0,1-.352-.352V1.758a.353.353,0,0,1,.352-.352H7.617a.353.353,0,0,1,.352.352Z" transform="translate(0 0)"/></svg>