<svg xmlns="http://www.w3.org/2000/svg" width="16.034" height="16.199" viewBox="0 0 16.034 16.199"><defs><style>.a{fill:#3699cf;}.b{fill:#fff;stroke-linecap:round;stroke-linejoin:round;}.c,.d{stroke:none;}.d{fill:#3699cf;}</style></defs><path class="a" d="M17.088,9a1.355,1.355,0,0,0-.671-1.185L9.669,4.5,2.921,7.812A1.433,1.433,0,0,0,2.25,9v6.653a1.408,1.408,0,0,0,1.413,1.394H15.675a1.408,1.408,0,0,0,1.413-1.394ZM9.669,12.339,3.993,8.681,9.669,5.894l5.676,2.787Z" transform="translate(-2.25 -4.5)"/><g class="b" transform="translate(-9.471 -9.307)"><path class="c" d="M 22.39206695556641 24.90564155578613 L 22.18894577026367 24.90564155578613 L 21.99124717712402 24.90564155578613 L 21.79377746582031 24.90564155578613 L 21.63490676879883 24.78836059570312 C 21.60925674438477 24.76943206787109 21.58261680603027 24.75151062011719 21.55607604980469 24.73347091674805 C 21.47225570678711 24.67651176452637 21.36794662475586 24.60563087463379 21.26852607727051 24.50707054138184 C 20.6093807220459 23.85345458984375 19.95461654663086 23.19807815551758 19.31650924682617 22.55853843688965 C 19.05552291870117 22.82093811035156 18.81067276000977 23.06532859802246 18.57464599609375 23.29903221130371 C 18.35602569580078 23.5154914855957 18.08208656311035 23.63471221923828 17.80328750610352 23.63473129272461 C 17.36448669433594 23.63476181030273 16.9829158782959 23.34116172790527 16.83119583129883 22.88676071166992 C 16.43901634216309 21.71194076538086 16.0474967956543 20.53692054748535 15.65598678588867 19.36191177368164 C 15.25922679901123 18.17118072509766 14.86246681213379 16.98044204711914 14.46503639221191 15.78994178771973 C 14.32680702209473 15.37600135803223 14.41551685333252 14.97477149963379 14.70845699310303 14.68918132781982 C 14.90272617340088 14.49985122680664 15.14571666717529 14.39982128143311 15.41124629974365 14.39982128143311 C 15.5331563949585 14.39982128143311 15.65986633300781 14.42147159576416 15.78784656524658 14.46417140960693 C 16.9561767578125 14.85391139984131 18.12477684020996 15.24296092987061 19.29338645935059 15.63201141357422 C 20.49043655395508 16.03053092956543 21.68748664855957 16.42905044555664 22.88429641723633 16.82833099365234 C 23.26214599609375 16.95440101623535 23.5265064239502 17.22694206237793 23.60960578918457 17.57609176635742 C 23.69341659545898 17.9282112121582 23.57815742492676 18.29479217529297 23.29338645935059 18.58182144165039 C 23.06446075439453 18.81257057189941 22.82271385192871 19.05462265014648 22.56080436706543 19.3152961730957 L 23.24773597717285 20.00226211547852 C 23.68049621582031 20.43499183654785 24.11327743530273 20.86774063110352 24.54591751098633 21.30061149597168 C 25.02961730957031 21.78463172912598 25.03092575073242 22.38468170166016 24.54935646057129 22.86663055419922 L 24.22173690795898 23.19472122192383 C 23.79570579528809 23.62149047851562 23.35516738891602 24.06279182434082 22.91808700561523 24.49449157714844 C 22.82121658325195 24.59017181396484 22.71895599365234 24.66303062438965 22.63679695129395 24.72157096862793 C 22.60875701904297 24.74155044555664 22.58063697814941 24.76144218444824 22.55341720581055 24.78226089477539 L 22.39206695556641 24.90564155578613 Z"/><path class="d" d="M 22.18894577026367 24.30564117431641 C 22.29200744628906 24.22683143615723 22.4049072265625 24.15803146362305 22.49645614624023 24.06761169433594 C 23.04205703735352 23.52872085571289 23.58290672302246 22.98500061035156 24.12492752075195 22.44253158569336 C 24.37120628356934 22.1960620880127 24.37022590637207 21.97361183166504 24.12153625488281 21.72476196289062 C 23.35657691955566 20.95939064025879 22.59120750427246 20.19443130493164 21.82617568969727 19.4291820526123 C 21.79060745239258 19.3935718536377 21.75665664672852 19.3563404083252 21.69400596618652 19.29047203063965 C 21.74402618408203 19.25622177124023 21.79256629943848 19.23261070251465 21.82889747619629 19.19659042358398 C 22.1763858795166 18.85211181640625 22.5228157043457 18.50662040710449 22.86744689941406 18.15924072265625 C 23.14808654785156 17.87637138366699 23.06966590881348 17.52269172668457 22.69441604614258 17.39749145507812 C 20.32923698425293 16.60843086242676 17.96311569213867 15.82231140136719 15.59794616699219 15.0333309173584 C 15.42144966125488 14.97444152832031 15.26214694976807 14.98738193511963 15.12729644775391 15.11880111694336 C 14.98772621154785 15.2548713684082 14.97346687316895 15.4182014465332 15.03415679931641 15.59994125366211 C 15.82378673553467 17.96524047851562 16.61072731018066 20.33144187927246 17.40031623840332 22.69674110412598 C 17.52313423156738 23.06458854675293 17.87651252746582 23.14591979980469 18.15248680114746 22.87267112731934 C 18.50351715087891 22.52510070800781 18.85236740112305 22.17531204223633 19.19985580444336 21.8242015838623 C 19.23572731018066 21.7879810333252 19.25605583190918 21.73642158508301 19.28359603881836 21.69198226928711 C 19.30377578735352 21.69481086730957 19.3239574432373 21.69768142700195 19.34413719177246 21.70051193237305 C 19.37382698059082 21.74287223815918 19.39804649353027 21.79070091247559 19.43403625488281 21.82680130004883 C 20.18495750427246 22.57957077026367 20.93594741821289 23.33231163024902 21.69094657897949 24.08097076416016 C 21.77887725830078 24.16814041137695 21.89056587219238 24.23132133483887 21.99124717712402 24.30564117431641 L 22.18894577026367 24.30564117431641 M 22.18894577026367 25.50564193725586 L 21.99124717712402 25.50564193725586 C 21.73472595214844 25.50564193725586 21.48495674133301 25.42344093322754 21.27856636047363 25.27109146118164 C 21.2591667175293 25.25677108764648 21.23891639709473 25.24337196350098 21.21883583068848 25.2297306060791 C 21.12009620666504 25.16263198852539 20.98487663269043 25.07074165344238 20.84610748291016 24.93317222595215 C 20.33138847351074 24.42277717590332 19.81960105895996 23.91156578063965 19.31643295288086 23.40776252746582 C 19.20775032043457 23.51614570617676 19.10143661499023 23.62179183959961 18.99680709838867 23.72539138793945 C 18.66511726379395 24.05381202697754 18.24127578735352 24.23469161987305 17.80334663391113 24.23473167419434 C 17.1019458770752 24.23477172851562 16.49698638916016 23.7802619934082 16.2620964050293 23.07680130004883 C 15.86985683441162 21.90182113647461 15.47830677032471 20.7267017364502 15.08674621582031 19.55158042907715 C 14.69002628326416 18.3609504699707 14.29330635070801 17.17033195495605 13.89590644836426 15.97993087768555 C 13.68508625030518 15.3486213684082 13.83225631713867 14.70545101165771 14.28960704803467 14.25957107543945 C 14.59385681152344 13.96305179595947 14.99214649200439 13.79982089996338 15.41124629974365 13.79982089996338 C 15.59784698486328 13.79982089996338 15.78845691680908 13.8318510055542 15.97778701782227 13.8950309753418 C 17.14592742919922 14.28471088409424 18.31441688537598 14.67372131347656 19.48290634155273 15.06273174285889 C 20.68007659912109 15.46129131317139 21.87724685668945 15.85985088348389 23.07417678833008 16.25917053222656 C 23.64468574523926 16.44951057434082 24.06304740905762 16.8898811340332 24.19329643249512 17.43716049194336 C 24.32425689697266 17.98738098144531 24.14706611633301 18.57326126098633 23.71932601928711 19.00440216064453 C 23.61874580383301 19.10578727722168 23.51573753356934 19.20930290222168 23.40963172912598 19.31562423706055 L 23.67197608947754 19.57798194885254 C 24.10479736328125 20.01076126098633 24.53760719299316 20.44354057312012 24.97029685974121 20.87646102905273 C 25.68157577514648 21.58820152282715 25.68299674987793 22.58097076416016 24.97378730773926 23.29073143005371 L 24.64636611938477 23.61862182617188 C 24.21959686279297 24.04612159729004 23.77829742431641 24.48818206787109 23.3397159576416 24.92137145996094 C 23.20858573913574 25.0508918762207 23.07933616638184 25.14298057556152 22.98495674133301 25.2102222442627 C 22.96242713928223 25.22627067565918 22.93975639343262 25.24214172363281 22.91788673400879 25.25887107849121 C 22.70858573913574 25.41892051696777 22.45242691040039 25.50564193725586 22.18894577026367 25.50564193725586 Z"/></g></svg>