<svg xmlns="http://www.w3.org/2000/svg" width="83.5" height="110.596" viewBox="0 0 83.5 110.596"><defs><style>.a{fill:#3c92ca;}</style></defs><path class="a" d="M85.832,326.508H69.981a.9.9,0,0,1-.881-.881V284.081a.9.9,0,0,1,.881-.881H85.832a.9.9,0,0,1,.881.881v41.547A.882.882,0,0,1,85.832,326.508Z" transform="translate(-67.045 -219.254)"/><path d="M247.1,2.055V19.938a2.055,2.055,0,0,0,4.11,0V2.055a2.055,2.055,0,0,0-4.11,0Z" transform="translate(-204.853)"/><path d="M352.338,178H334.455a2.055,2.055,0,1,0,0,4.11h17.883a2.055,2.055,0,0,0,0-4.11Z" transform="translate(-270.893 -137.808)"/><path d="M82.5,180.055a2.062,2.062,0,0,0,2.055,2.055h17.883a2.055,2.055,0,1,0,0-4.11H84.555A2.062,2.062,0,0,0,82.5,180.055Z" transform="translate(-77.42 -137.808)"/><path d="M119.7,48.9a2.018,2.018,0,1,0-1.445.61A2.053,2.053,0,0,0,119.7,48.9Z" transform="translate(-103.51 -35.149)"/><path d="M154.168,83.368a2.058,2.058,0,0,0,0,2.89,2.037,2.037,0,0,0,1.445.61,2,2,0,0,0,1.445-.61,2.044,2.044,0,0,0-2.89-2.89Z" transform="translate(-132.446 -64.085)"/><path d="M138.458,67.658a2.044,2.044,0,1,0-2.89,0,2.013,2.013,0,0,0,1.445.587A1.925,1.925,0,0,0,138.458,67.658Z" transform="translate(-118.046 -49.684)"/><path d="M172.887,102.01a2.031,2.031,0,0,0-.587,1.445,2.044,2.044,0,1,0,2.055-2.055A2.027,2.027,0,0,0,172.887,102.01Z" transform="translate(-146.943 -78.504)"/><path d="M370.01,51.882a2.044,2.044,0,1,0,2.89,2.89,2.031,2.031,0,0,0,.587-1.445,2.131,2.131,0,0,0-.587-1.445,2.031,2.031,0,0,0-1.445-.587A1.977,1.977,0,0,0,370.01,51.882Z" transform="translate(-299.538 -39.711)"/><path d="M334.213,92.645a2.111,2.111,0,0,0,1.445-.587,2.044,2.044,0,1,0-2.89,0A2.013,2.013,0,0,0,334.213,92.645Z" transform="translate(-270.719 -68.575)"/><path d="M351.468,70.468a2.058,2.058,0,0,0,0,2.89,2.018,2.018,0,0,0,2.89,0,2.044,2.044,0,1,0-2.89-2.89Z" transform="translate(-285.196 -54.097)"/><path d="M313.5,109.332a2.055,2.055,0,1,0,3.5-1.445,2.032,2.032,0,0,0-1.445-.587,2.131,2.131,0,0,0-1.445.587A2.014,2.014,0,0,0,313.5,109.332Z" transform="translate(-256.26 -83.072)"/><path d="M143.139,172.882A11.545,11.545,0,0,0,131.6,161.344H113.672V148.406c0-5.442-1.581-9.371-4.742-11.674-4.968-3.658-11.809-1.558-12.08-1.468a2.033,2.033,0,0,0-1.423,1.942v14.5c0,11.425-13.254,15.332-13.819,15.49a1.878,1.878,0,0,0-.7.361,3.813,3.813,0,0,0-2.981-1.445H63.816A3.826,3.826,0,0,0,60,169.924v39.763a3.826,3.826,0,0,0,3.816,3.816H77.883a3.8,3.8,0,0,0,3.3-1.919,11.483,11.483,0,0,0,7.971,3.206H124.6c7.835,0,12.825-4.109,13.706-11.267l4.764-30.325A.721.721,0,0,0,143.139,172.882Zm-65.5,36.511H64.11V170.2H77.635v39.2Zm56.653-6.458V203c-.632,5.1-3.884,7.7-9.664,7.7H89.173a7.459,7.459,0,0,1-7.451-7.451V171.143a2.019,2.019,0,0,0,.971-.023c.677-.181,16.8-4.877,16.8-19.419V138.854c1.761-.271,4.809-.429,7,1.174,2.032,1.49,3.071,4.313,3.071,8.377V163.4a2.062,2.062,0,0,0,2.055,2.055H131.6a7.456,7.456,0,0,1,7.451,7.293Z" transform="translate(-60 -104.194)"/></svg>