<svg width="45" height="45" viewBox="0 0 45 45" fill="none" xmlns="http://www.w3.org/2000/svg">
<path d="M44.2197 15.3018L40.7527 11.8348C40.5582 11.6392 40.3269 11.484 40.0723 11.3781C39.8176 11.2722 39.5445 11.2177 39.2687 11.2177C38.9928 11.2177 38.7197 11.2722 38.4651 11.3781C38.2104 11.484 37.9792 11.6392 37.7847 11.8348L16.8157 32.8078L7.06266 23.0458C6.86816 22.8502 6.63693 22.695 6.38225 22.5891C6.12757 22.4832 5.85448 22.4287 5.57866 22.4287C5.30284 22.4287 5.02975 22.4832 4.77507 22.5891C4.52039 22.695 4.28916 22.8502 4.09466 23.0458L0.61866 26.5218C0.422584 26.7169 0.266992 26.9489 0.160823 27.2043C0.0546542 27.4598 0 27.7337 0 28.0103C0 28.2869 0.0546542 28.5608 0.160823 28.8163C0.266992 29.0717 0.422584 29.3037 0.61866 29.4988L15.3267 44.2158C15.5212 44.4114 15.7524 44.5665 16.0071 44.6724C16.2617 44.7783 16.5348 44.8329 16.8107 44.8329C17.0865 44.8329 17.3596 44.7783 17.6142 44.6724C17.8689 44.5665 18.1002 44.4114 18.2947 44.2158L44.2107 18.2828C44.6064 17.8883 44.8296 17.3529 44.8313 16.7941C44.833 16.2354 44.613 15.6987 44.2197 15.3018ZM15.8267 24.5868C15.956 24.7179 16.11 24.8219 16.2799 24.893C16.4498 24.964 16.632 25.0006 16.8162 25.0006C17.0003 25.0006 17.1826 24.964 17.3524 24.893C17.5223 24.8219 17.6764 24.7179 17.8057 24.5868L36.0157 6.35879C36.2765 6.0955 36.4228 5.73989 36.4228 5.36929C36.4228 4.99869 36.2765 4.64307 36.0157 4.37979L32.0587 0.413788C31.9294 0.282719 31.7753 0.178646 31.6054 0.107613C31.4356 0.0365789 31.2533 0 31.0692 0C30.885 0 30.7028 0.0365789 30.5329 0.107613C30.363 0.178646 30.209 0.282719 30.0797 0.413788L16.8157 13.6778L11.9647 8.81879C11.8354 8.68772 11.6813 8.58365 11.5114 8.51261C11.3416 8.44158 11.1593 8.405 10.9752 8.405C10.791 8.405 10.6088 8.44158 10.4389 8.51261C10.269 8.58365 10.115 8.68772 9.98566 8.81879L6.02066 12.7848C5.75984 13.0481 5.61352 13.4037 5.61352 13.7743C5.61352 14.1449 5.75984 14.5005 6.02066 14.7638L15.8267 24.5868Z" fill="white"/>
</svg>
