<svg width="19" height="19" viewBox="0 0 19 19" fill="none" xmlns="http://www.w3.org/2000/svg">
<path d="M1.5 4.5V17C1.5 17.5523 1.94772 18 2.5 18H15" stroke="black" stroke-width="2" stroke-linecap="round"/>
<rect x="4" width="15" height="16" rx="2" fill="#1B1B1D"/>
<path d="M6.46973 9.1748H7.21143C7.48258 9.1748 7.72754 9.13607 7.94629 9.05859C8.16504 8.98112 8.35189 8.87288 8.50684 8.73389C8.65951 8.59717 8.77686 8.43424 8.85889 8.24512C8.9432 8.05599 8.98535 7.84977 8.98535 7.62646C8.98535 7.38721 8.9432 7.1696 8.85889 6.97363C8.77686 6.77767 8.65951 6.60905 8.50684 6.46777C8.35189 6.32878 8.16504 6.22054 7.94629 6.14307C7.72754 6.06331 7.48258 6.02344 7.21143 6.02344H5.50928V11H6.46973V9.1748ZM6.46973 8.39551V6.80273H7.21143C7.34814 6.80273 7.46663 6.82438 7.56689 6.86768C7.66715 6.91097 7.75146 6.97021 7.81982 7.04541C7.8859 7.12061 7.9349 7.20833 7.9668 7.30859C8.00098 7.40885 8.01807 7.51709 8.01807 7.6333C8.01807 7.73356 8.00098 7.8304 7.9668 7.92383C7.9349 8.01497 7.8859 8.09587 7.81982 8.1665C7.75146 8.23714 7.66715 8.29297 7.56689 8.33398C7.46663 8.375 7.34814 8.39551 7.21143 8.39551H6.46973ZM9.63135 11H10.9678C11.1888 11 11.3962 10.9727 11.5898 10.918C11.7858 10.8633 11.9647 10.7847 12.1265 10.6821C12.2655 10.5955 12.3931 10.4884 12.5093 10.3608C12.6255 10.231 12.7269 10.0897 12.8135 9.93701C12.9046 9.76611 12.9753 9.57812 13.0254 9.37305C13.0755 9.16797 13.1006 8.95036 13.1006 8.72021V8.31006C13.1006 8.0708 13.0732 7.84521 13.0186 7.6333C12.9661 7.42139 12.891 7.2277 12.793 7.05225C12.7087 6.90869 12.6095 6.77653 12.4956 6.65576C12.384 6.53271 12.2563 6.42904 12.1128 6.34473C11.9487 6.24219 11.7664 6.16357 11.5659 6.10889C11.3654 6.05192 11.1501 6.02344 10.9199 6.02344H9.63135V11ZM10.5986 6.80273H10.9199C11.0361 6.80273 11.1432 6.81641 11.2412 6.84375C11.3415 6.86882 11.4326 6.90527 11.5146 6.95312C11.6217 7.01693 11.7152 7.09896 11.7949 7.19922C11.877 7.29948 11.943 7.41341 11.9932 7.54102C12.0342 7.64811 12.0649 7.7666 12.0854 7.89648C12.1082 8.02409 12.1196 8.15967 12.1196 8.30322V8.72021C12.1196 8.87288 12.1082 9.0153 12.0854 9.14746C12.0649 9.27734 12.0342 9.39583 11.9932 9.50293C11.943 9.62598 11.8826 9.73421 11.812 9.82764C11.7437 9.91878 11.6662 9.99398 11.5796 10.0532C11.4953 10.1102 11.4019 10.1535 11.2993 10.1831C11.1968 10.2127 11.0863 10.2275 10.9678 10.2275H10.5986V6.80273ZM17.0142 8.93896V8.15967H14.8813V6.80615H17.2808V6.02344H13.9175V11H14.8813V8.93896H17.0142Z" fill="#DBDFEB"/>
</svg>