<svg width="50" height="50" viewBox="0 0 50 50" fill="none" xmlns="http://www.w3.org/2000/svg">
<path d="M25 50C38.8071 50 50 38.8071 50 25C50 11.1929 38.8071 0 25 0C11.1929 0 0 11.1929 0 25C0 38.8071 11.1929 50 25 50Z" fill="#FF7373"/>
<path d="M36.41 32.3C36.41 32.8402 36.1954 33.3584 35.8134 33.7404C35.4314 34.1224 34.9132 34.337 34.373 34.337H16.037C15.4968 34.337 14.9786 34.1224 14.5966 33.7404C14.2146 33.3584 14 32.8402 14 32.3V21.093C14 20.5528 14.2146 20.0346 14.5966 19.6526C14.9786 19.2706 15.4968 19.056 16.037 19.056H20.112L22.149 16H28.261L30.3 19.056H34.375C34.9149 19.0565 35.4325 19.2714 35.8141 19.6533C36.1957 20.0353 36.41 20.5531 36.41 21.093V32.3Z" stroke="white" stroke-width="1.5" stroke-linecap="round" stroke-linejoin="round"/>
<path d="M29.28 26.1871C29.28 26.9931 29.041 27.781 28.5932 28.4511C28.1454 29.1213 27.5089 29.6436 26.7642 29.952C26.0195 30.2604 25.2001 30.341 24.4096 30.1837C23.6191 30.0264 22.893 29.6382 22.3232 29.0682C21.7533 28.4982 21.3653 27.772 21.2082 26.9814C21.0511 26.1909 21.1319 25.3715 21.4405 24.6269C21.7491 23.8823 22.2715 23.246 22.9418 22.7983C23.612 22.3507 24.4 22.1119 25.206 22.1121C26.2868 22.1121 27.3232 22.5414 28.0875 23.3056C28.8517 24.0698 29.281 25.1063 29.281 26.1871H29.28Z" stroke="white" stroke-width="1.5" stroke-linecap="round" stroke-linejoin="round"/>
</svg>