<svg xmlns="http://www.w3.org/2000/svg" width="32" height="32" viewBox="0 0 32 32"><defs><style>.a{fill:#21d0a2;}.b{fill:#fff;stroke:#fff;stroke-width:0.5px;}</style></defs><rect class="a" width="32" height="32" rx="4"/><path class="b" d="M18.169,17.322,16.2,15.354l1.969-1.969a.6.6,0,0,0-.844-.844l-1.969,1.969-1.969-1.969a.6.6,0,0,0-.844.844l1.969,1.969-1.969,1.969a.577.577,0,0,0,0,.844.593.593,0,0,0,.844,0L15.356,16.2l1.969,1.969a.6.6,0,0,0,.844,0A.593.593,0,0,0,18.169,17.322Z" transform="translate(15.998 -5.727) rotate(45)"/><path class="b" d="M11.145,4.421A6.721,6.721,0,1,1,6.389,6.389a6.679,6.679,0,0,1,4.755-1.969m0-1.046a7.77,7.77,0,1,0,7.77,7.77,7.768,7.768,0,0,0-7.77-7.77Z" transform="translate(16 0.227) rotate(45)"/></svg>