<svg class="plusWhiteBg" width="32" height="32" viewBox="0 0 32 32" fill="none" xmlns="http://www.w3.org/2000/svg">
<path class="plusWhiteBg" d="M28 0H4C1.79086 0 0 1.79086 0 4V28C0 30.2091 1.79086 32 4 32H28C30.2091 32 32 30.2091 32 28V4C32 1.79086 30.2091 0 28 0Z" />
<path class="plusWhiteIcon" d="M16.5969 19.3689L16.5962 16.585H19.3808C19.5284 16.5697 19.6651 16.5003 19.7645 16.39C19.8639 16.2798 19.9189 16.1367 19.9189 15.9882C19.9189 15.8398 19.8639 15.6967 19.7645 15.5865C19.6651 15.4762 19.5284 15.4068 19.3808 15.3915L16.5962 15.3915V12.6069C16.5809 12.4592 16.5114 12.3225 16.4012 12.2232C16.291 12.1238 16.1478 12.0688 15.9994 12.0688C15.851 12.0688 15.7079 12.1238 15.5976 12.2232C15.4874 12.3225 15.4179 12.4592 15.4026 12.6069V15.3915H12.618C12.5389 15.3887 12.4601 15.4022 12.3864 15.4312C12.3128 15.4603 12.2459 15.5041 12.1899 15.5601C12.1339 15.6161 12.09 15.683 12.061 15.7566C12.032 15.8303 12.0185 15.9091 12.0212 15.9882C12.0207 16.0668 12.0358 16.1446 12.0656 16.2172C12.0954 16.2899 12.1394 16.3559 12.1949 16.4114C12.2504 16.4669 12.3164 16.5108 12.389 16.5406C12.4617 16.5705 12.5395 16.5856 12.618 16.585L15.4012 16.5865L15.4012 19.371C15.402 19.5291 15.4652 19.6804 15.5769 19.7921C15.6887 19.9039 15.84 19.967 15.998 19.9678C16.0769 19.9686 16.1551 19.9537 16.2281 19.9239C16.3012 19.894 16.3675 19.85 16.4233 19.7942C16.479 19.7384 16.5231 19.6721 16.5529 19.5991C16.5828 19.526 16.5977 19.4478 16.5969 19.3689V19.3689Z" stroke-width="0.5"/>
<path class="plusWhiteIcon" d="M20.7546 11.2338C21.8533 12.3339 22.5367 13.7809 22.6882 15.3283C22.8398 16.8756 22.4502 18.4277 21.5858 19.7201C20.7213 21.0124 19.4356 21.9651 17.9475 22.4158C16.4595 22.8665 14.8612 22.7874 13.425 22.1919C11.9888 21.5964 10.8034 20.5213 10.0709 19.1499C9.33839 17.7785 9.10401 16.1955 9.4077 14.6706C9.71138 13.1458 10.5343 11.7734 11.7364 10.7872C12.9384 9.8011 14.4452 9.26222 16 9.26239C16.8834 9.26 17.7585 9.43289 18.5747 9.77104C19.3908 10.1092 20.1317 10.6059 20.7546 11.2324L20.7546 11.2338ZM21.4942 10.4928C20.4076 9.4061 19.0231 8.66608 17.5159 8.36628C16.0086 8.06647 14.4463 8.22034 13.0266 8.80843C11.6068 9.39653 10.3933 10.3924 9.53948 11.6702C8.6857 12.948 8.23 14.4502 8.23 15.987C8.23 17.5237 8.6857 19.026 9.53948 20.3038C10.3933 21.5815 11.6068 22.5774 13.0266 23.1655C14.4463 23.7536 16.0086 23.9075 17.5159 23.6077C19.0231 23.3079 20.4076 22.5679 21.4942 21.4812C22.216 20.7598 22.7885 19.9033 23.1791 18.9606C23.5698 18.0179 23.7708 17.0074 23.7708 15.987C23.7708 14.9665 23.5698 13.9561 23.1791 13.0134C22.7885 12.0707 22.216 11.2141 21.4942 10.4928V10.4928Z" stroke-width="0.5"/>
</svg>