<svg xmlns="http://www.w3.org/2000/svg" width="15.191" height="16.635" viewBox="0 0 15.191 16.635"><defs><style>.a{fill:none;stroke:#3699cf;stroke-linecap:round;stroke-linejoin:round;stroke-width:1.5px;}</style></defs><g transform="translate(0.822 0.774)"><path class="a" d="M18.048,13.539V7.517a1.505,1.505,0,0,0-.753-1.3L12.027,3.2a1.505,1.505,0,0,0-1.505,0L5.253,6.215a1.505,1.505,0,0,0-.753,1.3v6.021a1.505,1.505,0,0,0,.753,1.3l5.269,3.011a1.505,1.505,0,0,0,1.505,0L17.3,14.841A1.505,1.505,0,0,0,18.048,13.539Z" transform="translate(-4.5 -3.003)"/><path class="a" d="M4.905,10.44l6.571,3.8,6.571-3.8" transform="translate(-4.702 -6.708)"/><path class="a" d="M18,25.587V18" transform="translate(-11.227 -10.476)"/></g></svg>