<svg width="16" height="17" viewBox="0 0 16 17" fill="none" xmlns="http://www.w3.org/2000/svg">
<path d="M4.687 1.93807H0.937V5.68807H4.687V1.93807ZM5.629 1.00007V6.62507H0V1.00007H5.629ZM1.875 2.87207H3.75V4.75007H1.875V2.87207ZM14.062 1.93407H10.312V5.68407H14.062V1.93407ZM15 0.99707V6.62507H9.375V1.00007H15V0.99707ZM11.25 2.87207H13.129V4.75007H11.25V2.87207ZM4.687 11.3131H0.937V15.0631H4.687V11.3131ZM5.629 10.3721V15.9971H0V10.3721H5.629ZM1.879 12.2471H3.75V14.1221H1.875L1.879 12.2471ZM6.562 1.00007H7.5V1.93707H6.562V1.00007ZM7.5 1.93707H8.437V2.87207H7.5V1.93707ZM6.562 2.87207H7.5V3.80907H6.562V2.87207ZM7.5 3.80907H8.437V4.74607H7.5V3.80907ZM6.563 4.74607H7.501V5.68407H6.562L6.563 4.74607ZM7.501 5.68407H8.438V6.62107H7.501V5.68407ZM6.564 6.62107H7.502V7.55907H6.562L6.564 6.62107ZM6.564 8.49607H7.502V9.43307H6.562L6.564 8.49607ZM7.502 9.43307H8.439V10.3721H7.502V9.43307ZM6.565 10.3711H7.503V11.3081H6.562L6.565 10.3711ZM7.503 11.3081H8.44V12.2461H7.503V11.3081ZM6.566 12.2461H7.504V13.1841H6.562L6.566 12.2461ZM7.504 13.1841H8.441V14.1221H7.504V13.1841ZM6.567 14.1221H7.505V15.0591H6.562L6.567 14.1221ZM7.505 15.0591H8.442V15.9971H7.505V15.0591ZM14.067 8.49707H15.004V9.43507H14.067V8.49707ZM0.942 8.49707H1.88V9.43507H0.937L0.942 8.49707ZM1.88 7.56007H2.817V8.49807H1.875L1.88 7.56007ZM0.00499988 7.56007H0.942V8.49807H0L0.00499988 7.56007ZM3.755 7.56007H4.693V8.49807H3.75L3.755 7.56007ZM4.693 8.49807H5.629V9.43607H4.687L4.693 8.49807ZM5.629 7.56307H6.566V8.50107H5.629V7.56307ZM8.441 8.50107H9.379V9.43907H8.441V8.50107ZM9.379 7.56407H10.316V8.50207H9.379V7.56407ZM10.316 8.50207H11.254V9.44007H10.316V8.50207ZM11.254 7.56507H12.192V8.50307H11.254V7.56507ZM12.192 8.50307H13.129V9.44107H12.192V8.50307ZM13.129 7.56607H14.067V8.50407H13.129V7.56607ZM14.067 10.3791H15.004V11.3171H14.067V10.3791ZM8.442 10.3791H9.38V11.3171H8.442V10.3791ZM9.38 9.44207H10.318V10.3721H9.381L9.38 9.44207ZM10.318 10.3801H11.255V11.3181H10.318V10.3801ZM12.193 10.3801H13.129V11.3181H12.192L12.193 10.3801ZM13.131 9.44307H14.068V10.3721H13.129L13.131 9.44307ZM14.068 12.2561H15.006V13.1941H14.068V12.2561ZM8.443 12.2561H9.381V13.1941H8.443V12.2561ZM9.381 11.3181H10.318V12.2561H9.381V11.3181ZM11.256 11.3181H12.194V12.2561H11.256V11.3181ZM12.194 12.2561H13.129V13.1941H12.192L12.194 12.2561ZM13.132 11.3181H14.069V12.2561H13.129L13.132 11.3181ZM14.069 14.1311H15.007V15.0691H14.069V14.1311ZM9.382 13.1941H10.32V14.1311H9.383L9.382 13.1941ZM10.32 14.1311H11.258V15.0691H10.32V14.1311ZM11.258 13.1941H12.196V14.1311H11.259L11.258 13.1941ZM12.196 14.1311H13.129V15.0691H12.191L12.196 14.1311ZM9.383 15.0691H10.321V16.0061H9.384L9.383 15.0691ZM11.258 15.0691H12.196V16.0061H11.259L11.258 15.0691ZM13.133 15.0691H14.07V16.0061H13.129L13.133 15.0691Z" fill="black"/>
</svg>