<svg width="22" height="22" viewBox="0 0 22 22" fill="none" xmlns="http://www.w3.org/2000/svg">
<path d="M17.721 17.4029C17.721 17.4029 17.813 17.3369 17.961 17.2249C19.0532 16.4246 19.9454 15.3825 20.568 14.1801C21.1906 12.9778 21.5267 11.6477 21.55 10.2939C21.55 5.1619 16.726 0.993896 10.778 0.993896C4.83 0.993896 0 5.1629 0 10.2949C0 15.4269 4.823 19.5949 10.773 19.5949C11.5329 19.598 12.2914 19.5311 13.039 19.3949L13.274 19.3549C14.9619 20.4457 16.9119 21.0629 18.92 21.1419C19.043 21.1648 19.1701 21.1472 19.2823 21.0917C19.3944 21.0362 19.4855 20.9458 19.5419 20.834C19.5983 20.7223 19.6169 20.5953 19.5949 20.4721C19.5729 20.349 19.5115 20.2362 19.42 20.1509C18.7207 19.3268 18.1478 18.4034 17.72 17.4109L17.721 17.4029ZM16.408 13.3389C15.735 14.1747 14.878 14.8436 13.9038 15.2936C12.9296 15.7436 11.8647 15.9624 10.792 15.9329H10.751C9.67861 15.9615 8.61407 15.7423 7.6402 15.2924C6.66632 14.8425 5.80937 14.174 5.136 13.3389C5.00707 13.194 4.92209 13.0153 4.891 12.8239C4.88213 12.7084 4.91915 12.5941 4.99403 12.5057C5.06892 12.4174 5.17562 12.3621 5.291 12.3519C5.29727 12.3506 5.30373 12.3506 5.31 12.3519C5.41576 12.3569 5.51798 12.3916 5.605 12.4519C7.06426 13.6423 8.88879 14.2941 10.772 14.2979C12.6616 14.3195 14.4964 13.6635 15.944 12.4489C16.0205 12.3782 16.1208 12.3389 16.225 12.3389C16.339 12.3386 16.4485 12.3833 16.5297 12.4632C16.611 12.5432 16.6574 12.6519 16.659 12.7659C16.6317 12.9763 16.5485 13.1756 16.418 13.3429H16.408V13.3389Z" fill="white"/>
</svg>