<svg width="45" height="34" viewBox="0 0 45 34" fill="none" xmlns="http://www.w3.org/2000/svg">
<path d="M44.2197 4.08406L40.7527 0.617063C40.5582 0.421501 40.3269 0.26631 40.0723 0.160413C39.8176 0.0545156 39.5445 0 39.2687 0C38.9928 0 38.7197 0.0545156 38.4651 0.160413C38.2104 0.26631 37.9792 0.421501 37.7847 0.617063L16.8157 21.5901L7.06266 11.8281C6.86816 11.6325 6.63693 11.4773 6.38225 11.3714C6.12757 11.2655 5.85448 11.211 5.57866 11.211C5.30284 11.211 5.02975 11.2655 4.77507 11.3714C4.52039 11.4773 4.28916 11.6325 4.09466 11.8281L0.61866 15.3041C0.422584 15.4992 0.266992 15.7311 0.160823 15.9866C0.0546542 16.242 0 16.5159 0 16.7926C0 17.0692 0.0546542 17.3431 0.160823 17.5985C0.266992 17.854 0.422584 18.0859 0.61866 18.2811L15.3267 32.9981C15.5212 33.1936 15.7524 33.3488 16.0071 33.4547C16.2617 33.5606 16.5348 33.6151 16.8107 33.6151C17.0865 33.6151 17.3596 33.5606 17.6142 33.4547C17.8689 33.3488 18.1002 33.1936 18.2947 32.9981L44.2107 7.06506C44.6064 6.67055 44.8296 6.13522 44.8313 5.57642C44.833 5.01763 44.613 4.48096 44.2197 4.08406Z" fill="white"/>
</svg>
