<svg xmlns="http://www.w3.org/2000/svg" width="32" height="32" viewBox="0 0 32 32"><defs><style>.a{fill:#3699cf;}.b{fill:#fff;}</style></defs><rect class="a" width="32" height="32" rx="4"/><path class="b" d="M8.879,11.33H9.9a.367.367,0,0,0,.342-.342V7.4A.367.367,0,0,0,9.9,7.061H8.879a.367.367,0,0,0-.342.342v3.586a.367.367,0,0,0,.342.342Zm2.561,0h1.025a.367.367,0,0,0,.342-.342V4.842a.367.367,0,0,0-.342-.342H11.44a.367.367,0,0,0-.342.342v6.147a.367.367,0,0,0,.342.342Zm-7.684,0H4.781a.367.367,0,0,0,.342-.342V9.11a.367.367,0,0,0-.342-.342H3.757a.367.367,0,0,0-.342.342v1.878A.367.367,0,0,0,3.757,11.33Zm2.561,0H7.342a.367.367,0,0,0,.342-.342V5.7a.367.367,0,0,0-.342-.342H6.318a.367.367,0,0,0-.342.342v5.293A.367.367,0,0,0,6.318,11.33Zm6.915,1.708H1.708V4.927A.427.427,0,0,0,1.281,4.5H.427A.427.427,0,0,0,0,4.927v8.964a.854.854,0,0,0,.854.854h12.38a.427.427,0,0,0,.427-.427v-.854A.427.427,0,0,0,13.233,13.038Z" transform="translate(9 6.5)"/></svg>