<svg class="reportBg" width="32" height="32" viewBox="0 0 32 32" fill="none" xmlns="http://www.w3.org/2000/svg">
<path class="reportBg" d="M28 0H4C1.79086 0 0 1.79086 0 4V28C0 30.2091 1.79086 32 4 32H28C30.2091 32 32 30.2091 32 28V4C32 1.79086 30.2091 0 28 0Z" />
<path class="reportIcon" d="M17.879 17.83H18.9C18.9888 17.8241 19.0724 17.7862 19.1353 17.7233C19.1982 17.6604 19.2361 17.5768 19.242 17.488V13.9C19.2354 13.8118 19.1972 13.7289 19.1344 13.6666C19.0715 13.6043 18.9883 13.5668 18.9 13.561H17.879C17.7902 13.5669 17.7066 13.6048 17.6437 13.6677C17.5808 13.7306 17.5429 13.8142 17.537 13.903V17.489C17.5429 17.5778 17.5808 17.6614 17.6437 17.7243C17.7066 17.7872 17.7902 17.8251 17.879 17.831V17.83ZM20.44 17.83H21.465C21.5538 17.8241 21.6374 17.7862 21.7003 17.7233C21.7632 17.6604 21.8011 17.5768 21.807 17.488V11.342C21.8011 11.2532 21.7632 11.1696 21.7003 11.1067C21.6374 11.0438 21.5538 11.0059 21.465 11H20.44C20.3512 11.0059 20.2676 11.0438 20.2047 11.1067C20.1418 11.1696 20.1039 11.2532 20.098 11.342V17.489C20.1039 17.5778 20.1418 17.6614 20.2047 17.7243C20.2676 17.7872 20.3512 17.8251 20.44 17.831V17.83ZM12.756 17.83H13.781C13.8698 17.8241 13.9534 17.7862 14.0163 17.7233C14.0792 17.6604 14.1171 17.5768 14.123 17.488V15.61C14.1171 15.5212 14.0792 15.4376 14.0163 15.3747C13.9534 15.3118 13.8698 15.2739 13.781 15.268H12.757C12.6682 15.2739 12.5846 15.3118 12.5217 15.3747C12.4588 15.4376 12.4209 15.5212 12.415 15.61V17.488C12.4209 17.5768 12.4588 17.6604 12.5217 17.7233C12.5846 17.7862 12.6682 17.8241 12.757 17.83H12.756ZM15.317 17.83H16.342C16.4308 17.8241 16.5144 17.7862 16.5773 17.7233C16.6402 17.6604 16.6781 17.5768 16.684 17.488V12.2C16.6781 12.1112 16.6402 12.0276 16.5773 11.9647C16.5144 11.9018 16.4308 11.8639 16.342 11.858H15.318C15.2292 11.8639 15.1456 11.9018 15.0827 11.9647C15.0198 12.0276 14.9819 12.1112 14.976 12.2V17.493C14.983 17.5809 15.0214 17.6633 15.0842 17.7252C15.147 17.7871 15.23 17.8243 15.318 17.83H15.317ZM22.232 19.538H10.708V11.427C10.708 11.3709 10.697 11.3154 10.6755 11.2636C10.654 11.2118 10.6226 11.1647 10.5829 11.1251C10.5433 11.0854 10.4962 11.054 10.4444 11.0325C10.3926 11.011 10.3371 11 10.281 11H9.427C9.31375 11 9.20514 11.045 9.12507 11.1251C9.04499 11.2051 9 11.3138 9 11.427V20.391C9 20.6175 9.08997 20.8347 9.25013 20.9949C9.41029 21.155 9.62751 21.245 9.854 21.245H22.234C22.3472 21.245 22.4559 21.2 22.5359 21.1199C22.616 21.0399 22.661 20.9312 22.661 20.818V19.964C22.6609 19.9079 22.6497 19.8524 22.6281 19.8007C22.6065 19.7489 22.575 19.7019 22.5352 19.6624C22.4955 19.6228 22.4483 19.5915 22.3965 19.5701C22.3446 19.5488 22.2891 19.5379 22.233 19.538H22.232Z" />
</svg>
