<svg xmlns="http://www.w3.org/2000/svg" width="15" height="14.117" viewBox="0 0 15 14.117"><defs><style>.a{fill:#3699cf;}</style></defs><path class="a" d="M14.553,7.941H8.01L12.367,12.3a.442.442,0,0,0,.612.019A6.6,6.6,0,0,0,15,8.434a.442.442,0,0,0-.443-.492Zm-.436-1.787A6.633,6.633,0,0,0,7.963,0,.444.444,0,0,0,7.5.448v6.17h6.17a.443.443,0,0,0,.446-.463ZM6.176,7.941V1.4A.442.442,0,0,0,5.684.956,6.613,6.613,0,0,0,0,7.731a6.7,6.7,0,0,0,6.7,6.386,6.566,6.566,0,0,0,3.73-1.214.438.438,0,0,0,.043-.664Z" transform="translate(0 0)"/></svg>