<svg xmlns="http://www.w3.org/2000/svg" width="16.522" height="16.522" viewBox="0 0 16.522 16.522"><defs><style>.a{fill:none;stroke:#3699cf;stroke-linecap:round;stroke-linejoin:round;stroke-width:1.5px;}.b{fill:#3699cf;}</style></defs><g transform="translate(0.75 0.75)"><path class="a" d="M16.52,3H4.5A1.507,1.507,0,0,0,3,4.5v13.52l3-3H16.52a1.507,1.507,0,0,0,1.5-1.5V4.5A1.507,1.507,0,0,0,16.52,3Z" transform="translate(-3 -3)"/><path class="b" d="M4.283.211,3.506,1.787,1.767,2.04a.381.381,0,0,0-.211.65L2.815,3.915l-.3,1.731a.381.381,0,0,0,.552.4L4.625,5.23l1.555.818a.381.381,0,0,0,.552-.4l-.3-1.731L7.692,2.69a.381.381,0,0,0-.211-.65L5.743,1.787,4.966.211a.381.381,0,0,0-.683,0Z" transform="translate(2.872 2.5)"/></g></svg>