<svg xmlns="http://www.w3.org/2000/svg" width="15" height="15" viewBox="0 0 15 15"><defs><style>.a{fill:#272e47;}</style></defs><path class="a" d="M8.062.563a7.5,7.5,0,1,1-7.5,7.5A7.5,7.5,0,0,1,8.062.563ZM7.189,4.905l2.283,2.19H3.95a.724.724,0,0,0-.726.726V8.3a.724.724,0,0,0,.726.726H9.472L7.189,11.22a.727.727,0,0,0-.012,1.037l.333.33a.723.723,0,0,0,1.025,0l4.013-4.01a.723.723,0,0,0,0-1.025L8.534,3.535a.723.723,0,0,0-1.025,0l-.333.33a.73.73,0,0,0,.012,1.04Z" transform="translate(-0.563 -0.563)"/></svg>