<svg xmlns="http://www.w3.org/2000/svg" width="14.997" height="14.998" viewBox="0 0 14.997 14.998"><defs><style>.a{fill:#1477ac;}</style></defs><path class="a" d="M2.581,10.024A.745.745,0,0,0,3.633,9.99c.561-.553,3.392-3.576,3.948-4.13l.142-.13.173.113c.512.341,1.021.683,1.535,1.022a.717.717,0,0,0,.938-.05q1.156-1.143,2.3-2.3a.682.682,0,0,0,.174-.668.706.706,0,0,0-.517-.547.729.729,0,0,0-.758.2L9.779,5.291l-.174-.113c-.516-.344-1.031-.69-1.55-1.031a.715.715,0,0,0-.925.05c-.782.767-3.838,4.01-4.606,4.792a.674.674,0,0,0-.149.7.758.758,0,0,0,.2.33" transform="translate(-0.246 -0.345)"/><path class="a" d="M16.222,1.036a.769.769,0,0,0-.327-.8h0a1.322,1.322,0,0,0-.415-.1c-.394.013-2.742.247-3.13.3a.745.745,0,0,0,.135,1.479c.266-.014,1.4-.121,2.239-.207-.03.849-.058,2.228-.053,2.519a.745.745,0,0,0,1.485.046c.028-.4.087-2.762.077-3.159a.644.644,0,0,0-.013-.083" transform="translate(-1.24 -0.015)"/><path class="a" d="M14.422,13.525h0a1.378,1.378,0,0,0-.3-.02H13.21v-.013H1.494V2.667h0V.7A.747.747,0,0,0,.021.574,1.375,1.375,0,0,0,0,.871V14.3a.735.735,0,0,0,.566.68,1.275,1.275,0,0,0,.28.02H14.292a.747.747,0,0,0,.13-1.472" transform="translate(0 0)"/></svg>