<svg width="30" height="20" viewBox="0 0 30 20" fill="none" xmlns="http://www.w3.org/2000/svg">
<path d="M29.8191 9.24C28.4423 6.48229 26.3292 4.15942 23.7137 2.52859C21.0982 0.897753 18.0823 0.022589 15.0001 0C11.9181 0.0234928 8.90267 0.899028 6.28732 2.52976C3.67197 4.16049 1.55865 6.48287 0.18113 9.24C0.0620443 9.47564 0 9.73597 0 10C0 10.264 0.0620443 10.5244 0.18113 10.76C1.55793 13.5177 3.67107 15.8406 6.28658 17.4714C8.9021 19.1022 11.9179 19.9774 15.0001 20C18.0821 19.9765 21.0976 19.101 23.7129 17.4702C26.3283 15.8395 28.4416 13.5171 29.8191 10.76C29.9382 10.5244 30.0003 10.264 30.0003 10C30.0003 9.73597 29.9382 9.47564 29.8191 9.24V9.24ZM15.0001 17.5C13.5168 17.5 12.0667 17.0601 10.8334 16.236C9.59998 15.4119 8.63869 14.2406 8.07103 12.8701C7.50338 11.4997 7.35485 9.99168 7.64424 8.53682C7.93363 7.08196 8.64794 5.74559 9.69683 4.6967C10.7457 3.64781 12.0821 2.9335 13.537 2.64411C14.9918 2.35472 16.4998 2.50325 17.8703 3.0709C19.2407 3.63856 20.412 4.59985 21.2362 5.83322C22.0603 7.06659 22.5001 8.51664 22.5001 10C22.5001 11.9891 21.71 13.8968 20.3034 15.3033C18.8969 16.7098 16.9893 17.5 15.0001 17.5ZM15.0001 5C14.5538 5.0071 14.1105 5.07438 13.6821 5.2C14.0325 5.68003 14.1997 6.26944 14.1537 6.86193C14.1077 7.45441 13.8515 8.01096 13.4313 8.43117C13.0111 8.85138 12.4545 9.10759 11.8621 9.15359C11.2696 9.19958 10.6802 9.03233 10.2001 8.682C9.9267 9.68929 9.97607 10.757 10.3413 11.7347C10.7065 12.7125 11.3692 13.5511 12.2361 14.1324C13.1029 14.7138 14.1303 15.0086 15.1735 14.9755C16.2167 14.9423 17.2232 14.5827 18.0514 13.9475C18.8796 13.3122 19.4876 12.4332 19.79 11.4342C20.0923 10.4352 20.0738 9.36657 19.7369 8.37869C19.4 7.39081 18.7617 6.53346 17.912 5.92736C17.0623 5.32125 16.0439 4.99691 15.0001 5V5Z" fill="white"/>
</svg>