<svg xmlns="http://www.w3.org/2000/svg" width="15" height="15" viewBox="0 0 15 15"><defs><style>.a{fill:#3699cf;}</style></defs><path class="a" d="M5.156,6.328H9.844a.469.469,0,0,0,.469-.469V5.39a.469.469,0,0,0-.469-.469H5.156a.469.469,0,0,0-.469.469v.469A.469.469,0,0,0,5.156,6.328ZM4.687,8.672a.469.469,0,0,0,.469.469H9.844a.469.469,0,0,0,.469-.469V8.2a.469.469,0,0,0-.469-.469H5.156a.469.469,0,0,0-.469.469ZM7.5,12.22a2.34,2.34,0,0,1-1.373-.445L0,7.349v6.244A1.406,1.406,0,0,0,1.406,15H13.594A1.406,1.406,0,0,0,15,13.594V7.349L8.873,11.775A2.342,2.342,0,0,1,7.5,12.22Zm6.961-7.447c-.259-.2-.505-.395-.867-.668V2.812a1.406,1.406,0,0,0-1.406-1.406H9.915l-.265-.192C9.158.854,8.18-.01,7.5,0,6.82-.01,5.842.854,5.349,1.214l-.265.192H2.812A1.406,1.406,0,0,0,1.406,2.812V4.106c-.362.273-.608.465-.867.668A1.406,1.406,0,0,0,0,5.88v.312L2.812,8.224V2.812h9.375V8.224L15,6.192V5.88a1.406,1.406,0,0,0-.539-1.107Z" transform="translate(0 0)"/></svg>