<svg xmlns="http://www.w3.org/2000/svg" width="49.946" height="24.016" viewBox="0 0 49.946 24.016"><defs><style>.a{fill:#ffd939;}.b{fill:#3699cf;}.c{fill:#fff;}</style></defs><path class="a" d="M144.724,32.09H121.3a1.14,1.14,0,0,1-1.182-1.272l1.805-16.538a1.483,1.483,0,0,1,1.459-1.272h23.426a1.14,1.14,0,0,1,1.182,1.272l-1.805,16.538a1.483,1.483,0,0,1-1.459,1.272" transform="translate(-111.83 -12.112)"/><path class="b" d="M8.093,13.842H7.637q-3.326,0-6.652,0a1.526,1.526,0,0,1-.537-.082.72.72,0,0,1-.439-.812A.766.766,0,0,1,.673,12.3a2.713,2.713,0,0,1,.31-.007h8.2q2,0,3.991,0c.555,0,.888.3.879.787s-.342.762-.906.765q-1.582.009-3.164.025c-.09,0-.18.014-.316.026C9.611,14.4,9.549,14.9,9.5,15.4c-.116,1.073-.232,2.147-.339,3.221-.048.477.048.573.529.574.758,0,1.517-.015,2.274.008a.435.435,0,0,0,.489-.35,4.447,4.447,0,0,1,4.644-2.881A3.594,3.594,0,0,1,20.207,18.9c.045.237.133.294.354.294q6.686-.008,13.372,0c.268,0,.328-.116.349-.341.188-1.966.37-3.932.577-5.9.274-2.6.571-5.2.855-7.8q.165-1.507.314-3.016c.048-.481-.054-.588-.554-.588q-4.722,0-9.443,0h-14.2c-.725,0-.886.142-.971.859-.024.2-.039.4-.063.657h6.889a2.487,2.487,0,0,1,.378.013.776.776,0,0,1,.654.806.763.763,0,0,1-.733.73c-.057,0-.115,0-.172,0q-5.911,0-11.821,0a1.235,1.235,0,0,1-.437-.063.76.76,0,0,1-.461-.838.78.78,0,0,1,.785-.644c.942-.01,1.884,0,2.826,0,.579,0,.52.07.577-.53A6.143,6.143,0,0,1,9.4,1.687,2.184,2.184,0,0,1,11.6,0C13.675,0,15.755,0,17.834,0H35.446a1.942,1.942,0,0,1,2.118,2.413c-.084.7-.152,1.393-.225,2.09-.008.077,0,.155,0,.268.151.008.285.021.418.021,1.482,0,2.964,0,4.446,0a3.821,3.821,0,0,1,2.984,1.33c1.2,1.359,2.4,2.719,3.635,4.052a4.058,4.058,0,0,1,1.1,3.353c-.184,1.7-.359,3.4-.543,5.105a2.2,2.2,0,0,1-2.347,2.115c-.391,0-.782.017-1.171-.006-.263-.016-.372.084-.469.324a4.4,4.4,0,0,1-3.629,2.906,3.624,3.624,0,0,1-4.136-2.94c-.048-.24-.15-.288-.366-.287q-8.409.007-16.819,0a.376.376,0,0,0-.418.3,4.438,4.438,0,0,1-4.782,2.914,3.574,3.574,0,0,1-2.969-2.8c-.066-.317-.17-.435-.509-.421-.734.03-1.47.016-2.205.007A1.88,1.88,0,0,1,7.6,18.6c.135-1.452.3-2.9.452-4.352.012-.113.021-.225.037-.4M35.8,19.194c.562,0,1.064-.013,1.566.005a.389.389,0,0,0,.446-.307,4.386,4.386,0,0,1,1.739-2.207A3.8,3.8,0,0,1,45.6,18.961c.032.189.125.241.3.237.4-.009.8,0,1.206,0a.651.651,0,0,0,.7-.646c.2-1.8.392-3.608.57-5.413a2.207,2.207,0,0,0-.577-1.747q-1.93-2.156-3.859-4.313a2.106,2.106,0,0,0-1.586-.72c-1.642-.018-3.285,0-4.927-.009-.213,0-.3.06-.321.286-.192,1.848-.4,3.695-.6,5.543-.164,1.552-.312,3.105-.469,4.658-.077.764-.158,1.528-.245,2.361m8.3.43A2.071,2.071,0,0,0,42.138,17.5,2.9,2.9,0,0,0,39.1,20.2a2.114,2.114,0,0,0,2.12,2.263A2.93,2.93,0,0,0,44.1,19.625M13.723,20.3a2.078,2.078,0,0,0,1.769,2.131,2.875,2.875,0,0,0,3.2-3.138,2.065,2.065,0,0,0-1.622-1.752,2.889,2.889,0,0,0-3.35,2.758" transform="translate(0 0)"/><path class="b" d="M59.685,133.539h7.059c.115,0,.23,0,.344.006a.777.777,0,0,1,.745.76.8.8,0,0,1-.729.816c-.352.023-.709-.018-1.063-.019q-2.393-.005-4.786,0l-8.671,0c-.1,0-.207,0-.31-.005a.776.776,0,0,1-.026-1.55,3.075,3.075,0,0,1,.344-.008h7.094Z" transform="translate(-47.963 -124.332)"/><path class="b" d="M36.414,90.756q-3.082,0-6.164,0a1.757,1.757,0,0,1-.541-.07.749.749,0,0,1-.483-.822.772.772,0,0,1,.694-.658c.091-.008.184,0,.275,0q6.233,0,12.465,0a1.323,1.323,0,0,1,.473.054.742.742,0,0,1,.492.722.754.754,0,0,1-.539.721,1.765,1.765,0,0,1-.475.053q-3.1,0-6.2,0" transform="translate(-27.204 -83.051)"/><path class="c" d="M519.368,104.907c.087-.833.168-1.6.245-2.361.157-1.553.306-3.106.469-4.658.195-1.848.406-3.694.6-5.543.023-.226.108-.287.321-.286,1.643.006,3.285-.009,4.927.009a2.106,2.106,0,0,1,1.586.72q1.934,2.153,3.859,4.313a2.207,2.207,0,0,1,.577,1.747c-.178,1.806-.375,3.609-.57,5.413a.651.651,0,0,1-.7.646c-.4.006-.8-.006-1.206,0-.178,0-.271-.047-.3-.237a3.8,3.8,0,0,0-6.048-2.276,4.386,4.386,0,0,0-1.739,2.207.389.389,0,0,1-.446.307c-.5-.018-1-.005-1.566-.005m7.451-6.85v-.04c.954,0,1.907,0,2.861,0a1.131,1.131,0,0,0,.308-.094,1.212,1.212,0,0,0-.143-.293q-1.533-1.726-3.078-3.442a1.786,1.786,0,0,0-1.346-.6c-.942-.012-1.884-.006-2.826,0-.4,0-.535.118-.58.522-.1.879-.188,1.759-.279,2.639-.03.295-.063.59-.079.886-.014.255.129.377.379.385.4.013.8.038,1.2.04,1.194.005,2.387,0,3.581,0" transform="translate(-483.567 -85.713)"/><path class="c" d="M572.25,255.9a2.93,2.93,0,0,1-2.879,2.842,2.114,2.114,0,0,1-2.12-2.263,2.9,2.9,0,0,1,3.034-2.7,2.071,2.071,0,0,1,1.966,2.123" transform="translate(-528.145 -236.278)"/><path class="c" d="M199.075,256.542a2.889,2.889,0,0,1,3.35-2.758,2.065,2.065,0,0,1,1.622,1.752,2.875,2.875,0,0,1-3.2,3.137,2.078,2.078,0,0,1-1.769-2.131" transform="translate(-185.352 -236.246)"/><path class="b" d="M557.717,118.575c-1.194,0-2.387,0-3.581,0-.4,0-.8-.027-1.2-.04-.25-.008-.393-.13-.379-.385.016-.3.049-.591.079-.886.091-.88.181-1.76.279-2.639.045-.4.175-.52.58-.522.942,0,1.884-.01,2.826,0a1.786,1.786,0,0,1,1.346.6q1.547,1.714,3.078,3.442a1.21,1.21,0,0,1,.143.293,1.131,1.131,0,0,1-.308.094c-.954.007-1.907,0-2.861,0v.04" transform="translate(-514.464 -106.233)"/></svg>