<svg width="300" height="512" viewBox="0 0 300 512" fill="none" xmlns="http://www.w3.org/2000/svg">
<path d="M265.093 0H43.2268C24.4538 0 9.09375 15.36 9.09375 34.133V477.866C9.09375 496.639 24.4538 511.999 43.2268 511.999H265.094C283.867 511.999 299.227 496.639 299.227 477.866V34.133C299.227 15.36 283.867 0 265.093 0ZM282.16 477.867C282.16 487.254 274.48 494.934 265.093 494.934H43.2268C33.8398 494.934 26.1598 487.254 26.1598 477.867V34.133C26.1598 24.746 33.8398 17.066 43.2268 17.066H265.094C274.481 17.066 282.161 24.746 282.161 34.133V477.867H282.16Z" fill="#3798CD"/>
<path d="M9.09375 51.2V443.733H299.227V51.2H9.09375ZM282.161 426.667H26.1608V68.2669H282.161V426.667Z" fill="#3798CD"/>
<path d="M188.294 25.6H145.627C140.507 25.6 137.094 29.013 137.094 34.133C137.094 39.253 140.507 42.666 145.627 42.666H188.294C193.414 42.666 196.827 39.253 196.827 34.133C196.828 29.013 193.414 25.6 188.294 25.6Z" fill="#3798CD"/>
<path d="M120.027 25.6H111.494C106.374 25.6 102.961 29.013 102.961 34.133C102.961 39.253 106.374 42.666 111.494 42.666H120.027C125.147 42.666 128.56 39.253 128.56 34.133C128.56 29.013 125.147 25.6 120.027 25.6Z" fill="#3798CD"/>
<path d="M9.09355 76.8C3.97355 76.8 0.560547 80.213 0.560547 85.333V93.866C0.560547 98.986 3.97355 102.399 9.09355 102.399C14.2136 102.399 17.6265 98.986 17.6265 93.866V85.333C17.6275 80.213 14.2136 76.8 9.09355 76.8Z" fill="#3798CD"/>
<path d="M9.09355 110.933C3.97355 110.933 0.560547 114.346 0.560547 119.466V128C0.560547 133.12 3.97355 136.533 9.09355 136.533C14.2136 136.533 17.6265 133.12 17.6265 128V119.467C17.6275 114.347 14.2136 110.933 9.09355 110.933Z" fill="#3798CD"/>
<path d="M9.09355 145.067C3.97355 145.067 0.560547 148.48 0.560547 153.6V162.133C0.560547 167.253 3.97355 170.666 9.09355 170.666C14.2136 170.666 17.6265 167.253 17.6265 162.133V153.6C17.6275 148.48 14.2136 145.067 9.09355 145.067Z" fill="#3798CD"/>
<path d="M154.16 435.2C135.387 435.2 120.027 450.56 120.027 469.333C120.027 488.106 135.387 503.466 154.16 503.466C172.933 503.466 188.293 488.106 188.293 469.333C188.293 450.56 172.933 435.2 154.16 435.2ZM154.16 486.4C144.773 486.4 137.093 478.72 137.093 469.333C137.093 459.946 144.773 452.266 154.16 452.266C163.547 452.266 171.227 459.946 171.227 469.333C171.227 478.72 163.547 486.4 154.16 486.4Z" fill="#3798CD"/>
<path d="M120.027 221.867C114.907 221.867 111.494 225.28 111.494 230.4V247.467C111.494 252.587 114.907 256 120.027 256C125.147 256 128.56 252.587 128.56 247.467V230.4C128.56 225.28 125.147 221.867 120.027 221.867Z" fill="#3798CD"/>
<path d="M60.2208 231.012C60.1788 231.024 60.1338 231.039 60.0918 231.052C60.1428 231.103 60.1948 231.155 60.2538 231.215C60.2458 231.147 60.2338 231.08 60.2208 231.012Z" fill="#3798CD"/>
<path d="M263.387 222.72C260.827 205.653 253.147 196.267 239.494 196.267C236.081 196.267 233.521 197.12 230.107 197.974C227.547 187.734 219.014 182.614 206.214 182.614C202.801 182.614 199.387 183.467 196.827 184.321C195.12 171.521 184.88 162.134 171.227 162.134C167.814 162.134 165.254 162.987 162.694 163.841V136.534C162.694 122.027 151.601 110.934 137.094 110.934C122.587 110.934 111.494 122.027 111.494 136.534V232.107C108.934 229.547 105.521 227.84 103.814 225.28C91.8666 212.48 73.9466 207.36 58.5866 213.333C56.0266 214.186 54.3196 215.04 51.7596 216.746C50.9066 217.599 50.0526 217.599 49.1996 218.453C44.9326 222.72 43.2266 226.986 43.2266 232.106C43.2266 233.813 43.2266 235.519 44.0796 237.226C44.0796 238.079 44.9326 238.079 44.9326 238.933C45.7856 239.786 45.7856 240.64 46.6396 241.493C47.4926 242.346 51.7596 248.32 52.6126 248.32C58.5856 256 64.5596 262.827 69.6796 269.653C75.6526 277.333 79.9196 285.013 84.1866 291.84C85.0396 292.693 85.0396 293.547 85.8936 294.4C86.7466 296.107 88.4536 297.813 90.1606 300.373C94.4276 306.346 98.6936 312.32 103.814 318.293C106.374 321.706 108.934 325.12 112.347 327.68V337.92C112.347 364.373 135.387 384 162.694 384H205.361C226.694 384 243.761 368.64 248.881 347.307C249.734 343.894 250.588 340.48 252.294 338.774C259.974 329.387 265.094 317.441 265.094 302.934C265.094 297.814 265.094 293.547 265.094 285.867C265.093 246.613 265.093 234.667 263.387 222.72ZM247.173 302.933C247.173 313.173 243.76 321.706 238.64 327.68C235.227 331.947 232.667 337.067 231.813 343.893C228.4 357.546 218.16 367.786 205.36 367.786H160.987C142.214 367.786 127.707 354.986 127.707 338.773V324.266C127.707 321.706 126.854 319.999 125.147 318.293C124.294 317.44 124.294 317.44 124.294 317.44C121.734 314.88 118.321 311.467 115.761 307.2C111.494 302.08 107.228 296.107 102.961 290.133C101.254 288.426 100.401 285.866 98.6936 285.013C97.8406 284.16 97.8406 283.306 96.9866 283.306C93.5736 276.479 87.5996 267.946 81.6266 259.413C76.5066 251.733 70.5336 244.906 64.5596 237.226C64.5596 237.226 61.1466 232.959 59.4396 231.253C59.6666 231.177 59.8786 231.115 60.0926 231.052C59.4466 230.4 59.4396 230.324 59.4396 229.547C59.9286 230.036 60.1326 230.524 60.2216 231.013C62.3476 230.395 63.7966 230.31 64.5596 229.547C73.0926 226.134 84.1866 229.547 91.0126 237.227C97.8396 244.054 106.373 250.027 115.76 255.147C121.733 257.707 127.707 253.44 127.707 247.467V136.533C127.707 131.413 131.12 128 136.24 128C141.36 128 144.773 131.413 144.773 136.533V204.8H161.84V187.733C161.84 182.613 165.253 179.2 170.373 179.2C175.493 179.2 178.906 182.613 178.906 186.88V209.067H195.973C195.973 204.8 201.093 198.827 205.36 198.827C211.333 198.827 213.04 199.68 213.04 204.8V221.867H230.107C230.107 217.6 235.227 213.334 238.64 213.334C242.053 213.334 243.76 215.894 245.467 225.281C247.174 235.521 247.174 247.468 247.174 285.868C247.173 293.547 247.173 297.813 247.173 302.933Z" fill="#3798CD"/>
<path d="M60.2919 231.253C60.2779 231.239 60.2679 231.229 60.2539 231.215C60.2899 231.512 60.2919 231.81 60.2919 232.107C60.2919 232.107 60.2919 232.107 60.2919 231.253Z" fill="#3798CD"/>
<path d="M154.16 196.267C149.04 196.267 145.627 200.534 145.627 204.8V256C145.627 261.12 149.04 264.533 154.16 264.533C159.28 264.533 162.693 261.12 162.693 256V204.8C162.693 199.68 159.28 196.267 154.16 196.267Z" fill="#3798CD"/>
<path d="M188.293 196.267C183.173 196.267 179.76 200.534 179.76 204.8V247.467C179.76 252.587 183.173 256 188.293 256C193.413 256 196.826 252.587 196.826 247.467V204.8C196.827 199.68 193.413 196.267 188.293 196.267Z" fill="#3798CD"/>
<path d="M222.428 213.333C217.308 213.333 213.895 217.6 213.895 221.866V247.466C213.895 252.586 217.308 255.999 222.428 255.999C227.548 255.999 230.961 252.586 230.961 247.466V221.866C230.961 216.747 227.548 213.333 222.428 213.333Z" fill="#3798CD"/>
</svg>
