<svg xmlns="http://www.w3.org/2000/svg" width="23.999" height="23.974" viewBox="0 0 23.999 23.974"><defs><style>.a{fill:#3699cf;}.b{fill:#ffd939;}</style></defs><path class="a" d="M12.019,0A11.987,11.987,0,1,1,0,11.983,12.005,12.005,0,0,1,12.019,0M11.99,1.629a10.364,10.364,0,1,0,10.336,9.514A10.363,10.363,0,0,0,11.99,1.629" transform="translate(0 -0.001)"/><path class="b" d="M33.447,22.873A10.364,10.364,0,1,1,23.114,33.826,10.376,10.376,0,0,1,33.447,22.873m.023,17.388a6.42,6.42,0,0,0,2.662-.576,5.469,5.469,0,0,0,2.963-3.058.8.8,0,0,0-.449-1.114.816.816,0,0,0-1.062.506,4.836,4.836,0,0,1-.279.574,4.684,4.684,0,0,1-7.543.234,6.79,6.79,0,0,1-.461-.877.81.81,0,0,0-1-.447.8.8,0,0,0-.524.994,2.254,2.254,0,0,0,.169.429,5.965,5.965,0,0,0,5.528,3.335m3.84-8.794A1.362,1.362,0,0,0,38.7,30.1a1.375,1.375,0,0,0-2.75-.027,1.357,1.357,0,0,0,1.36,1.392m-7.735,0A1.355,1.355,0,0,0,30.961,30.1a1.374,1.374,0,1,0-1.386,1.365" transform="translate(-21.457 -21.247)"/><path class="a" d="M94.036,204.49a5.965,5.965,0,0,1-5.528-3.335,2.246,2.246,0,0,1-.169-.429.8.8,0,0,1,.524-.994.81.81,0,0,1,1,.447,6.771,6.771,0,0,0,.461.877,4.684,4.684,0,0,0,7.543-.234,4.823,4.823,0,0,0,.279-.574.817.817,0,0,1,1.062-.506.8.8,0,0,1,.449,1.114,5.469,5.469,0,0,1-2.963,3.058,6.419,6.419,0,0,1-2.662.576" transform="translate(-82.022 -185.475)"/><path class="a" d="M205,107.755a1.357,1.357,0,0,1-1.36-1.392,1.375,1.375,0,1,1,1.36,1.392" transform="translate(-189.146 -97.534)"/><path class="a" d="M96.29,107.739a1.362,1.362,0,0,1-1.362-1.392,1.374,1.374,0,0,1,2.748.028,1.355,1.355,0,0,1-1.386,1.365" transform="translate(-88.172 -97.518)"/></svg>