<svg width="14" height="14" viewBox="0 0 14 14" fill="none" xmlns="http://www.w3.org/2000/svg">
<path d="M3.0646 1.1854L0.926777 3.32322C0.769285 3.48071 0.880827 3.75 1.10355 3.75H2C2.13807 3.75 2.25 3.86193 2.25 4V12.75C2.25 12.8881 2.36193 13 2.5 13H4C4.13807 13 4.25 12.8881 4.25 12.75V4C4.25 3.86193 4.36193 3.75 4.5 3.75H5.18486C5.4019 3.75 5.51584 3.49242 5.36985 3.33183L3.42637 1.194C3.33035 1.08838 3.16554 1.08446 3.0646 1.1854Z" fill="#272E47" stroke="#272E47"/>
<path d="M10.5646 12.8146L8.42678 10.6768C8.26929 10.5193 8.38083 10.25 8.60355 10.25H9.5C9.63807 10.25 9.75 10.1381 9.75 10V1.25C9.75 1.11193 9.86193 1 10 1H11.5C11.6381 1 11.75 1.11193 11.75 1.25V10C11.75 10.1381 11.8619 10.25 12 10.25H12.6849C12.9019 10.25 13.0158 10.5076 12.8698 10.6682L10.9264 12.806C10.8303 12.9116 10.6655 12.9155 10.5646 12.8146Z" fill="#DBDFEB" stroke="#DBDFEB"/>
</svg>