<svg class="sortIcon" width="57" height="30" viewBox="0 0 57 30" fill="none" xmlns="http://www.w3.org/2000/svg">
<rect class="sortBg" width="57" height="30" rx="4" />
<path class="sortLetter" d="M17.9082 10.5576L15.0713 19H13.082L16.8008 9.04688H18.0723L17.9082 10.5576ZM20.2803 19L17.4297 10.5576L17.2588 9.04688H18.5371L22.2764 19H20.2803ZM20.1504 15.3018V16.7852H14.8115V15.3018H20.1504Z" />
<path class="sortLetterUnderline" d="M11 22H24" stroke-width="2"/>
<g clip-path="url(#clip0_307_17)">
<path class="sortArrow1" d="M35.5651 9.18529L33.4272 11.3231C33.2697 11.4806 33.3813 11.7499 33.604 11.7499H34.5005C34.6385 11.7499 34.7505 11.8618 34.7505 11.9999V20.7499C34.7505 20.888 34.8624 20.9999 35.0005 20.9999H36.5005C36.6385 20.9999 36.7505 20.888 36.7505 20.7499V11.9999C36.7505 11.8618 36.8624 11.7499 37.0005 11.7499H37.6853C37.9024 11.7499 38.0163 11.4923 37.8703 11.3317L35.9268 9.19389C35.8308 9.08827 35.666 9.08435 35.5651 9.18529Z" />
<path class="sortArrow2" d="M43.0651 20.8146L40.9272 18.6768C40.7697 18.5193 40.8813 18.25 41.104 18.25H42.0005C42.1385 18.25 42.2505 18.1381 42.2505 18V9.25C42.2505 9.11193 42.3624 9 42.5005 9H44.0005C44.1386 9 44.2505 9.11193 44.2505 9.25V18C44.2505 18.1381 44.3624 18.25 44.5005 18.25H45.1854C45.4024 18.25 45.5163 18.5076 45.3703 18.6682L43.4269 20.806C43.3308 20.9116 43.166 20.9155 43.0651 20.8146Z" />
</g>
<defs>
<clipPath id="clip0_307_17">
<rect width="14" height="14" fill="white" transform="translate(32.5 8)"/>
</clipPath>
</defs>
</svg>
