<svg width="34" height="33" viewBox="0 0 34 33" fill="none" xmlns="http://www.w3.org/2000/svg">
<path d="M14.9806 1.11708L10.8806 9.41708L1.72064 10.7581C1.3501 10.8124 1.00213 10.9693 0.716049 11.211C0.429969 11.4526 0.217178 11.7695 0.101718 12.1258C-0.013742 12.482 -0.0272702 12.8635 0.0626619 13.227C0.152594 13.5906 0.342402 13.9217 0.610643 14.1831L7.24064 20.6431L5.67264 29.7691C5.6096 30.1379 5.65095 30.5169 5.79202 30.8635C5.93309 31.21 6.16826 31.5101 6.47095 31.73C6.77364 31.9499 7.1318 32.0808 7.50496 32.1078C7.87812 32.1349 8.2514 32.057 8.58264 31.8831L16.7826 27.5741L24.9826 31.8831C25.3139 32.0566 25.6871 32.1342 26.0601 32.1069C26.4331 32.0797 26.791 31.9488 27.0936 31.729C27.3962 31.5092 27.6313 31.2093 27.7725 30.8629C27.9137 30.5166 27.9553 30.1378 27.8926 29.7691L26.3206 20.6431L32.9506 14.1831C33.2189 13.9217 33.4087 13.5906 33.4986 13.227C33.5886 12.8635 33.575 12.482 33.4596 12.1258C33.3441 11.7695 33.1313 11.4526 32.8452 11.211C32.5592 10.9693 32.2112 10.8124 31.8406 10.7581L22.6766 9.42208L18.5766 1.12208C18.4105 0.787568 18.1543 0.505999 17.837 0.308996C17.5197 0.111993 17.1537 0.00735722 16.7802 0.00683788C16.4067 0.00631854 16.0404 0.109937 15.7225 0.306056C15.4047 0.502176 15.1477 0.783031 14.9806 1.11708V1.11708Z" fill="#FF9D25"/>
</svg>
