<svg width="34" height="33" viewBox="0 0 34 33" fill="none" xmlns="http://www.w3.org/2000/svg">
<path d="M14.9767 1.11025L10.8767 9.41025L1.71674 10.7512C1.34619 10.8056 0.998224 10.9624 0.712143 11.2041C0.426063 11.4458 0.213272 11.7627 0.097812 12.1189C-0.0176482 12.4752 -0.0311764 12.8567 0.0587557 13.2202C0.148688 13.5838 0.338496 13.9149 0.606736 14.1762L7.23674 20.6362L5.66874 29.7622C5.60569 30.131 5.64704 30.5101 5.78811 30.8566C5.92918 31.2031 6.16435 31.5033 6.46704 31.7232C6.76974 31.9431 7.1279 32.074 7.50106 32.101C7.87421 32.1281 8.2475 32.0502 8.57874 31.8762L16.7787 27.5672L24.9787 31.8762C25.31 32.0498 25.6832 32.1273 26.0562 32.1001C26.4292 32.0729 26.7871 31.942 27.0897 31.7222C27.3923 31.5024 27.6274 31.2024 27.7686 30.8561C27.9098 30.5098 27.9514 30.1309 27.8887 29.7622L26.3167 20.6362L32.9467 14.1762C33.215 13.9149 33.4048 13.5838 33.4947 13.2202C33.5846 12.8567 33.5711 12.4752 33.4557 12.1189C33.3402 11.7627 33.1274 11.4458 32.8413 11.2041C32.5552 10.9624 32.2073 10.8056 31.8367 10.7512L22.6727 9.41525L18.5727 1.11525C18.4066 0.780732 18.1504 0.499163 17.8331 0.30216C17.5158 0.105157 17.1498 0.000521287 16.7763 1.9427e-06C16.4028 -0.000517402 16.0365 0.103101 15.7186 0.29922C15.4007 0.49534 15.1438 0.776195 14.9767 1.11025V1.11025Z" fill="#DBDFEB"/>
</svg>
