<svg xmlns="http://www.w3.org/2000/svg" width="15" height="13.333" viewBox="0 0 15 13.333"><defs><style>.a{fill:#3699cf;}</style></defs><path class="a" d="M8.382,9l.659-4.375H5.613L4.181,8.377a1.315,1.315,0,0,0-.067.417,1.95,1.95,0,0,0,2.142,1.667A2.033,2.033,0,0,0,8.382,9Zm3.231,1.458a1.95,1.95,0,0,0,2.142-1.667c0-.034,0-.068,0-.1l-.424-4.066H9.9L9.474,8.69c0,.034,0,.068,0,.1a1.95,1.95,0,0,0,2.142,1.667Zm4.167.872v3.3H7.446v-3.29a3.506,3.506,0,0,1-1.191.207A3.436,3.436,0,0,1,5.78,11.5v5.291a1.169,1.169,0,0,0,1.165,1.167H16.28a1.171,1.171,0,0,0,1.167-1.167V11.5a3.58,3.58,0,0,1-.476.041A3.463,3.463,0,0,1,15.78,11.332Zm3.267-2.955-1.434-3.75H14.185L14.843,9a2.028,2.028,0,0,0,2.128,1.465,1.95,1.95,0,0,0,2.142-1.667,1.338,1.338,0,0,0-.067-.417Z" transform="translate(-4.113 -4.627)"/></svg>