<svg xmlns="http://www.w3.org/2000/svg" width="16.336" height="13.713" viewBox="0 0 16.336 13.713"><defs><style>.a{fill:none;stroke:#3699cf;stroke-linecap:round;stroke-linejoin:round;stroke-width:1.5px;}</style></defs><g transform="translate(0.75 0.825)"><path class="a" d="M12.29,26.546V25.2a2.7,2.7,0,0,0-2.7-2.7H4.2a2.7,2.7,0,0,0-2.7,2.7v1.349" transform="translate(-1.5 -14.408)"/><path class="a" d="M12.895,7.2a2.7,2.7,0,1,1-2.7-2.7,2.7,2.7,0,0,1,2.7,2.7Z" transform="translate(-4.803 -4.5)"/><path class="a" d="M32.023,26.653V25.3A2.7,2.7,0,0,0,30,22.7" transform="translate(-17.188 -14.516)"/><path class="a" d="M24,4.7a2.7,2.7,0,0,1,0,5.226" transform="translate(-13.885 -4.607)"/></g></svg>