<svg width="29" height="25" viewBox="0 0 29 25" fill="none" xmlns="http://www.w3.org/2000/svg">
<g clip-path="url(#clip0_237_23)">
<path d="M0 9.34812C0.1 8.78612 0.161 8.21412 0.307 7.66412C0.632854 6.41426 1.20341 5.24145 1.98562 4.2136C2.76784 3.18575 3.74618 2.32328 4.864 1.67612C6.87919 0.44947 9.22315 -0.127073 11.5774 0.0248209C13.9317 0.176715 16.1821 1.04968 18.023 2.52512C18.305 2.75012 18.552 3.01812 18.831 3.24512C18.9543 3.34827 19.1014 3.41907 19.259 3.45112C21.0234 3.64886 22.7085 4.29236 24.1557 5.32102C25.6028 6.34969 26.7644 7.72969 27.531 9.33112C28.2649 10.7893 28.59 12.4191 28.4719 14.0472C28.3537 15.6754 27.7967 17.2412 26.86 18.5781C26.8003 18.6561 26.7615 18.7479 26.7471 18.845C26.7328 18.9421 26.7434 19.0413 26.778 19.1331C27.289 20.6971 27.785 22.2671 28.278 23.8331C28.3308 23.9447 28.3577 24.0667 28.3567 24.1902C28.3557 24.3136 28.3268 24.4352 28.2721 24.5459C28.2175 24.6566 28.1386 24.7535 28.0413 24.8294C27.9439 24.9053 27.8307 24.9582 27.71 24.9841C27.4748 25.0133 27.2363 24.9715 27.025 24.8641C25.5003 24.1081 23.9823 23.3381 22.471 22.5541C22.3846 22.5064 22.2883 22.4795 22.1897 22.4755C22.0911 22.4715 21.993 22.4906 21.903 22.5311C20.014 23.3015 17.9528 23.5501 15.9348 23.251C13.9169 22.952 12.0164 22.1162 10.432 20.8311C10.2135 20.6743 10.0124 20.4946 9.832 20.2951C9.5993 20.0485 9.28831 19.8902 8.952 19.8471C8.126 19.6551 7.311 19.4141 6.498 19.1701C6.42332 19.1402 6.3431 19.1266 6.26273 19.1302C6.18235 19.1338 6.10368 19.1546 6.032 19.1911C4.501 19.9751 2.969 20.7591 1.432 21.5261C1.22909 21.6308 1.00014 21.6742 0.773 21.6511C0.651221 21.6293 0.536015 21.58 0.436118 21.507C0.33622 21.434 0.254253 21.3392 0.196431 21.2298C0.138608 21.1204 0.106448 20.9993 0.102388 20.8757C0.0983284 20.752 0.122476 20.6291 0.173 20.5161C0.674333 18.9288 1.18067 17.3435 1.692 15.7601C1.72416 15.6811 1.73508 15.595 1.72367 15.5105C1.71227 15.4259 1.67894 15.3458 1.627 15.2781C0.744438 13.9924 0.201901 12.5042 0.05 10.9521C0.0381457 10.8797 0.0214414 10.8083 0 10.7381L0 9.34812ZM26.1 22.5321C26.067 22.4041 26.049 22.3171 26.022 22.2321C25.701 21.2191 25.393 20.2001 25.049 19.1941C24.9685 18.9937 24.944 18.7751 24.9781 18.5617C25.0123 18.3484 25.1039 18.1484 25.243 17.9831C26.2656 16.6316 26.8128 14.98 26.7996 13.2852C26.7864 11.5905 26.2135 9.94758 25.17 8.61212C24.3301 7.57657 23.2864 6.72453 22.1037 6.10879C20.921 5.49304 19.6245 5.12671 18.2945 5.03249C16.9644 4.93828 15.6292 5.11817 14.3716 5.56104C13.1139 6.00391 11.9605 6.70032 10.983 7.60712C10.185 8.33611 9.54768 9.22337 9.11163 10.2123C8.67557 11.2013 8.45037 12.2703 8.45037 13.3511C8.45037 14.432 8.67557 15.5009 9.11163 16.4899C9.54768 17.4789 10.185 18.3661 10.983 19.0951C12.378 20.385 14.1183 21.241 15.9915 21.5585C17.8647 21.876 19.7899 21.6413 21.532 20.8831C21.7509 20.7677 21.9958 20.7104 22.2432 20.7167C22.4906 20.723 22.7322 20.7927 22.945 20.9191C23.967 21.4761 25.016 21.9831 26.096 22.5321H26.1ZM16.357 3.36012C16.241 3.28212 16.13 3.20112 16.013 3.13012C14.709 2.32134 13.2299 1.83744 11.7 1.71912C10.4484 1.58993 9.18354 1.71167 7.97953 2.07724C6.77552 2.4428 5.65651 3.04484 4.688 3.84812C3.71534 4.60052 2.93507 5.57295 2.41129 6.68552C1.88751 7.79809 1.63517 9.01906 1.675 10.2481C1.70656 11.8635 2.26133 13.425 3.256 14.6981C3.38114 14.8462 3.46438 15.0251 3.49708 15.2163C3.52979 15.4074 3.51077 15.6038 3.442 15.7851C3.1 16.8001 2.785 17.8231 2.46 18.8451C2.428 18.9451 2.405 19.0521 2.367 19.1981C3.467 18.6401 4.529 18.1221 5.567 17.5611C5.76237 17.4384 5.98718 17.3704 6.21784 17.3644C6.4485 17.3585 6.67653 17.4147 6.878 17.5271C7.23688 17.689 7.60406 17.8319 7.978 17.9551C7.892 17.7861 7.845 17.6961 7.8 17.6061C7.22299 16.5077 6.87777 15.3025 6.78574 14.0652C6.69371 12.8278 6.85684 11.5848 7.265 10.4131C7.7991 8.8347 8.71246 7.4115 9.92492 6.26844C11.1374 5.12537 12.6119 4.29737 14.219 3.85712C14.901 3.63712 15.619 3.52812 16.352 3.35712" fill="#272E47"/>
<path d="M15.0649 13.3461C15.0659 13.5111 15.0178 13.6727 14.9268 13.8104C14.8358 13.9481 14.7059 14.0557 14.5537 14.1194C14.4015 14.1832 14.2337 14.2003 14.0717 14.1685C13.9098 14.1368 13.7609 14.0576 13.644 13.9411C13.527 13.8247 13.4474 13.6761 13.4151 13.5142C13.3827 13.3524 13.3992 13.1845 13.4624 13.0321C13.5256 12.8796 13.6327 12.7494 13.7701 12.6578C13.9074 12.5663 14.0689 12.5177 14.2339 12.5181C14.4528 12.5212 14.662 12.6093 14.817 12.7638C14.9721 12.9184 15.061 13.1272 15.0649 13.3461" fill="#272E47"/>
<path d="M21.737 13.3559C21.736 13.5209 21.686 13.682 21.5933 13.8186C21.5007 13.9551 21.3695 14.0611 21.2165 14.123C21.0635 14.1849 20.8956 14.2 20.734 14.1663C20.5724 14.1326 20.4245 14.0517 20.309 13.9338C20.1935 13.8159 20.1156 13.6663 20.0853 13.5041C20.0549 13.3419 20.0734 13.1743 20.1384 13.0226C20.2035 12.8709 20.3121 12.7419 20.4505 12.6521C20.589 12.5622 20.751 12.5155 20.916 12.5179C21.1349 12.5236 21.343 12.6143 21.4962 12.7707C21.6494 12.9271 21.7358 13.137 21.737 13.3559Z" fill="#272E47"/>
<path d="M18.4011 13.3541C18.4007 13.5191 18.3513 13.6803 18.2591 13.8172C18.1669 13.9542 18.0361 14.0606 17.8834 14.1231C17.7306 14.1855 17.5627 14.2012 17.401 14.1681C17.2393 14.135 17.0911 14.0546 16.9752 13.9371C16.8593 13.8197 16.7808 13.6704 16.7499 13.5083C16.7189 13.3462 16.7368 13.1785 16.8013 13.0266C16.8658 12.8746 16.974 12.7453 17.1121 12.6549C17.2502 12.5646 17.4121 12.5173 17.5771 12.5191C17.796 12.524 18.0044 12.6139 18.1582 12.7697C18.312 12.9256 18.3991 13.1351 18.4011 13.3541" fill="#272E47"/>
</g>
<defs>
<clipPath id="clip0_237_23">
<rect width="28.5" height="25" fill="white"/>
</clipPath>
</defs>
</svg>