<svg xmlns="http://www.w3.org/2000/svg" width="28.5" height="25" viewBox="0 0 28.5 25"><defs><style>.a{fill:#272e47;}</style></defs><path class="a" d="M0,9.348c.1-.562.161-1.134.307-1.684A9.766,9.766,0,0,1,4.864,1.676a11.489,11.489,0,0,1,13.159.849c.282.225.529.493.808.72a.968.968,0,0,0,.428.206,10.463,10.463,0,0,1,8.272,5.88,9.036,9.036,0,0,1-.671,9.247.578.578,0,0,0-.082.555c.511,1.564,1.007,3.134,1.5,4.7a.819.819,0,0,1-.568,1.151,1.189,1.189,0,0,1-.685-.12q-2.287-1.134-4.554-2.31a.635.635,0,0,0-.568-.023,11.385,11.385,0,0,1-11.471-1.7,3.778,3.778,0,0,1-.6-.536,1.466,1.466,0,0,0-.88-.448c-.826-.192-1.641-.433-2.454-.677a.564.564,0,0,0-.466.021c-1.531.784-3.063,1.568-4.6,2.335a1.178,1.178,0,0,1-.659.125.815.815,0,0,1-.6-1.135q.752-2.381,1.519-4.756a.489.489,0,0,0-.065-.482A9.233,9.233,0,0,1,.05,10.952,1.637,1.637,0,0,0,0,10.738V9.348M26.1,22.532c-.033-.128-.051-.215-.078-.3-.321-1.013-.629-2.032-.973-3.038a1.191,1.191,0,0,1,.194-1.211,7.687,7.687,0,0,0-.073-9.371A9.739,9.739,0,0,0,10.983,7.607a7.78,7.78,0,0,0,0,11.488,9.786,9.786,0,0,0,10.549,1.788,1.446,1.446,0,0,1,1.413.036c1.022.557,2.071,1.064,3.151,1.613M16.357,3.36c-.116-.078-.227-.159-.344-.23A9.585,9.585,0,0,0,11.7,1.719,9.462,9.462,0,0,0,4.688,3.848a7.773,7.773,0,0,0-3.013,6.4,7.465,7.465,0,0,0,1.581,4.45,1.087,1.087,0,0,1,.186,1.087C3.1,16.8,2.785,17.823,2.46,18.845c-.032.1-.055.207-.093.353,1.1-.558,2.162-1.076,3.2-1.637a1.286,1.286,0,0,1,1.311-.034,11.184,11.184,0,0,0,1.1.428c-.086-.169-.133-.259-.178-.349a9.059,9.059,0,0,1-.535-7.193,10.181,10.181,0,0,1,6.954-6.556c.682-.22,1.4-.329,2.133-.5" transform="translate(0 0)"/><path class="a" d="M182.069,169.364a.833.833,0,1,1-.831-.828.843.843,0,0,1,.831.828" transform="translate(-167.004 -156.018)"/><path class="a" d="M271.89,169.374a.833.833,0,1,1-.821-.838.843.843,0,0,1,.821.838" transform="translate(-250.153 -156.018)"/><path class="a" d="M226.979,169.372a.833.833,0,1,1-.824-.835.843.843,0,0,1,.824.835" transform="translate(-208.578 -156.018)"/></svg>