<svg xmlns="http://www.w3.org/2000/svg" width="16.245" height="14.25" viewBox="0 0 16.245 14.25"><defs><style>.a{fill:#3699cf;}</style></defs><path class="a" d="M0,5.328c.057-.32.092-.647.175-.96A5.567,5.567,0,0,1,2.773.955a6.549,6.549,0,0,1,7.5.484c.161.128.3.281.461.411a.552.552,0,0,0,.244.118,5.964,5.964,0,0,1,4.715,3.352,5.151,5.151,0,0,1-.383,5.271.33.33,0,0,0-.047.317c.292.892.574,1.786.857,2.681a.467.467,0,0,1-.324.656.678.678,0,0,1-.39-.069q-1.3-.647-2.6-1.317a.362.362,0,0,0-.324-.013,6.489,6.489,0,0,1-6.539-.967,2.153,2.153,0,0,1-.342-.305.836.836,0,0,0-.5-.255c-.471-.109-.936-.247-1.4-.386a.322.322,0,0,0-.266.012c-.873.447-1.746.894-2.624,1.331a.672.672,0,0,1-.376.071A.464.464,0,0,1,.1,11.7q.429-1.357.866-2.711a.279.279,0,0,0-.037-.275,5.263,5.263,0,0,1-.9-2.47A.933.933,0,0,0,0,6.121V5.328m14.875,7.515c-.019-.073-.029-.123-.044-.171-.183-.578-.358-1.158-.555-1.731a.679.679,0,0,1,.11-.69,4.382,4.382,0,0,0-.042-5.341A5.551,5.551,0,0,0,6.26,4.336a4.434,4.434,0,0,0,0,6.548A5.578,5.578,0,0,0,12.274,11.9a.824.824,0,0,1,.805.021c.583.317,1.181.607,1.8.919M9.324,1.915c-.066-.045-.13-.09-.2-.131A5.463,5.463,0,0,0,6.671.98a5.393,5.393,0,0,0-4,1.213A4.43,4.43,0,0,0,.955,5.839a4.255,4.255,0,0,0,.9,2.536A.619.619,0,0,1,1.963,9c-.193.58-.375,1.164-.561,1.746-.019.058-.031.118-.053.2.626-.318,1.232-.613,1.825-.933a.733.733,0,0,1,.747-.019,6.375,6.375,0,0,0,.629.244c-.049-.1-.076-.148-.1-.2a5.164,5.164,0,0,1-.305-4.1A5.8,5.8,0,0,1,8.108,2.2c.389-.126.8-.188,1.216-.283" transform="translate(0 0)"/><path class="a" d="M181.353,169.008a.475.475,0,1,1-.474-.472.481.481,0,0,1,.474.472" transform="translate(-172.766 -161.4)"/><path class="a" d="M271.174,169.013a.475.475,0,1,1-.468-.478.481.481,0,0,1,.468.478" transform="translate(-258.784 -161.4)"/><path class="a" d="M226.263,169.012a.475.475,0,1,1-.47-.476.481.481,0,0,1,.47.476" transform="translate(-215.774 -161.4)"/></svg>