<svg width="12" height="10" viewBox="0 0 12 10" fill="none" xmlns="http://www.w3.org/2000/svg">
<path d="M10.767 2.42856C10.775 2.53556 10.775 2.64156 10.775 2.74856C10.7817 3.66967 10.6051 4.58291 10.2557 5.4352C9.90628 6.28748 9.39091 7.0618 8.73957 7.71314C8.08823 8.36447 7.31392 8.87984 6.46163 9.22927C5.60935 9.57869 4.69611 9.75521 3.775 9.74856C2.43631 9.75083 1.12546 9.36643 0 8.64156C0.197246 8.66314 0.395584 8.67315 0.594 8.67156C1.70109 8.67368 2.77661 8.30273 3.647 7.61856C3.13459 7.60948 2.63777 7.44084 2.2257 7.13613C1.81363 6.83143 1.50682 6.40582 1.348 5.91856C1.5015 5.94284 1.6566 5.95554 1.812 5.95656C2.03034 5.95584 2.24772 5.92762 2.459 5.87256C1.90174 5.75978 1.40075 5.45744 1.04123 5.01698C0.681717 4.57652 0.48587 4.02512 0.487 3.45656V3.42656C0.82829 3.61653 1.20967 3.7231 1.6 3.73756C1.07797 3.38952 0.708435 2.85538 0.566826 2.24416C0.425217 1.63293 0.522207 0.990708 0.838 0.448562C1.45609 1.20824 2.22689 1.82957 3.10047 2.2723C3.97404 2.71503 4.93089 2.96927 5.909 3.01856C5.86953 2.83347 5.84909 2.64482 5.848 2.45556C5.85007 1.9635 5.99953 1.48336 6.27711 1.07706C6.55469 0.670768 6.94764 0.356971 7.40528 0.176155C7.86291 -0.00466007 8.36423 -0.0441975 8.84455 0.0626441C9.32488 0.169486 9.76216 0.417804 10.1 0.775562C10.6508 0.669476 11.179 0.468486 11.661 0.181562C11.4776 0.749732 11.0932 1.2315 10.58 1.53656C11.0697 1.48157 11.5483 1.35348 12 1.15656C11.6635 1.64689 11.2466 2.07693 10.767 2.42856V2.42856Z" fill="#3699CF"/>
</svg>
