<svg class="unlockBg" width="32" height="32" viewBox="0 0 32 32" fill="none" xmlns="http://www.w3.org/2000/svg">
<path class="unlockBg" d="M28 0H4C1.79086 0 0 1.79086 0 4V28C0 30.2091 1.79086 32 4 32H28C30.2091 32 32 30.2091 32 28V4C32 1.79086 30.2091 0 28 0Z" />
<path class="unlockIcon" d="M19.4859 8.00002C18.4457 8.01005 17.4517 8.43129 16.7209 9.17175C15.9902 9.91221 15.5822 10.9117 15.5859 11.952V13.767H9.82194C9.49465 13.767 9.18072 13.8968 8.94901 14.128C8.7173 14.3591 8.58673 14.6727 8.58594 15V19.943C8.58594 20.2708 8.71616 20.5852 8.94795 20.817C9.17975 21.0488 9.49413 21.179 9.82194 21.179H18.8859C19.0483 21.179 19.209 21.147 19.3589 21.0849C19.5089 21.0228 19.6451 20.9318 19.7599 20.817C19.8747 20.7022 19.9657 20.566 20.0279 20.416C20.09 20.2661 20.1219 20.1053 20.1219 19.943V15C20.1211 14.6727 19.9906 14.3591 19.7589 14.128C19.5272 13.8968 19.2132 13.767 18.8859 13.767H17.6479V11.936C17.6409 11.6892 17.6832 11.4434 17.7725 11.2131C17.8617 10.9828 17.996 10.7727 18.1676 10.5951C18.3392 10.4174 18.5445 10.2758 18.7715 10.1786C18.9986 10.0815 19.2427 10.0306 19.4897 10.0291C19.7366 10.0275 19.9814 10.0754 20.2096 10.1697C20.4379 10.2641 20.6449 10.4031 20.8187 10.5786C20.9924 10.7541 21.1294 10.9625 21.2215 11.1917C21.3136 11.4208 21.3589 11.6661 21.3549 11.913V13.972C21.3547 14.0532 21.3705 14.1337 21.4014 14.2088C21.4324 14.2839 21.4779 14.3522 21.5354 14.4096C21.5928 14.467 21.661 14.5126 21.7361 14.5435C21.8112 14.5745 21.8917 14.5903 21.9729 14.59H22.7969C22.8782 14.5903 22.9586 14.5745 23.0337 14.5435C23.1088 14.5126 23.1771 14.467 23.2345 14.4096C23.292 14.3522 23.3375 14.2839 23.3684 14.2088C23.3994 14.1337 23.4152 14.0532 23.4149 13.972V11.913C23.4144 11.398 23.3123 10.8881 23.1145 10.4125C22.9166 9.93695 22.627 9.50508 22.262 9.14162C21.8971 8.77816 21.464 8.49024 20.9877 8.29435C20.5113 8.09846 20.001 7.99844 19.4859 8.00002V8.00002Z" />
</svg>
