<svg xmlns="http://www.w3.org/2000/svg" width="32" height="32" viewBox="0 0 32 32"><defs><style>.a{fill:#21d0a1;}.b{fill:#fff;}</style></defs><rect class="a" width="32" height="32" rx="4"/><path class="b" d="M10.9,0A3.938,3.938,0,0,0,7,3.952V5.767H1.236A1.236,1.236,0,0,0,0,7v4.943a1.236,1.236,0,0,0,1.236,1.236H10.3a1.236,1.236,0,0,0,1.236-1.236V7A1.236,1.236,0,0,0,10.3,5.767H9.062V3.936a1.854,1.854,0,1,1,3.707-.023V5.972a.616.616,0,0,0,.618.618h.824a.616.616,0,0,0,.618-.618V3.913A3.917,3.917,0,0,0,10.9,0Z" transform="translate(8.586 8)"/></svg>