<svg class="uploadBg" width="32" height="32" viewBox="0 0 32 32" fill="none" xmlns="http://www.w3.org/2000/svg">
<path class="uploadBg" d="M28 0H4C1.79086 0 0 1.79086 0 4V28C0 30.2091 1.79086 32 4 32H28C30.2091 32 32 30.2091 32 28V4C32 1.79086 30.2091 0 28 0Z" />
<path class="uploadIcon" d="M13.7773 18.8652L16.5023 16.1402L19.2283 18.8652" stroke-width="1.5" stroke-linecap="round" stroke-linejoin="round"/>
<path class="uploadIcon" d="M16.502 16.1401V22.2721" stroke-width="1.5" stroke-linecap="round" stroke-linejoin="round"/>
<path class="uploadIcon" d="M22.5515 20.289C23.1435 19.8723 23.5873 19.2779 23.8187 18.592C24.0501 17.906 24.0569 17.1642 23.8383 16.4741C23.6197 15.784 23.1869 15.1814 22.6027 14.7538C22.0186 14.3263 21.3134 14.0959 20.5895 14.096H19.7315C19.5268 13.2971 19.1435 12.5551 18.6105 11.9257C18.0775 11.2964 17.4086 10.7962 16.6542 10.4629C15.8999 10.1296 15.0797 9.97173 14.2555 10.0013C13.4313 10.0309 12.6246 10.2471 11.8961 10.6337C11.1675 11.0202 10.5362 11.567 10.0497 12.2329C9.56312 12.8989 9.23401 13.6665 9.08714 14.478C8.94026 15.2896 8.97945 16.1239 9.20175 16.9181C9.42404 17.7123 9.82365 18.4457 10.3705 19.063" stroke-width="1.5" stroke-linecap="round" stroke-linejoin="round"/>
</svg>