<svg xmlns="http://www.w3.org/2000/svg" width="15" height="15" viewBox="0 0 15 15"><defs><style>.a{fill:#3699cf;}</style></defs><path class="a" d="M7.258,2.866H3.508v3.75h3.75ZM8.2,1.928V7.553H2.571V1.928ZM4.446,3.8H6.321V5.678H4.446Zm12.187-.938h-3.75v3.75h3.75Zm.938-.937V7.553H11.946V1.928h5.625ZM13.821,3.8H15.7V5.678H13.821ZM7.258,12.241H3.508v3.75h3.75ZM8.2,11.3v5.625H2.571V11.3Zm-3.75,1.875H6.321v1.875H4.446ZM9.133,1.928h.938v.937H9.133Zm.938.937h.937V3.8h-.937ZM9.133,3.8h.938v.937H9.133Zm.938.937h.937v.937h-.937Zm-.937.937h.938v.938H9.133Zm.938.938h.937v.937h-.937Zm-.937.937h.938v.938H9.133Zm0,1.875h.938v.937H9.133Zm.938.937h.937V11.3h-.937Zm-.937.938h.938v.937H9.133Zm.938.937h.937v.938h-.937Zm-.937.938h.938v.938H9.133Zm.938.938h.937v.938h-.937Zm-.937.938h.938v.937H9.133Zm.938.937h.937v.938h-.937Zm6.562-6.562h.937v.938h-.937Zm-13.125,0h.938v.938H3.508Zm.938-.937h.937v.938H4.446Zm-1.875,0h.937v.938H2.571Zm3.75,0h.938v.938H6.321Zm.938.938H8.2v.938H7.258ZM8.2,8.491h.937v.938H8.2Zm2.812.938h.938v.938h-.938Zm.938-.937h.937v.938h-.937Zm.937.938h.938v.938h-.938Zm.938-.937h.938v.938h-.938Zm.938.938H15.7v.938h-.937Zm.937-.937h.938v.938H15.7Zm.938,2.813h.937v.938h-.937Zm-5.625,0h.938v.938h-.938Zm.938-.937h.938V11.3h-.937Zm.938.938h.937v.938h-.937Zm1.875,0H15.7v.938h-.937Zm.938-.937h.937V11.3H15.7Zm.937,2.813h.938v.938h-.938Zm-5.625,0h.938v.938h-.938Zm.938-.938h.937v.938h-.937Zm1.875,0h.938v.938h-.938Zm.938.938H15.7v.938h-.937Zm.938-.938h.937v.938H15.7Zm.937,2.813h.938v.938h-.938Zm-4.687-.937h.938v.937h-.937Zm.938.937h.938v.938h-.938Zm.938-.937h.938v.937h-.937Zm.938.937H15.7v.938h-.938Zm-2.813.938h.938v.937h-.937Zm1.875,0h.938v.937h-.937Zm1.875,0h.937v.937H15.7Z" transform="translate(-2.571 -1.928)"/></svg>