<svg width="16" height="17" viewBox="0 0 16 17" fill="none" xmlns="http://www.w3.org/2000/svg">
<path d="M11.976 9.98001C12.7273 8.73991 12.9983 7.26759 12.738 5.84124C12.4776 4.41488 11.7039 3.13328 10.563 2.23855C9.42202 1.34382 7.99291 0.897937 6.54561 0.985141C5.09832 1.07235 3.73308 1.6866 2.70783 2.71185C1.68258 3.73709 1.06833 5.10233 0.981128 6.54963C0.893924 7.99692 1.33981 9.42604 2.23453 10.567C3.12926 11.7079 4.41087 12.4816 5.83722 12.742C7.26358 13.0023 8.73589 12.7313 9.976 11.98L14.001 16.005L16.001 14.005L11.976 9.98001ZM6.918 10.58C6.19408 10.5796 5.48653 10.3646 4.88485 9.96201C4.28316 9.55947 3.81436 8.98754 3.53774 8.31856C3.26112 7.64957 3.1891 6.91357 3.33079 6.20365C3.47248 5.49373 3.82152 4.84178 4.33376 4.33024C4.846 3.8187 5.49843 3.47055 6.20855 3.32983C6.91866 3.18911 7.65456 3.26213 8.32316 3.53967C8.99177 3.8172 9.56306 4.28678 9.96478 4.88902C10.3665 5.49125 10.5806 6.19909 10.58 6.92301C10.5779 7.89313 10.1912 8.82283 9.50479 9.50833C8.81834 10.1938 7.88811 10.5792 6.918 10.58V10.58Z" fill="#272E47"/>
</svg>
