<svg xmlns="http://www.w3.org/2000/svg" width="32" height="32" viewBox="0 0 32 32"><defs><style>.a{fill:#fe7572;}.b{fill:none;stroke:#fff;stroke-linecap:round;stroke-linejoin:round;stroke-width:1.5px;}</style></defs><rect class="a" width="32" height="32" rx="4"/><g transform="translate(7.427 7.426)"><path class="b" d="M12.393,14.964a6.475,6.475,0,0,1-3.82,1.325c-4.5,0-7.073-5.144-7.073-5.144a11.864,11.864,0,0,1,3.254-3.82m2.469-1.17A5.864,5.864,0,0,1,8.573,6c4.5,0,7.073,5.144,7.073,5.144A11.9,11.9,0,0,1,14.258,13.2m-4.321-.688A1.929,1.929,0,1,1,7.21,9.781" transform="translate(0 -2.571)"/><path class="b" d="M1.5,1.5,15.646,15.646" transform="translate(0 0)"/></g></svg>