<svg width="32" height="32" viewBox="0 0 32 32" fill="none" xmlns="http://www.w3.org/2000/svg">
<path d="M28 0H4C1.79086 0 0 1.79086 0 4V28C0 30.2091 1.79086 32 4 32H28C30.2091 32 32 30.2091 32 28V4C32 1.79086 30.2091 0 28 0Z" fill="#FFF"/>
<path d="M8 16.475C8 16.475 10.737 11 15.528 11C20.319 11 23.056 16.475 23.056 16.475C23.056 16.475 20.319 21.95 15.528 21.95C10.737 21.95 8 16.475 8 16.475Z" stroke="#3699CF" stroke-width="1.5" stroke-linecap="round" stroke-linejoin="round"/>
<path d="M17.5811 16.4751C17.5811 16.8812 17.4607 17.2781 17.2351 17.6157C17.0095 17.9533 16.6889 18.2165 16.3137 18.3718C15.9386 18.5272 15.5258 18.5679 15.1276 18.4887C14.7293 18.4095 14.3635 18.2139 14.0764 17.9268C13.7893 17.6397 13.5938 17.2739 13.5145 16.8756C13.4353 16.4774 13.476 16.0646 13.6314 15.6895C13.7868 15.3143 14.0499 14.9937 14.3875 14.7681C14.7251 14.5425 15.1221 14.4221 15.5281 14.4221C16.0726 14.4221 16.5948 14.6384 16.9798 15.0234C17.3648 15.4084 17.5811 15.9306 17.5811 16.4751Z" stroke="#3699CF" stroke-width="1.5" stroke-linecap="round" stroke-linejoin="round"/>
</svg>