<svg class="viewXBg" width="32" height="32" viewBox="0 0 32 32" fill="none" xmlns="http://www.w3.org/2000/svg">
<path class="viewXBg" d="M28 0H4C1.79086 0 0 1.79086 0 4V28C0 30.2091 1.79086 32 4 32H28C30.2091 32 32 30.2091 32 28V4C32 1.79086 30.2091 0 28 0Z" />
<path class="viewXIcon" d="M19.8207 19.819C18.7215 20.6571 17.3829 21.1214 16.0007 21.144C11.5007 21.144 8.92773 16 8.92773 16C9.72763 14.5092 10.8371 13.2067 12.1817 12.18M14.6507 11.01C15.0932 10.9062 15.5462 10.8542 16.0007 10.855C20.5007 10.855 23.0737 15.999 23.0737 15.999C22.684 16.7308 22.2188 17.4199 21.6857 18.055M17.3647 17.367C17.1854 17.546 16.9726 17.688 16.7384 17.7848C16.5042 17.8816 16.2532 17.9314 15.9998 17.9312C15.7464 17.931 15.4955 17.8809 15.2615 17.7838C15.0274 17.6866 14.8148 17.5443 14.6357 17.365C14.4567 17.1857 14.3147 16.9728 14.2179 16.7386C14.1211 16.5045 14.0714 16.2535 14.0715 16.0001C14.0717 15.7467 14.1218 15.4958 14.219 15.2617C14.3161 15.0277 14.4584 14.815 14.6377 14.636" stroke-width="1.5" stroke-linecap="round" stroke-linejoin="round"/>
<path class="viewXIcon" d="M8.92773 8.92578L23.0737 23.0718" stroke-width="1.5" stroke-linecap="round" stroke-linejoin="round"/>
</svg>
