<svg width="15" height="12" viewBox="0 0 15 12" fill="none" xmlns="http://www.w3.org/2000/svg">
<path d="M10.714 6.35802C10.7194 6.26662 10.6987 6.17556 10.6542 6.09552C10.6098 6.01547 10.5434 5.94974 10.463 5.90602L6.177 3.22702C6.09724 3.17112 6.00289 3.13973 5.90554 3.13671C5.80819 3.13369 5.71207 3.15917 5.629 3.21002C5.54262 3.25319 5.47059 3.32045 5.42161 3.40368C5.37263 3.48691 5.3488 3.58254 5.353 3.67902V9.03602C5.3488 9.1325 5.37263 9.22813 5.42161 9.31135C5.47059 9.39458 5.54262 9.46185 5.629 9.50502C5.70892 9.54726 5.79762 9.57021 5.888 9.57202C5.98952 9.57507 6.08937 9.54565 6.173 9.48802L10.459 6.80902C10.5394 6.7653 10.6058 6.69957 10.6502 6.61952C10.6947 6.53947 10.7154 6.44842 10.71 6.35702L10.714 6.35802ZM15 6.35802C15 6.89135 14.9973 7.31002 14.992 7.61402C14.9867 7.91802 14.963 8.29902 14.921 8.75702C14.8848 9.17187 14.8207 9.5838 14.729 9.99002C14.6469 10.3847 14.4451 10.7444 14.151 11.02C13.8686 11.2926 13.5033 11.4633 13.113 11.505C11.2455 11.6706 9.37067 11.7403 7.496 11.714C5.62133 11.7403 3.74653 11.6706 1.879 11.505C1.48767 11.4627 1.12132 11.2922 0.837 11.02C0.542279 10.7449 0.340307 10.3849 0.259 9.99002C0.174238 9.58234 0.114129 9.16993 0.079 8.75502C0.037 8.29435 0.0133332 7.91335 0.0079999 7.61202C0.00266656 7.31068 0 6.89202 0 6.35602C0 5.82268 0.00266656 5.40402 0.0079999 5.10002C0.0133332 4.79602 0.037 4.41568 0.079 3.95902C0.113792 3.54359 0.176602 3.13098 0.267 2.72402C0.349053 2.32937 0.550906 1.96967 0.845 1.69402C1.12758 1.42179 1.49282 1.25149 1.883 1.21002C3.75053 1.04445 5.62533 0.974689 7.5 1.00102C9.37467 0.974687 11.2495 1.04445 13.117 1.21002C13.5083 1.25231 13.8747 1.42283 14.159 1.69502C14.4552 1.96963 14.6586 2.3296 14.741 2.72502C14.8258 3.13269 14.8859 3.54511 14.921 3.96002C14.963 4.42068 14.9867 4.80168 14.992 5.10302C14.9973 5.40435 15 5.82268 15 6.35802V6.35802Z" fill="#F5786F"/>
</svg>