<svg width="16" height="17" viewBox="0 0 16 17" fill="none" xmlns="http://www.w3.org/2000/svg">
<path d="M12.6009 16C12.4914 15.9299 12.3872 15.852 12.2889 15.767C11.5055 14.9903 10.7249 14.2107 9.94686 13.428C9.91222 13.387 9.88112 13.3432 9.85388 13.297L9.79087 13.288C9.76697 13.3367 9.73779 13.3826 9.70387 13.425C9.3432 13.789 8.98088 14.1517 8.61688 14.513C8.56506 14.5795 8.49524 14.6298 8.41574 14.6578C8.33623 14.6859 8.25035 14.6906 8.16827 14.6713C8.08618 14.652 8.01134 14.6097 7.9526 14.5492C7.89387 14.4887 7.85369 14.4126 7.83686 14.33C7.01753 11.876 6.19921 9.42167 5.38188 6.967C5.34557 6.88502 5.33486 6.79399 5.35118 6.70583C5.36749 6.61767 5.41006 6.53649 5.47329 6.47293C5.53653 6.40938 5.61747 6.36641 5.70555 6.34964C5.79362 6.33288 5.88471 6.34312 5.96687 6.379C8.42087 7.19767 10.8752 8.01534 13.3299 8.832C13.4138 8.84881 13.4912 8.88954 13.5525 8.94928C13.6138 9.00903 13.6566 9.08523 13.6756 9.16872C13.6946 9.25221 13.6891 9.33943 13.6597 9.41985C13.6303 9.50027 13.5783 9.57047 13.5099 9.622C13.1525 9.98266 12.7932 10.3413 12.4319 10.698C12.3881 10.7353 12.3413 10.7687 12.2919 10.798C12.3569 10.866 12.3919 10.905 12.4289 10.942L14.8099 13.324C14.8695 13.3661 14.9182 13.4219 14.9517 13.4867C14.9853 13.5516 15.0028 13.6235 15.0028 13.6965C15.0028 13.7695 14.9853 13.8414 14.9517 13.9063C14.9182 13.9711 14.8695 14.0269 14.8099 14.069C14.2479 14.632 13.6859 15.196 13.1199 15.755C13.0188 15.8439 12.9123 15.9264 12.8009 16.002L12.6009 16Z" fill="currentColor"/>
<path d="M0 6.59511C0.0495796 6.484 0.13394 6.39201 0.240362 6.33303C0.346784 6.27404 0.469498 6.25125 0.59 6.2681C1.409 6.2801 2.229 6.2681 3.049 6.2731C3.12302 6.26784 3.19715 6.28152 3.26442 6.31284C3.33169 6.34416 3.38988 6.39209 3.4335 6.45212C3.47712 6.51215 3.50474 6.58229 3.51375 6.65595C3.52276 6.7296 3.51286 6.80434 3.485 6.87311C3.45634 6.95725 3.40143 7.02997 3.32834 7.08055C3.25525 7.13114 3.16784 7.15692 3.079 7.1541C2.201 7.1541 1.323 7.1541 0.444 7.1541C0.345963 7.1506 0.251234 7.11776 0.172075 7.05982C0.0929157 7.00187 0.032971 6.9215 0 6.8291L0 6.59511Z" fill="currentColor"/>
<path d="M2.00345 2.52102C2.11039 2.56233 2.2113 2.61782 2.30345 2.68602C2.92345 3.29469 3.53878 3.90835 4.14945 4.52702C4.19484 4.56637 4.23166 4.61462 4.25765 4.66877C4.28364 4.72293 4.29824 4.78184 4.30055 4.84187C4.30285 4.90189 4.29281 4.96175 4.27105 5.01774C4.24929 5.07373 4.21627 5.12466 4.17404 5.16737C4.1318 5.21009 4.08125 5.24368 4.02551 5.26607C3.96977 5.28846 3.91003 5.29918 3.84998 5.29755C3.78994 5.29592 3.73086 5.28199 3.67642 5.25661C3.62197 5.23124 3.57331 5.19496 3.53345 5.15002C2.91278 4.53469 2.29478 3.91702 1.67945 3.29702C1.61458 3.23601 1.57072 3.156 1.55419 3.06849C1.53766 2.98099 1.54931 2.89049 1.58745 2.81002C1.62504 2.72828 1.68399 2.65819 1.75808 2.60715C1.83218 2.55611 1.91868 2.52601 2.00845 2.52002" fill="currentColor"/>
<path d="M2.06669 10.8799C1.97442 10.8921 1.88062 10.8761 1.79762 10.834C1.71462 10.7919 1.64632 10.7256 1.60169 10.6439C1.56111 10.5708 1.54323 10.4872 1.55036 10.4038C1.55748 10.3205 1.58928 10.2411 1.64169 10.1759C1.68149 10.1264 1.72495 10.0799 1.77169 10.0369C2.34469 9.46392 2.91469 8.88792 3.49369 8.32092C3.5801 8.2372 3.68757 8.17845 3.80469 8.15092C3.88952 8.13241 3.97812 8.14319 4.05603 8.18151C4.13395 8.21983 4.19657 8.28343 4.23369 8.36192C4.27728 8.4389 4.2966 8.52726 4.2891 8.61541C4.28161 8.70356 4.24765 8.7874 4.19169 8.85592C4.17019 8.88226 4.14715 8.9073 4.12269 8.93092C3.52869 9.52492 2.93769 10.1209 2.33869 10.7089C2.25607 10.777 2.16498 10.8342 2.06769 10.8789" fill="currentColor"/>
<path d="M7.65766 5.28692C7.5622 5.29998 7.46505 5.28267 7.37998 5.23744C7.2949 5.19221 7.22622 5.12136 7.18366 5.03492C7.14599 4.96003 7.13149 4.8756 7.142 4.79243C7.15251 4.70926 7.18754 4.6311 7.24265 4.56792C7.29708 4.50521 7.35483 4.44546 7.41565 4.38892C7.97499 3.82959 8.53399 3.27026 9.09265 2.71092C9.14848 2.64568 9.22133 2.5972 9.30307 2.57089C9.38482 2.54459 9.47225 2.54148 9.55565 2.56192C9.62199 2.57948 9.68325 2.61245 9.73444 2.65815C9.78563 2.70384 9.82532 2.76098 9.85027 2.82491C9.87521 2.88883 9.88472 2.95774 9.87801 3.02604C9.8713 3.09433 9.84856 3.16007 9.81165 3.21792C9.77903 3.26631 9.74114 3.31091 9.69866 3.35092C9.11266 3.93792 8.52766 4.52792 7.93566 5.10892C7.85077 5.17961 7.75738 5.23941 7.65766 5.28692" fill="currentColor"/>
<path d="M6.15354 2.77297C6.15354 3.18763 6.15354 3.60197 6.15354 4.01597C6.16191 4.07826 6.15692 4.14163 6.13891 4.20185C6.1209 4.26208 6.09028 4.31778 6.04908 4.36526C6.00789 4.41273 5.95705 4.4509 5.89997 4.47722C5.84289 4.50354 5.78087 4.51741 5.71801 4.51792C5.65515 4.51842 5.5929 4.50553 5.53541 4.48013C5.47791 4.45472 5.42649 4.41736 5.38455 4.37055C5.3426 4.32373 5.31109 4.26853 5.29212 4.2086C5.27316 4.14867 5.26717 4.08539 5.27454 4.02297C5.27454 3.17963 5.27454 2.3363 5.27454 1.49297C5.26725 1.43053 5.27331 1.36727 5.29235 1.30736C5.31139 1.24746 5.34296 1.19229 5.38496 1.14553C5.42696 1.09876 5.47842 1.06147 5.53594 1.03613C5.59346 1.01079 5.65572 0.997981 5.71858 0.998554C5.78143 0.999126 5.84344 1.01307 5.90049 1.03945C5.95754 1.06583 6.00832 1.10406 6.04946 1.15158C6.0906 1.1991 6.12116 1.25483 6.13911 1.31507C6.15705 1.37531 6.16197 1.43868 6.15354 1.50097C6.15354 1.92497 6.15354 2.34897 6.15354 2.77297" fill="currentColor"/>
</svg>
