<svg width="16" height="19" viewBox="0 0 16 19" fill="none" xmlns="http://www.w3.org/2000/svg">
<path d="M5.156 6.32809H9.844C9.96839 6.32809 10.0877 6.27867 10.1756 6.19072C10.2636 6.10277 10.313 5.98347 10.313 5.85909V5.39009C10.313 5.3285 10.3009 5.26751 10.2773 5.21061C10.2537 5.15371 10.2192 5.102 10.1756 5.05845C10.1321 5.0149 10.0804 4.98036 10.0235 4.95679C9.96658 4.93322 9.90559 4.92109 9.844 4.92109H5.156C5.09441 4.92109 5.03342 4.93322 4.97652 4.95679C4.91962 4.98036 4.86792 5.0149 4.82437 5.05845C4.78082 5.102 4.74627 5.15371 4.7227 5.21061C4.69913 5.26751 4.687 5.3285 4.687 5.39009V5.85909C4.687 5.98347 4.73641 6.10277 4.82437 6.19072C4.91232 6.27867 5.03161 6.32809 5.156 6.32809V6.32809ZM4.687 8.67209C4.687 8.79647 4.73641 8.91576 4.82437 9.00372C4.91232 9.09167 5.03161 9.14109 5.156 9.14109H9.844C9.96839 9.14109 10.0877 9.09167 10.1756 9.00372C10.2636 8.91576 10.313 8.79647 10.313 8.67209V8.20009C10.313 8.0757 10.2636 7.95641 10.1756 7.86845C10.0877 7.7805 9.96839 7.73109 9.844 7.73109H5.156C5.03161 7.73109 4.91232 7.7805 4.82437 7.86845C4.73641 7.95641 4.687 8.0757 4.687 8.20009V8.67209ZM7.5 12.2201C7.00688 12.2201 6.52635 12.0644 6.127 11.7751L3.55651e-07 7.34909V13.5931C-0.000131026 13.7778 0.0361393 13.9607 0.106739 14.1314C0.177338 14.3021 0.280882 14.4573 0.411454 14.5879C0.542027 14.7186 0.697067 14.8222 0.867716 14.893C1.03837 14.9637 1.22128 15.0001 1.406 15.0001H13.594C13.7786 15.0001 13.9615 14.9637 14.1321 14.8931C14.3026 14.8224 14.4576 14.7188 14.5882 14.5883C14.7188 14.4577 14.8223 14.3027 14.893 14.1321C14.9636 13.9616 15 13.7787 15 13.5941V7.34909L8.873 11.7751C8.47359 12.0643 7.9931 12.22 7.5 12.2201V12.2201ZM14.461 4.77309C14.202 4.57309 13.956 4.37809 13.594 4.10509V2.81209C13.594 2.43919 13.4459 2.08157 13.1822 1.81789C12.9185 1.55422 12.5609 1.40609 12.188 1.40609H9.915L9.65 1.21409C9.158 0.854086 8.18 -0.00991393 7.5 8.60721e-05C6.82 -0.00991393 5.842 0.854086 5.349 1.21409L5.084 1.40609H2.812C2.43911 1.40609 2.08148 1.55422 1.81781 1.81789C1.55413 2.08157 1.406 2.43919 1.406 2.81209V4.10609C1.044 4.37909 0.798 4.57109 0.539 4.77409C0.3712 4.90552 0.235479 5.07339 0.142101 5.265C0.0487229 5.45661 0.000131307 5.66694 3.55651e-07 5.88009V6.19209L2.812 8.22409V2.81209H12.187V8.22409L15 6.19209V5.88009C15 5.66677 14.9515 5.45624 14.8581 5.26445C14.7647 5.07266 14.6289 4.90463 14.461 4.77309V4.77309Z" fill="currentColor"/>
<path d="M12.7877 18.1557H12.5846H12.3869H12.1894L12.0305 18.0384C12.0049 18.0195 11.9783 18.0016 11.9517 17.9836C11.8679 17.9266 11.7636 17.8557 11.6642 17.7572C11.005 17.1035 10.3503 16.4482 9.71215 15.8086C9.45117 16.071 9.20632 16.3154 8.97029 16.5491C8.75167 16.7656 8.47773 16.8848 8.19893 16.8848C7.76013 16.8848 7.37856 16.5912 7.22684 16.1368C6.83466 14.962 6.44314 13.787 6.05163 12.612C5.65487 11.4213 5.25811 10.2305 4.86068 9.04002C4.72245 8.62608 4.81116 8.22485 5.1041 7.93926C5.29837 7.74993 5.54136 7.6499 5.80689 7.6499C5.9288 7.6499 6.05551 7.67155 6.18349 7.71425C7.35182 8.10399 8.52042 8.49304 9.68903 8.88209C10.8861 9.28061 12.0831 9.67913 13.2799 10.0784C13.6578 10.2045 13.9221 10.477 14.0052 10.8262C14.0891 11.1783 13.9738 11.5449 13.689 11.8319C13.4601 12.0627 13.2184 12.3047 12.9564 12.5654L13.6434 13.2523C14.0761 13.6851 14.5089 14.1178 14.9416 14.5507C15.4253 15.0347 15.4266 15.6348 14.945 16.1167L14.6174 16.4448C14.1913 16.8716 13.7508 17.3129 13.3137 17.7446C13.2169 17.8403 13.1146 17.9131 13.0324 17.9717C13.0044 17.9916 12.9763 18.0115 12.9491 18.0323L12.7877 18.1557Z" fill="white"/>
<path d="M12.5847 17.5556C12.6877 17.4768 12.8006 17.408 12.8922 17.3176C13.4378 16.7787 13.9786 16.235 14.5207 15.6925C14.7669 15.446 14.766 15.2236 14.5173 14.9747C13.7523 14.2094 12.9869 13.4444 12.2219 12.6792C12.1863 12.6436 12.1524 12.6063 12.0897 12.5405C12.1398 12.5062 12.1883 12.4826 12.2246 12.4466C12.5721 12.1021 12.9185 11.7566 13.2632 11.4092C13.5438 11.1264 13.4654 10.7727 13.0901 10.6475C10.725 9.85841 8.35885 9.0723 5.99368 8.28331C5.81718 8.22443 5.65788 8.23737 5.52303 8.36878C5.38346 8.50486 5.3692 8.66819 5.42989 8.84993C6.21952 11.2152 7.00646 13.5814 7.79605 15.9467C7.91887 16.3146 8.27224 16.3959 8.54822 16.1227C8.89925 15.7751 9.2481 15.4253 9.59559 15.0742C9.63146 15.038 9.65179 14.9864 9.67933 14.942C9.69951 14.9448 9.71969 14.9477 9.73987 14.9505C9.76956 14.9929 9.79378 15.0407 9.82977 15.0768C10.5807 15.8296 11.3317 16.5823 12.0867 17.331C12.1746 17.4181 12.2863 17.4813 12.387 17.5556H12.5847ZM12.5847 18.7556H12.387C12.1305 18.7556 11.8807 18.6734 11.6743 18.5211C11.6549 18.5068 11.6346 18.4934 11.6146 18.4797C11.5158 18.4126 11.3806 18.3207 11.2418 18.1832C10.7271 17.6728 10.2153 17.1615 9.71216 16.6577C9.60348 16.7661 9.49717 16.8718 9.39254 16.9754C9.06085 17.3038 8.63701 17.4847 8.19908 17.4847C7.49768 17.4848 6.89272 17.0302 6.65783 16.3268C6.26559 15.1518 5.87404 13.9767 5.48248 12.8016C5.08576 11.6109 4.68904 10.4203 4.29164 9.22991C4.08082 8.59861 4.22799 7.95543 4.68534 7.50955C4.98959 7.21304 5.38788 7.0498 5.80698 7.0498C5.99358 7.0498 6.18419 7.08183 6.37352 7.14501C7.54166 7.53469 8.71015 7.92371 9.87864 8.31272C11.0758 8.71128 12.273 9.10983 13.4699 9.50915C14.0404 9.69949 14.4588 10.1399 14.589 10.6871C14.72 11.2374 14.5428 11.8232 14.1151 12.2544C14.0145 12.3558 13.9115 12.4593 13.8054 12.5656L14.0677 12.828C14.5005 13.2607 14.9333 13.6935 15.366 14.1264C16.0773 14.8382 16.0787 15.831 15.3695 16.5407L15.0421 16.8686C14.6153 17.2961 14.174 17.7382 13.7354 18.1714C13.6043 18.3009 13.4751 18.393 13.3807 18.4602C13.3582 18.4763 13.3355 18.4921 13.3136 18.5089C13.1043 18.6689 12.8482 18.7556 12.5847 18.7556Z" fill="currentColor"/>
</svg>
