<svg width="16" height="13" viewBox="0 0 16 13" fill="none" xmlns="http://www.w3.org/2000/svg">
<path d="M3.48901 8.262H1.24001C1.14131 8.262 1.04357 8.28146 0.952388 8.31926C0.861207 8.35707 0.778373 8.41247 0.708623 8.48232C0.638873 8.55216 0.583576 8.63507 0.545894 8.7263C0.508211 8.81753 0.488883 8.91529 0.489014 9.014V11.267C0.489014 11.4662 0.568137 11.6572 0.708977 11.798C0.849817 11.9389 1.04084 12.018 1.24001 12.018H3.48901C3.68819 12.018 3.87921 11.9389 4.02005 11.798C4.16089 11.6572 4.24001 11.4662 4.24001 11.267V9.014C4.24015 8.91529 4.22082 8.81753 4.18314 8.7263C4.14545 8.63507 4.09016 8.55216 4.02041 8.48232C3.95066 8.41247 3.86782 8.35707 3.77664 8.31926C3.68546 8.28146 3.58772 8.262 3.48901 8.262V8.262ZM2.93001 6.385H7.43701V7.511H8.56401V6.385H13.071V7.511H14.198V6.16C14.198 6.04181 14.1747 5.92478 14.1295 5.81559C14.0843 5.70639 14.018 5.60718 13.9344 5.5236C13.8508 5.44003 13.7516 5.37374 13.6424 5.32851C13.5332 5.28328 13.4162 5.26 13.298 5.26H8.56401V3.76H9.50301C9.6024 3.76001 9.7008 3.74029 9.7925 3.70198C9.88421 3.66368 9.9674 3.60756 10.0373 3.53686C10.1071 3.46617 10.1622 3.38232 10.1995 3.29016C10.2367 3.198 10.2552 3.09938 10.254 3V0.751C10.254 0.551822 10.1749 0.360803 10.0341 0.219963C9.89321 0.079123 9.70219 0 9.50301 0L6.50301 0C6.40439 0 6.30673 0.0194252 6.21562 0.0571665C6.1245 0.0949078 6.04171 0.150226 5.97198 0.219963C5.90224 0.2897 5.84692 0.372489 5.80918 0.463605C5.77144 0.55472 5.75201 0.652377 5.75201 0.751V3C5.75201 3.09862 5.77144 3.19628 5.80918 3.2874C5.84692 3.37851 5.90224 3.4613 5.97198 3.53104C6.04171 3.60077 6.1245 3.65609 6.21562 3.69383C6.30673 3.73157 6.40439 3.751 6.50301 3.751H7.44201V5.251H2.70501C2.46632 5.251 2.2374 5.34582 2.06862 5.5146C1.89984 5.68339 1.80501 5.91231 1.80501 6.151V7.511H2.93001V6.385ZM9.13001 8.263H6.87401C6.67484 8.263 6.48382 8.34212 6.34298 8.48296C6.20214 8.6238 6.12301 8.81482 6.12301 9.014V11.267C6.12301 11.4662 6.20214 11.6572 6.34298 11.798C6.48382 11.9389 6.67484 12.018 6.87401 12.018H9.12701C9.32619 12.018 9.51721 11.9389 9.65805 11.798C9.79889 11.6572 9.87801 11.4662 9.87801 11.267V9.014C9.87815 8.91529 9.85882 8.81753 9.82114 8.7263C9.78345 8.63507 9.72816 8.55216 9.65841 8.48232C9.58866 8.41247 9.50582 8.35707 9.41464 8.31926C9.32346 8.28146 9.22572 8.262 9.12701 8.262L9.13001 8.263ZM14.764 8.263H12.507C12.3078 8.263 12.1168 8.34212 11.976 8.48296C11.8351 8.6238 11.756 8.81482 11.756 9.014V11.267C11.756 11.4662 11.8351 11.6572 11.976 11.798C12.1168 11.9389 12.3078 12.018 12.507 12.018H14.76C14.9592 12.018 15.1502 11.9389 15.2911 11.798C15.4319 11.6572 15.511 11.4662 15.511 11.267V9.014C15.5111 8.91538 15.4919 8.81769 15.4542 8.72653C15.4166 8.63536 15.3614 8.5525 15.2918 8.48267C15.2221 8.41284 15.1394 8.35741 15.0483 8.31955C14.9573 8.28169 14.8596 8.26213 14.761 8.262L14.764 8.263Z" fill="currentColor"/>
</svg>