<svg width="14" height="15" viewBox="0 0 14 15" fill="none" xmlns="http://www.w3.org/2000/svg">
<path d="M6.6599 0C6.6249 0.04 6.5929 0.082 6.5599 0.118L4.3609 2.211C4.3219 2.248 4.2789 2.279 4.2289 2.32L6.5669 4.77L7.3209 4.05L6.3319 3.01C7.4011 2.94221 8.46593 3.19795 9.38771 3.74392C10.3095 4.2899 11.0455 5.10079 11.4999 6.071C12.0734 7.28133 12.1785 8.6611 11.795 9.94433C11.4115 11.2276 10.5665 12.3234 9.42302 13.0206C8.27949 13.7178 6.91836 13.9671 5.60198 13.7203C4.28561 13.4735 3.1072 12.7481 2.2939 11.684C1.85449 11.1274 1.5333 10.487 1.35 9.80195C1.1667 9.1169 1.12516 8.40166 1.2279 7.7C1.3156 6.99643 1.5414 6.3171 1.89234 5.70103C2.24327 5.08496 2.71244 4.54427 3.2729 4.11L2.5619 3.2C1.68626 3.87974 0.996133 4.76929 0.555351 5.7864C0.114568 6.80351 -0.0626435 7.91535 0.0401017 9.01909C0.142847 10.1228 0.522232 11.1828 1.14318 12.1011C1.76412 13.0194 2.60658 13.7663 3.59264 14.2727C4.57871 14.7792 5.67655 15.0288 6.78465 14.9985C7.89275 14.9683 8.97534 14.6591 9.9323 14.0996C10.8893 13.5402 11.6897 12.7484 12.2596 11.7976C12.8295 10.8468 13.1505 9.7677 13.1929 8.66C13.2421 7.74947 13.0956 6.83897 12.7634 5.98978C12.4312 5.14059 11.9209 4.37243 11.2669 3.737C10.6228 3.08383 9.84829 2.57375 8.99384 2.24C8.13938 1.90624 7.22418 1.75632 6.3079 1.8L7.3999 0.759L6.6899 0H6.6599Z" fill="currentColor"/>
<path d="M7.24348 11.086V11.755H6.19349C6.19349 11.592 6.19349 11.428 6.19349 11.265C6.19349 11.165 6.17549 11.115 6.05749 11.095C5.76537 11.0628 5.48379 10.9672 5.23234 10.8151C4.98089 10.6629 4.76562 10.4578 4.60149 10.214C4.52749 10.101 4.47048 9.97702 4.39648 9.84002L5.35849 9.43002C5.56337 9.75445 5.87931 9.99324 6.24734 10.1018C6.61536 10.2104 7.01032 10.1813 7.35849 10.02C7.43325 9.98438 7.50233 9.93788 7.56348 9.88202C7.61598 9.83955 7.65724 9.78483 7.68362 9.72267C7.71001 9.66051 7.7207 9.59282 7.71478 9.52555C7.70885 9.45828 7.68648 9.39351 7.64964 9.33692C7.61279 9.28033 7.5626 9.23366 7.50349 9.20102C7.2648 9.09371 7.01396 9.01581 6.75648 8.96902C6.40448 8.89302 6.04149 8.86902 5.69249 8.78102C5.47876 8.73983 5.27857 8.6463 5.10984 8.5088C4.9411 8.37131 4.80907 8.19414 4.72556 7.99314C4.64205 7.79213 4.60966 7.57356 4.63128 7.35698C4.65291 7.14039 4.72788 6.93255 4.84949 6.75203C4.97028 6.57345 5.12558 6.42084 5.30625 6.3032C5.48692 6.18555 5.68931 6.10525 5.90149 6.06702C6.18949 5.99402 6.19149 6.00302 6.19149 5.70002V5.42603H7.23249V6.00803C7.54228 6.04005 7.83798 6.15389 8.08927 6.33788C8.34056 6.52186 8.53839 6.76937 8.66249 7.05502L7.78849 7.46103C7.5908 7.22226 7.32399 7.0506 7.02477 6.96966C6.72554 6.88872 6.40858 6.90247 6.11749 7.00903C6.06145 7.02605 6.00771 7.04989 5.95749 7.08002C5.88441 7.11513 5.82305 7.17063 5.78082 7.23983C5.73858 7.30903 5.71728 7.38898 5.71949 7.47002C5.72138 7.5497 5.75065 7.6263 5.80237 7.68694C5.85409 7.74759 5.92511 7.78858 6.00349 7.80302C6.27649 7.87202 6.55548 7.92102 6.83448 7.96502C7.24487 8.01152 7.64793 8.10859 8.03448 8.25402C8.25222 8.36377 8.43857 8.52693 8.57611 8.72826C8.71365 8.92959 8.7979 9.16251 8.82098 9.40524C8.84405 9.64797 8.8052 9.89259 8.70805 10.1162C8.61091 10.3399 8.45864 10.5352 8.26549 10.684C7.96127 10.8991 7.60901 11.0364 7.23949 11.084" fill="currentColor"/>
</svg>
