<svg width="17" height="14" viewBox="0 0 17 14" fill="none" xmlns="http://www.w3.org/2000/svg">
<path d="M11.094 13.0228V11.6428C11.094 10.9113 10.8034 10.2098 10.2862 9.69257C9.76898 9.17534 9.06747 8.88477 8.336 8.88477H3.508C2.77653 8.88477 2.07502 9.17534 1.5578 9.69257C1.04057 10.2098 0.75 10.9113 0.75 11.6428V13.0218" stroke="currentColor" stroke-width="1.5" stroke-linecap="round" stroke-linejoin="round"/>
<path d="M8.63807 3.508C8.63807 4.05344 8.47634 4.58663 8.17333 5.04016C7.87032 5.49369 7.43964 5.84719 6.93574 6.05596C6.43184 6.26474 5.87735 6.31942 5.34238 6.21308C4.80741 6.10674 4.31598 5.84417 3.93022 5.45855C3.54447 5.07294 3.28172 4.58161 3.17519 4.04667C3.06866 3.51174 3.12313 2.95723 3.33172 2.45325C3.54032 1.94928 3.89366 1.51847 4.34708 1.21529C4.8005 0.91212 5.33363 0.750198 5.87907 0.75C6.61054 0.75 7.31205 1.04057 7.82927 1.5578C8.3465 2.07502 8.63707 2.77653 8.63707 3.508H8.63807Z" stroke="currentColor" stroke-width="1.5" stroke-linecap="round" stroke-linejoin="round"/>
<path d="M13.6816 4.13867V8.27667" stroke="currentColor" stroke-width="1.5" stroke-linecap="round" stroke-linejoin="round"/>
<path d="M15.7503 6.20508H11.6123" stroke="currentColor" stroke-width="1.5" stroke-linecap="round" stroke-linejoin="round"/>
</svg>
