<svg width="12" height="12" viewBox="0 0 12 12" fill="none" xmlns="http://www.w3.org/2000/svg">
<path d="M3.414 3.41394C3.69377 3.13426 3.88431 2.77789 3.96153 2.38991C4.03875 2.00194 3.99918 1.59977 3.84782 1.23428C3.69646 0.868797 3.44012 0.556404 3.1112 0.336615C2.78229 0.116825 2.39559 -0.000488281 2 -0.000488281C1.60441 -0.000488281 1.21771 0.116825 0.888798 0.336615C0.559886 0.556404 0.303542 0.868797 0.152184 1.23428C0.000826538 1.59977 -0.0387449 2.00194 0.0384745 2.38991C0.115694 2.77789 0.306235 3.13426 0.586001 3.41394C0.961056 3.78888 1.46967 3.99951 2 3.99951C2.53033 3.99951 3.03895 3.78888 3.414 3.41394V3.41394ZM11.414 8.58594C11.1343 8.30617 10.778 8.11563 10.39 8.03841C10.002 7.96119 9.59983 8.00076 9.23435 8.15212C8.86886 8.30348 8.55647 8.55982 8.33668 8.88874C8.11689 9.21765 7.99957 9.60435 7.99957 9.99994C7.99957 10.3955 8.11689 10.7822 8.33668 11.1111C8.55647 11.4401 8.86886 11.6964 9.23435 11.8478C9.59983 11.9991 10.002 12.0387 10.39 11.9615C10.778 11.8842 11.1343 11.6937 11.414 11.4139C11.7889 11.0389 11.9996 10.5303 11.9996 9.99994C11.9996 9.46961 11.7889 8.96099 11.414 8.58594V8.58594ZM11.353 1.35394L10.646 0.646939C10.4585 0.459468 10.2042 0.354153 9.939 0.354153C9.67384 0.354153 9.41953 0.459468 9.232 0.646939L0.646001 9.23294C0.45853 9.42047 0.353214 9.67477 0.353214 9.93994C0.353214 10.2051 0.45853 10.4594 0.646001 10.6469L1.353 11.3539C1.54053 11.5414 1.79484 11.6467 2.06 11.6467C2.32517 11.6467 2.57947 11.5414 2.767 11.3539L11.353 2.76794C11.446 2.67507 11.5197 2.56478 11.5701 2.44338C11.6204 2.32198 11.6463 2.19185 11.6463 2.06044C11.6463 1.92902 11.6204 1.7989 11.5701 1.6775C11.5197 1.5561 11.446 1.44581 11.353 1.35294V1.35394Z" fill="currentColor"/>
</svg>
