<svg width="17" height="15" viewBox="0 0 17 15" fill="none" xmlns="http://www.w3.org/2000/svg">
<path d="M15.553 7.94092H9.01L13.367 12.2999C13.4468 12.3815 13.5551 12.429 13.6692 12.4326C13.7832 12.4361 13.8943 12.3954 13.979 12.3189C15.0752 11.2917 15.7881 9.92119 16 8.43392C16.0071 8.37173 16.0009 8.30875 15.9818 8.24914C15.9627 8.18953 15.9312 8.13466 15.8893 8.08815C15.8474 8.04163 15.7961 8.00455 15.7389 7.97934C15.6816 7.95413 15.6196 7.94138 15.557 7.94192L15.553 7.94092ZM15.117 6.15392C15.0054 4.55861 14.3212 3.05732 13.1904 1.92651C12.0596 0.795702 10.5583 0.111508 8.963 -8.06044e-05C8.90277 -0.0026631 8.84265 0.0070446 8.7863 0.0284509C8.72995 0.0498572 8.67855 0.0825137 8.63523 0.12443C8.59191 0.166347 8.55758 0.216645 8.53433 0.272261C8.51108 0.327876 8.4994 0.387643 8.5 0.447919V6.61792H14.67C14.7301 6.61839 14.7898 6.6066 14.8452 6.58328C14.9007 6.55996 14.9508 6.52559 14.9925 6.48227C15.0342 6.43895 15.0667 6.38758 15.0879 6.3313C15.1092 6.27502 15.1187 6.21501 15.116 6.15492L15.117 6.15392ZM7.176 7.94092V1.39992C7.17668 1.33725 7.16403 1.27515 7.13889 1.21774C7.11374 1.16033 7.07667 1.10893 7.03015 1.06694C6.98362 1.02495 6.92869 0.993339 6.86901 0.974197C6.80933 0.955056 6.74627 0.948826 6.684 0.955919C5.06733 1.18432 3.59231 2.00272 2.54291 3.25353C1.49352 4.50435 0.943943 6.09916 0.999995 7.73092C1.08078 9.45289 1.82218 11.0775 3.07003 12.2668C4.31787 13.4562 5.97613 14.1188 7.7 14.1169C9.03798 14.1018 10.3394 13.6782 11.43 12.9029C11.4806 12.865 11.5223 12.8166 11.5524 12.761C11.5825 12.7054 11.6002 12.6439 11.6043 12.5808C11.6084 12.5177 11.5988 12.4545 11.5761 12.3955C11.5534 12.3365 11.5183 12.2831 11.473 12.2389L7.176 7.94092Z" fill="currentColor"/>
</svg>
