<svg width="15" height="13" viewBox="0 0 15 13" fill="none" xmlns="http://www.w3.org/2000/svg">
<path d="M15 4.609C15.0022 4.36574 14.9407 4.12612 14.8216 3.91401C14.7025 3.7019 14.5299 3.52468 14.321 3.4L7.5 0L0.679 3.4C0.475334 3.53036 0.30687 3.70883 0.188458 3.91967C0.0700463 4.13051 0.00532493 4.36724 0 4.609V11.428C0.00105553 11.8067 0.151949 12.1695 0.41971 12.4373C0.687471 12.7051 1.05033 12.8559 1.429 12.857H13.571C13.9497 12.8559 14.3125 12.7051 14.5803 12.4373C14.8481 12.1695 14.9989 11.8067 15 11.428V4.609ZM7.5 8.035L1.762 4.286L7.5 1.429L13.238 4.286L7.5 8.035Z" fill="currentColor"/>
</svg>
