<svg width="17" height="18" viewBox="0 0 17 18" fill="none" xmlns="http://www.w3.org/2000/svg">
<path d="M11.242 11.8661C11.242 11.0161 11.242 10.1661 11.242 9.31509C11.242 8.93109 11.342 8.8521 11.834 8.8501C12.534 8.8501 13.244 8.8501 13.949 8.8501C14.391 8.8501 14.516 8.9501 14.559 9.2941C14.5642 9.37768 14.5642 9.46151 14.559 9.5451C14.559 11.1018 14.559 12.6588 14.559 14.2161C14.5645 14.3119 14.5611 14.4079 14.549 14.5031C14.498 14.7761 14.321 14.9031 13.964 14.9031C13.2307 14.9078 12.495 14.9078 11.757 14.9031C11.357 14.9031 11.241 14.8031 11.239 14.4891C11.233 13.6151 11.239 12.7401 11.239 11.8661" fill="currentColor"/>
<path d="M10.3241 11.005C10.3161 10.638 10.1241 10.492 9.68213 10.49C8.9928 10.4867 8.30347 10.4867 7.61413 10.49C7.26113 10.49 7.07814 10.622 7.02514 10.896C7.01495 10.982 7.01294 11.0687 7.01913 11.155C7.01913 12.1824 7.01913 13.21 7.01913 14.238C7.01292 14.3357 7.01829 14.4337 7.03513 14.53C7.05952 14.6399 7.12247 14.7373 7.21257 14.8046C7.30266 14.8719 7.41392 14.9047 7.52614 14.897C8.29214 14.905 9.05813 14.897 9.82613 14.897C9.912 14.9053 9.99835 14.8872 10.0736 14.845C10.1488 14.8028 10.2094 14.7386 10.2471 14.661C10.298 14.5495 10.3256 14.4287 10.3281 14.3061C10.3361 13.7681 10.3281 13.2291 10.3281 12.6911C10.3281 12.1281 10.3361 11.565 10.3281 11.003" fill="currentColor"/>
<path d="M6.09173 13.125C6.08673 12.808 5.94373 12.704 5.51473 12.697C5.16273 12.691 4.81473 12.697 4.45873 12.697C4.12173 12.697 3.78573 12.697 3.44873 12.697C2.97073 12.697 2.87273 12.766 2.86873 13.097C2.86407 13.5637 2.86407 14.0303 2.86873 14.497C2.86873 14.797 2.99574 14.892 3.41874 14.897C4.12274 14.9057 4.82674 14.9057 5.53074 14.897C5.93074 14.897 6.08374 14.784 6.08974 14.491C6.09974 14.036 6.09874 13.58 6.08974 13.124" fill="currentColor"/>
<path d="M13.8411 4.16606C13.7231 4.07406 13.6001 3.99506 13.4801 3.91906C13.3901 3.86206 13.3061 3.80806 13.2251 3.75006L13.1441 3.69206C12.965 3.57068 12.7946 3.43703 12.6341 3.29206C12.5797 3.25014 12.5405 3.19161 12.5224 3.12535C12.5044 3.0591 12.5084 2.98877 12.5341 2.92506C12.5731 2.76706 12.8831 2.40506 13.2591 2.96606L13.2681 2.97806C13.3564 3.11848 13.4967 3.21829 13.6584 3.25575C13.82 3.29321 13.9899 3.26529 14.1311 3.17806C14.2059 3.13613 14.2707 3.07844 14.3211 3.00898C14.3714 2.93952 14.4061 2.85995 14.4226 2.77578C14.4392 2.6916 14.4372 2.60484 14.4169 2.52149C14.3966 2.43814 14.3585 2.3602 14.3051 2.29306C14.1325 2.05764 13.9309 1.84496 13.7051 1.66006C13.6761 1.63506 13.6471 1.61206 13.6181 1.59006C13.568 1.55419 13.5224 1.51257 13.4821 1.46606V0.983057C13.4821 0.823927 13.4188 0.671314 13.3063 0.558793C13.1938 0.446271 13.0412 0.383057 12.8821 0.383057C12.7229 0.383057 12.5703 0.446271 12.4578 0.558793C12.3453 0.671314 12.2821 0.823927 12.2821 0.983057V1.44306C12.2096 1.5207 12.1269 1.588 12.0361 1.64306C11.7995 1.79337 11.6037 1.99984 11.4662 2.2441C11.3288 2.48836 11.2538 2.76282 11.2481 3.04306C11.2471 3.31412 11.3143 3.58107 11.4434 3.8194C11.5726 4.05773 11.7595 4.2598 11.9871 4.40706C12.4401 4.71606 12.7801 4.96306 13.0871 5.20706C13.131 5.23875 13.1676 5.27955 13.1943 5.32666C13.2211 5.37377 13.2374 5.42609 13.2421 5.48006C13.2428 5.52778 13.2337 5.57514 13.2154 5.61919C13.197 5.66324 13.1697 5.70303 13.1353 5.73607C13.1009 5.7691 13.06 5.79468 13.0152 5.8112C12.9704 5.82771 12.9227 5.83481 12.8751 5.83206C12.8172 5.82769 12.7608 5.81171 12.7093 5.78508C12.6577 5.75845 12.6121 5.72171 12.5751 5.67706C12.5563 5.65374 12.539 5.62936 12.5231 5.60406C12.4865 5.54492 12.4432 5.49023 12.3941 5.44106C12.2871 5.34238 12.1502 5.28245 12.0051 5.27085C11.8601 5.25924 11.7153 5.29664 11.5941 5.37706C11.4818 5.46528 11.4025 5.58865 11.3687 5.72738C11.335 5.86611 11.3489 6.01214 11.4081 6.14206C11.5361 6.46294 11.7695 6.73064 12.0701 6.90106C12.1541 6.94577 12.228 7.0074 12.2871 7.08206V7.34106C12.2871 7.50019 12.3503 7.6528 12.4628 7.76532C12.5753 7.87784 12.7279 7.94106 12.8871 7.94106C13.0462 7.94106 13.1988 7.87784 13.3113 7.76532C13.4238 7.6528 13.4871 7.50019 13.4871 7.34106V7.08006C13.5459 7.02178 13.6134 6.97288 13.6871 6.93506L13.7301 6.91006C13.9643 6.77069 14.1601 6.57517 14.2999 6.34116C14.4396 6.10715 14.5189 5.84201 14.5305 5.56969C14.5421 5.29737 14.4857 5.02645 14.3664 4.78139C14.2471 4.53633 14.0686 4.32486 13.8471 4.16606" fill="currentColor"/>
<path d="M1.01758 11.776C3.23258 10.566 8.87358 7.02998 10.0176 0.875977" stroke="currentColor" stroke-width="1.5" stroke-miterlimit="10" stroke-linecap="round"/>
<path d="M1.24609 17.012H16.0131" stroke="currentColor" stroke-width="1.5" stroke-miterlimit="10" stroke-linecap="round"/>
</svg>
