<svg width="15" height="15" viewBox="0 0 15 15" fill="none" xmlns="http://www.w3.org/2000/svg">
<path d="M14.865 1.353V4.7L13.491 3.786C13.5396 3.56723 13.5416 3.34067 13.4968 3.12109C13.452 2.90151 13.3614 2.69383 13.231 2.51159C13.1006 2.32935 12.9332 2.17665 12.7398 2.06343C12.5464 1.95021 12.3313 1.87902 12.1085 1.85449C11.8858 1.82997 11.6603 1.85266 11.4469 1.9211C11.2335 1.98953 11.037 2.10217 10.87 2.25167C10.703 2.40117 10.5695 2.58417 10.478 2.78875C10.3865 2.99333 10.3391 3.21489 10.339 3.439C10.3383 3.79577 10.4577 4.14239 10.678 4.423L7.828 8.711C7.56071 8.63538 7.27834 8.63065 7.00867 8.69728C6.739 8.76391 6.49132 8.8996 6.29 9.091L4.5 8.055C4.53195 7.83781 4.51873 7.61637 4.46116 7.40453C4.40359 7.19268 4.30291 6.99501 4.16542 6.82387C4.02793 6.65274 3.85659 6.51182 3.66213 6.40995C3.46767 6.30809 3.25428 6.24746 3.03531 6.23186C2.81634 6.21626 2.5965 6.24604 2.38957 6.31931C2.18264 6.39259 1.99306 6.5078 1.8327 6.65772C1.67234 6.80764 1.54466 6.98906 1.45764 7.1906C1.37063 7.39214 1.32615 7.60948 1.327 7.829C1.32654 8.05042 1.37253 8.26947 1.462 8.472L3.69856e-07 9.782V1.353C-0.000131014 1.17537 0.0347426 0.999453 0.102628 0.835305C0.170514 0.671157 0.27008 0.521996 0.395638 0.396345C0.521196 0.270694 0.670284 0.171017 0.834381 0.10301C0.998479 0.0350036 1.17437 -4.85888e-08 1.352 0L13.512 0C13.8708 0 14.215 0.142548 14.4687 0.396285C14.7225 0.650021 14.865 0.994162 14.865 1.353" fill="currentColor"/>
<path d="M12.957 4.66406L14.864 5.93205V13.6481C14.864 14.0069 14.7215 14.351 14.4677 14.6048C14.214 14.8585 13.8698 15.0011 13.511 15.0011H1.352C1.17437 15.0011 0.998479 14.966 0.834381 14.898C0.670284 14.83 0.521196 14.7304 0.395638 14.6047C0.27008 14.4791 0.170514 14.3299 0.102628 14.1658C0.0347426 14.0016 -0.000131014 13.8257 3.69856e-07 13.6481V11.1601L2.151 9.22707C2.4508 9.39166 2.79556 9.45553 3.13443 9.40926C3.47329 9.36298 3.78831 9.20901 4.033 8.97006L5.816 10.0001C5.8035 10.0815 5.79714 10.1637 5.797 10.2461C5.7969 10.4985 5.85673 10.7474 5.97159 10.9723C6.08644 11.1971 6.25302 11.3915 6.45764 11.5394C6.66226 11.6873 6.89907 11.7845 7.14859 11.823C7.3981 11.8615 7.6532 11.8403 7.89291 11.761C8.13261 11.6817 8.35006 11.5467 8.52739 11.3669C8.70471 11.1872 8.83684 10.968 8.9129 10.7272C8.98896 10.4865 9.00678 10.2311 8.9649 9.98213C8.92302 9.73315 8.82264 9.49767 8.672 9.29506L11.536 4.98706C11.7816 5.04987 12.0386 5.05344 12.2858 4.99745C12.533 4.94147 12.7634 4.82753 12.958 4.66505" fill="currentColor"/>
</svg>
