<svg width="18" height="11" viewBox="0 0 18 11" fill="none" xmlns="http://www.w3.org/2000/svg">
<path d="M17.446 5.1301L14.2 0.609098C14.058 0.417796 13.8726 0.262868 13.6592 0.157011C13.4457 0.051154 13.2102 -0.00261927 12.972 9.80965e-05H4.721C4.48292 -0.00246074 4.24763 0.0513883 4.03436 0.157239C3.8211 0.263089 3.63592 0.417933 3.494 0.609098L0.248 5.1301C0.0877572 5.35082 0.000996627 5.61635 0 5.8891L0 9.5811C0.0145849 9.95787 0.177904 10.3135 0.454182 10.5701C0.730461 10.8267 1.09718 10.9633 1.474 10.9501H16.219C16.5958 10.9633 16.9625 10.8267 17.2388 10.5701C17.5151 10.3135 17.6784 9.95787 17.693 9.5811V5.8891C17.692 5.61635 17.6052 5.35082 17.445 5.1301H17.446ZM4.984 1.8251H12.709L15.33 5.4751H11.55L10.567 7.3001H7.126L6.143 5.4751H2.363L4.984 1.8251V1.8251Z" fill="currentColor"/>
</svg>
