<svg width="17" height="17" viewBox="0 0 17 17" fill="none" xmlns="http://www.w3.org/2000/svg">
<path d="M14.838 4.5C14.8407 4.26083 14.78 4.02521 14.6622 3.81708C14.5443 3.60895 14.3735 3.43572 14.167 3.315L7.419 0L0.671 3.312C0.46922 3.43864 0.302196 3.61359 0.185037 3.82102C0.0678781 4.02845 0.00428139 4.26181 0 4.5V11.153C0.00369525 11.5249 0.154354 11.8802 0.419086 12.1413C0.683818 12.4025 1.04112 12.5483 1.413 12.547H13.425C13.7969 12.5483 14.1542 12.4025 14.4189 12.1413C14.6836 11.8802 14.8343 11.5249 14.838 11.153V4.5ZM7.419 7.839L1.743 4.181L7.419 1.394L13.095 4.181L7.419 7.839Z" fill="currentColor"/>
<path d="M12.9205 15.5988H12.7174H12.5197H12.3222L12.1634 15.4816C12.1377 15.4626 12.1111 15.4447 12.0845 15.4267C12.0007 15.3697 11.8964 15.2988 11.797 15.2003C11.1378 14.5467 10.4831 13.8913 9.84496 13.2517C9.58398 13.5141 9.33913 13.7585 9.1031 13.9922C8.88448 14.2087 8.61054 14.3279 8.33174 14.3279C7.89294 14.328 7.51137 14.0344 7.35965 13.58C6.96747 12.4051 6.57595 11.2301 6.18444 10.0551C5.78768 8.86438 5.39092 7.67364 4.99349 6.48314C4.85526 6.0692 4.94397 5.66797 5.23691 5.38238C5.43118 5.19305 5.67417 5.09302 5.9397 5.09302C6.06161 5.09302 6.18832 5.11467 6.3163 5.15737C7.48463 5.54711 8.65323 5.93616 9.82184 6.32521C11.0189 6.72373 12.2159 7.12225 13.4128 7.52153C13.7906 7.6476 14.055 7.92014 14.1381 8.26929C14.2219 8.62141 14.1066 8.98799 13.8218 9.27502C13.5929 9.50577 13.3512 9.74782 13.0893 10.0085L13.7762 10.6955C14.209 11.1282 14.6417 11.5609 15.0744 11.9938C15.5581 12.4778 15.5594 13.0779 15.0778 13.5598L14.7502 13.8879C14.3242 14.3147 13.8836 14.756 13.4465 15.1877C13.3497 15.2834 13.2474 15.3562 13.1653 15.4148C13.1372 15.4347 13.1091 15.4546 13.0819 15.4755L12.9205 15.5988Z" fill="white"/>
<path d="M12.7175 14.9987C12.8206 14.9199 12.9335 14.8511 13.025 14.7607C13.5706 14.2218 14.1115 13.6781 14.6535 13.1356C14.8997 12.8892 14.8988 12.6667 14.6501 12.4179C13.8851 11.6525 13.1198 10.8875 12.3547 10.1223C12.3192 10.0867 12.2852 10.0494 12.2225 9.98357C12.2726 9.94932 12.3211 9.92571 12.3574 9.88969C12.7049 9.54521 13.0514 9.19972 13.396 8.85234C13.6766 8.56947 13.5982 8.21579 13.223 8.09059C10.8578 7.30153 8.49166 6.51541 6.12649 5.72643C5.94999 5.66754 5.79069 5.68048 5.65584 5.8119C5.51627 5.94797 5.50201 6.1113 5.5627 6.29304C6.35233 8.65834 7.13927 11.0245 7.92886 13.3898C8.05168 13.7577 8.40506 13.839 8.68103 13.5658C9.03206 13.2182 9.38091 12.8684 9.7284 12.5173C9.76427 12.4811 9.7846 12.4295 9.81214 12.3851C9.83232 12.3879 9.8525 12.3908 9.87268 12.3936C9.90237 12.436 9.92659 12.4838 9.96258 12.5199C10.7135 13.2727 11.4645 14.0254 12.2195 14.7741C12.3074 14.8612 12.4191 14.9244 12.5198 14.9987H12.7175ZM12.7175 16.1987H12.5198C12.2633 16.1987 12.0135 16.1165 11.8071 15.9642C11.7877 15.9499 11.7675 15.9365 11.7474 15.9228C11.6486 15.8557 11.5134 15.7638 11.3747 15.6263C10.8599 15.1159 10.3481 14.6047 9.84498 14.1009C9.73629 14.2092 9.62998 14.3149 9.52535 14.4185C9.19366 14.7469 8.76982 14.9278 8.33189 14.9278C7.63049 14.9279 7.02553 14.4734 6.79064 13.7699C6.3984 12.5949 6.00685 11.4198 5.61529 10.2447C5.21857 9.05405 4.82185 7.86343 4.42445 6.67303C4.21363 6.04172 4.3608 5.39855 4.81815 4.95267C5.1224 4.65615 5.52069 4.49292 5.93979 4.49292C6.12639 4.49292 6.317 4.52495 6.50633 4.58813C7.67447 4.97781 8.84296 5.36682 10.0114 5.75583C11.2086 6.15439 12.4058 6.55295 13.6027 6.95227C14.1732 7.14261 14.5916 7.58298 14.7218 8.13026C14.8528 8.68048 14.6756 9.26636 14.2479 9.6975C14.1473 9.79889 14.0443 9.9024 13.9382 10.0087L14.2005 10.2711C14.6333 10.7039 15.0662 11.1366 15.4988 11.5696C16.2101 12.2813 16.2115 13.2741 15.5023 13.9838L15.1749 14.3117C14.7481 14.7392 14.3068 15.1813 13.8683 15.6145C13.7371 15.744 13.6079 15.8361 13.5135 15.9033C13.491 15.9194 13.4683 15.9352 13.4464 15.952C13.2371 16.112 12.981 16.1987 12.7175 16.1987Z" fill="currentColor"/>
</svg>
