<svg width="17" height="14" viewBox="0 0 17 14" fill="none" xmlns="http://www.w3.org/2000/svg">
<path d="M3.3 9.062H0.824C0.605462 9.062 0.395874 9.14881 0.241344 9.30334C0.086814 9.45787 0 9.66746 0 9.886L0 12.357C0 12.5755 0.086814 12.7851 0.241344 12.9397C0.395874 13.0942 0.605462 13.181 0.824 13.181H3.3C3.51854 13.181 3.72813 13.0942 3.88266 12.9397C4.03719 12.7851 4.124 12.5755 4.124 12.357V9.886C4.124 9.66746 4.03719 9.45787 3.88266 9.30334C3.72813 9.14881 3.51854 9.062 3.3 9.062ZM2.677 7H7.62V8.238H8.856V7H13.8V8.238H15.036V6.756C15.0357 6.49378 14.9315 6.24238 14.746 6.05696C14.5606 5.87155 14.3092 5.76726 14.047 5.767H8.856V4.119H9.886C10.1037 4.119 10.3125 4.03288 10.4669 3.87943C10.6213 3.72598 10.7087 3.51767 10.71 3.3V0.824C10.71 0.605462 10.6232 0.395874 10.4687 0.241344C10.3141 0.086814 10.1045 0 9.886 0L6.586 0C6.36746 0 6.15787 0.086814 6.00334 0.241344C5.84881 0.395874 5.762 0.605462 5.762 0.824V3.3C5.762 3.51854 5.84881 3.72813 6.00334 3.88266C6.15787 4.03719 6.36746 4.124 6.586 4.124H7.62V5.767H2.431C2.16878 5.76726 1.91738 5.87155 1.73196 6.05696C1.54655 6.24238 1.44226 6.49378 1.442 6.756V8.238H2.677V7ZM9.477 9.06H7C6.78146 9.06 6.57187 9.14681 6.41734 9.30134C6.26281 9.45587 6.176 9.66546 6.176 9.884V12.355C6.17574 12.4634 6.19686 12.5707 6.23815 12.6709C6.27944 12.7711 6.34009 12.8622 6.41664 12.9389C6.49318 13.0157 6.5841 13.0766 6.68421 13.1181C6.78431 13.1596 6.89162 13.181 7 13.181H9.474C9.69254 13.181 9.90213 13.0942 10.0567 12.9397C10.2112 12.7851 10.298 12.5755 10.298 12.357V9.886C10.298 9.66746 10.2112 9.45787 10.0567 9.30334C9.90213 9.14881 9.69254 9.062 9.474 9.062L9.477 9.06ZM15.656 9.06H13.181C12.9625 9.06 12.7529 9.14681 12.5983 9.30134C12.4438 9.45587 12.357 9.66546 12.357 9.884V12.355C12.357 12.5735 12.4438 12.7831 12.5983 12.9377C12.7529 13.0922 12.9625 13.179 13.181 13.179H15.652C15.8705 13.179 16.0801 13.0922 16.2347 12.9377C16.3892 12.7831 16.476 12.5735 16.476 12.355V9.886C16.476 9.66763 16.3893 9.4582 16.235 9.3037C16.0807 9.1492 15.8714 9.06227 15.653 9.062L15.656 9.06Z" fill="currentColor"/>
</svg>
