<svg width="17" height="17" viewBox="0 0 17 17" fill="none" xmlns="http://www.w3.org/2000/svg">
<path d="M14.27 0.75H2.25C1.85274 0.751841 1.47228 0.910467 1.19137 1.19137C0.910467 1.47228 0.751841 1.85274 0.75 2.25V15.77L3.75 12.77H14.27C14.6673 12.7682 15.0477 12.6095 15.3286 12.3286C15.6095 12.0477 15.7682 11.6673 15.77 11.27V2.25C15.7682 1.85274 15.6095 1.47228 15.3286 1.19137C15.0477 0.910467 14.6673 0.751841 14.27 0.75V0.75Z" stroke="currentColor" stroke-width="1.5" stroke-linecap="round" stroke-linejoin="round"/>
<path d="M7.90469 3.46109L7.12769 5.03709L5.38869 5.29009C5.31833 5.30032 5.25223 5.33003 5.19787 5.37588C5.14351 5.42172 5.10307 5.48186 5.08112 5.54949C5.05916 5.61712 5.05657 5.68955 5.07364 5.75858C5.09071 5.82761 5.12675 5.89048 5.17769 5.94009L6.43669 7.16509L6.13669 8.89609C6.12515 8.96592 6.13329 9.03759 6.1602 9.10306C6.1871 9.16853 6.23172 9.22521 6.28903 9.26674C6.34635 9.30828 6.4141 9.33302 6.48469 9.33821C6.55529 9.34339 6.62593 9.32881 6.68869 9.29609L8.24669 8.48009L9.80169 9.29809C9.86446 9.33081 9.9351 9.34539 10.0057 9.34021C10.0763 9.33502 10.144 9.31028 10.2014 9.26874C10.2587 9.22721 10.3033 9.17053 10.3302 9.10506C10.3571 9.03959 10.3652 8.96792 10.3537 8.89809L10.0537 7.16709L11.3137 5.94009C11.3646 5.89048 11.4007 5.82761 11.4178 5.75858C11.4348 5.68955 11.4322 5.61712 11.4103 5.54949C11.3883 5.48186 11.3479 5.42172 11.2935 5.37588C11.2392 5.33003 11.1731 5.30032 11.1027 5.29009L9.36469 5.03709L8.58769 3.46109C8.5562 3.39742 8.50753 3.34383 8.44719 3.30635C8.38684 3.26888 8.31723 3.24902 8.24619 3.24902C8.17516 3.24902 8.10554 3.26888 8.0452 3.30635C7.98486 3.34383 7.93619 3.39742 7.90469 3.46109V3.46109Z" fill="currentColor"/>
</svg>
