<svg width="16" height="16" viewBox="0 0 16 16" fill="none" xmlns="http://www.w3.org/2000/svg">
<path d="M3.33474 10.6791C3.47885 10.8139 3.67055 10.886 3.86778 10.8797C4.065 10.8733 4.25165 10.7889 4.38674 10.6451C4.94774 10.0921 7.77874 7.0691 8.33474 6.5151L8.47674 6.3851L8.64974 6.4981C9.16174 6.8391 9.67074 7.1811 10.1847 7.5201C10.3209 7.62602 10.4908 7.67927 10.6631 7.67009C10.8354 7.6609 10.9986 7.5899 11.1227 7.4701C11.8934 6.7081 12.6601 5.94143 13.4227 5.1701C13.5086 5.0843 13.5699 4.97716 13.6005 4.85974C13.6311 4.74231 13.6298 4.61885 13.5967 4.5021C13.5709 4.37144 13.5087 4.25075 13.4172 4.15395C13.3257 4.05716 13.2087 3.98822 13.0797 3.9551C12.9475 3.91277 12.8059 3.9091 12.6716 3.94453C12.5373 3.97997 12.4159 4.05302 12.3217 4.1551L10.5327 5.9461L10.3587 5.8331C9.84274 5.4891 9.32774 5.1431 8.80874 4.8021C8.67371 4.6993 8.50652 4.64788 8.33705 4.65704C8.16759 4.6662 8.00691 4.73534 7.88374 4.8521C7.10174 5.6191 4.04574 8.8621 3.27774 9.6441C3.18969 9.73501 3.12901 9.84889 3.10266 9.97268C3.07631 10.0965 3.08535 10.2252 3.12874 10.3441C3.16583 10.4695 3.23473 10.5832 3.32874 10.6741" fill="currentColor"/>
<path d="M15.9819 2.02109C16.0138 1.87033 15.9997 1.71346 15.9414 1.57081C15.8831 1.42816 15.7833 1.30632 15.6549 1.22109V1.22109C15.5229 1.1655 15.3827 1.13173 15.2399 1.12109C14.8459 1.13409 12.4979 1.36809 12.1099 1.42109C11.9254 1.45308 11.7598 1.55333 11.6459 1.70189C11.532 1.85045 11.4783 2.03644 11.4953 2.22285C11.5123 2.40927 11.5989 2.58244 11.7377 2.70793C11.8766 2.83342 12.0577 2.90202 12.2449 2.90009C12.5109 2.88609 13.6449 2.77909 14.4839 2.69309C14.4539 3.54209 14.4259 4.92109 14.4309 5.21209C14.4393 5.39971 14.5183 5.57723 14.652 5.7091C14.7857 5.84097 14.9643 5.91747 15.152 5.92329C15.3398 5.9291 15.5228 5.8638 15.6644 5.74046C15.806 5.61712 15.8958 5.44483 15.9159 5.25809C15.9439 4.85809 16.0029 2.49609 15.9929 2.09909C15.9903 2.07117 15.986 2.04345 15.9799 2.01609" fill="currentColor"/>
<path d="M15.421 14.525C15.3221 14.5074 15.2215 14.5007 15.121 14.505H14.209V14.492H2.49303V3.66697V1.69997C2.48238 1.52084 2.4076 1.35152 2.28236 1.223C2.15713 1.09447 1.98981 1.01533 1.81102 1.00003C1.63222 0.984739 1.45389 1.03432 1.30865 1.13971C1.16341 1.2451 1.06096 1.39925 1.02003 1.57397C1.0023 1.67192 0.995263 1.7715 0.999034 1.87097V15.3C1.00675 15.4594 1.06615 15.612 1.16826 15.7347C1.27037 15.8573 1.40965 15.9435 1.56503 15.98C1.65735 15.9969 1.75125 16.0036 1.84503 16H15.291C15.4698 15.9893 15.6387 15.9148 15.7672 15.79C15.8956 15.6652 15.9749 15.4984 15.9906 15.32C16.0064 15.1416 15.9575 14.9635 15.853 14.8182C15.7484 14.6728 15.5951 14.5698 15.421 14.528" fill="currentColor"/>
</svg>
