<svg width="15" height="15" viewBox="0 0 15 15" fill="none" xmlns="http://www.w3.org/2000/svg">
<path d="M5.156 6.32809H9.844C9.96839 6.32809 10.0877 6.27867 10.1756 6.19072C10.2636 6.10277 10.313 5.98347 10.313 5.85909V5.39009C10.313 5.3285 10.3009 5.26751 10.2773 5.21061C10.2537 5.15371 10.2192 5.102 10.1756 5.05845C10.1321 5.0149 10.0804 4.98036 10.0235 4.95679C9.96658 4.93322 9.90559 4.92109 9.844 4.92109H5.156C5.09441 4.92109 5.03342 4.93322 4.97652 4.95679C4.91962 4.98036 4.86792 5.0149 4.82437 5.05845C4.78082 5.102 4.74627 5.15371 4.7227 5.21061C4.69913 5.26751 4.687 5.3285 4.687 5.39009V5.85909C4.687 5.98347 4.73641 6.10277 4.82437 6.19072C4.91232 6.27867 5.03161 6.32809 5.156 6.32809V6.32809ZM4.687 8.67209C4.687 8.79647 4.73641 8.91576 4.82437 9.00372C4.91232 9.09167 5.03161 9.14109 5.156 9.14109H9.844C9.96839 9.14109 10.0877 9.09167 10.1756 9.00372C10.2636 8.91576 10.313 8.79647 10.313 8.67209V8.20009C10.313 8.0757 10.2636 7.95641 10.1756 7.86845C10.0877 7.7805 9.96839 7.73109 9.844 7.73109H5.156C5.03161 7.73109 4.91232 7.7805 4.82437 7.86845C4.73641 7.95641 4.687 8.0757 4.687 8.20009V8.67209ZM7.5 12.2201C7.00688 12.2201 6.52635 12.0644 6.127 11.7751L3.55651e-07 7.34909V13.5931C-0.000131026 13.7778 0.0361393 13.9607 0.106739 14.1314C0.177338 14.3021 0.280882 14.4573 0.411454 14.5879C0.542027 14.7186 0.697067 14.8222 0.867716 14.893C1.03837 14.9637 1.22128 15.0001 1.406 15.0001H13.594C13.7786 15.0001 13.9615 14.9637 14.1321 14.8931C14.3026 14.8224 14.4576 14.7188 14.5882 14.5883C14.7188 14.4577 14.8223 14.3027 14.893 14.1321C14.9636 13.9616 15 13.7787 15 13.5941V7.34909L8.873 11.7751C8.47359 12.0643 7.9931 12.22 7.5 12.2201V12.2201ZM14.461 4.77309C14.202 4.57309 13.956 4.37809 13.594 4.10509V2.81209C13.594 2.43919 13.4459 2.08157 13.1822 1.81789C12.9185 1.55422 12.5609 1.40609 12.188 1.40609H9.915L9.65 1.21409C9.158 0.854086 8.18 -0.00991393 7.5 8.60721e-05C6.82 -0.00991393 5.842 0.854086 5.349 1.21409L5.084 1.40609H2.812C2.43911 1.40609 2.08148 1.55422 1.81781 1.81789C1.55413 2.08157 1.406 2.43919 1.406 2.81209V4.10609C1.044 4.37909 0.798 4.57109 0.539 4.77409C0.3712 4.90552 0.235479 5.07339 0.142101 5.265C0.0487229 5.45661 0.000131307 5.66694 3.55651e-07 5.88009V6.19209L2.812 8.22409V2.81209H12.187V8.22409L15 6.19209V5.88009C15 5.66677 14.9515 5.45624 14.8581 5.26445C14.7647 5.07266 14.6289 4.90463 14.461 4.77309V4.77309Z" fill="currentColor"/>
</svg>
