<svg width="17" height="15" viewBox="0 0 17 15" fill="none" xmlns="http://www.w3.org/2000/svg">
<path d="M0 5.32801C0.057 5.00801 0.092 4.68101 0.175 4.36801C0.360836 3.65559 0.686145 2.9871 1.1321 2.40125C1.57805 1.81541 2.13578 1.32384 2.773 0.955013C3.92161 0.256012 5.25754 -0.0725042 6.59934 0.0140863C7.94113 0.100677 9.22376 0.598177 10.273 1.43901C10.434 1.56701 10.573 1.72001 10.734 1.85001C10.8043 1.90901 10.8881 1.94957 10.978 1.96801C11.9838 2.08078 12.9443 2.44764 13.7691 3.03405C14.594 3.62046 15.2561 4.40713 15.693 5.32001C16.1112 6.15127 16.2964 7.08029 16.229 8.00838C16.1616 8.93646 15.844 9.82895 15.31 10.591C15.2759 10.6355 15.2537 10.688 15.2454 10.7434C15.2372 10.7989 15.2433 10.8555 15.263 10.908C15.555 11.8 15.837 12.694 16.12 13.589C16.15 13.6526 16.1653 13.7222 16.1647 13.7925C16.1641 13.8629 16.1476 13.9322 16.1164 13.9953C16.0853 14.0583 16.0403 14.1136 15.9848 14.1568C15.9293 14.2001 15.8648 14.2302 15.796 14.245C15.662 14.2613 15.5262 14.2373 15.406 14.176C14.5393 13.7447 13.6727 13.3057 12.806 12.859C12.7567 12.8318 12.7018 12.8165 12.6455 12.8142C12.5893 12.812 12.5333 12.8228 12.482 12.846C11.4054 13.2855 10.2305 13.4277 9.08014 13.2575C7.9298 13.0874 6.84631 12.6113 5.943 11.879C5.81847 11.7898 5.70383 11.6876 5.601 11.574C5.4687 11.4339 5.29207 11.3439 5.101 11.319C4.63 11.21 4.165 11.072 3.701 10.933C3.65837 10.9159 3.61258 10.9082 3.5667 10.9102C3.52082 10.9123 3.47592 10.9242 3.435 10.945C2.562 11.392 1.689 11.839 0.811 12.276C0.695195 12.3356 0.564565 12.3603 0.435 12.347C0.366144 12.3338 0.301186 12.3051 0.24501 12.2631C0.188833 12.2211 0.142899 12.167 0.110657 12.1047C0.0784164 12.0425 0.0607075 11.9737 0.0588616 11.9036C0.0570157 11.8335 0.0710808 11.7639 0.1 11.7C0.386 10.7953 0.674667 9.89168 0.966 8.98901C0.984358 8.94393 0.990602 8.89483 0.984111 8.84659C0.97762 8.79834 0.958621 8.75264 0.929 8.71401C0.424893 7.98007 0.115233 7.13022 0.029 6.24401C0.0221243 6.20241 0.0124354 6.16131 0 6.12101L0 5.32801ZM14.875 12.843C14.856 12.77 14.846 12.72 14.831 12.672C14.648 12.094 14.473 11.514 14.276 10.941C14.2301 10.8268 14.2161 10.7023 14.2354 10.5808C14.2548 10.4592 14.3069 10.3453 14.386 10.251C14.9686 9.4806 15.2804 8.53926 15.2728 7.57337C15.2652 6.60749 14.9387 5.67117 14.344 4.91001C13.8653 4.32004 13.2707 3.8346 12.5968 3.48375C11.923 3.1329 11.1843 2.92411 10.4265 2.8703C9.66864 2.81649 8.90784 2.91881 8.19117 3.17093C7.4745 3.42305 6.81721 3.81959 6.26 4.33601C5.80509 4.75149 5.44176 5.2572 5.19317 5.8209C4.94458 6.38461 4.8162 6.99393 4.8162 7.61001C4.8162 8.2261 4.94458 8.83542 5.19317 9.39912C5.44176 9.96283 5.80509 10.4685 6.26 10.884C7.05557 11.6189 8.04789 12.1064 9.11584 12.2868C10.1838 12.4672 11.2812 12.3328 12.274 11.9C12.3988 11.8344 12.5383 11.8018 12.6792 11.8055C12.8202 11.8092 12.9578 11.8489 13.079 11.921C13.662 12.238 14.26 12.528 14.879 12.84M9.324 1.91501C9.258 1.87001 9.194 1.82501 9.124 1.78401C8.3823 1.3239 7.54115 1.04821 6.671 0.980013C5.95709 0.90585 5.23556 0.974938 4.5487 1.18323C3.86184 1.39152 3.22347 1.73482 2.671 2.19301C2.11708 2.62179 1.67274 3.17581 1.37445 3.80961C1.07615 4.4434 0.932402 5.1389 0.955 5.83901C0.972757 6.75945 1.28856 7.6493 1.855 8.37501C1.9277 8.45976 1.97612 8.5626 1.99513 8.67263C2.01415 8.78266 2.00304 8.89578 1.963 9.00001C1.77 9.58001 1.588 10.164 1.402 10.746C1.383 10.804 1.371 10.864 1.349 10.946C1.975 10.628 2.581 10.333 3.174 10.013C3.28537 9.94315 3.41347 9.90452 3.5449 9.90118C3.67632 9.89784 3.80623 9.9299 3.921 9.99401C4.12621 10.0864 4.33617 10.1678 4.55 10.238C4.501 10.138 4.474 10.09 4.45 10.038C4.12112 9.41192 3.92435 8.72494 3.87188 8.01968C3.81942 7.31441 3.91238 6.60588 4.145 5.93801C4.44897 5.03807 4.96932 4.22655 5.66032 3.57478C6.35133 2.923 7.19184 2.45092 8.108 2.20001C8.497 2.07401 8.908 2.01201 9.324 1.91701" fill="currentColor"/>
<path d="M8.58671 7.60799C8.5873 7.7021 8.55993 7.79427 8.50805 7.8728C8.45617 7.95133 8.38214 8.01268 8.29534 8.04906C8.20854 8.08544 8.1129 8.09522 8.02053 8.07715C7.92817 8.05908 7.84325 8.01398 7.77656 7.94757C7.70987 7.88116 7.6644 7.79644 7.64594 7.70415C7.62748 7.61186 7.63686 7.51617 7.67288 7.42922C7.70889 7.34226 7.76992 7.26798 7.84823 7.21578C7.92654 7.16357 8.01859 7.13579 8.11271 7.13599C8.23752 7.13778 8.35675 7.18803 8.4452 7.27611C8.53365 7.36418 8.58439 7.48319 8.58671 7.60799Z" fill="currentColor"/>
<path d="M12.3895 7.61306C12.3889 7.70717 12.3603 7.79898 12.3074 7.87684C12.2546 7.9547 12.1797 8.0151 12.0925 8.05037C12.0052 8.08565 11.9095 8.09421 11.8173 8.07497C11.7252 8.05573 11.6409 8.00956 11.575 7.94231C11.5092 7.87506 11.4648 7.78977 11.4475 7.69726C11.4302 7.60474 11.4408 7.50919 11.478 7.4227C11.5151 7.33622 11.577 7.2627 11.656 7.21149C11.735 7.16028 11.8273 7.13368 11.9214 7.13506C12.0462 7.13843 12.1648 7.19018 12.2522 7.27938C12.3395 7.36858 12.3887 7.48823 12.3895 7.61306Z" fill="currentColor"/>
<path d="M10.4891 7.61201C10.4889 7.70613 10.4607 7.79807 10.4082 7.87616C10.3556 7.95424 10.2811 8.01496 10.194 8.05061C10.1069 8.08626 10.0111 8.09522 9.91893 8.07637C9.82672 8.05752 9.74218 8.0117 9.67606 7.94473C9.60993 7.87776 9.5652 7.79266 9.54752 7.70022C9.52984 7.60778 9.54002 7.51216 9.57677 7.42552C9.61352 7.33887 9.67518 7.2651 9.75392 7.21356C9.83267 7.16201 9.92495 7.13502 10.0191 7.13601C10.1439 7.13886 10.2627 7.19012 10.3504 7.27894C10.4381 7.36776 10.4878 7.48719 10.4891 7.61201" fill="currentColor"/>
</svg>
