<svg width="15" height="17" viewBox="0 0 15 17" fill="none" xmlns="http://www.w3.org/2000/svg">
<path d="M0.75 3.75H14.25" stroke="currentColor" stroke-width="1.5" stroke-linecap="round" stroke-linejoin="round"/>
<path d="M12.5648 3.75V14.25C12.5717 14.6408 12.4232 15.0183 12.1519 15.2996C11.8805 15.5809 11.5086 15.7429 11.1178 15.75H3.88278C3.49201 15.7429 3.12005 15.5809 2.8487 15.2996C2.57735 15.0183 2.42882 14.6408 2.43578 14.25V3.75M4.60578 3.75V2.25C4.59882 1.85922 4.74735 1.48168 5.0187 1.20039C5.29005 0.919103 5.66201 0.757097 6.05278 0.75H8.94678C9.33755 0.757097 9.70951 0.919103 9.98086 1.20039C10.2522 1.48168 10.4007 1.85922 10.3938 2.25V3.75" stroke="currentColor" stroke-width="1.5" stroke-linecap="round" stroke-linejoin="round"/>
<path d="M6 7.14307V12.2001" stroke="currentColor" stroke-width="1.5" stroke-linecap="round" stroke-linejoin="round"/>
<path d="M9 7.14307V12.2001" stroke="currentColor" stroke-width="1.5" stroke-linecap="round" stroke-linejoin="round"/>
</svg>
