<svg width="29" height="33" viewBox="0 0 29 33" fill="none" xmlns="http://www.w3.org/2000/svg">
<path d="M3.08908 8.35107H25.6691L26.2461 17.6191L26.7521 25.8191C26.7948 26.5113 26.6953 27.205 26.4598 27.8574C26.2243 28.5098 25.8577 29.107 25.3827 29.6123C24.9076 30.1177 24.3341 30.5204 23.6975 30.7957C23.0609 31.071 22.3747 31.213 21.6811 31.2131H7.08108C6.38759 31.213 5.70145 31.071 5.06491 30.7958C4.42838 30.5205 3.85493 30.1179 3.37987 29.6127C2.90482 29.1075 2.53821 28.5103 2.30263 27.8581C2.06706 27.2058 1.96749 26.5123 2.01008 25.8201L3.08908 8.35107Z" stroke="currentColor" stroke-width="3" stroke-miterlimit="10" stroke-linecap="round" stroke-linejoin="round"/>
<path d="M2.12106 25.498H26.6501L26.6641 25.751C26.7165 26.4484 26.6244 27.149 26.3936 27.8091C26.1628 28.4692 25.7982 29.0746 25.3227 29.5873C24.8471 30.1 24.2709 30.509 23.63 30.7888C22.9891 31.0685 22.2973 31.213 21.5981 31.213H7.16406C6.4641 31.2125 5.77181 31.0674 5.13059 30.7867C4.48937 30.506 3.91305 30.0959 3.43778 29.5821C2.96251 29.0682 2.59853 28.4617 2.36868 27.8006C2.13883 27.1394 2.04806 26.4379 2.10206 25.74L2.12106 25.498Z" stroke="currentColor" stroke-width="3" stroke-miterlimit="10" stroke-linecap="round" stroke-linejoin="round"/>
<path d="M8.02808 10.2561V8.35109C8.05762 6.68649 8.73962 5.10004 9.92726 3.93329C11.1149 2.76654 12.7132 2.11279 14.3781 2.11279C16.0429 2.11279 17.6412 2.76654 18.8289 3.93329C20.0165 5.10004 20.6985 6.68649 20.7281 8.35109V10.2561" stroke="currentColor" stroke-width="3" stroke-miterlimit="10" stroke-linecap="round" stroke-linejoin="round"/>
</svg>
