<svg width="15" height="15" viewBox="0 0 15 15" fill="none" xmlns="http://www.w3.org/2000/svg">
<path d="M4.26996 5.37305L4.92896 0.998047H1.50096L0.0689561 4.75005C0.024301 4.88453 0.00167553 5.02534 0.0019557 5.16705C0.0725042 5.66872 0.335523 6.12324 0.735324 6.43438C1.13513 6.74553 1.64032 6.88886 2.14396 6.83405C2.61263 6.87407 3.08069 6.75033 3.46835 6.48393C3.85602 6.21752 4.13932 5.82492 4.26996 5.37305ZM7.50096 6.83105C8.00459 6.88586 8.50979 6.74253 8.90959 6.43139C9.30939 6.12024 9.57241 5.66572 9.64296 5.16405C9.64296 5.13005 9.64296 5.09605 9.64296 5.06405L9.21896 0.998047H5.78796L5.36196 5.06305C5.36196 5.09705 5.36196 5.13105 5.36196 5.16305C5.4325 5.66472 5.69552 6.11924 6.09532 6.43038C6.49512 6.74153 7.00032 6.88486 7.50396 6.83005L7.50096 6.83105ZM11.668 7.70305V11.003H3.33396V7.71305C2.95194 7.85048 2.54895 7.92053 2.14296 7.92005C1.98372 7.91541 1.82501 7.89971 1.66796 7.87305V13.164C1.66848 13.473 1.79133 13.7693 2.00964 13.988C2.22795 14.2066 2.52396 14.33 2.83296 14.331H12.168C12.4771 14.33 12.7734 14.2067 12.992 13.9881C13.2106 13.7694 13.3339 13.4732 13.335 13.164V7.87305C13.1774 7.8973 13.0184 7.91099 12.859 7.91405C12.4528 7.91477 12.0496 7.84402 11.668 7.70505V7.70305ZM14.935 4.74805L13.501 0.998047H10.073L10.731 5.37305C10.86 5.82654 11.1431 6.22088 11.5315 6.48825C11.9199 6.75562 12.3893 6.87931 12.859 6.83805C13.3626 6.89286 13.8678 6.74953 14.2676 6.43839C14.6674 6.12724 14.9304 5.67272 15.001 5.17105C15.0008 5.02938 14.9782 4.88862 14.934 4.75405L14.935 4.74805Z" fill="currentColor"/>
</svg>
