<svg width="17" height="14" viewBox="0 0 17 14" fill="none" xmlns="http://www.w3.org/2000/svg">
<path d="M11.54 12.963V11.617C11.54 10.9009 11.2555 10.2142 10.7492 9.7078C10.2428 9.20146 9.55608 8.91699 8.84 8.91699H3.45C2.73392 8.91699 2.04716 9.20146 1.54081 9.7078C1.03446 10.2142 0.75 10.9009 0.75 11.617V12.966" stroke="currentColor" stroke-width="1.5" stroke-linecap="round" stroke-linejoin="round"/>
<path d="M8.84141 3.52495C8.84141 4.05896 8.68306 4.58098 8.38638 5.02499C8.0897 5.469 7.66801 5.81507 7.17465 6.01943C6.68129 6.22378 6.13841 6.27725 5.61466 6.17307C5.09091 6.06889 4.60982 5.81174 4.23222 5.43414C3.85462 5.05654 3.59747 4.57544 3.49329 4.05169C3.38911 3.52795 3.44258 2.98507 3.64693 2.49171C3.85129 1.99835 4.19736 1.57666 4.64137 1.27998C5.08538 0.983303 5.6074 0.824951 6.14141 0.824951C6.85749 0.824951 7.54425 1.10941 8.0506 1.61576C8.55694 2.12211 8.84141 2.80887 8.84141 3.52495Z" stroke="currentColor" stroke-width="1.5" stroke-linecap="round" stroke-linejoin="round"/>
<path d="M15.5855 12.962V11.609C15.5825 11.0132 15.3824 10.435 15.0165 9.96475C14.6506 9.49446 14.1393 9.15844 13.5625 9.00903" stroke="currentColor" stroke-width="1.5" stroke-linecap="round" stroke-linejoin="round"/>
<path d="M10.8652 0.917969C11.4437 1.06848 11.9559 1.40668 12.3214 1.87956C12.687 2.35243 12.8854 2.93325 12.8854 3.53097C12.8854 4.12869 12.687 4.70951 12.3214 5.18238C11.9559 5.65526 11.4437 5.99346 10.8652 6.14397" stroke="currentColor" stroke-width="1.5" stroke-linecap="round" stroke-linejoin="round"/>
</svg>
