<svg width="15" height="15" viewBox="0 0 15 15" fill="none" xmlns="http://www.w3.org/2000/svg">
<path d="M10.68 4.32C10.2632 3.90117 9.7676 3.56892 9.22184 3.34238C8.67609 3.11584 8.09091 2.99948 7.5 3V7.5L4.32 10.68C4.73198 11.1221 5.22878 11.4767 5.78077 11.7227C6.33277 11.9686 6.92865 12.1009 7.53287 12.1115C8.13709 12.1222 8.73726 12.0111 9.29759 11.7847C9.85792 11.5584 10.3669 11.2215 10.7942 10.7942C11.2215 10.3669 11.5584 9.85791 11.7847 9.29759C12.0111 8.73726 12.1222 8.13708 12.1116 7.53286C12.1009 6.92865 11.9686 6.33277 11.7227 5.78077C11.4767 5.22878 11.1221 4.73197 10.68 4.32ZM7.5 0C6.01664 0 4.5666 0.439867 3.33323 1.26398C2.09986 2.08809 1.13856 3.25943 0.570907 4.62987C0.00324965 6.00032 -0.145275 7.50832 0.144114 8.96318C0.433503 10.418 1.14781 11.7544 2.1967 12.8033C3.2456 13.8522 4.58197 14.5665 6.03683 14.8559C7.49168 15.1453 8.99968 14.9968 10.3701 14.4291C11.7406 13.8614 12.9119 12.9001 13.736 11.6668C14.5601 10.4334 15 8.98336 15 7.5C15 5.51088 14.2098 3.60322 12.8033 2.1967C11.3968 0.790176 9.48913 0 7.5 0V0ZM7.5 13.5C6.31332 13.5 5.15328 13.1481 4.16658 12.4888C3.17989 11.8295 2.41085 10.8925 1.95673 9.7961C1.5026 8.69974 1.38378 7.49334 1.61529 6.32946C1.8468 5.16557 2.41825 4.09647 3.25736 3.25736C4.09648 2.41824 5.16558 1.8468 6.32946 1.61529C7.49335 1.38378 8.69975 1.5026 9.7961 1.95672C10.8925 2.41085 11.8295 3.17988 12.4888 4.16658C13.1481 5.15327 13.5 6.31331 13.5 7.5C13.5 9.0913 12.8679 10.6174 11.7426 11.7426C10.6174 12.8679 9.0913 13.5 7.5 13.5Z" fill="currentColor"/>
</svg>
