<svg xmlns="http://www.w3.org/2000/svg" width="70.18" height="36.353" viewBox="0 0 70.18 36.353"><defs><style>.a{fill:#ff9d00;}.b{fill:#ff9d25;}.c{fill:#3699cf;}.d{fill:#b7bfc9;}.e{fill:#272e47;}</style></defs><path class="a" d="M48.066,10.868a8.1,8.1,0,1,0,8.1,8.1,8.1,8.1,0,0,0-8.1-8.1m0,12.249a4.145,4.145,0,1,1,4.143-4.146,4.145,4.145,0,0,1-4.143,4.146Z" transform="translate(7.813 2.074)"/><path class="b" d="M26.092,22.628a8.1,8.1,0,0,0-.681-8.087.319.319,0,0,1,.032-.4,4.2,4.2,0,0,1,.817-.653.318.318,0,0,0,.127-.4l-1.318-3.073a.32.32,0,0,0-.186-.173.31.31,0,0,0-.254.018,8.235,8.235,0,0,0-2.284,1.795.322.322,0,0,1-.357.082A8.1,8.1,0,1,0,22.434,26.4a.326.326,0,0,1,.322.02.315.315,0,0,1,.139.288,4.169,4.169,0,0,1-4.129,3.8,4.1,4.1,0,0,1-2.483-.825.315.315,0,0,0-.414.03L13.5,32.069a.328.328,0,0,0-.094.238.317.317,0,0,0,.111.23A8.1,8.1,0,0,0,26.094,22.9a.317.317,0,0,1,0-.273m-7.329.688a4.145,4.145,0,1,1,4.143-4.146,4.145,4.145,0,0,1-4.143,4.146Z" transform="translate(2.219 1.875)"/><path class="b" d="M12.386,26.754l-1.3-3.207a.316.316,0,0,0-.3-.2h-.039A4.15,4.15,0,0,1,6.6,19.2V16.555a.318.318,0,0,1,.317-.317h4.821a.317.317,0,0,0,.317-.317V12.914a.317.317,0,0,0-.316-.318H6.921A.317.317,0,0,1,6.6,12.28h0V9.949a.317.317,0,0,0-.317-.317H2.963a.317.317,0,0,0-.317.317v2.33a.317.317,0,0,1-.316.318H.316A.317.317,0,0,0,0,12.914v3.007a.317.317,0,0,0,.316.317H2.324a.318.318,0,0,1,.317.317V19.2a8.106,8.106,0,0,0,9.5,7.98.316.316,0,0,0,.257-.364.328.328,0,0,0-.019-.067Z" transform="translate(0.18 1.84)"/><path class="c" d="M35.58,18.565A4.076,4.076,0,0,1,35,19.842c-.069.1-.064.145.01.219L37.667,22.7a.088.088,0,0,0,.125,0l0,0a8.07,8.07,0,0,0,1.7-3.494.088.088,0,0,0-.07-.1h0l-3.749-.6a.087.087,0,0,0-.1.058" transform="translate(6.856 3.533)"/><path class="d" d="M38.644,22.94l-2.689-2.668a.086.086,0,0,0-.119,0,4.132,4.132,0,0,1-5.3.193q-.134-.1-.261-.218a.126.126,0,0,0-.163-.007l-.252.2-2.723,2.128a.087.087,0,0,0-.014.123l0,0a8.087,8.087,0,0,0,11.429.45c.029-.025.056-.051.083-.077a.087.087,0,0,0,.006-.123l0,0" transform="translate(5.358 3.859)"/><path class="b" d="M29.984,21.294l-.043-.064a4.145,4.145,0,1,1,7.622-2.263V19.1a.094.094,0,0,0,.079.1l.106.017,3.553.561.083.013a.088.088,0,0,0,.1-.068v-.008a.262.262,0,0,1,.006-.068q.027-.332.029-.672A8.1,8.1,0,1,0,26.8,23.641l.068.093a.1.1,0,0,0,.133.012l.074-.057,2.827-2.212.066-.051a.1.1,0,0,0,.013-.132" transform="translate(5.018 2.078)"/><path class="e" d="M4.767.393A3.476,3.476,0,0,0,3.058,0H.689V6.712H3.058a3.45,3.45,0,0,0,1.714-.4A2.637,2.637,0,0,0,5.858,5.162a4.035,4.035,0,0,0,.378-1.817v-.01a3.929,3.929,0,0,0-.38-1.8A2.624,2.624,0,0,0,4.767.393m.4,2.961a3.167,3.167,0,0,1-.256,1.34,1.812,1.812,0,0,1-.749.832,2.377,2.377,0,0,1-1.2.285H1.731V.9H2.96a2.389,2.389,0,0,1,1.2.282,1.813,1.813,0,0,1,.749.828,3.1,3.1,0,0,1,.258,1.333Z" transform="translate(-0.689)"/><path class="e" d="M9.337,1.754a2.221,2.221,0,0,0-1.184-.3,2.184,2.184,0,0,0-1.191.318,2.128,2.128,0,0,0-.786.893A3.029,3.029,0,0,0,5.9,4V4a3.038,3.038,0,0,0,.276,1.342,2.016,2.016,0,0,0,.8.879,2.371,2.371,0,0,0,1.235.31,2.576,2.576,0,0,0,.81-.12,2.075,2.075,0,0,0,.63-.333,1.881,1.881,0,0,0,.435-.476,1.686,1.686,0,0,0,.229-.554L10.317,5H9.358l-.014.037a.84.84,0,0,1-.212.338,1.107,1.107,0,0,1-.379.242,1.431,1.431,0,0,1-.525.091,1.326,1.326,0,0,1-.7-.18,1.174,1.174,0,0,1-.459-.516,1.85,1.85,0,0,1-.156-.766h3.461V3.906A2.929,2.929,0,0,0,10.1,2.615a2.019,2.019,0,0,0-.766-.861M7.069,2.969A1.23,1.23,0,0,1,8.8,2.441a1.106,1.106,0,0,1,.432.509,1.878,1.878,0,0,1,.133.585H6.931a1.768,1.768,0,0,1,.138-.566" transform="translate(0.307 0.275)"/><path class="e" d="M12.116,5.435h-.024L10.865,1.528H9.8l1.763,4.894h1.084L14.4,1.528H13.34Z" transform="translate(1.051 0.291)"/><path class="e" d="M17.247,1.754a2.221,2.221,0,0,0-1.184-.3,2.184,2.184,0,0,0-1.191.318,2.128,2.128,0,0,0-.786.893A3.029,3.029,0,0,0,13.807,4V4a3.038,3.038,0,0,0,.276,1.342,2.016,2.016,0,0,0,.8.879,2.371,2.371,0,0,0,1.235.31,2.576,2.576,0,0,0,.81-.12,2.075,2.075,0,0,0,.63-.333,1.881,1.881,0,0,0,.435-.476,1.686,1.686,0,0,0,.229-.554L18.227,5h-.959l-.014.037a.84.84,0,0,1-.212.338,1.107,1.107,0,0,1-.379.242,1.431,1.431,0,0,1-.525.091,1.326,1.326,0,0,1-.7-.18,1.174,1.174,0,0,1-.459-.516,1.85,1.85,0,0,1-.156-.766h3.461V3.906a2.929,2.929,0,0,0-.269-1.291,2.019,2.019,0,0,0-.766-.861M14.979,2.969a1.23,1.23,0,0,1,1.728-.528,1.106,1.106,0,0,1,.432.509,1.878,1.878,0,0,1,.133.585H14.841a1.768,1.768,0,0,1,.138-.566" transform="translate(1.817 0.275)"/><rect class="e" width="1.01" height="6.714" transform="translate(20.909)"/><path class="e" d="M23.318,1.754a2.578,2.578,0,0,0-2.437,0,2.1,2.1,0,0,0-.815.874,2.925,2.925,0,0,0-.291,1.349v.01a2.968,2.968,0,0,0,.288,1.357,2.1,2.1,0,0,0,.812.879,2.366,2.366,0,0,0,1.226.31,2.34,2.34,0,0,0,1.218-.31,2.119,2.119,0,0,0,.812-.877,2.949,2.949,0,0,0,.291-1.359V3.98a2.935,2.935,0,0,0-.291-1.354,2.09,2.09,0,0,0-.815-.872m.073,2.235a2.367,2.367,0,0,1-.158.918,1.278,1.278,0,0,1-.447.58,1.159,1.159,0,0,1-.679.2,1.192,1.192,0,0,1-.688-.2,1.291,1.291,0,0,1-.454-.58,2.343,2.343,0,0,1-.161-.918V3.98a2.291,2.291,0,0,1,.163-.911,1.306,1.306,0,0,1,.454-.578,1.162,1.162,0,0,1,.676-.2,1.2,1.2,0,0,1,.684.2,1.257,1.257,0,0,1,.451.578,2.354,2.354,0,0,1,.158.913Z" transform="translate(2.958 0.275)"/><path class="e" d="M27.979,1.759a1.9,1.9,0,0,0-1.085-.31,1.8,1.8,0,0,0-.642.112,1.573,1.573,0,0,0-.518.322,1.7,1.7,0,0,0-.37.5h-.023V1.542H24.326V8.065h1.015V5.613h.018a1.752,1.752,0,0,0,.378.491,1.574,1.574,0,0,0,.528.319,1.818,1.818,0,0,0,.644.112,1.849,1.849,0,0,0,1.071-.312,2.052,2.052,0,0,0,.709-.879,3.272,3.272,0,0,0,.254-1.349v0a3.331,3.331,0,0,0-.251-1.352,2,2,0,0,0-.711-.879m-.07,2.235a2.347,2.347,0,0,1-.154.888,1.263,1.263,0,0,1-.442.579,1.156,1.156,0,0,1-.684.2,1.129,1.129,0,0,1-.673-.206,1.4,1.4,0,0,1-.457-.582,2.139,2.139,0,0,1-.168-.881v0A2.175,2.175,0,0,1,25.5,3.1a1.358,1.358,0,0,1,.457-.581,1.132,1.132,0,0,1,.675-.207,1.171,1.171,0,0,1,.684.2,1.25,1.25,0,0,1,.442.576,2.373,2.373,0,0,1,.154.9Z" transform="translate(3.827 0.275)"/><path class="e" d="M32.11,1.754a2.219,2.219,0,0,0-1.184-.3,2.184,2.184,0,0,0-1.191.318,2.137,2.137,0,0,0-.786.893A3.029,3.029,0,0,0,28.67,4V4a3.054,3.054,0,0,0,.276,1.342,2.023,2.023,0,0,0,.8.879,2.374,2.374,0,0,0,1.235.31,2.576,2.576,0,0,0,.81-.12,2.061,2.061,0,0,0,.63-.333,1.859,1.859,0,0,0,.435-.476,1.661,1.661,0,0,0,.229-.554L33.09,5h-.959l-.014.037a.827.827,0,0,1-.212.338,1.107,1.107,0,0,1-.379.242A1.427,1.427,0,0,1,31,5.707a1.329,1.329,0,0,1-.7-.18,1.182,1.182,0,0,1-.459-.516,1.85,1.85,0,0,1-.156-.766h3.461V3.906a2.929,2.929,0,0,0-.269-1.291,2.019,2.019,0,0,0-.766-.861M29.842,2.969a1.216,1.216,0,0,1,.447-.519,1.279,1.279,0,0,1,1.281-.008A1.1,1.1,0,0,1,32,2.949a1.813,1.813,0,0,1,.133.585H29.7a1.768,1.768,0,0,1,.138-.566" transform="translate(4.655 0.275)"/><path class="e" d="M36.493,2.652h-.019a1.675,1.675,0,0,0-.625-.68,1.731,1.731,0,0,0-.918-.247,1.875,1.875,0,0,0-1.073.31,2.027,2.027,0,0,0-.711.877,3.291,3.291,0,0,0-.254,1.349v0a3.332,3.332,0,0,0,.251,1.352,2.008,2.008,0,0,0,.711.881,1.885,1.885,0,0,0,1.084.312,1.658,1.658,0,0,0,1.535-.927h.019v.829h1.015V0H36.493Zm0,1.614a2.175,2.175,0,0,1-.166.884,1.354,1.354,0,0,1-.455.584,1.122,1.122,0,0,1-.673.207,1.163,1.163,0,0,1-.684-.2,1.279,1.279,0,0,1-.444-.579,2.352,2.352,0,0,1-.156-.9v0a2.318,2.318,0,0,1,.156-.891,1.291,1.291,0,0,1,.444-.576,1.156,1.156,0,0,1,.684-.2,1.112,1.112,0,0,1,.671.207,1.381,1.381,0,0,1,.455.581,2.139,2.139,0,0,1,.168.881Z" transform="translate(5.461)"/><path class="e" d="M42.923,2.035a1.862,1.862,0,0,0-1.071-.31,1.742,1.742,0,0,0-.923.247,1.659,1.659,0,0,0-.622.68h-.023V0h-1.01V6.714h1.01V5.885h.023a1.654,1.654,0,0,0,1.535.927,1.877,1.877,0,0,0,1.08-.312,2.029,2.029,0,0,0,.713-.881,3.291,3.291,0,0,0,.254-1.352v0a3.252,3.252,0,0,0-.256-1.349,2.027,2.027,0,0,0-.711-.877m-.066,2.231a2.329,2.329,0,0,1-.156.9,1.263,1.263,0,0,1-.444.579,1.158,1.158,0,0,1-.684.2,1.125,1.125,0,0,1-.671-.207,1.359,1.359,0,0,1-.457-.584,2.2,2.2,0,0,1-.166-.884v0a2.139,2.139,0,0,1,.168-.881,1.386,1.386,0,0,1,.457-.581,1.115,1.115,0,0,1,.668-.207,1.151,1.151,0,0,1,.684.2,1.274,1.274,0,0,1,.444.576,2.3,2.3,0,0,1,.156.891Z" transform="translate(6.68)"/><path class="e" d="M46.886,1.527,45.651,5.51h-.029l-1.23-3.983H43.3l1.782,4.9L45,6.659a.812.812,0,0,1-.332.474,1.156,1.156,0,0,1-.57.121,1.34,1.34,0,0,1-.188-.012l-.142-.021v.786A2.36,2.36,0,0,0,44,8.04c.1.01.193.013.288.013a2.189,2.189,0,0,0,.827-.139,1.419,1.419,0,0,0,.586-.451,2.88,2.88,0,0,0,.425-.818l1.825-5.118Z" transform="translate(7.45 0.291)"/><path class="b" d="M59.438,8.193a3.3,3.3,0,0,0-1.249-1.248,3.659,3.659,0,0,0-3.547.01,3.393,3.393,0,0,0-1.258,1.262,3.594,3.594,0,0,0,0,3.513A3.424,3.424,0,0,0,56.4,13.456a3.449,3.449,0,0,0,3.029-1.73,3.631,3.631,0,0,0,.01-3.532M59.1,11.537a3.089,3.089,0,0,1-1.125,1.135,3.039,3.039,0,0,1-1.577.419,3.072,3.072,0,0,1-1.579-.414A3.034,3.034,0,0,1,53.7,11.548a3.236,3.236,0,0,1,0-3.148,3.024,3.024,0,0,1,1.125-1.13,3.269,3.269,0,0,1,3.178,0A2.982,2.982,0,0,1,59.112,8.38a3.246,3.246,0,0,1-.01,3.157" transform="translate(10.288 1.238)"/><path class="b" d="M56.74,10.146a1.081,1.081,0,0,0,.537-.383,1.05,1.05,0,0,0,.191-.635.98.98,0,0,0-.348-.792,1.427,1.427,0,0,0-.946-.291H54.913v3.264h.42V10.227h.841a1.742,1.742,0,0,0,.186-.008l.7,1.091H57.5Zm-.59-.275h-.824V8.4h.824a1.038,1.038,0,0,1,.666.191.645.645,0,0,1,.239.537.667.667,0,0,1-.239.549,1.024,1.024,0,0,1-.666.194" transform="translate(10.668 1.535)"/></svg>