<svg width="15" height="12" viewBox="0 0 15 12" fill="none" xmlns="http://www.w3.org/2000/svg">
<path d="M1.5 0H13.5C13.8966 0.00185087 14.2763 0.160703 14.5561 0.441807C14.8359 0.722911 14.993 1.10339 14.993 1.5L15 10.5C15 10.8978 14.842 11.2794 14.5607 11.5607C14.2794 11.842 13.8978 12 13.5 12H1.5C1.10218 12 0.720644 11.842 0.43934 11.5607C0.158035 11.2794 0 10.8978 0 10.5V1.5C0 1.10218 0.158035 0.720644 0.43934 0.43934C0.720644 0.158035 1.10218 0 1.5 0V0ZM5.25 10.5H13.5V7.5H5.25V10.5ZM5.25 6.75H13.5V3.75H5.25V6.75ZM1.5 10.5H4.5V3.75H1.5V10.5Z" fill="currentColor"/>
</svg>
