<svg width="96" height="100" viewBox="0 0 96 100" fill="none" xmlns="http://www.w3.org/2000/svg">
    <path 
        d="M18.8276 86.5517C17.8741 86.5517 16.9221 86.1477 16.1946 85.3394C14.7396 83.7241 14.7396 81.1034 16.1946 79.4882L74.5394 14.6604C75.9944 13.0438 78.3504 13.0438 79.8054 14.6604C81.2604 16.2755 81.2604 18.8961 79.8054 20.5114L21.4606 85.3391C20.7331 86.1477 19.7811 86.5517 18.8276 86.5517ZM84 70.6895C84 60.0412 76.2041 51.3793 66.6207 51.3793C57.0372 51.3793 49.2414 60.0412 49.2414 70.6895C49.2414 81.3377 57.0372 90 66.6207 90C76.2041 90 84 81.3377 84 70.6895ZM76.5519 70.6895C76.5519 76.7738 72.0966 81.7239 66.6209 81.7239C61.1451 81.7239 56.6898 76.7738 56.6898 70.6895C56.6898 64.6055 61.1451 59.6554 66.6209 59.6554C72.0966 59.6554 76.5519 64.6055 76.5519 70.6895ZM46.7586 29.3103C46.7586 18.6621 38.9628 10 29.3793 10C19.7959 10 12 18.6621 12 29.3103C12 39.9586 19.7959 48.6207 29.3793 48.6207C38.9628 48.6207 46.7586 39.9586 46.7586 29.3103ZM39.3103 29.3103C39.3103 35.3945 34.8551 40.3448 29.3793 40.3448C23.9035 40.3448 19.4483 35.3945 19.4483 29.3103C19.4483 23.2262 23.9035 18.2759 29.3793 18.2759C34.8551 18.2759 39.3103 23.2264 39.3103 29.3103Z" 
        fill="#005CAC"
    />
</svg>
