<svg width="15" height="17" viewBox="0 0 15 17" fill="none" xmlns="http://www.w3.org/2000/svg">
<path d="M14.5933 7.92293C14.5716 8.4894 14.4878 9.05177 14.3433 9.59993C14.2095 10.1238 13.9891 10.6217 13.6913 11.0729C13.4054 11.5001 13.0275 11.8579 12.5853 12.1199C12.093 12.3969 11.5349 12.5352 10.9703 12.5199C10.5627 12.5279 10.1601 12.4293 9.80226 12.2339C9.46696 12.0457 9.19302 11.7648 9.01326 11.4249C8.77589 11.7632 8.45837 12.0373 8.0891 12.2228C7.71984 12.4084 7.31034 12.4994 6.89726 12.4879C6.53017 12.4935 6.16775 12.4052 5.84446 12.2312C5.52117 12.0572 5.24777 11.8034 5.05026 11.4939C4.82457 11.1433 4.66841 10.7525 4.59026 10.3429C4.49434 9.84886 4.4741 9.34308 4.53026 8.84293C4.59787 8.21063 4.75163 7.59056 4.98726 6.99993C5.18899 6.48807 5.47382 6.01302 5.83026 5.59393C6.15112 5.21673 6.5468 4.91026 6.99226 4.69393C7.43359 4.48414 7.91662 4.3768 8.40526 4.37993C8.68859 4.37666 8.97157 4.40077 9.25026 4.45193C9.47501 4.49671 9.69476 4.56371 9.90626 4.65193C10.0956 4.73167 10.2776 4.82769 10.4503 4.93893C10.6163 5.04593 10.7833 5.15593 10.9503 5.26893L10.5393 9.99293C10.5105 10.1765 10.5146 10.3638 10.5513 10.5459C10.5783 10.6719 10.6364 10.7891 10.7203 10.8869C10.7936 10.9702 10.8884 11.0318 10.9943 11.0649C11.1575 11.1171 11.3314 11.1272 11.4996 11.0941C11.6678 11.0611 11.8249 10.986 11.9563 10.8759C12.1714 10.695 12.3471 10.4717 12.4723 10.2199C12.6283 9.90689 12.7448 9.57569 12.8193 9.23393C12.908 8.82816 12.9592 8.41508 12.9723 7.99993C13.0212 7.2296 12.9561 6.45627 12.7793 5.70493C12.6281 5.0603 12.3384 4.45631 11.9303 3.93493C11.524 3.43499 11.0014 3.0422 10.4083 2.79093C9.7047 2.50456 8.94964 2.36635 8.19026 2.38493C7.43212 2.37244 6.68143 2.53606 5.99726 2.86293C5.35334 3.18091 4.78494 3.63303 4.33026 4.18893C3.84993 4.7824 3.48037 5.4575 3.23926 6.18193C2.97004 6.98418 2.81551 7.82044 2.78026 8.66593C2.7269 9.51761 2.80583 10.3724 3.01426 11.1999C3.18238 11.8675 3.4989 12.4886 3.94026 13.0169C4.36369 13.5062 4.90318 13.8813 5.50926 14.1079C6.20264 14.3603 6.93651 14.483 7.67426 14.4699C8.15175 14.4648 8.62763 14.4136 9.09526 14.3169C9.32926 14.2699 9.55126 14.2169 9.76326 14.1519C9.95926 14.095 10.1516 14.0262 10.3393 13.9459L10.6393 15.2829C10.4368 15.4124 10.2209 15.5194 9.99526 15.6019C9.74654 15.6914 9.49236 15.7649 9.23426 15.8219C8.71157 15.9385 8.17779 15.9982 7.64226 15.9999C6.65557 16.0171 5.67367 15.859 4.74226 15.5329C3.93714 15.2458 3.2128 14.7695 2.63026 14.1439C2.03907 13.4853 1.60546 12.7009 1.36226 11.8499C1.07012 10.8153 0.950521 9.7395 1.00826 8.66593C1.04544 7.62112 1.25108 6.58917 1.61726 5.60993C1.94913 4.71557 2.44723 3.89209 3.08526 3.18293C3.71244 2.49945 4.47492 1.9539 5.32426 1.58093C6.23892 1.18311 7.22794 0.98503 8.22526 0.999926C9.18399 0.981233 10.137 1.15112 11.0303 1.49993C11.8055 1.81048 12.4992 2.29453 13.0583 2.91493C13.6119 3.54842 14.0214 4.29463 14.2583 5.10193C14.53 6.01627 14.6433 6.97037 14.5933 7.92293V7.92293ZM6.54326 8.84193C6.46393 9.37441 6.52069 9.9183 6.70826 10.4229C6.77273 10.5849 6.88557 10.7231 7.03141 10.8187C7.17725 10.9142 7.34899 10.9625 7.52326 10.9569C7.61843 10.9545 7.7126 10.9369 7.80226 10.9049C7.92082 10.8615 8.03007 10.796 8.12426 10.7119C8.252 10.5976 8.36188 10.4648 8.45026 10.3179C8.57683 10.1089 8.67757 9.88524 8.75026 9.65193L9.07126 5.98093C8.90823 5.93698 8.74011 5.91479 8.57126 5.91493C8.28306 5.90787 7.99769 5.97319 7.74126 6.10493C7.50159 6.23914 7.29942 6.43134 7.15326 6.66393C6.97714 6.94857 6.84562 7.25849 6.76326 7.58293C6.6554 7.99485 6.58149 8.41492 6.54226 8.83893L6.54326 8.84193Z" fill="#3699CF"/>
</svg>
