<svg width="12" height="16" viewBox="0 0 12 16" fill="none" xmlns="http://www.w3.org/2000/svg">
<path d="M5.047 14.7C0.79 8.526 0 7.893 0 5.625C0 4.13316 0.592632 2.70242 1.64752 1.64752C2.70242 0.592632 4.13316 0 5.625 0C7.11684 0 8.54758 0.592632 9.60248 1.64752C10.6574 2.70242 11.25 4.13316 11.25 5.625C11.25 7.893 10.46 8.525 6.203 14.697C6.13875 14.791 6.05252 14.868 5.9518 14.9212C5.85108 14.9743 5.7389 15.0021 5.625 15.0021C5.5111 15.0021 5.39892 14.9743 5.2982 14.9212C5.19748 14.868 5.11125 14.791 5.047 14.697V14.7ZM5.625 7.971C6.08851 7.971 6.54162 7.83358 6.92705 7.5761C7.31247 7.31863 7.61291 6.95266 7.79038 6.52447C7.96785 6.09628 8.01439 5.62508 7.92411 5.17044C7.83382 4.71581 7.61078 4.29814 7.28316 3.97025C6.95555 3.64235 6.53808 3.41895 6.08352 3.32828C5.62896 3.23761 5.15772 3.28375 4.72937 3.46085C4.30103 3.63796 3.93481 3.93808 3.67701 4.32329C3.4192 4.70849 3.2814 5.16149 3.281 5.625C3.281 6.24667 3.52796 6.84287 3.96754 7.28246C4.40713 7.72204 5.00333 7.969 5.625 7.969V7.971Z" fill="#3699CF"/>
</svg>
