<svg width="10" height="15" viewBox="0 0 10 15" fill="none" xmlns="http://www.w3.org/2000/svg">
<path d="M7.969 0H1.406C1.03319 0.000264876 0.675719 0.148482 0.4121 0.4121C0.148482 0.675719 0.000264876 1.03319 0 1.406L0 13.594C0.000264876 13.9668 0.148482 14.3243 0.4121 14.5879C0.675719 14.8515 1.03319 14.9997 1.406 15H7.969C8.34181 14.9997 8.69928 14.8515 8.9629 14.5879C9.22652 14.3243 9.37474 13.9668 9.375 13.594V1.406C9.37474 1.03319 9.22652 0.675719 8.9629 0.4121C8.69928 0.148482 8.34181 0.000264876 7.969 0V0ZM4.688 14.063C4.50244 14.063 4.32105 14.008 4.16677 13.9048C4.0125 13.8017 3.89227 13.6552 3.82131 13.4837C3.75034 13.3123 3.73182 13.1236 3.7681 12.9416C3.80437 12.7597 3.89381 12.5925 4.02509 12.4614C4.15637 12.3302 4.3236 12.241 4.50562 12.2049C4.68764 12.1688 4.87627 12.1875 5.04765 12.2587C5.21903 12.3298 5.36546 12.4502 5.4684 12.6046C5.57135 12.759 5.6262 12.9404 5.626 13.126C5.62613 13.2492 5.60195 13.3712 5.55485 13.485C5.50774 13.5988 5.43864 13.7022 5.3515 13.7892C5.26436 13.8763 5.16089 13.9452 5.04704 13.9922C4.93318 14.0392 4.81117 14.0633 4.688 14.063V14.063ZM7.969 10.9C7.96874 10.9933 7.93157 11.0827 7.86561 11.1486C7.79965 11.2146 7.71028 11.2517 7.617 11.252H1.758C1.66472 11.2517 1.57535 11.2146 1.50939 11.1486C1.44343 11.0827 1.40626 10.9933 1.406 10.9V1.758C1.40626 1.66472 1.44343 1.57535 1.50939 1.50939C1.57535 1.44343 1.66472 1.40626 1.758 1.406H7.617C7.71028 1.40626 7.79965 1.44343 7.86561 1.50939C7.93157 1.57535 7.96874 1.66472 7.969 1.758V10.9Z" fill="#3699CF"/>
</svg>
