<svg width="15" height="15" viewBox="0 0 15 15" fill="none" xmlns="http://www.w3.org/2000/svg">
<path d="M14.572 10.6001L11.291 9.19408C11.1512 9.13366 10.9955 9.1205 10.8475 9.15659C10.6995 9.19269 10.5673 9.27607 10.471 9.39408L9.01701 11.1711C6.73652 10.0958 4.90124 8.26057 3.82601 5.98008L5.60001 4.52708C5.71802 4.43078 5.8014 4.2986 5.8375 4.15062C5.87359 4.00263 5.86043 3.84691 5.80001 3.70708L4.40001 0.425082C4.33398 0.273619 4.21706 0.150019 4.0695 0.0756883C3.92193 0.00135794 3.75302 -0.0190206 3.59201 0.0180821L0.545008 0.721082C0.389668 0.756353 0.251003 0.843551 0.151914 0.968275C0.0528254 1.093 -0.000759781 1.24779 8.14023e-06 1.40708C-0.00012322 3.19226 0.351414 4.95998 1.03454 6.60928C1.71767 8.25859 2.71901 9.75717 3.98137 11.0194C5.24372 12.2817 6.74238 13.2829 8.39173 13.9659C10.0411 14.6489 11.8088 15.0003 13.594 15.0001C13.7533 15.0008 13.9081 14.9473 14.0328 14.8482C14.1575 14.7491 14.2447 14.6104 14.28 14.4551L14.98 11.4081C15.0164 11.2466 14.9953 11.0775 14.9205 10.9299C14.8457 10.7822 14.7217 10.6652 14.57 10.5991L14.572 10.6001Z" fill="#3699CF"/>
</svg>
