<svg width="14" height="14" viewBox="0 0 14 14" fill="none" xmlns="http://www.w3.org/2000/svg">
<path d="M10.0146 12.9999C9.87886 12.9127 9.74953 12.8157 9.62763 12.7099C8.6543 11.7446 7.6843 10.7756 6.71763 9.80294C6.67443 9.75199 6.63562 9.69746 6.60163 9.63994L6.52363 9.62894C6.49394 9.68938 6.45773 9.74639 6.41563 9.79894C5.96763 10.2516 5.5173 10.7023 5.06463 11.1509C5.0001 11.2334 4.91333 11.2957 4.81455 11.3305C4.71577 11.3653 4.60911 11.3711 4.50714 11.3472C4.40517 11.3234 4.31215 11.2708 4.23906 11.1958C4.16597 11.1208 4.11586 11.0265 4.09463 10.9239C3.07663 7.87394 2.05963 4.82328 1.04363 1.77194C0.998417 1.67006 0.985048 1.55689 1.00528 1.44727C1.02551 1.33765 1.07839 1.23671 1.15699 1.15767C1.2356 1.07864 1.33625 1.0252 1.44575 1.00437C1.55526 0.98354 1.6685 0.996289 1.77063 1.04094C4.82063 2.05828 7.87097 3.07461 10.9216 4.08994C11.0259 4.11098 11.1219 4.1617 11.1981 4.23601C11.2742 4.31033 11.3272 4.40506 11.3508 4.50881C11.3744 4.61256 11.3674 4.72091 11.3309 4.82081C11.2943 4.92072 11.2296 5.00793 11.1446 5.07194C10.7 5.51994 10.2536 5.96594 9.80563 6.40994C9.75116 6.45513 9.69295 6.4956 9.63163 6.53094C9.71263 6.61594 9.75663 6.66394 9.80163 6.70994L12.7616 9.66994C12.8357 9.72231 12.8961 9.79169 12.9379 9.87226C12.9796 9.95282 13.0013 10.0422 13.0013 10.1329C13.0013 10.2237 12.9796 10.3131 12.9379 10.3936C12.8961 10.4742 12.8357 10.5436 12.7616 10.5959C12.0616 11.2959 11.3616 11.9959 10.6616 12.6959C10.5349 12.8066 10.4013 12.9091 10.2616 13.0029L10.0146 12.9999Z" fill="#3699CF"/>
</svg>
