<svg width="15" height="15" viewBox="0 0 15 15" fill="none" xmlns="http://www.w3.org/2000/svg">
<path d="M12.753 2.17997C11.4781 0.903916 9.78271 0.134878 7.9828 0.016136C6.18289 -0.102606 4.4012 0.437046 2.96968 1.53455C1.53816 2.63205 0.554441 4.21254 0.201817 5.98156C-0.150808 7.75057 0.151708 9.58746 1.053 11.15L0 15L3.941 13.965C5.03098 14.5576 6.25233 14.8671 7.493 14.865V14.865C9.4711 14.8669 11.3699 14.0873 12.7759 12.6959C14.1819 11.3045 14.9813 9.41397 15 7.43597C14.9893 6.45519 14.7853 5.48615 14.3997 4.58428C14.0142 3.6824 13.4546 2.86539 12.753 2.17997V2.17997ZM7.5 13.617C6.39282 13.618 5.30578 13.3209 4.353 12.757L4.129 12.623L1.792 13.236L2.415 10.956L2.268 10.722C1.77228 9.90822 1.47111 8.99101 1.38796 8.0418C1.30481 7.09258 1.44192 6.13698 1.78861 5.24944C2.13529 4.3619 2.6822 3.56637 3.38672 2.92483C4.09124 2.28329 4.93436 1.81306 5.8504 1.55077C6.76644 1.28847 7.73066 1.24119 8.66797 1.41262C9.60527 1.58404 10.4903 1.96954 11.2543 2.53908C12.0182 3.10862 12.6403 3.84683 13.0721 4.6962C13.504 5.54557 13.7339 6.48317 13.744 7.43597C13.7266 9.08079 13.0612 10.6524 11.8922 11.8096C10.7232 12.9668 9.14492 13.6163 7.5 13.617V13.617ZM10.888 8.98997C10.704 8.89597 9.788 8.44797 9.619 8.38997C9.45 8.33197 9.324 8.29597 9.2 8.48397C9.076 8.67197 8.721 9.08397 8.611 9.21397C8.501 9.34397 8.393 9.35497 8.211 9.26097C7.13953 8.83431 6.24613 8.05417 5.679 7.04997C5.488 6.72197 5.87 6.74997 6.225 6.03497C6.24921 5.9836 6.26033 5.92704 6.25736 5.87033C6.2544 5.81362 6.23744 5.75853 6.208 5.70997C6.161 5.61597 5.789 4.70197 5.635 4.33097C5.481 3.95997 5.335 4.01997 5.216 4.01297C5.097 4.00597 4.985 4.00597 4.861 4.00597C4.76624 4.00795 4.67292 4.0295 4.58688 4.06925C4.50083 4.109 4.42394 4.1661 4.361 4.23697C4.15113 4.43615 3.98496 4.6768 3.87307 4.94364C3.76117 5.21047 3.70598 5.49766 3.711 5.78697C3.77238 6.4873 4.03531 7.15487 4.468 7.70897C5.26546 8.90311 6.35909 9.86994 7.642 10.515C8.31629 10.905 9.09804 11.068 9.872 10.98C10.1306 10.9276 10.3755 10.822 10.5911 10.6698C10.8066 10.5176 10.9881 10.3222 11.124 10.096C11.2452 9.81806 11.2824 9.51076 11.231 9.21197C11.193 9.12697 11.069 9.07997 10.885 8.98997H10.888Z" fill="#3699CF"/>
</svg>
